<?xml version="1.0" encoding="utf-8" standalone="no"?>
<!DOCTYPE svg PUBLIC "-//W3C//DTD SVG 1.1//EN"
  "http://www.w3.org/Graphics/SVG/1.1/DTD/svg11.dtd">
<svg xmlns:xlink="http://www.w3.org/1999/xlink" width="576pt" height="396pt" viewBox="0 0 576 396" xmlns="http://www.w3.org/2000/svg" version="1.1">
 <metadata>
  <rdf:RDF xmlns:dc="http://purl.org/dc/elements/1.1/" xmlns:cc="http://creativecommons.org/ns#" xmlns:rdf="http://www.w3.org/1999/02/22-rdf-syntax-ns#">
   <cc:Work>
    <dc:type rdf:resource="http://purl.org/dc/dcmitype/StillImage"/>
    <dc:date>2023-05-14T11:58:20.219373</dc:date>
    <dc:format>image/svg+xml</dc:format>
    <dc:creator>
     <cc:Agent>
      <dc:title>Matplotlib v3.6.0, https://matplotlib.org/</dc:title>
     </cc:Agent>
    </dc:creator>
   </cc:Work>
  </rdf:RDF>
 </metadata>
 <defs>
  <style type="text/css">*{stroke-linejoin: round; stroke-linecap: butt}</style>
 </defs>
 <g id="figure_1">
  <g id="patch_1">
   <path d="M 0 396 
L 576 396 
L 576 0 
L 0 0 
z
" style="fill: #ffffff"/>
  </g>
  <g id="axes_1">
   <g id="patch_2">
    <path d="M 72 352.44 
L 518.4 352.44 
L 518.4 47.52 
L 72 47.52 
z
" style="fill: #eaeaf2"/>
   </g>
   <g id="matplotlib.axis_1">
    <g id="xtick_1">
     <g id="line2d_1">
      <path d="M 74.701267 352.44 
L 74.701267 47.52 
" clip-path="url(#pd2823a4368)" style="fill: none; stroke: #ffffff; stroke-linecap: round"/>
     </g>
     <g id="line2d_2"/>
     <g id="text_1">
      <!-- 0 -->
      <g style="fill: #262626" transform="translate(71.520017 367.038437) scale(0.1 -0.1)">
       <defs>
        <path id="DejaVuSans-30" d="M 2034 4250 
Q 1547 4250 1301 3770 
Q 1056 3291 1056 2328 
Q 1056 1369 1301 889 
Q 1547 409 2034 409 
Q 2525 409 2770 889 
Q 3016 1369 3016 2328 
Q 3016 3291 2770 3770 
Q 2525 4250 2034 4250 
z
M 2034 4750 
Q 2819 4750 3233 4129 
Q 3647 3509 3647 2328 
Q 3647 1150 3233 529 
Q 2819 -91 2034 -91 
Q 1250 -91 836 529 
Q 422 1150 422 2328 
Q 422 3509 836 4129 
Q 1250 4750 2034 4750 
z
" transform="scale(0.015625)"/>
       </defs>
       <use xlink:href="#DejaVuSans-30"/>
      </g>
     </g>
    </g>
    <g id="xtick_2">
     <g id="line2d_3">
      <path d="M 148.607328 352.44 
L 148.607328 47.52 
" clip-path="url(#pd2823a4368)" style="fill: none; stroke: #ffffff; stroke-linecap: round"/>
     </g>
     <g id="line2d_4"/>
     <g id="text_2">
      <!-- 2000 -->
      <g style="fill: #262626" transform="translate(135.882328 367.038437) scale(0.1 -0.1)">
       <defs>
        <path id="DejaVuSans-32" d="M 1228 531 
L 3431 531 
L 3431 0 
L 469 0 
L 469 531 
Q 828 903 1448 1529 
Q 2069 2156 2228 2338 
Q 2531 2678 2651 2914 
Q 2772 3150 2772 3378 
Q 2772 3750 2511 3984 
Q 2250 4219 1831 4219 
Q 1534 4219 1204 4116 
Q 875 4013 500 3803 
L 500 4441 
Q 881 4594 1212 4672 
Q 1544 4750 1819 4750 
Q 2544 4750 2975 4387 
Q 3406 4025 3406 3419 
Q 3406 3131 3298 2873 
Q 3191 2616 2906 2266 
Q 2828 2175 2409 1742 
Q 1991 1309 1228 531 
z
" transform="scale(0.015625)"/>
       </defs>
       <use xlink:href="#DejaVuSans-32"/>
       <use xlink:href="#DejaVuSans-30" x="63.623047"/>
       <use xlink:href="#DejaVuSans-30" x="127.246094"/>
       <use xlink:href="#DejaVuSans-30" x="190.869141"/>
      </g>
     </g>
    </g>
    <g id="xtick_3">
     <g id="line2d_5">
      <path d="M 222.513389 352.44 
L 222.513389 47.52 
" clip-path="url(#pd2823a4368)" style="fill: none; stroke: #ffffff; stroke-linecap: round"/>
     </g>
     <g id="line2d_6"/>
     <g id="text_3">
      <!-- 4000 -->
      <g style="fill: #262626" transform="translate(209.788389 367.038437) scale(0.1 -0.1)">
       <defs>
        <path id="DejaVuSans-34" d="M 2419 4116 
L 825 1625 
L 2419 1625 
L 2419 4116 
z
M 2253 4666 
L 3047 4666 
L 3047 1625 
L 3713 1625 
L 3713 1100 
L 3047 1100 
L 3047 0 
L 2419 0 
L 2419 1100 
L 313 1100 
L 313 1709 
L 2253 4666 
z
" transform="scale(0.015625)"/>
       </defs>
       <use xlink:href="#DejaVuSans-34"/>
       <use xlink:href="#DejaVuSans-30" x="63.623047"/>
       <use xlink:href="#DejaVuSans-30" x="127.246094"/>
       <use xlink:href="#DejaVuSans-30" x="190.869141"/>
      </g>
     </g>
    </g>
    <g id="xtick_4">
     <g id="line2d_7">
      <path d="M 296.41945 352.44 
L 296.41945 47.52 
" clip-path="url(#pd2823a4368)" style="fill: none; stroke: #ffffff; stroke-linecap: round"/>
     </g>
     <g id="line2d_8"/>
     <g id="text_4">
      <!-- 6000 -->
      <g style="fill: #262626" transform="translate(283.69445 367.038437) scale(0.1 -0.1)">
       <defs>
        <path id="DejaVuSans-36" d="M 2113 2584 
Q 1688 2584 1439 2293 
Q 1191 2003 1191 1497 
Q 1191 994 1439 701 
Q 1688 409 2113 409 
Q 2538 409 2786 701 
Q 3034 994 3034 1497 
Q 3034 2003 2786 2293 
Q 2538 2584 2113 2584 
z
M 3366 4563 
L 3366 3988 
Q 3128 4100 2886 4159 
Q 2644 4219 2406 4219 
Q 1781 4219 1451 3797 
Q 1122 3375 1075 2522 
Q 1259 2794 1537 2939 
Q 1816 3084 2150 3084 
Q 2853 3084 3261 2657 
Q 3669 2231 3669 1497 
Q 3669 778 3244 343 
Q 2819 -91 2113 -91 
Q 1303 -91 875 529 
Q 447 1150 447 2328 
Q 447 3434 972 4092 
Q 1497 4750 2381 4750 
Q 2619 4750 2861 4703 
Q 3103 4656 3366 4563 
z
" transform="scale(0.015625)"/>
       </defs>
       <use xlink:href="#DejaVuSans-36"/>
       <use xlink:href="#DejaVuSans-30" x="63.623047"/>
       <use xlink:href="#DejaVuSans-30" x="127.246094"/>
       <use xlink:href="#DejaVuSans-30" x="190.869141"/>
      </g>
     </g>
    </g>
    <g id="xtick_5">
     <g id="line2d_9">
      <path d="M 370.325511 352.44 
L 370.325511 47.52 
" clip-path="url(#pd2823a4368)" style="fill: none; stroke: #ffffff; stroke-linecap: round"/>
     </g>
     <g id="line2d_10"/>
     <g id="text_5">
      <!-- 8000 -->
      <g style="fill: #262626" transform="translate(357.600511 367.038437) scale(0.1 -0.1)">
       <defs>
        <path id="DejaVuSans-38" d="M 2034 2216 
Q 1584 2216 1326 1975 
Q 1069 1734 1069 1313 
Q 1069 891 1326 650 
Q 1584 409 2034 409 
Q 2484 409 2743 651 
Q 3003 894 3003 1313 
Q 3003 1734 2745 1975 
Q 2488 2216 2034 2216 
z
M 1403 2484 
Q 997 2584 770 2862 
Q 544 3141 544 3541 
Q 544 4100 942 4425 
Q 1341 4750 2034 4750 
Q 2731 4750 3128 4425 
Q 3525 4100 3525 3541 
Q 3525 3141 3298 2862 
Q 3072 2584 2669 2484 
Q 3125 2378 3379 2068 
Q 3634 1759 3634 1313 
Q 3634 634 3220 271 
Q 2806 -91 2034 -91 
Q 1263 -91 848 271 
Q 434 634 434 1313 
Q 434 1759 690 2068 
Q 947 2378 1403 2484 
z
M 1172 3481 
Q 1172 3119 1398 2916 
Q 1625 2713 2034 2713 
Q 2441 2713 2670 2916 
Q 2900 3119 2900 3481 
Q 2900 3844 2670 4047 
Q 2441 4250 2034 4250 
Q 1625 4250 1398 4047 
Q 1172 3844 1172 3481 
z
" transform="scale(0.015625)"/>
       </defs>
       <use xlink:href="#DejaVuSans-38"/>
       <use xlink:href="#DejaVuSans-30" x="63.623047"/>
       <use xlink:href="#DejaVuSans-30" x="127.246094"/>
       <use xlink:href="#DejaVuSans-30" x="190.869141"/>
      </g>
     </g>
    </g>
    <g id="xtick_6">
     <g id="line2d_11">
      <path d="M 444.231572 352.44 
L 444.231572 47.52 
" clip-path="url(#pd2823a4368)" style="fill: none; stroke: #ffffff; stroke-linecap: round"/>
     </g>
     <g id="line2d_12"/>
     <g id="text_6">
      <!-- 10000 -->
      <g style="fill: #262626" transform="translate(428.325322 367.038437) scale(0.1 -0.1)">
       <defs>
        <path id="DejaVuSans-31" d="M 794 531 
L 1825 531 
L 1825 4091 
L 703 3866 
L 703 4441 
L 1819 4666 
L 2450 4666 
L 2450 531 
L 3481 531 
L 3481 0 
L 794 0 
L 794 531 
z
" transform="scale(0.015625)"/>
       </defs>
       <use xlink:href="#DejaVuSans-31"/>
       <use xlink:href="#DejaVuSans-30" x="63.623047"/>
       <use xlink:href="#DejaVuSans-30" x="127.246094"/>
       <use xlink:href="#DejaVuSans-30" x="190.869141"/>
       <use xlink:href="#DejaVuSans-30" x="254.492188"/>
      </g>
     </g>
    </g>
    <g id="xtick_7">
     <g id="line2d_13">
      <path d="M 518.137633 352.44 
L 518.137633 47.52 
" clip-path="url(#pd2823a4368)" style="fill: none; stroke: #ffffff; stroke-linecap: round"/>
     </g>
     <g id="line2d_14"/>
     <g id="text_7">
      <!-- 12000 -->
      <g style="fill: #262626" transform="translate(502.231383 367.038437) scale(0.1 -0.1)">
       <use xlink:href="#DejaVuSans-31"/>
       <use xlink:href="#DejaVuSans-32" x="63.623047"/>
       <use xlink:href="#DejaVuSans-30" x="127.246094"/>
       <use xlink:href="#DejaVuSans-30" x="190.869141"/>
       <use xlink:href="#DejaVuSans-30" x="254.492188"/>
      </g>
     </g>
    </g>
    <g id="text_8">
     <!-- TOT num gaps -->
     <g style="fill: #262626" transform="translate(255.108437 381.476406) scale(0.11 -0.11)">
      <defs>
       <path id="DejaVuSans-54" d="M -19 4666 
L 3928 4666 
L 3928 4134 
L 2272 4134 
L 2272 0 
L 1638 0 
L 1638 4134 
L -19 4134 
L -19 4666 
z
" transform="scale(0.015625)"/>
       <path id="DejaVuSans-4f" d="M 2522 4238 
Q 1834 4238 1429 3725 
Q 1025 3213 1025 2328 
Q 1025 1447 1429 934 
Q 1834 422 2522 422 
Q 3209 422 3611 934 
Q 4013 1447 4013 2328 
Q 4013 3213 3611 3725 
Q 3209 4238 2522 4238 
z
M 2522 4750 
Q 3503 4750 4090 4092 
Q 4678 3434 4678 2328 
Q 4678 1225 4090 567 
Q 3503 -91 2522 -91 
Q 1538 -91 948 565 
Q 359 1222 359 2328 
Q 359 3434 948 4092 
Q 1538 4750 2522 4750 
z
" transform="scale(0.015625)"/>
       <path id="DejaVuSans-20" transform="scale(0.015625)"/>
       <path id="DejaVuSans-6e" d="M 3513 2113 
L 3513 0 
L 2938 0 
L 2938 2094 
Q 2938 2591 2744 2837 
Q 2550 3084 2163 3084 
Q 1697 3084 1428 2787 
Q 1159 2491 1159 1978 
L 1159 0 
L 581 0 
L 581 3500 
L 1159 3500 
L 1159 2956 
Q 1366 3272 1645 3428 
Q 1925 3584 2291 3584 
Q 2894 3584 3203 3211 
Q 3513 2838 3513 2113 
z
" transform="scale(0.015625)"/>
       <path id="DejaVuSans-75" d="M 544 1381 
L 544 3500 
L 1119 3500 
L 1119 1403 
Q 1119 906 1312 657 
Q 1506 409 1894 409 
Q 2359 409 2629 706 
Q 2900 1003 2900 1516 
L 2900 3500 
L 3475 3500 
L 3475 0 
L 2900 0 
L 2900 538 
Q 2691 219 2414 64 
Q 2138 -91 1772 -91 
Q 1169 -91 856 284 
Q 544 659 544 1381 
z
M 1991 3584 
L 1991 3584 
z
" transform="scale(0.015625)"/>
       <path id="DejaVuSans-6d" d="M 3328 2828 
Q 3544 3216 3844 3400 
Q 4144 3584 4550 3584 
Q 5097 3584 5394 3201 
Q 5691 2819 5691 2113 
L 5691 0 
L 5113 0 
L 5113 2094 
Q 5113 2597 4934 2840 
Q 4756 3084 4391 3084 
Q 3944 3084 3684 2787 
Q 3425 2491 3425 1978 
L 3425 0 
L 2847 0 
L 2847 2094 
Q 2847 2600 2669 2842 
Q 2491 3084 2119 3084 
Q 1678 3084 1418 2786 
Q 1159 2488 1159 1978 
L 1159 0 
L 581 0 
L 581 3500 
L 1159 3500 
L 1159 2956 
Q 1356 3278 1631 3431 
Q 1906 3584 2284 3584 
Q 2666 3584 2933 3390 
Q 3200 3197 3328 2828 
z
" transform="scale(0.015625)"/>
       <path id="DejaVuSans-67" d="M 2906 1791 
Q 2906 2416 2648 2759 
Q 2391 3103 1925 3103 
Q 1463 3103 1205 2759 
Q 947 2416 947 1791 
Q 947 1169 1205 825 
Q 1463 481 1925 481 
Q 2391 481 2648 825 
Q 2906 1169 2906 1791 
z
M 3481 434 
Q 3481 -459 3084 -895 
Q 2688 -1331 1869 -1331 
Q 1566 -1331 1297 -1286 
Q 1028 -1241 775 -1147 
L 775 -588 
Q 1028 -725 1275 -790 
Q 1522 -856 1778 -856 
Q 2344 -856 2625 -561 
Q 2906 -266 2906 331 
L 2906 616 
Q 2728 306 2450 153 
Q 2172 0 1784 0 
Q 1141 0 747 490 
Q 353 981 353 1791 
Q 353 2603 747 3093 
Q 1141 3584 1784 3584 
Q 2172 3584 2450 3431 
Q 2728 3278 2906 2969 
L 2906 3500 
L 3481 3500 
L 3481 434 
z
" transform="scale(0.015625)"/>
       <path id="DejaVuSans-61" d="M 2194 1759 
Q 1497 1759 1228 1600 
Q 959 1441 959 1056 
Q 959 750 1161 570 
Q 1363 391 1709 391 
Q 2188 391 2477 730 
Q 2766 1069 2766 1631 
L 2766 1759 
L 2194 1759 
z
M 3341 1997 
L 3341 0 
L 2766 0 
L 2766 531 
Q 2569 213 2275 61 
Q 1981 -91 1556 -91 
Q 1019 -91 701 211 
Q 384 513 384 1019 
Q 384 1609 779 1909 
Q 1175 2209 1959 2209 
L 2766 2209 
L 2766 2266 
Q 2766 2663 2505 2880 
Q 2244 3097 1772 3097 
Q 1472 3097 1187 3025 
Q 903 2953 641 2809 
L 641 3341 
Q 956 3463 1253 3523 
Q 1550 3584 1831 3584 
Q 2591 3584 2966 3190 
Q 3341 2797 3341 1997 
z
" transform="scale(0.015625)"/>
       <path id="DejaVuSans-70" d="M 1159 525 
L 1159 -1331 
L 581 -1331 
L 581 3500 
L 1159 3500 
L 1159 2969 
Q 1341 3281 1617 3432 
Q 1894 3584 2278 3584 
Q 2916 3584 3314 3078 
Q 3713 2572 3713 1747 
Q 3713 922 3314 415 
Q 2916 -91 2278 -91 
Q 1894 -91 1617 61 
Q 1341 213 1159 525 
z
M 3116 1747 
Q 3116 2381 2855 2742 
Q 2594 3103 2138 3103 
Q 1681 3103 1420 2742 
Q 1159 2381 1159 1747 
Q 1159 1113 1420 752 
Q 1681 391 2138 391 
Q 2594 391 2855 752 
Q 3116 1113 3116 1747 
z
" transform="scale(0.015625)"/>
       <path id="DejaVuSans-73" d="M 2834 3397 
L 2834 2853 
Q 2591 2978 2328 3040 
Q 2066 3103 1784 3103 
Q 1356 3103 1142 2972 
Q 928 2841 928 2578 
Q 928 2378 1081 2264 
Q 1234 2150 1697 2047 
L 1894 2003 
Q 2506 1872 2764 1633 
Q 3022 1394 3022 966 
Q 3022 478 2636 193 
Q 2250 -91 1575 -91 
Q 1294 -91 989 -36 
Q 684 19 347 128 
L 347 722 
Q 666 556 975 473 
Q 1284 391 1588 391 
Q 1994 391 2212 530 
Q 2431 669 2431 922 
Q 2431 1156 2273 1281 
Q 2116 1406 1581 1522 
L 1381 1569 
Q 847 1681 609 1914 
Q 372 2147 372 2553 
Q 372 3047 722 3315 
Q 1072 3584 1716 3584 
Q 2034 3584 2315 3537 
Q 2597 3491 2834 3397 
z
" transform="scale(0.015625)"/>
      </defs>
      <use xlink:href="#DejaVuSans-54"/>
      <use xlink:href="#DejaVuSans-4f" x="61.083984"/>
      <use xlink:href="#DejaVuSans-54" x="139.794922"/>
      <use xlink:href="#DejaVuSans-20" x="200.878906"/>
      <use xlink:href="#DejaVuSans-6e" x="232.666016"/>
      <use xlink:href="#DejaVuSans-75" x="296.044922"/>
      <use xlink:href="#DejaVuSans-6d" x="359.423828"/>
      <use xlink:href="#DejaVuSans-20" x="456.835938"/>
      <use xlink:href="#DejaVuSans-67" x="488.623047"/>
      <use xlink:href="#DejaVuSans-61" x="552.099609"/>
      <use xlink:href="#DejaVuSans-70" x="613.378906"/>
      <use xlink:href="#DejaVuSans-73" x="676.855469"/>
     </g>
    </g>
   </g>
   <g id="matplotlib.axis_2">
    <g id="ytick_1">
     <g id="line2d_15">
      <path d="M 72 352.44 
L 518.4 352.44 
" clip-path="url(#pd2823a4368)" style="fill: none; stroke: #ffffff; stroke-linecap: round"/>
     </g>
     <g id="line2d_16"/>
     <g id="text_9">
      <!-- 0 -->
      <g style="fill: #262626" transform="translate(58.6375 356.239219) scale(0.1 -0.1)">
       <use xlink:href="#DejaVuSans-30"/>
      </g>
     </g>
    </g>
    <g id="ytick_2">
     <g id="line2d_17">
      <path d="M 72 311.994318 
L 518.4 311.994318 
" clip-path="url(#pd2823a4368)" style="fill: none; stroke: #ffffff; stroke-linecap: round"/>
     </g>
     <g id="line2d_18"/>
     <g id="text_10">
      <!-- 50 -->
      <g style="fill: #262626" transform="translate(52.275 315.793536) scale(0.1 -0.1)">
       <defs>
        <path id="DejaVuSans-35" d="M 691 4666 
L 3169 4666 
L 3169 4134 
L 1269 4134 
L 1269 2991 
Q 1406 3038 1543 3061 
Q 1681 3084 1819 3084 
Q 2600 3084 3056 2656 
Q 3513 2228 3513 1497 
Q 3513 744 3044 326 
Q 2575 -91 1722 -91 
Q 1428 -91 1123 -41 
Q 819 9 494 109 
L 494 744 
Q 775 591 1075 516 
Q 1375 441 1709 441 
Q 2250 441 2565 725 
Q 2881 1009 2881 1497 
Q 2881 1984 2565 2268 
Q 2250 2553 1709 2553 
Q 1456 2553 1204 2497 
Q 953 2441 691 2322 
L 691 4666 
z
" transform="scale(0.015625)"/>
       </defs>
       <use xlink:href="#DejaVuSans-35"/>
       <use xlink:href="#DejaVuSans-30" x="63.623047"/>
      </g>
     </g>
    </g>
    <g id="ytick_3">
     <g id="line2d_19">
      <path d="M 72 271.548635 
L 518.4 271.548635 
" clip-path="url(#pd2823a4368)" style="fill: none; stroke: #ffffff; stroke-linecap: round"/>
     </g>
     <g id="line2d_20"/>
     <g id="text_11">
      <!-- 100 -->
      <g style="fill: #262626" transform="translate(45.9125 275.347854) scale(0.1 -0.1)">
       <use xlink:href="#DejaVuSans-31"/>
       <use xlink:href="#DejaVuSans-30" x="63.623047"/>
       <use xlink:href="#DejaVuSans-30" x="127.246094"/>
      </g>
     </g>
    </g>
    <g id="ytick_4">
     <g id="line2d_21">
      <path d="M 72 231.102953 
L 518.4 231.102953 
" clip-path="url(#pd2823a4368)" style="fill: none; stroke: #ffffff; stroke-linecap: round"/>
     </g>
     <g id="line2d_22"/>
     <g id="text_12">
      <!-- 150 -->
      <g style="fill: #262626" transform="translate(45.9125 234.902171) scale(0.1 -0.1)">
       <use xlink:href="#DejaVuSans-31"/>
       <use xlink:href="#DejaVuSans-35" x="63.623047"/>
       <use xlink:href="#DejaVuSans-30" x="127.246094"/>
      </g>
     </g>
    </g>
    <g id="ytick_5">
     <g id="line2d_23">
      <path d="M 72 190.65727 
L 518.4 190.65727 
" clip-path="url(#pd2823a4368)" style="fill: none; stroke: #ffffff; stroke-linecap: round"/>
     </g>
     <g id="line2d_24"/>
     <g id="text_13">
      <!-- 200 -->
      <g style="fill: #262626" transform="translate(45.9125 194.456489) scale(0.1 -0.1)">
       <use xlink:href="#DejaVuSans-32"/>
       <use xlink:href="#DejaVuSans-30" x="63.623047"/>
       <use xlink:href="#DejaVuSans-30" x="127.246094"/>
      </g>
     </g>
    </g>
    <g id="ytick_6">
     <g id="line2d_25">
      <path d="M 72 150.211588 
L 518.4 150.211588 
" clip-path="url(#pd2823a4368)" style="fill: none; stroke: #ffffff; stroke-linecap: round"/>
     </g>
     <g id="line2d_26"/>
     <g id="text_14">
      <!-- 250 -->
      <g style="fill: #262626" transform="translate(45.9125 154.010806) scale(0.1 -0.1)">
       <use xlink:href="#DejaVuSans-32"/>
       <use xlink:href="#DejaVuSans-35" x="63.623047"/>
       <use xlink:href="#DejaVuSans-30" x="127.246094"/>
      </g>
     </g>
    </g>
    <g id="ytick_7">
     <g id="line2d_27">
      <path d="M 72 109.765905 
L 518.4 109.765905 
" clip-path="url(#pd2823a4368)" style="fill: none; stroke: #ffffff; stroke-linecap: round"/>
     </g>
     <g id="line2d_28"/>
     <g id="text_15">
      <!-- 300 -->
      <g style="fill: #262626" transform="translate(45.9125 113.565124) scale(0.1 -0.1)">
       <defs>
        <path id="DejaVuSans-33" d="M 2597 2516 
Q 3050 2419 3304 2112 
Q 3559 1806 3559 1356 
Q 3559 666 3084 287 
Q 2609 -91 1734 -91 
Q 1441 -91 1130 -33 
Q 819 25 488 141 
L 488 750 
Q 750 597 1062 519 
Q 1375 441 1716 441 
Q 2309 441 2620 675 
Q 2931 909 2931 1356 
Q 2931 1769 2642 2001 
Q 2353 2234 1838 2234 
L 1294 2234 
L 1294 2753 
L 1863 2753 
Q 2328 2753 2575 2939 
Q 2822 3125 2822 3475 
Q 2822 3834 2567 4026 
Q 2313 4219 1838 4219 
Q 1578 4219 1281 4162 
Q 984 4106 628 3988 
L 628 4550 
Q 988 4650 1302 4700 
Q 1616 4750 1894 4750 
Q 2613 4750 3031 4423 
Q 3450 4097 3450 3541 
Q 3450 3153 3228 2886 
Q 3006 2619 2597 2516 
z
" transform="scale(0.015625)"/>
       </defs>
       <use xlink:href="#DejaVuSans-33"/>
       <use xlink:href="#DejaVuSans-30" x="63.623047"/>
       <use xlink:href="#DejaVuSans-30" x="127.246094"/>
      </g>
     </g>
    </g>
    <g id="ytick_8">
     <g id="line2d_29">
      <path d="M 72 69.320223 
L 518.4 69.320223 
" clip-path="url(#pd2823a4368)" style="fill: none; stroke: #ffffff; stroke-linecap: round"/>
     </g>
     <g id="line2d_30"/>
     <g id="text_16">
      <!-- 350 -->
      <g style="fill: #262626" transform="translate(45.9125 73.119442) scale(0.1 -0.1)">
       <use xlink:href="#DejaVuSans-33"/>
       <use xlink:href="#DejaVuSans-35" x="63.623047"/>
       <use xlink:href="#DejaVuSans-30" x="127.246094"/>
      </g>
     </g>
    </g>
    <g id="text_17">
     <!-- Number of simulated MSAs -->
     <g style="fill: #262626" transform="translate(39.624844 274.754219) rotate(-90) scale(0.11 -0.11)">
      <defs>
       <path id="DejaVuSans-4e" d="M 628 4666 
L 1478 4666 
L 3547 763 
L 3547 4666 
L 4159 4666 
L 4159 0 
L 3309 0 
L 1241 3903 
L 1241 0 
L 628 0 
L 628 4666 
z
" transform="scale(0.015625)"/>
       <path id="DejaVuSans-62" d="M 3116 1747 
Q 3116 2381 2855 2742 
Q 2594 3103 2138 3103 
Q 1681 3103 1420 2742 
Q 1159 2381 1159 1747 
Q 1159 1113 1420 752 
Q 1681 391 2138 391 
Q 2594 391 2855 752 
Q 3116 1113 3116 1747 
z
M 1159 2969 
Q 1341 3281 1617 3432 
Q 1894 3584 2278 3584 
Q 2916 3584 3314 3078 
Q 3713 2572 3713 1747 
Q 3713 922 3314 415 
Q 2916 -91 2278 -91 
Q 1894 -91 1617 61 
Q 1341 213 1159 525 
L 1159 0 
L 581 0 
L 581 4863 
L 1159 4863 
L 1159 2969 
z
" transform="scale(0.015625)"/>
       <path id="DejaVuSans-65" d="M 3597 1894 
L 3597 1613 
L 953 1613 
Q 991 1019 1311 708 
Q 1631 397 2203 397 
Q 2534 397 2845 478 
Q 3156 559 3463 722 
L 3463 178 
Q 3153 47 2828 -22 
Q 2503 -91 2169 -91 
Q 1331 -91 842 396 
Q 353 884 353 1716 
Q 353 2575 817 3079 
Q 1281 3584 2069 3584 
Q 2775 3584 3186 3129 
Q 3597 2675 3597 1894 
z
M 3022 2063 
Q 3016 2534 2758 2815 
Q 2500 3097 2075 3097 
Q 1594 3097 1305 2825 
Q 1016 2553 972 2059 
L 3022 2063 
z
" transform="scale(0.015625)"/>
       <path id="DejaVuSans-72" d="M 2631 2963 
Q 2534 3019 2420 3045 
Q 2306 3072 2169 3072 
Q 1681 3072 1420 2755 
Q 1159 2438 1159 1844 
L 1159 0 
L 581 0 
L 581 3500 
L 1159 3500 
L 1159 2956 
Q 1341 3275 1631 3429 
Q 1922 3584 2338 3584 
Q 2397 3584 2469 3576 
Q 2541 3569 2628 3553 
L 2631 2963 
z
" transform="scale(0.015625)"/>
       <path id="DejaVuSans-6f" d="M 1959 3097 
Q 1497 3097 1228 2736 
Q 959 2375 959 1747 
Q 959 1119 1226 758 
Q 1494 397 1959 397 
Q 2419 397 2687 759 
Q 2956 1122 2956 1747 
Q 2956 2369 2687 2733 
Q 2419 3097 1959 3097 
z
M 1959 3584 
Q 2709 3584 3137 3096 
Q 3566 2609 3566 1747 
Q 3566 888 3137 398 
Q 2709 -91 1959 -91 
Q 1206 -91 779 398 
Q 353 888 353 1747 
Q 353 2609 779 3096 
Q 1206 3584 1959 3584 
z
" transform="scale(0.015625)"/>
       <path id="DejaVuSans-66" d="M 2375 4863 
L 2375 4384 
L 1825 4384 
Q 1516 4384 1395 4259 
Q 1275 4134 1275 3809 
L 1275 3500 
L 2222 3500 
L 2222 3053 
L 1275 3053 
L 1275 0 
L 697 0 
L 697 3053 
L 147 3053 
L 147 3500 
L 697 3500 
L 697 3744 
Q 697 4328 969 4595 
Q 1241 4863 1831 4863 
L 2375 4863 
z
" transform="scale(0.015625)"/>
       <path id="DejaVuSans-69" d="M 603 3500 
L 1178 3500 
L 1178 0 
L 603 0 
L 603 3500 
z
M 603 4863 
L 1178 4863 
L 1178 4134 
L 603 4134 
L 603 4863 
z
" transform="scale(0.015625)"/>
       <path id="DejaVuSans-6c" d="M 603 4863 
L 1178 4863 
L 1178 0 
L 603 0 
L 603 4863 
z
" transform="scale(0.015625)"/>
       <path id="DejaVuSans-74" d="M 1172 4494 
L 1172 3500 
L 2356 3500 
L 2356 3053 
L 1172 3053 
L 1172 1153 
Q 1172 725 1289 603 
Q 1406 481 1766 481 
L 2356 481 
L 2356 0 
L 1766 0 
Q 1100 0 847 248 
Q 594 497 594 1153 
L 594 3053 
L 172 3053 
L 172 3500 
L 594 3500 
L 594 4494 
L 1172 4494 
z
" transform="scale(0.015625)"/>
       <path id="DejaVuSans-64" d="M 2906 2969 
L 2906 4863 
L 3481 4863 
L 3481 0 
L 2906 0 
L 2906 525 
Q 2725 213 2448 61 
Q 2172 -91 1784 -91 
Q 1150 -91 751 415 
Q 353 922 353 1747 
Q 353 2572 751 3078 
Q 1150 3584 1784 3584 
Q 2172 3584 2448 3432 
Q 2725 3281 2906 2969 
z
M 947 1747 
Q 947 1113 1208 752 
Q 1469 391 1925 391 
Q 2381 391 2643 752 
Q 2906 1113 2906 1747 
Q 2906 2381 2643 2742 
Q 2381 3103 1925 3103 
Q 1469 3103 1208 2742 
Q 947 2381 947 1747 
z
" transform="scale(0.015625)"/>
       <path id="DejaVuSans-4d" d="M 628 4666 
L 1569 4666 
L 2759 1491 
L 3956 4666 
L 4897 4666 
L 4897 0 
L 4281 0 
L 4281 4097 
L 3078 897 
L 2444 897 
L 1241 4097 
L 1241 0 
L 628 0 
L 628 4666 
z
" transform="scale(0.015625)"/>
       <path id="DejaVuSans-53" d="M 3425 4513 
L 3425 3897 
Q 3066 4069 2747 4153 
Q 2428 4238 2131 4238 
Q 1616 4238 1336 4038 
Q 1056 3838 1056 3469 
Q 1056 3159 1242 3001 
Q 1428 2844 1947 2747 
L 2328 2669 
Q 3034 2534 3370 2195 
Q 3706 1856 3706 1288 
Q 3706 609 3251 259 
Q 2797 -91 1919 -91 
Q 1588 -91 1214 -16 
Q 841 59 441 206 
L 441 856 
Q 825 641 1194 531 
Q 1563 422 1919 422 
Q 2459 422 2753 634 
Q 3047 847 3047 1241 
Q 3047 1584 2836 1778 
Q 2625 1972 2144 2069 
L 1759 2144 
Q 1053 2284 737 2584 
Q 422 2884 422 3419 
Q 422 4038 858 4394 
Q 1294 4750 2059 4750 
Q 2388 4750 2728 4690 
Q 3069 4631 3425 4513 
z
" transform="scale(0.015625)"/>
       <path id="DejaVuSans-41" d="M 2188 4044 
L 1331 1722 
L 3047 1722 
L 2188 4044 
z
M 1831 4666 
L 2547 4666 
L 4325 0 
L 3669 0 
L 3244 1197 
L 1141 1197 
L 716 0 
L 50 0 
L 1831 4666 
z
" transform="scale(0.015625)"/>
      </defs>
      <use xlink:href="#DejaVuSans-4e"/>
      <use xlink:href="#DejaVuSans-75" x="74.804688"/>
      <use xlink:href="#DejaVuSans-6d" x="138.183594"/>
      <use xlink:href="#DejaVuSans-62" x="235.595703"/>
      <use xlink:href="#DejaVuSans-65" x="299.072266"/>
      <use xlink:href="#DejaVuSans-72" x="360.595703"/>
      <use xlink:href="#DejaVuSans-20" x="401.708984"/>
      <use xlink:href="#DejaVuSans-6f" x="433.496094"/>
      <use xlink:href="#DejaVuSans-66" x="494.677734"/>
      <use xlink:href="#DejaVuSans-20" x="529.882812"/>
      <use xlink:href="#DejaVuSans-73" x="561.669922"/>
      <use xlink:href="#DejaVuSans-69" x="613.769531"/>
      <use xlink:href="#DejaVuSans-6d" x="641.552734"/>
      <use xlink:href="#DejaVuSans-75" x="738.964844"/>
      <use xlink:href="#DejaVuSans-6c" x="802.34375"/>
      <use xlink:href="#DejaVuSans-61" x="830.126953"/>
      <use xlink:href="#DejaVuSans-74" x="891.40625"/>
      <use xlink:href="#DejaVuSans-65" x="930.615234"/>
      <use xlink:href="#DejaVuSans-64" x="992.138672"/>
      <use xlink:href="#DejaVuSans-20" x="1055.615234"/>
      <use xlink:href="#DejaVuSans-4d" x="1087.402344"/>
      <use xlink:href="#DejaVuSans-53" x="1173.681641"/>
      <use xlink:href="#DejaVuSans-41" x="1239.033203"/>
      <use xlink:href="#DejaVuSans-73" x="1307.441406"/>
     </g>
    </g>
   </g>
   <g id="patch_3">
    <path d="M 178.687095 352.44 
L 181.881315 352.44 
L 181.881315 351.631086 
L 178.687095 351.631086 
z
" clip-path="url(#pd2823a4368)" style="fill: #4c72b0; fill-opacity: 0.75; stroke: #000000; stroke-width: 0.3; stroke-linejoin: miter"/>
   </g>
   <g id="patch_4">
    <path d="M 181.881315 352.44 
L 185.075535 352.44 
L 185.075535 352.44 
L 181.881315 352.44 
z
" clip-path="url(#pd2823a4368)" style="fill: #4c72b0; fill-opacity: 0.75; stroke: #000000; stroke-width: 0.3; stroke-linejoin: miter"/>
   </g>
   <g id="patch_5">
    <path d="M 185.075535 352.44 
L 188.269754 352.44 
L 188.269754 352.44 
L 185.075535 352.44 
z
" clip-path="url(#pd2823a4368)" style="fill: #4c72b0; fill-opacity: 0.75; stroke: #000000; stroke-width: 0.3; stroke-linejoin: miter"/>
   </g>
   <g id="patch_6">
    <path d="M 188.269754 352.44 
L 191.463974 352.44 
L 191.463974 351.631086 
L 188.269754 351.631086 
z
" clip-path="url(#pd2823a4368)" style="fill: #4c72b0; fill-opacity: 0.75; stroke: #000000; stroke-width: 0.3; stroke-linejoin: miter"/>
   </g>
   <g id="patch_7">
    <path d="M 191.463974 352.44 
L 194.658194 352.44 
L 194.658194 350.822173 
L 191.463974 350.822173 
z
" clip-path="url(#pd2823a4368)" style="fill: #4c72b0; fill-opacity: 0.75; stroke: #000000; stroke-width: 0.3; stroke-linejoin: miter"/>
   </g>
   <g id="patch_8">
    <path d="M 194.658194 352.44 
L 197.852414 352.44 
L 197.852414 349.204345 
L 194.658194 349.204345 
z
" clip-path="url(#pd2823a4368)" style="fill: #4c72b0; fill-opacity: 0.75; stroke: #000000; stroke-width: 0.3; stroke-linejoin: miter"/>
   </g>
   <g id="patch_9">
    <path d="M 197.852414 352.44 
L 201.046634 352.44 
L 201.046634 350.822173 
L 197.852414 350.822173 
z
" clip-path="url(#pd2823a4368)" style="fill: #4c72b0; fill-opacity: 0.75; stroke: #000000; stroke-width: 0.3; stroke-linejoin: miter"/>
   </g>
   <g id="patch_10">
    <path d="M 201.046634 352.44 
L 204.240854 352.44 
L 204.240854 349.204345 
L 201.046634 349.204345 
z
" clip-path="url(#pd2823a4368)" style="fill: #4c72b0; fill-opacity: 0.75; stroke: #000000; stroke-width: 0.3; stroke-linejoin: miter"/>
   </g>
   <g id="patch_11">
    <path d="M 204.240854 352.44 
L 207.435074 352.44 
L 207.435074 345.159777 
L 204.240854 345.159777 
z
" clip-path="url(#pd2823a4368)" style="fill: #4c72b0; fill-opacity: 0.75; stroke: #000000; stroke-width: 0.3; stroke-linejoin: miter"/>
   </g>
   <g id="patch_12">
    <path d="M 207.435074 352.44 
L 210.629294 352.44 
L 210.629294 341.924123 
L 207.435074 341.924123 
z
" clip-path="url(#pd2823a4368)" style="fill: #4c72b0; fill-opacity: 0.75; stroke: #000000; stroke-width: 0.3; stroke-linejoin: miter"/>
   </g>
   <g id="patch_13">
    <path d="M 210.629294 352.44 
L 213.823514 352.44 
L 213.823514 339.497382 
L 210.629294 339.497382 
z
" clip-path="url(#pd2823a4368)" style="fill: #4c72b0; fill-opacity: 0.75; stroke: #000000; stroke-width: 0.3; stroke-linejoin: miter"/>
   </g>
   <g id="patch_14">
    <path d="M 213.823514 352.44 
L 217.017734 352.44 
L 217.017734 333.834986 
L 213.823514 333.834986 
z
" clip-path="url(#pd2823a4368)" style="fill: #4c72b0; fill-opacity: 0.75; stroke: #000000; stroke-width: 0.3; stroke-linejoin: miter"/>
   </g>
   <g id="patch_15">
    <path d="M 217.017734 352.44 
L 220.211954 352.44 
L 220.211954 328.981504 
L 217.017734 328.981504 
z
" clip-path="url(#pd2823a4368)" style="fill: #4c72b0; fill-opacity: 0.75; stroke: #000000; stroke-width: 0.3; stroke-linejoin: miter"/>
   </g>
   <g id="patch_16">
    <path d="M 220.211954 352.44 
L 223.406174 352.44 
L 223.406174 313.612145 
L 220.211954 313.612145 
z
" clip-path="url(#pd2823a4368)" style="fill: #4c72b0; fill-opacity: 0.75; stroke: #000000; stroke-width: 0.3; stroke-linejoin: miter"/>
   </g>
   <g id="patch_17">
    <path d="M 223.406174 352.44 
L 226.600394 352.44 
L 226.600394 307.949749 
L 223.406174 307.949749 
z
" clip-path="url(#pd2823a4368)" style="fill: #4c72b0; fill-opacity: 0.75; stroke: #000000; stroke-width: 0.3; stroke-linejoin: miter"/>
   </g>
   <g id="patch_18">
    <path d="M 226.600394 352.44 
L 229.794614 352.44 
L 229.794614 297.433872 
L 226.600394 297.433872 
z
" clip-path="url(#pd2823a4368)" style="fill: #4c72b0; fill-opacity: 0.75; stroke: #000000; stroke-width: 0.3; stroke-linejoin: miter"/>
   </g>
   <g id="patch_19">
    <path d="M 229.794614 352.44 
L 232.988834 352.44 
L 232.988834 276.402117 
L 229.794614 276.402117 
z
" clip-path="url(#pd2823a4368)" style="fill: #4c72b0; fill-opacity: 0.75; stroke: #000000; stroke-width: 0.3; stroke-linejoin: miter"/>
   </g>
   <g id="patch_20">
    <path d="M 232.988834 352.44 
L 236.183054 352.44 
L 236.183054 259.41493 
L 232.988834 259.41493 
z
" clip-path="url(#pd2823a4368)" style="fill: #4c72b0; fill-opacity: 0.75; stroke: #000000; stroke-width: 0.3; stroke-linejoin: miter"/>
   </g>
   <g id="patch_21">
    <path d="M 236.183054 352.44 
L 239.377274 352.44 
L 239.377274 246.472312 
L 236.183054 246.472312 
z
" clip-path="url(#pd2823a4368)" style="fill: #4c72b0; fill-opacity: 0.75; stroke: #000000; stroke-width: 0.3; stroke-linejoin: miter"/>
   </g>
   <g id="patch_22">
    <path d="M 239.377274 352.44 
L 242.571494 352.44 
L 242.571494 225.440557 
L 239.377274 225.440557 
z
" clip-path="url(#pd2823a4368)" style="fill: #4c72b0; fill-opacity: 0.75; stroke: #000000; stroke-width: 0.3; stroke-linejoin: miter"/>
   </g>
   <g id="patch_23">
    <path d="M 242.571494 352.44 
L 245.765714 352.44 
L 245.765714 184.185961 
L 242.571494 184.185961 
z
" clip-path="url(#pd2823a4368)" style="fill: #4c72b0; fill-opacity: 0.75; stroke: #000000; stroke-width: 0.3; stroke-linejoin: miter"/>
   </g>
   <g id="patch_24">
    <path d="M 245.765714 352.44 
L 248.959934 352.44 
L 248.959934 185.803788 
L 245.765714 185.803788 
z
" clip-path="url(#pd2823a4368)" style="fill: #4c72b0; fill-opacity: 0.75; stroke: #000000; stroke-width: 0.3; stroke-linejoin: miter"/>
   </g>
   <g id="patch_25">
    <path d="M 248.959934 352.44 
L 252.154154 352.44 
L 252.154154 175.287911 
L 248.959934 175.287911 
z
" clip-path="url(#pd2823a4368)" style="fill: #4c72b0; fill-opacity: 0.75; stroke: #000000; stroke-width: 0.3; stroke-linejoin: miter"/>
   </g>
   <g id="patch_26">
    <path d="M 252.154154 352.44 
L 255.348374 352.44 
L 255.348374 135.651142 
L 252.154154 135.651142 
z
" clip-path="url(#pd2823a4368)" style="fill: #4c72b0; fill-opacity: 0.75; stroke: #000000; stroke-width: 0.3; stroke-linejoin: miter"/>
   </g>
   <g id="patch_27">
    <path d="M 255.348374 352.44 
L 258.542594 352.44 
L 258.542594 119.472869 
L 255.348374 119.472869 
z
" clip-path="url(#pd2823a4368)" style="fill: #4c72b0; fill-opacity: 0.75; stroke: #000000; stroke-width: 0.3; stroke-linejoin: miter"/>
   </g>
   <g id="patch_28">
    <path d="M 258.542594 352.44 
L 261.736814 352.44 
L 261.736814 115.428301 
L 258.542594 115.428301 
z
" clip-path="url(#pd2823a4368)" style="fill: #4c72b0; fill-opacity: 0.75; stroke: #000000; stroke-width: 0.3; stroke-linejoin: miter"/>
   </g>
   <g id="patch_29">
    <path d="M 261.736814 352.44 
L 264.931034 352.44 
L 264.931034 118.663955 
L 261.736814 118.663955 
z
" clip-path="url(#pd2823a4368)" style="fill: #4c72b0; fill-opacity: 0.75; stroke: #000000; stroke-width: 0.3; stroke-linejoin: miter"/>
   </g>
   <g id="patch_30">
    <path d="M 264.931034 352.44 
L 268.125254 352.44 
L 268.125254 79.027187 
L 264.931034 79.027187 
z
" clip-path="url(#pd2823a4368)" style="fill: #4c72b0; fill-opacity: 0.75; stroke: #000000; stroke-width: 0.3; stroke-linejoin: miter"/>
   </g>
   <g id="patch_31">
    <path d="M 268.125254 352.44 
L 271.319474 352.44 
L 271.319474 62.04 
L 268.125254 62.04 
z
" clip-path="url(#pd2823a4368)" style="fill: #4c72b0; fill-opacity: 0.75; stroke: #000000; stroke-width: 0.3; stroke-linejoin: miter"/>
   </g>
   <g id="patch_32">
    <path d="M 271.319474 352.44 
L 274.513693 352.44 
L 274.513693 82.262841 
L 271.319474 82.262841 
z
" clip-path="url(#pd2823a4368)" style="fill: #4c72b0; fill-opacity: 0.75; stroke: #000000; stroke-width: 0.3; stroke-linejoin: miter"/>
   </g>
   <g id="patch_33">
    <path d="M 274.513693 352.44 
L 277.707913 352.44 
L 277.707913 90.351978 
L 274.513693 90.351978 
z
" clip-path="url(#pd2823a4368)" style="fill: #4c72b0; fill-opacity: 0.75; stroke: #000000; stroke-width: 0.3; stroke-linejoin: miter"/>
   </g>
   <g id="patch_34">
    <path d="M 277.707913 352.44 
L 280.902133 352.44 
L 280.902133 88.73415 
L 277.707913 88.73415 
z
" clip-path="url(#pd2823a4368)" style="fill: #4c72b0; fill-opacity: 0.75; stroke: #000000; stroke-width: 0.3; stroke-linejoin: miter"/>
   </g>
   <g id="patch_35">
    <path d="M 280.902133 352.44 
L 284.096353 352.44 
L 284.096353 97.632201 
L 280.902133 97.632201 
z
" clip-path="url(#pd2823a4368)" style="fill: #4c72b0; fill-opacity: 0.75; stroke: #000000; stroke-width: 0.3; stroke-linejoin: miter"/>
   </g>
   <g id="patch_36">
    <path d="M 284.096353 352.44 
L 287.290573 352.44 
L 287.290573 110.574819 
L 284.096353 110.574819 
z
" clip-path="url(#pd2823a4368)" style="fill: #4c72b0; fill-opacity: 0.75; stroke: #000000; stroke-width: 0.3; stroke-linejoin: miter"/>
   </g>
   <g id="patch_37">
    <path d="M 287.290573 352.44 
L 290.484793 352.44 
L 290.484793 97.632201 
L 287.290573 97.632201 
z
" clip-path="url(#pd2823a4368)" style="fill: #4c72b0; fill-opacity: 0.75; stroke: #000000; stroke-width: 0.3; stroke-linejoin: miter"/>
   </g>
   <g id="patch_38">
    <path d="M 290.484793 352.44 
L 293.679013 352.44 
L 293.679013 129.179833 
L 290.484793 129.179833 
z
" clip-path="url(#pd2823a4368)" style="fill: #4c72b0; fill-opacity: 0.75; stroke: #000000; stroke-width: 0.3; stroke-linejoin: miter"/>
   </g>
   <g id="patch_39">
    <path d="M 293.679013 352.44 
L 296.873233 352.44 
L 296.873233 122.708524 
L 293.679013 122.708524 
z
" clip-path="url(#pd2823a4368)" style="fill: #4c72b0; fill-opacity: 0.75; stroke: #000000; stroke-width: 0.3; stroke-linejoin: miter"/>
   </g>
   <g id="patch_40">
    <path d="M 296.873233 352.44 
L 300.067453 352.44 
L 300.067453 125.944178 
L 296.873233 125.944178 
z
" clip-path="url(#pd2823a4368)" style="fill: #4c72b0; fill-opacity: 0.75; stroke: #000000; stroke-width: 0.3; stroke-linejoin: miter"/>
   </g>
   <g id="patch_41">
    <path d="M 300.067453 352.44 
L 303.261673 352.44 
L 303.261673 134.033315 
L 300.067453 134.033315 
z
" clip-path="url(#pd2823a4368)" style="fill: #4c72b0; fill-opacity: 0.75; stroke: #000000; stroke-width: 0.3; stroke-linejoin: miter"/>
   </g>
   <g id="patch_42">
    <path d="M 303.261673 352.44 
L 306.455893 352.44 
L 306.455893 141.313538 
L 303.261673 141.313538 
z
" clip-path="url(#pd2823a4368)" style="fill: #4c72b0; fill-opacity: 0.75; stroke: #000000; stroke-width: 0.3; stroke-linejoin: miter"/>
   </g>
   <g id="patch_43">
    <path d="M 306.455893 352.44 
L 309.650113 352.44 
L 309.650113 163.96312 
L 306.455893 163.96312 
z
" clip-path="url(#pd2823a4368)" style="fill: #4c72b0; fill-opacity: 0.75; stroke: #000000; stroke-width: 0.3; stroke-linejoin: miter"/>
   </g>
   <g id="patch_44">
    <path d="M 309.650113 352.44 
L 312.844333 352.44 
L 312.844333 169.625515 
L 309.650113 169.625515 
z
" clip-path="url(#pd2823a4368)" style="fill: #4c72b0; fill-opacity: 0.75; stroke: #000000; stroke-width: 0.3; stroke-linejoin: miter"/>
   </g>
   <g id="patch_45">
    <path d="M 312.844333 352.44 
L 316.038553 352.44 
L 316.038553 176.096825 
L 312.844333 176.096825 
z
" clip-path="url(#pd2823a4368)" style="fill: #4c72b0; fill-opacity: 0.75; stroke: #000000; stroke-width: 0.3; stroke-linejoin: miter"/>
   </g>
   <g id="patch_46">
    <path d="M 316.038553 352.44 
L 319.232773 352.44 
L 319.232773 176.096825 
L 316.038553 176.096825 
z
" clip-path="url(#pd2823a4368)" style="fill: #4c72b0; fill-opacity: 0.75; stroke: #000000; stroke-width: 0.3; stroke-linejoin: miter"/>
   </g>
   <g id="patch_47">
    <path d="M 319.232773 352.44 
L 322.426993 352.44 
L 322.426993 212.497939 
L 319.232773 212.497939 
z
" clip-path="url(#pd2823a4368)" style="fill: #4c72b0; fill-opacity: 0.75; stroke: #000000; stroke-width: 0.3; stroke-linejoin: miter"/>
   </g>
   <g id="patch_48">
    <path d="M 322.426993 352.44 
L 325.621213 352.44 
L 325.621213 191.466184 
L 322.426993 191.466184 
z
" clip-path="url(#pd2823a4368)" style="fill: #4c72b0; fill-opacity: 0.75; stroke: #000000; stroke-width: 0.3; stroke-linejoin: miter"/>
   </g>
   <g id="patch_49">
    <path d="M 325.621213 352.44 
L 328.815433 352.44 
L 328.815433 214.115766 
L 325.621213 214.115766 
z
" clip-path="url(#pd2823a4368)" style="fill: #4c72b0; fill-opacity: 0.75; stroke: #000000; stroke-width: 0.3; stroke-linejoin: miter"/>
   </g>
   <g id="patch_50">
    <path d="M 328.815433 352.44 
L 332.009653 352.44 
L 332.009653 205.217716 
L 328.815433 205.217716 
z
" clip-path="url(#pd2823a4368)" style="fill: #4c72b0; fill-opacity: 0.75; stroke: #000000; stroke-width: 0.3; stroke-linejoin: miter"/>
   </g>
   <g id="patch_51">
    <path d="M 332.009653 352.44 
L 335.203873 352.44 
L 335.203873 218.969248 
L 332.009653 218.969248 
z
" clip-path="url(#pd2823a4368)" style="fill: #4c72b0; fill-opacity: 0.75; stroke: #000000; stroke-width: 0.3; stroke-linejoin: miter"/>
   </g>
   <g id="patch_52">
    <path d="M 335.203873 352.44 
L 338.398093 352.44 
L 338.398093 245.663398 
L 335.203873 245.663398 
z
" clip-path="url(#pd2823a4368)" style="fill: #4c72b0; fill-opacity: 0.75; stroke: #000000; stroke-width: 0.3; stroke-linejoin: miter"/>
   </g>
   <g id="patch_53">
    <path d="M 338.398093 352.44 
L 341.592313 352.44 
L 341.592313 243.236657 
L 338.398093 243.236657 
z
" clip-path="url(#pd2823a4368)" style="fill: #4c72b0; fill-opacity: 0.75; stroke: #000000; stroke-width: 0.3; stroke-linejoin: miter"/>
   </g>
   <g id="patch_54">
    <path d="M 341.592313 352.44 
L 344.786533 352.44 
L 344.786533 254.561448 
L 341.592313 254.561448 
z
" clip-path="url(#pd2823a4368)" style="fill: #4c72b0; fill-opacity: 0.75; stroke: #000000; stroke-width: 0.3; stroke-linejoin: miter"/>
   </g>
   <g id="patch_55">
    <path d="M 344.786533 352.44 
L 347.980753 352.44 
L 347.980753 250.51688 
L 344.786533 250.51688 
z
" clip-path="url(#pd2823a4368)" style="fill: #4c72b0; fill-opacity: 0.75; stroke: #000000; stroke-width: 0.3; stroke-linejoin: miter"/>
   </g>
   <g id="patch_56">
    <path d="M 347.980753 352.44 
L 351.174973 352.44 
L 351.174973 271.548635 
L 347.980753 271.548635 
z
" clip-path="url(#pd2823a4368)" style="fill: #4c72b0; fill-opacity: 0.75; stroke: #000000; stroke-width: 0.3; stroke-linejoin: miter"/>
   </g>
   <g id="patch_57">
    <path d="M 351.174973 352.44 
L 354.369193 352.44 
L 354.369193 296.624958 
L 351.174973 296.624958 
z
" clip-path="url(#pd2823a4368)" style="fill: #4c72b0; fill-opacity: 0.75; stroke: #000000; stroke-width: 0.3; stroke-linejoin: miter"/>
   </g>
   <g id="patch_58">
    <path d="M 354.369193 352.44 
L 357.563413 352.44 
L 357.563413 288.535822 
L 354.369193 288.535822 
z
" clip-path="url(#pd2823a4368)" style="fill: #4c72b0; fill-opacity: 0.75; stroke: #000000; stroke-width: 0.3; stroke-linejoin: miter"/>
   </g>
   <g id="patch_59">
    <path d="M 357.563413 352.44 
L 360.757632 352.44 
L 360.757632 286.917994 
L 357.563413 286.917994 
z
" clip-path="url(#pd2823a4368)" style="fill: #4c72b0; fill-opacity: 0.75; stroke: #000000; stroke-width: 0.3; stroke-linejoin: miter"/>
   </g>
   <g id="patch_60">
    <path d="M 360.757632 352.44 
L 363.951852 352.44 
L 363.951852 300.669526 
L 360.757632 300.669526 
z
" clip-path="url(#pd2823a4368)" style="fill: #4c72b0; fill-opacity: 0.75; stroke: #000000; stroke-width: 0.3; stroke-linejoin: miter"/>
   </g>
   <g id="patch_61">
    <path d="M 363.951852 352.44 
L 367.146072 352.44 
L 367.146072 305.523008 
L 363.951852 305.523008 
z
" clip-path="url(#pd2823a4368)" style="fill: #4c72b0; fill-opacity: 0.75; stroke: #000000; stroke-width: 0.3; stroke-linejoin: miter"/>
   </g>
   <g id="patch_62">
    <path d="M 367.146072 352.44 
L 370.340292 352.44 
L 370.340292 307.140836 
L 367.146072 307.140836 
z
" clip-path="url(#pd2823a4368)" style="fill: #4c72b0; fill-opacity: 0.75; stroke: #000000; stroke-width: 0.3; stroke-linejoin: miter"/>
   </g>
   <g id="patch_63">
    <path d="M 370.340292 352.44 
L 373.534512 352.44 
L 373.534512 315.229972 
L 370.340292 315.229972 
z
" clip-path="url(#pd2823a4368)" style="fill: #4c72b0; fill-opacity: 0.75; stroke: #000000; stroke-width: 0.3; stroke-linejoin: miter"/>
   </g>
   <g id="patch_64">
    <path d="M 373.534512 352.44 
L 376.728732 352.44 
L 376.728732 316.847799 
L 373.534512 316.847799 
z
" clip-path="url(#pd2823a4368)" style="fill: #4c72b0; fill-opacity: 0.75; stroke: #000000; stroke-width: 0.3; stroke-linejoin: miter"/>
   </g>
   <g id="patch_65">
    <path d="M 376.728732 352.44 
L 379.922952 352.44 
L 379.922952 317.656713 
L 376.728732 317.656713 
z
" clip-path="url(#pd2823a4368)" style="fill: #4c72b0; fill-opacity: 0.75; stroke: #000000; stroke-width: 0.3; stroke-linejoin: miter"/>
   </g>
   <g id="patch_66">
    <path d="M 379.922952 352.44 
L 383.117172 352.44 
L 383.117172 324.936936 
L 379.922952 324.936936 
z
" clip-path="url(#pd2823a4368)" style="fill: #4c72b0; fill-opacity: 0.75; stroke: #000000; stroke-width: 0.3; stroke-linejoin: miter"/>
   </g>
   <g id="patch_67">
    <path d="M 383.117172 352.44 
L 386.311392 352.44 
L 386.311392 328.981504 
L 383.117172 328.981504 
z
" clip-path="url(#pd2823a4368)" style="fill: #4c72b0; fill-opacity: 0.75; stroke: #000000; stroke-width: 0.3; stroke-linejoin: miter"/>
   </g>
   <g id="patch_68">
    <path d="M 386.311392 352.44 
L 389.505612 352.44 
L 389.505612 329.790418 
L 386.311392 329.790418 
z
" clip-path="url(#pd2823a4368)" style="fill: #4c72b0; fill-opacity: 0.75; stroke: #000000; stroke-width: 0.3; stroke-linejoin: miter"/>
   </g>
   <g id="patch_69">
    <path d="M 389.505612 352.44 
L 392.699832 352.44 
L 392.699832 325.74585 
L 389.505612 325.74585 
z
" clip-path="url(#pd2823a4368)" style="fill: #4c72b0; fill-opacity: 0.75; stroke: #000000; stroke-width: 0.3; stroke-linejoin: miter"/>
   </g>
   <g id="patch_70">
    <path d="M 392.699832 352.44 
L 395.894052 352.44 
L 395.894052 333.026072 
L 392.699832 333.026072 
z
" clip-path="url(#pd2823a4368)" style="fill: #4c72b0; fill-opacity: 0.75; stroke: #000000; stroke-width: 0.3; stroke-linejoin: miter"/>
   </g>
   <g id="patch_71">
    <path d="M 395.894052 352.44 
L 399.088272 352.44 
L 399.088272 328.981504 
L 395.894052 328.981504 
z
" clip-path="url(#pd2823a4368)" style="fill: #4c72b0; fill-opacity: 0.75; stroke: #000000; stroke-width: 0.3; stroke-linejoin: miter"/>
   </g>
   <g id="patch_72">
    <path d="M 399.088272 352.44 
L 402.282492 352.44 
L 402.282492 328.172591 
L 399.088272 328.172591 
z
" clip-path="url(#pd2823a4368)" style="fill: #4c72b0; fill-opacity: 0.75; stroke: #000000; stroke-width: 0.3; stroke-linejoin: miter"/>
   </g>
   <g id="patch_73">
    <path d="M 402.282492 352.44 
L 405.476712 352.44 
L 405.476712 328.981504 
L 402.282492 328.981504 
z
" clip-path="url(#pd2823a4368)" style="fill: #4c72b0; fill-opacity: 0.75; stroke: #000000; stroke-width: 0.3; stroke-linejoin: miter"/>
   </g>
   <g id="patch_74">
    <path d="M 405.476712 352.44 
L 408.670932 352.44 
L 408.670932 335.452813 
L 405.476712 335.452813 
z
" clip-path="url(#pd2823a4368)" style="fill: #4c72b0; fill-opacity: 0.75; stroke: #000000; stroke-width: 0.3; stroke-linejoin: miter"/>
   </g>
   <g id="patch_75">
    <path d="M 408.670932 352.44 
L 411.865152 352.44 
L 411.865152 337.070641 
L 408.670932 337.070641 
z
" clip-path="url(#pd2823a4368)" style="fill: #4c72b0; fill-opacity: 0.75; stroke: #000000; stroke-width: 0.3; stroke-linejoin: miter"/>
   </g>
   <g id="patch_76">
    <path d="M 411.865152 352.44 
L 415.059372 352.44 
L 415.059372 342.733036 
L 411.865152 342.733036 
z
" clip-path="url(#pd2823a4368)" style="fill: #4c72b0; fill-opacity: 0.75; stroke: #000000; stroke-width: 0.3; stroke-linejoin: miter"/>
   </g>
   <g id="patch_77">
    <path d="M 415.059372 352.44 
L 418.253592 352.44 
L 418.253592 337.070641 
L 415.059372 337.070641 
z
" clip-path="url(#pd2823a4368)" style="fill: #4c72b0; fill-opacity: 0.75; stroke: #000000; stroke-width: 0.3; stroke-linejoin: miter"/>
   </g>
   <g id="patch_78">
    <path d="M 418.253592 352.44 
L 421.447812 352.44 
L 421.447812 339.497382 
L 418.253592 339.497382 
z
" clip-path="url(#pd2823a4368)" style="fill: #4c72b0; fill-opacity: 0.75; stroke: #000000; stroke-width: 0.3; stroke-linejoin: miter"/>
   </g>
   <g id="patch_79">
    <path d="M 421.447812 352.44 
L 424.642032 352.44 
L 424.642032 333.834986 
L 421.447812 333.834986 
z
" clip-path="url(#pd2823a4368)" style="fill: #4c72b0; fill-opacity: 0.75; stroke: #000000; stroke-width: 0.3; stroke-linejoin: miter"/>
   </g>
   <g id="patch_80">
    <path d="M 424.642032 352.44 
L 427.836252 352.44 
L 427.836252 337.879554 
L 424.642032 337.879554 
z
" clip-path="url(#pd2823a4368)" style="fill: #4c72b0; fill-opacity: 0.75; stroke: #000000; stroke-width: 0.3; stroke-linejoin: miter"/>
   </g>
   <g id="patch_81">
    <path d="M 427.836252 352.44 
L 431.030472 352.44 
L 431.030472 339.497382 
L 427.836252 339.497382 
z
" clip-path="url(#pd2823a4368)" style="fill: #4c72b0; fill-opacity: 0.75; stroke: #000000; stroke-width: 0.3; stroke-linejoin: miter"/>
   </g>
   <g id="patch_82">
    <path d="M 431.030472 352.44 
L 434.224692 352.44 
L 434.224692 338.688468 
L 431.030472 338.688468 
z
" clip-path="url(#pd2823a4368)" style="fill: #4c72b0; fill-opacity: 0.75; stroke: #000000; stroke-width: 0.3; stroke-linejoin: miter"/>
   </g>
   <g id="patch_83">
    <path d="M 434.224692 352.44 
L 437.418912 352.44 
L 437.418912 341.924123 
L 434.224692 341.924123 
z
" clip-path="url(#pd2823a4368)" style="fill: #4c72b0; fill-opacity: 0.75; stroke: #000000; stroke-width: 0.3; stroke-linejoin: miter"/>
   </g>
   <g id="patch_84">
    <path d="M 437.418912 352.44 
L 440.613132 352.44 
L 440.613132 340.306295 
L 437.418912 340.306295 
z
" clip-path="url(#pd2823a4368)" style="fill: #4c72b0; fill-opacity: 0.75; stroke: #000000; stroke-width: 0.3; stroke-linejoin: miter"/>
   </g>
   <g id="patch_85">
    <path d="M 440.613132 352.44 
L 443.807352 352.44 
L 443.807352 339.497382 
L 440.613132 339.497382 
z
" clip-path="url(#pd2823a4368)" style="fill: #4c72b0; fill-opacity: 0.75; stroke: #000000; stroke-width: 0.3; stroke-linejoin: miter"/>
   </g>
   <g id="patch_86">
    <path d="M 443.807352 352.44 
L 447.001571 352.44 
L 447.001571 341.115209 
L 443.807352 341.115209 
z
" clip-path="url(#pd2823a4368)" style="fill: #4c72b0; fill-opacity: 0.75; stroke: #000000; stroke-width: 0.3; stroke-linejoin: miter"/>
   </g>
   <g id="patch_87">
    <path d="M 447.001571 352.44 
L 450.195791 352.44 
L 450.195791 343.54195 
L 447.001571 343.54195 
z
" clip-path="url(#pd2823a4368)" style="fill: #4c72b0; fill-opacity: 0.75; stroke: #000000; stroke-width: 0.3; stroke-linejoin: miter"/>
   </g>
   <g id="patch_88">
    <path d="M 450.195791 352.44 
L 453.390011 352.44 
L 453.390011 341.115209 
L 450.195791 341.115209 
z
" clip-path="url(#pd2823a4368)" style="fill: #4c72b0; fill-opacity: 0.75; stroke: #000000; stroke-width: 0.3; stroke-linejoin: miter"/>
   </g>
   <g id="patch_89">
    <path d="M 453.390011 352.44 
L 456.584231 352.44 
L 456.584231 341.115209 
L 453.390011 341.115209 
z
" clip-path="url(#pd2823a4368)" style="fill: #4c72b0; fill-opacity: 0.75; stroke: #000000; stroke-width: 0.3; stroke-linejoin: miter"/>
   </g>
   <g id="patch_90">
    <path d="M 456.584231 352.44 
L 459.778451 352.44 
L 459.778451 343.54195 
L 456.584231 343.54195 
z
" clip-path="url(#pd2823a4368)" style="fill: #4c72b0; fill-opacity: 0.75; stroke: #000000; stroke-width: 0.3; stroke-linejoin: miter"/>
   </g>
   <g id="patch_91">
    <path d="M 459.778451 352.44 
L 462.972671 352.44 
L 462.972671 345.968691 
L 459.778451 345.968691 
z
" clip-path="url(#pd2823a4368)" style="fill: #4c72b0; fill-opacity: 0.75; stroke: #000000; stroke-width: 0.3; stroke-linejoin: miter"/>
   </g>
   <g id="patch_92">
    <path d="M 462.972671 352.44 
L 466.166891 352.44 
L 466.166891 350.822173 
L 462.972671 350.822173 
z
" clip-path="url(#pd2823a4368)" style="fill: #4c72b0; fill-opacity: 0.75; stroke: #000000; stroke-width: 0.3; stroke-linejoin: miter"/>
   </g>
   <g id="patch_93">
    <path d="M 466.166891 352.44 
L 469.361111 352.44 
L 469.361111 347.586518 
L 466.166891 347.586518 
z
" clip-path="url(#pd2823a4368)" style="fill: #4c72b0; fill-opacity: 0.75; stroke: #000000; stroke-width: 0.3; stroke-linejoin: miter"/>
   </g>
   <g id="patch_94">
    <path d="M 469.361111 352.44 
L 472.555331 352.44 
L 472.555331 348.395432 
L 469.361111 348.395432 
z
" clip-path="url(#pd2823a4368)" style="fill: #4c72b0; fill-opacity: 0.75; stroke: #000000; stroke-width: 0.3; stroke-linejoin: miter"/>
   </g>
   <g id="patch_95">
    <path d="M 472.555331 352.44 
L 475.749551 352.44 
L 475.749551 348.395432 
L 472.555331 348.395432 
z
" clip-path="url(#pd2823a4368)" style="fill: #4c72b0; fill-opacity: 0.75; stroke: #000000; stroke-width: 0.3; stroke-linejoin: miter"/>
   </g>
   <g id="patch_96">
    <path d="M 475.749551 352.44 
L 478.943771 352.44 
L 478.943771 350.013259 
L 475.749551 350.013259 
z
" clip-path="url(#pd2823a4368)" style="fill: #4c72b0; fill-opacity: 0.75; stroke: #000000; stroke-width: 0.3; stroke-linejoin: miter"/>
   </g>
   <g id="patch_97">
    <path d="M 478.943771 352.44 
L 482.137991 352.44 
L 482.137991 352.44 
L 478.943771 352.44 
z
" clip-path="url(#pd2823a4368)" style="fill: #4c72b0; fill-opacity: 0.75; stroke: #000000; stroke-width: 0.3; stroke-linejoin: miter"/>
   </g>
   <g id="patch_98">
    <path d="M 482.137991 352.44 
L 485.332211 352.44 
L 485.332211 352.44 
L 482.137991 352.44 
z
" clip-path="url(#pd2823a4368)" style="fill: #4c72b0; fill-opacity: 0.75; stroke: #000000; stroke-width: 0.3; stroke-linejoin: miter"/>
   </g>
   <g id="patch_99">
    <path d="M 485.332211 352.44 
L 488.526431 352.44 
L 488.526431 351.631086 
L 485.332211 351.631086 
z
" clip-path="url(#pd2823a4368)" style="fill: #4c72b0; fill-opacity: 0.75; stroke: #000000; stroke-width: 0.3; stroke-linejoin: miter"/>
   </g>
   <g id="patch_100">
    <path d="M 488.526431 352.44 
L 491.720651 352.44 
L 491.720651 352.44 
L 488.526431 352.44 
z
" clip-path="url(#pd2823a4368)" style="fill: #4c72b0; fill-opacity: 0.75; stroke: #000000; stroke-width: 0.3; stroke-linejoin: miter"/>
   </g>
   <g id="patch_101">
    <path d="M 491.720651 352.44 
L 494.914871 352.44 
L 494.914871 351.631086 
L 491.720651 351.631086 
z
" clip-path="url(#pd2823a4368)" style="fill: #4c72b0; fill-opacity: 0.75; stroke: #000000; stroke-width: 0.3; stroke-linejoin: miter"/>
   </g>
   <g id="patch_102">
    <path d="M 494.914871 352.44 
L 498.109091 352.44 
L 498.109091 351.631086 
L 494.914871 351.631086 
z
" clip-path="url(#pd2823a4368)" style="fill: #4c72b0; fill-opacity: 0.75; stroke: #000000; stroke-width: 0.3; stroke-linejoin: miter"/>
   </g>
   <g id="line2d_31">
    <path d="M 92.290909 352.44 
L 92.290909 47.52 
" clip-path="url(#pd2823a4368)" style="fill: none; stroke-dasharray: 7.4,3.2; stroke-dashoffset: 0; stroke: #ff0000; stroke-width: 2"/>
   </g>
   <g id="patch_103">
    <path d="M 72 352.44 
L 72 47.52 
" style="fill: none"/>
   </g>
   <g id="patch_104">
    <path d="M 518.4 352.44 
L 518.4 47.52 
" style="fill: none"/>
   </g>
   <g id="patch_105">
    <path d="M 72 352.44 
L 518.4 352.44 
" style="fill: none"/>
   </g>
   <g id="patch_106">
    <path d="M 72 47.52 
L 518.4 47.52 
" style="fill: none"/>
   </g>
   <g id="patch_107">
    <path d="M 74.74188 104.501533 
Q 77.516567 104.506073 80.291253 104.510613 
L 80.297798 100.510619 
Q 86.294354 103.520435 92.290909 106.530251 
Q 86.284536 109.520427 80.278163 112.510603 
L 80.284708 108.510608 
Q 77.510021 108.506068 74.735335 108.501528 
L 74.74188 104.501533 
z
" style="stroke: #000000; stroke-width: 0.3; stroke-linecap: round"/>
   </g>
   <g id="text_18">
    <!-- Empirical summary statistic -->
    <g style="fill: #262626" transform="translate(74.738608 109.765905) scale(0.12 -0.12)">
     <defs>
      <path id="DejaVuSans-Bold-45" d="M 588 4666 
L 3834 4666 
L 3834 3756 
L 1791 3756 
L 1791 2888 
L 3713 2888 
L 3713 1978 
L 1791 1978 
L 1791 909 
L 3903 909 
L 3903 0 
L 588 0 
L 588 4666 
z
" transform="scale(0.015625)"/>
      <path id="DejaVuSans-Bold-6d" d="M 3781 2919 
Q 3994 3244 4286 3414 
Q 4578 3584 4928 3584 
Q 5531 3584 5847 3212 
Q 6163 2841 6163 2131 
L 6163 0 
L 5038 0 
L 5038 1825 
Q 5041 1866 5042 1909 
Q 5044 1953 5044 2034 
Q 5044 2406 4934 2573 
Q 4825 2741 4581 2741 
Q 4263 2741 4089 2478 
Q 3916 2216 3909 1719 
L 3909 0 
L 2784 0 
L 2784 1825 
Q 2784 2406 2684 2573 
Q 2584 2741 2328 2741 
Q 2006 2741 1831 2477 
Q 1656 2213 1656 1722 
L 1656 0 
L 531 0 
L 531 3500 
L 1656 3500 
L 1656 2988 
Q 1863 3284 2130 3434 
Q 2397 3584 2719 3584 
Q 3081 3584 3359 3409 
Q 3638 3234 3781 2919 
z
" transform="scale(0.015625)"/>
      <path id="DejaVuSans-Bold-70" d="M 1656 506 
L 1656 -1331 
L 538 -1331 
L 538 3500 
L 1656 3500 
L 1656 2988 
Q 1888 3294 2169 3439 
Q 2450 3584 2816 3584 
Q 3463 3584 3878 3070 
Q 4294 2556 4294 1747 
Q 4294 938 3878 423 
Q 3463 -91 2816 -91 
Q 2450 -91 2169 54 
Q 1888 200 1656 506 
z
M 2400 2772 
Q 2041 2772 1848 2508 
Q 1656 2244 1656 1747 
Q 1656 1250 1848 986 
Q 2041 722 2400 722 
Q 2759 722 2948 984 
Q 3138 1247 3138 1747 
Q 3138 2247 2948 2509 
Q 2759 2772 2400 2772 
z
" transform="scale(0.015625)"/>
      <path id="DejaVuSans-Bold-69" d="M 538 3500 
L 1656 3500 
L 1656 0 
L 538 0 
L 538 3500 
z
M 538 4863 
L 1656 4863 
L 1656 3950 
L 538 3950 
L 538 4863 
z
" transform="scale(0.015625)"/>
      <path id="DejaVuSans-Bold-72" d="M 3138 2547 
Q 2991 2616 2845 2648 
Q 2700 2681 2553 2681 
Q 2122 2681 1889 2404 
Q 1656 2128 1656 1613 
L 1656 0 
L 538 0 
L 538 3500 
L 1656 3500 
L 1656 2925 
Q 1872 3269 2151 3426 
Q 2431 3584 2822 3584 
Q 2878 3584 2943 3579 
Q 3009 3575 3134 3559 
L 3138 2547 
z
" transform="scale(0.015625)"/>
      <path id="DejaVuSans-Bold-63" d="M 3366 3391 
L 3366 2478 
Q 3138 2634 2908 2709 
Q 2678 2784 2431 2784 
Q 1963 2784 1702 2511 
Q 1441 2238 1441 1747 
Q 1441 1256 1702 982 
Q 1963 709 2431 709 
Q 2694 709 2930 787 
Q 3166 866 3366 1019 
L 3366 103 
Q 3103 6 2833 -42 
Q 2563 -91 2291 -91 
Q 1344 -91 809 395 
Q 275 881 275 1747 
Q 275 2613 809 3098 
Q 1344 3584 2291 3584 
Q 2566 3584 2833 3536 
Q 3100 3488 3366 3391 
z
" transform="scale(0.015625)"/>
      <path id="DejaVuSans-Bold-61" d="M 2106 1575 
Q 1756 1575 1579 1456 
Q 1403 1338 1403 1106 
Q 1403 894 1545 773 
Q 1688 653 1941 653 
Q 2256 653 2472 879 
Q 2688 1106 2688 1447 
L 2688 1575 
L 2106 1575 
z
M 3816 1997 
L 3816 0 
L 2688 0 
L 2688 519 
Q 2463 200 2181 54 
Q 1900 -91 1497 -91 
Q 953 -91 614 226 
Q 275 544 275 1050 
Q 275 1666 698 1953 
Q 1122 2241 2028 2241 
L 2688 2241 
L 2688 2328 
Q 2688 2594 2478 2717 
Q 2269 2841 1825 2841 
Q 1466 2841 1156 2769 
Q 847 2697 581 2553 
L 581 3406 
Q 941 3494 1303 3539 
Q 1666 3584 2028 3584 
Q 2975 3584 3395 3211 
Q 3816 2838 3816 1997 
z
" transform="scale(0.015625)"/>
      <path id="DejaVuSans-Bold-6c" d="M 538 4863 
L 1656 4863 
L 1656 0 
L 538 0 
L 538 4863 
z
" transform="scale(0.015625)"/>
      <path id="DejaVuSans-Bold-20" transform="scale(0.015625)"/>
      <path id="DejaVuSans-Bold-73" d="M 3272 3391 
L 3272 2541 
Q 2913 2691 2578 2766 
Q 2244 2841 1947 2841 
Q 1628 2841 1473 2761 
Q 1319 2681 1319 2516 
Q 1319 2381 1436 2309 
Q 1553 2238 1856 2203 
L 2053 2175 
Q 2913 2066 3209 1816 
Q 3506 1566 3506 1031 
Q 3506 472 3093 190 
Q 2681 -91 1863 -91 
Q 1516 -91 1145 -36 
Q 775 19 384 128 
L 384 978 
Q 719 816 1070 734 
Q 1422 653 1784 653 
Q 2113 653 2278 743 
Q 2444 834 2444 1013 
Q 2444 1163 2330 1236 
Q 2216 1309 1875 1350 
L 1678 1375 
Q 931 1469 631 1722 
Q 331 1975 331 2491 
Q 331 3047 712 3315 
Q 1094 3584 1881 3584 
Q 2191 3584 2531 3537 
Q 2872 3491 3272 3391 
z
" transform="scale(0.015625)"/>
      <path id="DejaVuSans-Bold-75" d="M 500 1363 
L 500 3500 
L 1625 3500 
L 1625 3150 
Q 1625 2866 1622 2436 
Q 1619 2006 1619 1863 
Q 1619 1441 1641 1255 
Q 1663 1069 1716 984 
Q 1784 875 1895 815 
Q 2006 756 2150 756 
Q 2500 756 2700 1025 
Q 2900 1294 2900 1772 
L 2900 3500 
L 4019 3500 
L 4019 0 
L 2900 0 
L 2900 506 
Q 2647 200 2364 54 
Q 2081 -91 1741 -91 
Q 1134 -91 817 281 
Q 500 653 500 1363 
z
" transform="scale(0.015625)"/>
      <path id="DejaVuSans-Bold-79" d="M 78 3500 
L 1197 3500 
L 2138 1125 
L 2938 3500 
L 4056 3500 
L 2584 -331 
Q 2363 -916 2067 -1148 
Q 1772 -1381 1288 -1381 
L 641 -1381 
L 641 -647 
L 991 -647 
Q 1275 -647 1404 -556 
Q 1534 -466 1606 -231 
L 1638 -134 
L 78 3500 
z
" transform="scale(0.015625)"/>
      <path id="DejaVuSans-Bold-74" d="M 1759 4494 
L 1759 3500 
L 2913 3500 
L 2913 2700 
L 1759 2700 
L 1759 1216 
Q 1759 972 1856 886 
Q 1953 800 2241 800 
L 2816 800 
L 2816 0 
L 1856 0 
Q 1194 0 917 276 
Q 641 553 641 1216 
L 641 2700 
L 84 2700 
L 84 3500 
L 641 3500 
L 641 4494 
L 1759 4494 
z
" transform="scale(0.015625)"/>
     </defs>
     <use xlink:href="#DejaVuSans-Bold-45"/>
     <use xlink:href="#DejaVuSans-Bold-6d" x="68.310547"/>
     <use xlink:href="#DejaVuSans-Bold-70" x="172.509766"/>
     <use xlink:href="#DejaVuSans-Bold-69" x="244.091797"/>
     <use xlink:href="#DejaVuSans-Bold-72" x="278.369141"/>
     <use xlink:href="#DejaVuSans-Bold-69" x="327.685547"/>
     <use xlink:href="#DejaVuSans-Bold-63" x="361.962891"/>
     <use xlink:href="#DejaVuSans-Bold-61" x="421.240234"/>
     <use xlink:href="#DejaVuSans-Bold-6c" x="488.720703"/>
     <use xlink:href="#DejaVuSans-Bold-20" x="522.998047"/>
     <use xlink:href="#DejaVuSans-Bold-73" x="557.8125"/>
     <use xlink:href="#DejaVuSans-Bold-75" x="617.333984"/>
     <use xlink:href="#DejaVuSans-Bold-6d" x="688.525391"/>
     <use xlink:href="#DejaVuSans-Bold-6d" x="792.724609"/>
     <use xlink:href="#DejaVuSans-Bold-61" x="896.923828"/>
     <use xlink:href="#DejaVuSans-Bold-72" x="964.404297"/>
     <use xlink:href="#DejaVuSans-Bold-79" x="1013.720703"/>
     <use xlink:href="#DejaVuSans-Bold-20" x="1078.90625"/>
     <use xlink:href="#DejaVuSans-Bold-73" x="1113.720703"/>
     <use xlink:href="#DejaVuSans-Bold-74" x="1173.242188"/>
     <use xlink:href="#DejaVuSans-Bold-61" x="1221.044922"/>
     <use xlink:href="#DejaVuSans-Bold-74" x="1288.525391"/>
     <use xlink:href="#DejaVuSans-Bold-69" x="1336.328125"/>
     <use xlink:href="#DejaVuSans-Bold-73" x="1370.605469"/>
     <use xlink:href="#DejaVuSans-Bold-74" x="1430.126953"/>
     <use xlink:href="#DejaVuSans-Bold-69" x="1477.929688"/>
     <use xlink:href="#DejaVuSans-Bold-63" x="1512.207031"/>
    </g>
   </g>
  </g>
 </g>
 <defs>
  <clipPath id="pd2823a4368">
   <rect x="72" y="47.52" width="446.4" height="304.92"/>
  </clipPath>
 </defs>
</svg>
