<?xml version="1.0" encoding="utf-8" standalone="no"?>
<!DOCTYPE svg PUBLIC "-//W3C//DTD SVG 1.1//EN"
  "http://www.w3.org/Graphics/SVG/1.1/DTD/svg11.dtd">
<svg xmlns:xlink="http://www.w3.org/1999/xlink" width="576pt" height="396pt" viewBox="0 0 576 396" xmlns="http://www.w3.org/2000/svg" version="1.1">
 <metadata>
  <rdf:RDF xmlns:dc="http://purl.org/dc/elements/1.1/" xmlns:cc="http://creativecommons.org/ns#" xmlns:rdf="http://www.w3.org/1999/02/22-rdf-syntax-ns#">
   <cc:Work>
    <dc:type rdf:resource="http://purl.org/dc/dcmitype/StillImage"/>
    <dc:date>2023-05-21T09:56:09.658656</dc:date>
    <dc:format>image/svg+xml</dc:format>
    <dc:creator>
     <cc:Agent>
      <dc:title>Matplotlib v3.6.0, https://matplotlib.org/</dc:title>
     </cc:Agent>
    </dc:creator>
   </cc:Work>
  </rdf:RDF>
 </metadata>
 <defs>
  <style type="text/css">*{stroke-linejoin: round; stroke-linecap: butt}</style>
 </defs>
 <g id="figure_1">
  <g id="patch_1">
   <path d="M 0 396 
L 576 396 
L 576 0 
L 0 0 
z
" style="fill: #ffffff"/>
  </g>
  <g id="axes_1">
   <g id="patch_2">
    <path d="M 72 352.44 
L 518.4 352.44 
L 518.4 47.52 
L 72 47.52 
z
" style="fill: #eaeaf2"/>
   </g>
   <g id="matplotlib.axis_1">
    <g id="xtick_1">
     <g id="line2d_1">
      <path d="M 92.290909 352.44 
L 92.290909 47.52 
" clip-path="url(#p8b1fc77639)" style="fill: none; stroke: #ffffff; stroke-linecap: round"/>
     </g>
     <g id="line2d_2"/>
     <g id="text_1">
      <!-- 0 -->
      <g style="fill: #262626" transform="translate(89.51044 366.686875) scale(0.1 -0.1)">
       <defs>
        <path id="LiberationSans-30" d="M 3309 2203 
Q 3309 1569 3189 1136 
Q 3069 703 2861 436 
Q 2653 169 2372 53 
Q 2091 -63 1772 -63 
Q 1450 -63 1172 53 
Q 894 169 689 434 
Q 484 700 367 1133 
Q 250 1566 250 2203 
Q 250 2869 367 3305 
Q 484 3741 690 4000 
Q 897 4259 1178 4364 
Q 1459 4469 1791 4469 
Q 2106 4469 2382 4364 
Q 2659 4259 2865 4000 
Q 3072 3741 3190 3305 
Q 3309 2869 3309 2203 
z
M 2738 2203 
Q 2738 2728 2675 3076 
Q 2613 3425 2491 3633 
Q 2369 3841 2192 3927 
Q 2016 4013 1791 4013 
Q 1553 4013 1372 3925 
Q 1191 3838 1067 3630 
Q 944 3422 881 3073 
Q 819 2725 819 2203 
Q 819 1697 883 1350 
Q 947 1003 1070 792 
Q 1194 581 1372 489 
Q 1550 397 1778 397 
Q 2000 397 2178 489 
Q 2356 581 2479 792 
Q 2603 1003 2670 1350 
Q 2738 1697 2738 2203 
z
" transform="scale(0.015625)"/>
       </defs>
       <use xlink:href="#LiberationSans-30"/>
      </g>
     </g>
    </g>
    <g id="xtick_2">
     <g id="line2d_3">
      <path d="M 170.332867 352.44 
L 170.332867 47.52 
" clip-path="url(#p8b1fc77639)" style="fill: none; stroke: #ffffff; stroke-linecap: round"/>
     </g>
     <g id="line2d_4"/>
     <g id="text_2">
      <!-- 20 -->
      <g style="fill: #262626" transform="translate(164.77193 366.686875) scale(0.1 -0.1)">
       <defs>
        <path id="LiberationSans-32" d="M 322 0 
L 322 397 
Q 481 763 711 1042 
Q 941 1322 1194 1548 
Q 1447 1775 1695 1969 
Q 1944 2163 2144 2356 
Q 2344 2550 2467 2762 
Q 2591 2975 2591 3244 
Q 2591 3431 2534 3573 
Q 2478 3716 2372 3812 
Q 2266 3909 2117 3957 
Q 1969 4006 1788 4006 
Q 1619 4006 1470 3959 
Q 1322 3913 1206 3819 
Q 1091 3725 1017 3586 
Q 944 3447 922 3263 
L 347 3316 
Q 375 3553 478 3762 
Q 581 3972 762 4130 
Q 944 4288 1198 4378 
Q 1453 4469 1788 4469 
Q 2116 4469 2372 4391 
Q 2628 4313 2804 4159 
Q 2981 4006 3075 3781 
Q 3169 3556 3169 3263 
Q 3169 3041 3089 2841 
Q 3009 2641 2876 2459 
Q 2744 2278 2569 2109 
Q 2394 1941 2203 1780 
Q 2013 1619 1819 1461 
Q 1625 1303 1454 1143 
Q 1284 984 1150 820 
Q 1016 656 941 478 
L 3238 478 
L 3238 0 
L 322 0 
z
" transform="scale(0.015625)"/>
       </defs>
       <use xlink:href="#LiberationSans-32"/>
       <use xlink:href="#LiberationSans-30" x="55.615234"/>
      </g>
     </g>
    </g>
    <g id="xtick_3">
     <g id="line2d_5">
      <path d="M 248.374825 352.44 
L 248.374825 47.52 
" clip-path="url(#p8b1fc77639)" style="fill: none; stroke: #ffffff; stroke-linecap: round"/>
     </g>
     <g id="line2d_6"/>
     <g id="text_3">
      <!-- 40 -->
      <g style="fill: #262626" transform="translate(242.813888 366.686875) scale(0.1 -0.1)">
       <defs>
        <path id="LiberationSans-34" d="M 2753 997 
L 2753 0 
L 2222 0 
L 2222 997 
L 147 997 
L 147 1434 
L 2163 4403 
L 2753 4403 
L 2753 1441 
L 3372 1441 
L 3372 997 
L 2753 997 
z
M 2222 3769 
Q 2216 3753 2191 3708 
Q 2166 3663 2134 3606 
Q 2103 3550 2070 3492 
Q 2038 3434 2013 3397 
L 884 1734 
Q 869 1709 839 1668 
Q 809 1628 778 1586 
Q 747 1544 715 1503 
Q 684 1463 666 1441 
L 2222 1441 
L 2222 3769 
z
" transform="scale(0.015625)"/>
       </defs>
       <use xlink:href="#LiberationSans-34"/>
       <use xlink:href="#LiberationSans-30" x="55.615234"/>
      </g>
     </g>
    </g>
    <g id="xtick_4">
     <g id="line2d_7">
      <path d="M 326.416783 352.44 
L 326.416783 47.52 
" clip-path="url(#p8b1fc77639)" style="fill: none; stroke: #ffffff; stroke-linecap: round"/>
     </g>
     <g id="line2d_8"/>
     <g id="text_4">
      <!-- 60 -->
      <g style="fill: #262626" transform="translate(320.855846 366.686875) scale(0.1 -0.1)">
       <defs>
        <path id="LiberationSans-36" d="M 3278 1441 
Q 3278 1109 3186 832 
Q 3094 556 2914 357 
Q 2734 159 2468 48 
Q 2203 -63 1856 -63 
Q 1472 -63 1184 84 
Q 897 231 706 507 
Q 516 784 420 1186 
Q 325 1588 325 2100 
Q 325 2688 433 3131 
Q 541 3575 744 3872 
Q 947 4169 1239 4319 
Q 1531 4469 1900 4469 
Q 2125 4469 2322 4422 
Q 2519 4375 2680 4270 
Q 2841 4166 2962 3994 
Q 3084 3822 3156 3572 
L 2619 3475 
Q 2531 3759 2339 3886 
Q 2147 4013 1894 4013 
Q 1663 4013 1475 3903 
Q 1288 3794 1156 3576 
Q 1025 3359 954 3031 
Q 884 2703 884 2266 
Q 1038 2550 1316 2698 
Q 1594 2847 1953 2847 
Q 2253 2847 2497 2750 
Q 2741 2653 2914 2470 
Q 3088 2288 3183 2027 
Q 3278 1766 3278 1441 
z
M 2706 1416 
Q 2706 1644 2650 1828 
Q 2594 2013 2481 2142 
Q 2369 2272 2203 2342 
Q 2038 2413 1819 2413 
Q 1666 2413 1509 2367 
Q 1353 2322 1226 2220 
Q 1100 2119 1020 1953 
Q 941 1788 941 1550 
Q 941 1306 1003 1095 
Q 1066 884 1183 728 
Q 1300 572 1465 481 
Q 1631 391 1838 391 
Q 2041 391 2202 461 
Q 2363 531 2475 664 
Q 2588 797 2647 987 
Q 2706 1178 2706 1416 
z
" transform="scale(0.015625)"/>
       </defs>
       <use xlink:href="#LiberationSans-36"/>
       <use xlink:href="#LiberationSans-30" x="55.615234"/>
      </g>
     </g>
    </g>
    <g id="xtick_5">
     <g id="line2d_9">
      <path d="M 404.458741 352.44 
L 404.458741 47.52 
" clip-path="url(#p8b1fc77639)" style="fill: none; stroke: #ffffff; stroke-linecap: round"/>
     </g>
     <g id="line2d_10"/>
     <g id="text_5">
      <!-- 80 -->
      <g style="fill: #262626" transform="translate(398.897804 366.686875) scale(0.1 -0.1)">
       <defs>
        <path id="LiberationSans-38" d="M 3281 1228 
Q 3281 947 3192 711 
Q 3103 475 2920 303 
Q 2738 131 2453 34 
Q 2169 -63 1781 -63 
Q 1394 -63 1111 34 
Q 828 131 642 301 
Q 456 472 367 708 
Q 278 944 278 1222 
Q 278 1463 351 1650 
Q 425 1838 548 1973 
Q 672 2109 830 2192 
Q 988 2275 1156 2303 
L 1156 2316 
Q 972 2359 826 2456 
Q 681 2553 582 2689 
Q 484 2825 432 2990 
Q 381 3156 381 3341 
Q 381 3572 470 3776 
Q 559 3981 734 4136 
Q 909 4291 1168 4380 
Q 1428 4469 1769 4469 
Q 2128 4469 2392 4378 
Q 2656 4288 2829 4133 
Q 3003 3978 3087 3772 
Q 3172 3566 3172 3334 
Q 3172 3153 3120 2987 
Q 3069 2822 2970 2686 
Q 2872 2550 2726 2454 
Q 2581 2359 2391 2322 
L 2391 2309 
Q 2581 2278 2743 2195 
Q 2906 2113 3025 1977 
Q 3144 1841 3212 1653 
Q 3281 1466 3281 1228 
z
M 2588 3303 
Q 2588 3469 2545 3606 
Q 2503 3744 2406 3842 
Q 2309 3941 2153 3995 
Q 1997 4050 1769 4050 
Q 1547 4050 1394 3995 
Q 1241 3941 1142 3842 
Q 1044 3744 1000 3606 
Q 956 3469 956 3303 
Q 956 3172 990 3034 
Q 1025 2897 1115 2784 
Q 1206 2672 1365 2600 
Q 1525 2528 1775 2528 
Q 2041 2528 2202 2600 
Q 2363 2672 2448 2784 
Q 2534 2897 2561 3034 
Q 2588 3172 2588 3303 
z
M 2697 1281 
Q 2697 1441 2653 1589 
Q 2609 1738 2503 1852 
Q 2397 1966 2217 2036 
Q 2038 2106 1769 2106 
Q 1522 2106 1348 2036 
Q 1175 1966 1067 1850 
Q 959 1734 909 1582 
Q 859 1431 859 1269 
Q 859 1066 909 898 
Q 959 731 1068 611 
Q 1178 491 1356 425 
Q 1534 359 1788 359 
Q 2044 359 2219 425 
Q 2394 491 2500 611 
Q 2606 731 2651 901 
Q 2697 1072 2697 1281 
z
" transform="scale(0.015625)"/>
       </defs>
       <use xlink:href="#LiberationSans-38"/>
       <use xlink:href="#LiberationSans-30" x="55.615234"/>
      </g>
     </g>
    </g>
    <g id="xtick_6">
     <g id="line2d_11">
      <path d="M 482.500699 352.44 
L 482.500699 47.52 
" clip-path="url(#p8b1fc77639)" style="fill: none; stroke: #ffffff; stroke-linecap: round"/>
     </g>
     <g id="line2d_12"/>
     <g id="text_6">
      <!-- 100 -->
      <g style="fill: #262626" transform="translate(474.159293 366.686875) scale(0.1 -0.1)">
       <defs>
        <path id="LiberationSans-31" d="M 488 0 
L 488 478 
L 1609 478 
L 1609 3866 
L 616 3156 
L 616 3688 
L 1656 4403 
L 2175 4403 
L 2175 478 
L 3247 478 
L 3247 0 
L 488 0 
z
" transform="scale(0.015625)"/>
       </defs>
       <use xlink:href="#LiberationSans-31"/>
       <use xlink:href="#LiberationSans-30" x="55.615234"/>
       <use xlink:href="#LiberationSans-30" x="111.230469"/>
      </g>
     </g>
    </g>
    <g id="text_7">
     <!-- AVG unique gap size -->
     <g style="fill: #262626" transform="translate(243.935703 380.733437) scale(0.11 -0.11)">
      <defs>
       <path id="LiberationSans-41" d="M 3647 0 
L 3144 1288 
L 1138 1288 
L 631 0 
L 13 0 
L 1809 4403 
L 2488 4403 
L 4256 0 
L 3647 0 
z
M 2400 3206 
Q 2350 3331 2304 3459 
Q 2259 3588 2225 3692 
Q 2191 3797 2167 3867 
Q 2144 3938 2141 3953 
Q 2134 3938 2112 3866 
Q 2091 3794 2055 3687 
Q 2019 3581 1973 3453 
Q 1928 3325 1881 3200 
L 1319 1753 
L 2966 1753 
L 2400 3206 
z
" transform="scale(0.015625)"/>
       <path id="LiberationSans-56" d="M 2444 0 
L 1825 0 
L 28 4403 
L 656 4403 
L 1875 1303 
Q 1922 1163 1969 1023 
Q 2016 884 2053 775 
Q 2097 647 2138 525 
Q 2175 641 2219 769 
Q 2256 878 2301 1015 
Q 2347 1153 2400 1303 
L 3613 4403 
L 4241 4403 
L 2444 0 
z
" transform="scale(0.015625)"/>
       <path id="LiberationSans-47" d="M 322 2222 
Q 322 2738 461 3153 
Q 600 3569 876 3861 
Q 1153 4153 1562 4311 
Q 1972 4469 2513 4469 
Q 2919 4469 3225 4397 
Q 3531 4325 3756 4190 
Q 3981 4056 4137 3864 
Q 4294 3672 4403 3431 
L 3834 3263 
Q 3753 3425 3639 3558 
Q 3525 3691 3362 3784 
Q 3200 3878 2986 3929 
Q 2772 3981 2497 3981 
Q 2097 3981 1801 3856 
Q 1506 3731 1312 3500 
Q 1119 3269 1023 2944 
Q 928 2619 928 2222 
Q 928 1825 1031 1495 
Q 1134 1166 1337 927 
Q 1541 688 1842 555 
Q 2144 422 2541 422 
Q 2800 422 3019 465 
Q 3238 509 3414 579 
Q 3591 650 3725 736 
Q 3859 822 3950 909 
L 3950 1703 
L 2634 1703 
L 2634 2203 
L 4500 2203 
L 4500 684 
Q 4353 534 4154 398 
Q 3956 263 3709 159 
Q 3463 56 3169 -3 
Q 2875 -63 2541 -63 
Q 1984 -63 1568 107 
Q 1153 278 876 583 
Q 600 888 461 1306 
Q 322 1725 322 2222 
z
" transform="scale(0.015625)"/>
       <path id="LiberationSans-20" transform="scale(0.015625)"/>
       <path id="LiberationSans-75" d="M 981 3381 
L 981 1238 
Q 981 991 1017 825 
Q 1053 659 1134 557 
Q 1216 456 1348 414 
Q 1481 372 1678 372 
Q 1878 372 2039 442 
Q 2200 513 2314 645 
Q 2428 778 2490 973 
Q 2553 1169 2553 1422 
L 2553 3381 
L 3116 3381 
L 3116 722 
Q 3116 616 3117 498 
Q 3119 381 3122 276 
Q 3125 172 3128 97 
Q 3131 22 3134 0 
L 2603 0 
Q 2600 16 2597 84 
Q 2594 153 2589 242 
Q 2584 331 2581 423 
Q 2578 516 2578 578 
L 2569 578 
Q 2488 431 2391 312 
Q 2294 194 2166 111 
Q 2038 28 1872 -17 
Q 1706 -63 1488 -63 
Q 1206 -63 1003 6 
Q 800 75 669 219 
Q 538 363 477 588 
Q 416 813 416 1128 
L 416 3381 
L 981 3381 
z
" transform="scale(0.015625)"/>
       <path id="LiberationSans-6e" d="M 2578 0 
L 2578 2144 
Q 2578 2391 2542 2556 
Q 2506 2722 2425 2823 
Q 2344 2925 2211 2967 
Q 2078 3009 1881 3009 
Q 1681 3009 1520 2939 
Q 1359 2869 1245 2736 
Q 1131 2603 1068 2408 
Q 1006 2213 1006 1959 
L 1006 0 
L 444 0 
L 444 2659 
Q 444 2766 442 2883 
Q 441 3000 437 3104 
Q 434 3209 431 3284 
Q 428 3359 425 3381 
L 956 3381 
Q 959 3366 962 3297 
Q 966 3228 970 3139 
Q 975 3050 978 2958 
Q 981 2866 981 2803 
L 991 2803 
Q 1072 2950 1169 3069 
Q 1266 3188 1394 3270 
Q 1522 3353 1687 3398 
Q 1853 3444 2072 3444 
Q 2353 3444 2556 3375 
Q 2759 3306 2890 3162 
Q 3022 3019 3083 2792 
Q 3144 2566 3144 2253 
L 3144 0 
L 2578 0 
z
" transform="scale(0.015625)"/>
       <path id="LiberationSans-69" d="M 428 4100 
L 428 4638 
L 991 4638 
L 991 4100 
L 428 4100 
z
M 428 0 
L 428 3381 
L 991 3381 
L 991 0 
L 428 0 
z
" transform="scale(0.015625)"/>
       <path id="LiberationSans-71" d="M 1513 -63 
Q 869 -63 569 371 
Q 269 806 269 1675 
Q 269 2556 576 3000 
Q 884 3444 1513 3444 
Q 1722 3444 1883 3406 
Q 2044 3369 2170 3295 
Q 2297 3222 2392 3112 
Q 2488 3003 2566 2856 
L 2572 2856 
Q 2572 2934 2576 3029 
Q 2581 3125 2586 3209 
Q 2591 3294 2597 3355 
Q 2603 3416 2609 3425 
L 3150 3425 
Q 3144 3372 3136 3147 
Q 3128 2922 3128 2503 
L 3128 -1328 
L 2566 -1328 
L 2566 44 
Q 2566 125 2567 212 
Q 2569 300 2572 378 
Q 2575 466 2578 556 
L 2572 556 
Q 2491 397 2392 280 
Q 2294 163 2166 86 
Q 2038 9 1877 -27 
Q 1716 -63 1513 -63 
z
M 2566 1731 
Q 2566 2100 2502 2350 
Q 2438 2600 2320 2750 
Q 2203 2900 2036 2964 
Q 1869 3028 1663 3028 
Q 1447 3028 1294 2948 
Q 1141 2869 1045 2705 
Q 950 2541 904 2289 
Q 859 2038 859 1694 
Q 859 1356 901 1106 
Q 944 856 1039 693 
Q 1134 531 1286 451 
Q 1438 372 1656 372 
Q 1844 372 2009 430 
Q 2175 488 2298 639 
Q 2422 791 2494 1055 
Q 2566 1319 2566 1731 
z
" transform="scale(0.015625)"/>
       <path id="LiberationSans-65" d="M 863 1572 
Q 863 1306 917 1082 
Q 972 859 1086 698 
Q 1200 538 1378 448 
Q 1556 359 1806 359 
Q 2172 359 2392 506 
Q 2613 653 2691 878 
L 3184 738 
Q 3131 597 3036 455 
Q 2941 313 2781 198 
Q 2622 84 2383 10 
Q 2144 -63 1806 -63 
Q 1056 -63 664 384 
Q 272 831 272 1713 
Q 272 2188 390 2517 
Q 509 2847 715 3053 
Q 922 3259 1197 3351 
Q 1472 3444 1784 3444 
Q 2209 3444 2495 3306 
Q 2781 3169 2954 2926 
Q 3128 2684 3201 2356 
Q 3275 2028 3275 1647 
L 3275 1572 
L 863 1572 
z
M 2694 2003 
Q 2647 2538 2422 2783 
Q 2197 3028 1775 3028 
Q 1634 3028 1479 2983 
Q 1325 2938 1194 2822 
Q 1063 2706 972 2507 
Q 881 2309 869 2003 
L 2694 2003 
z
" transform="scale(0.015625)"/>
       <path id="LiberationSans-67" d="M 1713 -1328 
Q 1422 -1328 1197 -1268 
Q 972 -1209 812 -1098 
Q 653 -988 553 -834 
Q 453 -681 409 -494 
L 975 -413 
Q 1031 -647 1223 -773 
Q 1416 -900 1728 -900 
Q 1919 -900 2075 -847 
Q 2231 -794 2340 -676 
Q 2450 -559 2509 -371 
Q 2569 -184 2569 84 
L 2569 628 
L 2563 628 
Q 2500 500 2408 383 
Q 2316 266 2183 175 
Q 2050 84 1875 29 
Q 1700 -25 1475 -25 
Q 1153 -25 923 83 
Q 694 191 548 406 
Q 403 622 336 942 
Q 269 1263 269 1684 
Q 269 2091 336 2416 
Q 403 2741 554 2967 
Q 706 3194 948 3314 
Q 1191 3434 1538 3434 
Q 1897 3434 2161 3270 
Q 2425 3106 2569 2803 
L 2575 2803 
Q 2575 2881 2579 2978 
Q 2584 3075 2589 3161 
Q 2594 3247 2600 3309 
Q 2606 3372 2613 3381 
L 3147 3381 
Q 3144 3353 3141 3286 
Q 3138 3219 3134 3125 
Q 3131 3031 3129 2917 
Q 3128 2803 3128 2681 
L 3128 97 
Q 3128 -613 2779 -970 
Q 2431 -1328 1713 -1328 
z
M 2569 1691 
Q 2569 2044 2492 2295 
Q 2416 2547 2291 2706 
Q 2166 2866 2005 2941 
Q 1844 3016 1675 3016 
Q 1459 3016 1304 2941 
Q 1150 2866 1048 2705 
Q 947 2544 898 2292 
Q 850 2041 850 1691 
Q 850 1325 898 1076 
Q 947 828 1047 675 
Q 1147 522 1300 456 
Q 1453 391 1666 391 
Q 1834 391 1995 462 
Q 2156 534 2284 690 
Q 2413 847 2491 1094 
Q 2569 1341 2569 1691 
z
" transform="scale(0.015625)"/>
       <path id="LiberationSans-61" d="M 1294 -63 
Q 784 -63 528 206 
Q 272 475 272 944 
Q 272 1278 398 1492 
Q 525 1706 729 1828 
Q 934 1950 1196 1997 
Q 1459 2044 1731 2050 
L 2491 2063 
L 2491 2247 
Q 2491 2456 2447 2603 
Q 2403 2750 2312 2840 
Q 2222 2931 2086 2973 
Q 1950 3016 1766 3016 
Q 1603 3016 1472 2992 
Q 1341 2969 1244 2908 
Q 1147 2847 1087 2742 
Q 1028 2638 1009 2478 
L 422 2531 
Q 453 2731 540 2898 
Q 628 3066 789 3187 
Q 950 3309 1192 3376 
Q 1434 3444 1778 3444 
Q 2416 3444 2737 3151 
Q 3059 2859 3059 2306 
L 3059 850 
Q 3059 600 3125 473 
Q 3191 347 3375 347 
Q 3422 347 3469 353 
Q 3516 359 3559 369 
L 3559 19 
Q 3453 -6 3348 -18 
Q 3244 -31 3125 -31 
Q 2966 -31 2852 11 
Q 2738 53 2666 139 
Q 2594 225 2556 351 
Q 2519 478 2509 647 
L 2491 647 
Q 2400 484 2292 353 
Q 2184 222 2040 130 
Q 1897 38 1714 -12 
Q 1531 -63 1294 -63 
z
M 1422 359 
Q 1691 359 1892 457 
Q 2094 556 2226 709 
Q 2359 863 2425 1044 
Q 2491 1225 2491 1391 
L 2491 1669 
L 1875 1656 
Q 1669 1653 1483 1626 
Q 1297 1600 1156 1522 
Q 1016 1444 933 1303 
Q 850 1163 850 934 
Q 850 659 998 509 
Q 1147 359 1422 359 
z
" transform="scale(0.015625)"/>
       <path id="LiberationSans-70" d="M 3291 1706 
Q 3291 1322 3228 997 
Q 3166 672 3020 437 
Q 2875 203 2636 70 
Q 2397 -63 2047 -63 
Q 1684 -63 1412 75 
Q 1141 213 997 525 
L 981 525 
Q 984 519 986 469 
Q 988 419 989 344 
Q 991 269 992 176 
Q 994 84 994 -6 
L 994 -1328 
L 431 -1328 
L 431 2691 
Q 431 2813 429 2925 
Q 428 3038 425 3130 
Q 422 3222 419 3287 
Q 416 3353 413 3381 
L 956 3381 
Q 959 3372 964 3315 
Q 969 3259 973 3179 
Q 978 3100 983 3009 
Q 988 2919 988 2838 
L 1000 2838 
Q 1078 3000 1178 3114 
Q 1278 3228 1406 3301 
Q 1534 3375 1692 3408 
Q 1850 3441 2047 3441 
Q 2397 3441 2636 3316 
Q 2875 3191 3020 2964 
Q 3166 2738 3228 2417 
Q 3291 2097 3291 1706 
z
M 2700 1694 
Q 2700 2006 2662 2250 
Q 2625 2494 2533 2662 
Q 2441 2831 2287 2918 
Q 2134 3006 1903 3006 
Q 1716 3006 1550 2953 
Q 1384 2900 1261 2750 
Q 1138 2600 1066 2336 
Q 994 2072 994 1650 
Q 994 1291 1053 1042 
Q 1113 794 1227 641 
Q 1341 488 1509 420 
Q 1678 353 1897 353 
Q 2131 353 2286 443 
Q 2441 534 2533 706 
Q 2625 878 2662 1126 
Q 2700 1375 2700 1694 
z
" transform="scale(0.015625)"/>
       <path id="LiberationSans-73" d="M 2969 934 
Q 2969 697 2876 511 
Q 2784 325 2609 198 
Q 2434 72 2179 4 
Q 1925 -63 1597 -63 
Q 1303 -63 1067 -17 
Q 831 28 653 128 
Q 475 228 354 392 
Q 234 556 178 794 
L 675 891 
Q 747 619 972 492 
Q 1197 366 1597 366 
Q 1778 366 1929 391 
Q 2081 416 2190 477 
Q 2300 538 2361 639 
Q 2422 741 2422 891 
Q 2422 1044 2350 1142 
Q 2278 1241 2150 1306 
Q 2022 1372 1839 1420 
Q 1656 1469 1438 1528 
Q 1234 1581 1034 1647 
Q 834 1713 673 1820 
Q 513 1928 413 2087 
Q 313 2247 313 2488 
Q 313 2950 642 3192 
Q 972 3434 1603 3434 
Q 2163 3434 2492 3237 
Q 2822 3041 2909 2606 
L 2403 2544 
Q 2375 2675 2300 2764 
Q 2225 2853 2119 2908 
Q 2013 2963 1880 2986 
Q 1747 3009 1603 3009 
Q 1222 3009 1040 2893 
Q 859 2778 859 2544 
Q 859 2406 926 2317 
Q 994 2228 1114 2167 
Q 1234 2106 1403 2061 
Q 1572 2016 1775 1966 
Q 1909 1931 2050 1892 
Q 2191 1853 2323 1798 
Q 2456 1744 2573 1670 
Q 2691 1597 2778 1494 
Q 2866 1391 2917 1253 
Q 2969 1116 2969 934 
z
" transform="scale(0.015625)"/>
       <path id="LiberationSans-7a" d="M 153 0 
L 153 428 
L 2219 2947 
L 278 2947 
L 278 3381 
L 2853 3381 
L 2853 2953 
L 784 434 
L 2969 434 
L 2969 0 
L 153 0 
z
" transform="scale(0.015625)"/>
      </defs>
      <use xlink:href="#LiberationSans-41"/>
      <use xlink:href="#LiberationSans-56" x="59.324219"/>
      <use xlink:href="#LiberationSans-47" x="126.023438"/>
      <use xlink:href="#LiberationSans-20" x="203.806641"/>
      <use xlink:href="#LiberationSans-75" x="231.589844"/>
      <use xlink:href="#LiberationSans-6e" x="287.205078"/>
      <use xlink:href="#LiberationSans-69" x="342.820312"/>
      <use xlink:href="#LiberationSans-71" x="365.037109"/>
      <use xlink:href="#LiberationSans-75" x="420.652344"/>
      <use xlink:href="#LiberationSans-65" x="476.267578"/>
      <use xlink:href="#LiberationSans-20" x="531.882812"/>
      <use xlink:href="#LiberationSans-67" x="559.666016"/>
      <use xlink:href="#LiberationSans-61" x="615.28125"/>
      <use xlink:href="#LiberationSans-70" x="670.896484"/>
      <use xlink:href="#LiberationSans-20" x="726.511719"/>
      <use xlink:href="#LiberationSans-73" x="754.294922"/>
      <use xlink:href="#LiberationSans-69" x="804.294922"/>
      <use xlink:href="#LiberationSans-7a" x="826.511719"/>
      <use xlink:href="#LiberationSans-65" x="876.511719"/>
     </g>
    </g>
   </g>
   <g id="matplotlib.axis_2">
    <g id="ytick_1">
     <g id="line2d_13">
      <path d="M 72 352.44 
L 518.4 352.44 
" clip-path="url(#p8b1fc77639)" style="fill: none; stroke: #ffffff; stroke-linecap: round"/>
     </g>
     <g id="line2d_14"/>
     <g id="text_8">
      <!-- 0 -->
      <g style="fill: #262626" transform="translate(59.439062 356.063438) scale(0.1 -0.1)">
       <use xlink:href="#LiberationSans-30"/>
      </g>
     </g>
    </g>
    <g id="ytick_2">
     <g id="line2d_15">
      <path d="M 72 311.630556 
L 518.4 311.630556 
" clip-path="url(#p8b1fc77639)" style="fill: none; stroke: #ffffff; stroke-linecap: round"/>
     </g>
     <g id="line2d_16"/>
     <g id="text_9">
      <!-- 500 -->
      <g style="fill: #262626" transform="translate(48.317188 315.253994) scale(0.1 -0.1)">
       <defs>
        <path id="LiberationSans-35" d="M 3291 1434 
Q 3291 1103 3191 828 
Q 3091 553 2894 354 
Q 2697 156 2405 46 
Q 2113 -63 1728 -63 
Q 1381 -63 1123 18 
Q 866 100 687 242 
Q 509 384 404 575 
Q 300 766 256 984 
L 825 1050 
Q 859 925 921 808 
Q 984 691 1092 598 
Q 1200 506 1358 451 
Q 1516 397 1741 397 
Q 1959 397 2137 464 
Q 2316 531 2442 662 
Q 2569 794 2637 984 
Q 2706 1175 2706 1422 
Q 2706 1625 2640 1795 
Q 2575 1966 2453 2089 
Q 2331 2213 2154 2281 
Q 1978 2350 1753 2350 
Q 1613 2350 1494 2325 
Q 1375 2300 1273 2256 
Q 1172 2213 1089 2155 
Q 1006 2097 934 2034 
L 384 2034 
L 531 4403 
L 3034 4403 
L 3034 3925 
L 1044 3925 
L 959 2528 
Q 1109 2644 1334 2726 
Q 1559 2809 1869 2809 
Q 2197 2809 2459 2709 
Q 2722 2609 2906 2426 
Q 3091 2244 3191 1991 
Q 3291 1738 3291 1434 
z
" transform="scale(0.015625)"/>
       </defs>
       <use xlink:href="#LiberationSans-35"/>
       <use xlink:href="#LiberationSans-30" x="55.615234"/>
       <use xlink:href="#LiberationSans-30" x="111.230469"/>
      </g>
     </g>
    </g>
    <g id="ytick_3">
     <g id="line2d_17">
      <path d="M 72 270.821113 
L 518.4 270.821113 
" clip-path="url(#p8b1fc77639)" style="fill: none; stroke: #ffffff; stroke-linecap: round"/>
     </g>
     <g id="line2d_18"/>
     <g id="text_10">
      <!-- 1000 -->
      <g style="fill: #262626" transform="translate(42.75625 274.44455) scale(0.1 -0.1)">
       <use xlink:href="#LiberationSans-31"/>
       <use xlink:href="#LiberationSans-30" x="55.615234"/>
       <use xlink:href="#LiberationSans-30" x="111.230469"/>
       <use xlink:href="#LiberationSans-30" x="166.845703"/>
      </g>
     </g>
    </g>
    <g id="ytick_4">
     <g id="line2d_19">
      <path d="M 72 230.011669 
L 518.4 230.011669 
" clip-path="url(#p8b1fc77639)" style="fill: none; stroke: #ffffff; stroke-linecap: round"/>
     </g>
     <g id="line2d_20"/>
     <g id="text_11">
      <!-- 1500 -->
      <g style="fill: #262626" transform="translate(42.75625 233.635107) scale(0.1 -0.1)">
       <use xlink:href="#LiberationSans-31"/>
       <use xlink:href="#LiberationSans-35" x="55.615234"/>
       <use xlink:href="#LiberationSans-30" x="111.230469"/>
       <use xlink:href="#LiberationSans-30" x="166.845703"/>
      </g>
     </g>
    </g>
    <g id="ytick_5">
     <g id="line2d_21">
      <path d="M 72 189.202226 
L 518.4 189.202226 
" clip-path="url(#p8b1fc77639)" style="fill: none; stroke: #ffffff; stroke-linecap: round"/>
     </g>
     <g id="line2d_22"/>
     <g id="text_12">
      <!-- 2000 -->
      <g style="fill: #262626" transform="translate(42.75625 192.825663) scale(0.1 -0.1)">
       <use xlink:href="#LiberationSans-32"/>
       <use xlink:href="#LiberationSans-30" x="55.615234"/>
       <use xlink:href="#LiberationSans-30" x="111.230469"/>
       <use xlink:href="#LiberationSans-30" x="166.845703"/>
      </g>
     </g>
    </g>
    <g id="ytick_6">
     <g id="line2d_23">
      <path d="M 72 148.392782 
L 518.4 148.392782 
" clip-path="url(#p8b1fc77639)" style="fill: none; stroke: #ffffff; stroke-linecap: round"/>
     </g>
     <g id="line2d_24"/>
     <g id="text_13">
      <!-- 2500 -->
      <g style="fill: #262626" transform="translate(42.75625 152.01622) scale(0.1 -0.1)">
       <use xlink:href="#LiberationSans-32"/>
       <use xlink:href="#LiberationSans-35" x="55.615234"/>
       <use xlink:href="#LiberationSans-30" x="111.230469"/>
       <use xlink:href="#LiberationSans-30" x="166.845703"/>
      </g>
     </g>
    </g>
    <g id="ytick_7">
     <g id="line2d_25">
      <path d="M 72 107.583339 
L 518.4 107.583339 
" clip-path="url(#p8b1fc77639)" style="fill: none; stroke: #ffffff; stroke-linecap: round"/>
     </g>
     <g id="line2d_26"/>
     <g id="text_14">
      <!-- 3000 -->
      <g style="fill: #262626" transform="translate(42.75625 111.206776) scale(0.1 -0.1)">
       <defs>
        <path id="LiberationSans-33" d="M 3278 1216 
Q 3278 913 3179 675 
Q 3081 438 2892 273 
Q 2703 109 2423 23 
Q 2144 -63 1784 -63 
Q 1375 -63 1095 39 
Q 816 141 634 308 
Q 453 475 362 689 
Q 272 903 244 1131 
L 825 1184 
Q 850 1009 917 865 
Q 984 722 1100 619 
Q 1216 516 1384 459 
Q 1553 403 1784 403 
Q 2209 403 2451 612 
Q 2694 822 2694 1234 
Q 2694 1478 2586 1626 
Q 2478 1775 2317 1858 
Q 2156 1941 1967 1969 
Q 1778 1997 1619 1997 
L 1300 1997 
L 1300 2484 
L 1606 2484 
Q 1766 2484 1937 2517 
Q 2109 2550 2251 2636 
Q 2394 2722 2486 2869 
Q 2578 3016 2578 3244 
Q 2578 3597 2370 3801 
Q 2163 4006 1753 4006 
Q 1381 4006 1151 3815 
Q 922 3625 884 3278 
L 319 3322 
Q 353 3613 478 3828 
Q 603 4044 795 4186 
Q 988 4328 1234 4398 
Q 1481 4469 1759 4469 
Q 2128 4469 2393 4376 
Q 2659 4284 2828 4126 
Q 2997 3969 3076 3756 
Q 3156 3544 3156 3303 
Q 3156 3109 3103 2940 
Q 3050 2772 2937 2637 
Q 2825 2503 2651 2406 
Q 2478 2309 2234 2259 
L 2234 2247 
Q 2500 2219 2697 2126 
Q 2894 2034 3022 1896 
Q 3150 1759 3214 1584 
Q 3278 1409 3278 1216 
z
" transform="scale(0.015625)"/>
       </defs>
       <use xlink:href="#LiberationSans-33"/>
       <use xlink:href="#LiberationSans-30" x="55.615234"/>
       <use xlink:href="#LiberationSans-30" x="111.230469"/>
       <use xlink:href="#LiberationSans-30" x="166.845703"/>
      </g>
     </g>
    </g>
    <g id="ytick_8">
     <g id="line2d_27">
      <path d="M 72 66.773895 
L 518.4 66.773895 
" clip-path="url(#p8b1fc77639)" style="fill: none; stroke: #ffffff; stroke-linecap: round"/>
     </g>
     <g id="line2d_28"/>
     <g id="text_15">
      <!-- 3500 -->
      <g style="fill: #262626" transform="translate(42.75625 70.397333) scale(0.1 -0.1)">
       <use xlink:href="#LiberationSans-33"/>
       <use xlink:href="#LiberationSans-35" x="55.615234"/>
       <use xlink:href="#LiberationSans-30" x="111.230469"/>
       <use xlink:href="#LiberationSans-30" x="166.845703"/>
      </g>
     </g>
    </g>
    <g id="text_16">
     <!-- Number of simulated MSAs -->
     <g style="fill: #262626" transform="translate(36.47375 266.916719) rotate(-90) scale(0.11 -0.11)">
      <defs>
       <path id="LiberationSans-4e" d="M 3381 0 
L 1025 3750 
Q 1031 3597 1041 3447 
Q 1047 3319 1051 3176 
Q 1056 3034 1056 2925 
L 1056 0 
L 525 0 
L 525 4403 
L 1219 4403 
L 3600 628 
Q 3591 781 3581 934 
Q 3575 1066 3569 1220 
Q 3563 1375 3563 1516 
L 3563 4403 
L 4100 4403 
L 4100 0 
L 3381 0 
z
" transform="scale(0.015625)"/>
       <path id="LiberationSans-6d" d="M 2400 0 
L 2400 2144 
Q 2400 2391 2369 2556 
Q 2338 2722 2264 2823 
Q 2191 2925 2072 2967 
Q 1953 3009 1781 3009 
Q 1603 3009 1459 2939 
Q 1316 2869 1214 2736 
Q 1113 2603 1058 2408 
Q 1003 2213 1003 1959 
L 1003 0 
L 444 0 
L 444 2659 
Q 444 2766 442 2883 
Q 441 3000 437 3104 
Q 434 3209 431 3284 
Q 428 3359 425 3381 
L 956 3381 
Q 959 3366 962 3297 
Q 966 3228 970 3139 
Q 975 3050 978 2958 
Q 981 2866 981 2803 
L 991 2803 
Q 1066 2950 1153 3069 
Q 1241 3188 1358 3270 
Q 1475 3353 1626 3398 
Q 1778 3444 1978 3444 
Q 2363 3444 2586 3291 
Q 2809 3138 2897 2803 
L 2906 2803 
Q 2981 2950 3075 3069 
Q 3169 3188 3294 3270 
Q 3419 3353 3575 3398 
Q 3731 3444 3931 3444 
Q 4188 3444 4373 3375 
Q 4559 3306 4678 3162 
Q 4797 3019 4853 2792 
Q 4909 2566 4909 2253 
L 4909 0 
L 4353 0 
L 4353 2144 
Q 4353 2391 4322 2556 
Q 4291 2722 4217 2823 
Q 4144 2925 4025 2967 
Q 3906 3009 3734 3009 
Q 3556 3009 3412 2942 
Q 3269 2875 3167 2744 
Q 3066 2613 3011 2416 
Q 2956 2219 2956 1959 
L 2956 0 
L 2400 0 
z
" transform="scale(0.015625)"/>
       <path id="LiberationSans-62" d="M 3291 1706 
Q 3291 -63 2047 -63 
Q 1663 -63 1408 76 
Q 1153 216 994 525 
L 988 525 
Q 988 444 983 356 
Q 978 269 973 194 
Q 969 119 964 66 
Q 959 13 956 0 
L 413 0 
Q 416 28 419 95 
Q 422 163 425 256 
Q 428 350 429 462 
Q 431 575 431 697 
L 431 4638 
L 994 4638 
L 994 3316 
Q 994 3222 992 3136 
Q 991 3050 988 2984 
Q 984 2906 981 2838 
L 994 2838 
Q 1150 3163 1408 3303 
Q 1666 3444 2047 3444 
Q 2688 3444 2989 3012 
Q 3291 2581 3291 1706 
z
M 2700 1688 
Q 2700 2038 2656 2288 
Q 2613 2538 2516 2698 
Q 2419 2859 2269 2934 
Q 2119 3009 1903 3009 
Q 1681 3009 1511 2937 
Q 1341 2866 1227 2706 
Q 1113 2547 1053 2287 
Q 994 2028 994 1653 
Q 994 1291 1053 1044 
Q 1113 797 1227 642 
Q 1341 488 1509 420 
Q 1678 353 1897 353 
Q 2103 353 2253 425 
Q 2403 497 2503 656 
Q 2603 816 2651 1070 
Q 2700 1325 2700 1688 
z
" transform="scale(0.015625)"/>
       <path id="LiberationSans-72" d="M 444 0 
L 444 2594 
Q 444 2700 442 2811 
Q 441 2922 437 3025 
Q 434 3128 431 3218 
Q 428 3309 425 3381 
L 956 3381 
Q 959 3309 964 3217 
Q 969 3125 973 3028 
Q 978 2931 979 2842 
Q 981 2753 981 2691 
L 994 2691 
Q 1053 2884 1120 3026 
Q 1188 3169 1278 3261 
Q 1369 3353 1494 3398 
Q 1619 3444 1797 3444 
Q 1866 3444 1928 3433 
Q 1991 3422 2025 3413 
L 2025 2897 
Q 1969 2913 1894 2920 
Q 1819 2928 1725 2928 
Q 1531 2928 1395 2840 
Q 1259 2753 1173 2598 
Q 1088 2444 1047 2230 
Q 1006 2016 1006 1763 
L 1006 0 
L 444 0 
z
" transform="scale(0.015625)"/>
       <path id="LiberationSans-6f" d="M 3291 1694 
Q 3291 806 2900 371 
Q 2509 -63 1766 -63 
Q 1413 -63 1134 43 
Q 856 150 664 369 
Q 472 588 370 917 
Q 269 1247 269 1694 
Q 269 3444 1784 3444 
Q 2178 3444 2464 3334 
Q 2750 3225 2933 3006 
Q 3116 2788 3203 2459 
Q 3291 2131 3291 1694 
z
M 2700 1694 
Q 2700 2088 2639 2344 
Q 2578 2600 2461 2753 
Q 2344 2906 2175 2967 
Q 2006 3028 1794 3028 
Q 1578 3028 1404 2964 
Q 1231 2900 1109 2745 
Q 988 2591 923 2334 
Q 859 2078 859 1694 
Q 859 1300 928 1042 
Q 997 784 1117 631 
Q 1238 478 1402 415 
Q 1566 353 1759 353 
Q 1975 353 2150 414 
Q 2325 475 2447 628 
Q 2569 781 2634 1040 
Q 2700 1300 2700 1694 
z
" transform="scale(0.015625)"/>
       <path id="LiberationSans-66" d="M 1128 2972 
L 1128 0 
L 566 0 
L 566 2972 
L 91 2972 
L 91 3381 
L 566 3381 
L 566 3763 
Q 566 3947 600 4105 
Q 634 4263 726 4380 
Q 819 4497 978 4564 
Q 1138 4631 1391 4631 
Q 1491 4631 1598 4622 
Q 1706 4613 1788 4594 
L 1788 4166 
Q 1734 4175 1664 4183 
Q 1594 4191 1538 4191 
Q 1413 4191 1333 4156 
Q 1253 4122 1208 4058 
Q 1163 3994 1145 3900 
Q 1128 3806 1128 3684 
L 1128 3381 
L 1788 3381 
L 1788 2972 
L 1128 2972 
z
" transform="scale(0.015625)"/>
       <path id="LiberationSans-6c" d="M 431 0 
L 431 4638 
L 994 4638 
L 994 0 
L 431 0 
z
" transform="scale(0.015625)"/>
       <path id="LiberationSans-74" d="M 1731 25 
Q 1603 -9 1470 -29 
Q 1338 -50 1163 -50 
Q 488 -50 488 716 
L 488 2972 
L 97 2972 
L 97 3381 
L 509 3381 
L 675 4138 
L 1050 4138 
L 1050 3381 
L 1675 3381 
L 1675 2972 
L 1050 2972 
L 1050 838 
Q 1050 594 1129 495 
Q 1209 397 1406 397 
Q 1488 397 1564 409 
Q 1641 422 1731 441 
L 1731 25 
z
" transform="scale(0.015625)"/>
       <path id="LiberationSans-64" d="M 2566 544 
Q 2409 219 2151 78 
Q 1894 -63 1513 -63 
Q 872 -63 570 368 
Q 269 800 269 1675 
Q 269 3444 1513 3444 
Q 1897 3444 2153 3303 
Q 2409 3163 2566 2856 
L 2572 2856 
Q 2572 2888 2570 2955 
Q 2569 3022 2567 3095 
Q 2566 3169 2566 3234 
Q 2566 3300 2566 3328 
L 2566 4638 
L 3128 4638 
L 3128 697 
Q 3128 575 3129 462 
Q 3131 350 3134 256 
Q 3138 163 3141 95 
Q 3144 28 3147 0 
L 2609 0 
Q 2603 31 2598 89 
Q 2594 147 2589 222 
Q 2584 297 2581 380 
Q 2578 463 2578 544 
L 2566 544 
z
M 859 1694 
Q 859 1344 903 1094 
Q 947 844 1044 683 
Q 1141 522 1291 447 
Q 1441 372 1656 372 
Q 1878 372 2048 444 
Q 2219 516 2333 677 
Q 2447 838 2506 1097 
Q 2566 1356 2566 1731 
Q 2566 2091 2506 2339 
Q 2447 2588 2331 2741 
Q 2216 2894 2048 2961 
Q 1881 3028 1663 3028 
Q 1456 3028 1306 2956 
Q 1156 2884 1056 2725 
Q 956 2566 907 2311 
Q 859 2056 859 1694 
z
" transform="scale(0.015625)"/>
       <path id="LiberationSans-4d" d="M 4269 0 
L 4269 2938 
Q 4269 3097 4272 3262 
Q 4275 3428 4281 3566 
Q 4288 3725 4297 3875 
Q 4253 3716 4206 3559 
Q 4166 3425 4117 3273 
Q 4069 3122 4022 3000 
L 2884 0 
L 2466 0 
L 1313 3000 
Q 1294 3047 1273 3109 
Q 1253 3172 1229 3242 
Q 1206 3313 1182 3386 
Q 1159 3459 1138 3531 
Q 1084 3697 1034 3875 
Q 1038 3700 1044 3528 
Q 1050 3381 1053 3220 
Q 1056 3059 1056 2938 
L 1056 0 
L 525 0 
L 525 4403 
L 1309 4403 
L 2481 1350 
Q 2503 1288 2534 1189 
Q 2566 1091 2594 987 
Q 2622 884 2645 792 
Q 2669 700 2678 650 
Q 2688 700 2713 794 
Q 2738 888 2770 991 
Q 2803 1094 2834 1191 
Q 2866 1288 2891 1350 
L 4041 4403 
L 4806 4403 
L 4806 0 
L 4269 0 
z
" transform="scale(0.015625)"/>
       <path id="LiberationSans-53" d="M 3975 1216 
Q 3975 938 3867 703 
Q 3759 469 3534 298 
Q 3309 128 2967 32 
Q 2625 -63 2156 -63 
Q 1334 -63 875 225 
Q 416 513 291 1056 
L 869 1172 
Q 913 1000 1003 859 
Q 1094 719 1248 617 
Q 1403 516 1631 459 
Q 1859 403 2178 403 
Q 2444 403 2666 448 
Q 2888 494 3047 587 
Q 3206 681 3295 829 
Q 3384 978 3384 1184 
Q 3384 1400 3286 1534 
Q 3188 1669 3009 1756 
Q 2831 1844 2584 1903 
Q 2338 1963 2038 2031 
Q 1853 2072 1667 2120 
Q 1481 2169 1311 2236 
Q 1141 2303 991 2393 
Q 841 2484 731 2611 
Q 622 2738 559 2905 
Q 497 3072 497 3291 
Q 497 3603 623 3826 
Q 750 4050 975 4194 
Q 1200 4338 1506 4403 
Q 1813 4469 2169 4469 
Q 2578 4469 2868 4405 
Q 3159 4341 3359 4212 
Q 3559 4084 3679 3895 
Q 3800 3706 3872 3456 
L 3284 3353 
Q 3241 3513 3158 3638 
Q 3075 3763 2940 3847 
Q 2806 3931 2614 3975 
Q 2422 4019 2163 4019 
Q 1856 4019 1648 3964 
Q 1441 3909 1314 3815 
Q 1188 3722 1133 3595 
Q 1078 3469 1078 3322 
Q 1078 3125 1176 2998 
Q 1275 2872 1444 2787 
Q 1613 2703 1834 2647 
Q 2056 2591 2306 2534 
Q 2509 2488 2711 2439 
Q 2913 2391 3097 2323 
Q 3281 2256 3442 2165 
Q 3603 2075 3722 1944 
Q 3841 1813 3908 1634 
Q 3975 1456 3975 1216 
z
" transform="scale(0.015625)"/>
      </defs>
      <use xlink:href="#LiberationSans-4e"/>
      <use xlink:href="#LiberationSans-75" x="72.216797"/>
      <use xlink:href="#LiberationSans-6d" x="127.832031"/>
      <use xlink:href="#LiberationSans-62" x="211.132812"/>
      <use xlink:href="#LiberationSans-65" x="266.748047"/>
      <use xlink:href="#LiberationSans-72" x="322.363281"/>
      <use xlink:href="#LiberationSans-20" x="355.664062"/>
      <use xlink:href="#LiberationSans-6f" x="383.447266"/>
      <use xlink:href="#LiberationSans-66" x="439.0625"/>
      <use xlink:href="#LiberationSans-20" x="466.845703"/>
      <use xlink:href="#LiberationSans-73" x="494.628906"/>
      <use xlink:href="#LiberationSans-69" x="544.628906"/>
      <use xlink:href="#LiberationSans-6d" x="566.845703"/>
      <use xlink:href="#LiberationSans-75" x="650.146484"/>
      <use xlink:href="#LiberationSans-6c" x="705.761719"/>
      <use xlink:href="#LiberationSans-61" x="727.978516"/>
      <use xlink:href="#LiberationSans-74" x="783.59375"/>
      <use xlink:href="#LiberationSans-65" x="811.376953"/>
      <use xlink:href="#LiberationSans-64" x="866.992188"/>
      <use xlink:href="#LiberationSans-20" x="922.607422"/>
      <use xlink:href="#LiberationSans-4d" x="950.390625"/>
      <use xlink:href="#LiberationSans-53" x="1033.691406"/>
      <use xlink:href="#LiberationSans-41" x="1100.390625"/>
      <use xlink:href="#LiberationSans-73" x="1167.089844"/>
     </g>
    </g>
   </g>
   <g id="patch_3">
    <path d="M 92.290909 352.44 
L 96.349091 352.44 
L 96.349091 318.649781 
L 92.290909 318.649781 
z
" clip-path="url(#p8b1fc77639)" style="fill: #4c72b0; fill-opacity: 0.75; stroke: #000000; stroke-width: 0.3; stroke-linejoin: miter"/>
   </g>
   <g id="patch_4">
    <path d="M 96.349091 352.44 
L 100.407273 352.44 
L 100.407273 62.04 
L 96.349091 62.04 
z
" clip-path="url(#p8b1fc77639)" style="fill: #4c72b0; fill-opacity: 0.75; stroke: #000000; stroke-width: 0.3; stroke-linejoin: miter"/>
   </g>
   <g id="patch_5">
    <path d="M 100.407273 352.44 
L 104.465455 352.44 
L 104.465455 117.540843 
L 100.407273 117.540843 
z
" clip-path="url(#p8b1fc77639)" style="fill: #4c72b0; fill-opacity: 0.75; stroke: #000000; stroke-width: 0.3; stroke-linejoin: miter"/>
   </g>
   <g id="patch_6">
    <path d="M 104.465455 352.44 
L 108.523636 352.44 
L 108.523636 250.089916 
L 104.465455 250.089916 
z
" clip-path="url(#p8b1fc77639)" style="fill: #4c72b0; fill-opacity: 0.75; stroke: #000000; stroke-width: 0.3; stroke-linejoin: miter"/>
   </g>
   <g id="patch_7">
    <path d="M 108.523636 352.44 
L 112.581818 352.44 
L 112.581818 300.856863 
L 108.523636 300.856863 
z
" clip-path="url(#p8b1fc77639)" style="fill: #4c72b0; fill-opacity: 0.75; stroke: #000000; stroke-width: 0.3; stroke-linejoin: miter"/>
   </g>
   <g id="patch_8">
    <path d="M 112.581818 352.44 
L 116.64 352.44 
L 116.64 323.383676 
L 112.581818 323.383676 
z
" clip-path="url(#p8b1fc77639)" style="fill: #4c72b0; fill-opacity: 0.75; stroke: #000000; stroke-width: 0.3; stroke-linejoin: miter"/>
   </g>
   <g id="patch_9">
    <path d="M 116.64 352.44 
L 120.698182 352.44 
L 120.698182 334.647083 
L 116.64 334.647083 
z
" clip-path="url(#p8b1fc77639)" style="fill: #4c72b0; fill-opacity: 0.75; stroke: #000000; stroke-width: 0.3; stroke-linejoin: miter"/>
   </g>
   <g id="patch_10">
    <path d="M 120.698182 352.44 
L 124.756364 352.44 
L 124.756364 339.870691 
L 120.698182 339.870691 
z
" clip-path="url(#p8b1fc77639)" style="fill: #4c72b0; fill-opacity: 0.75; stroke: #000000; stroke-width: 0.3; stroke-linejoin: miter"/>
   </g>
   <g id="patch_11">
    <path d="M 124.756364 352.44 
L 128.814545 352.44 
L 128.814545 342.972209 
L 124.756364 342.972209 
z
" clip-path="url(#p8b1fc77639)" style="fill: #4c72b0; fill-opacity: 0.75; stroke: #000000; stroke-width: 0.3; stroke-linejoin: miter"/>
   </g>
   <g id="patch_12">
    <path d="M 128.814545 352.44 
L 132.872727 352.44 
L 132.872727 345.257538 
L 128.814545 345.257538 
z
" clip-path="url(#p8b1fc77639)" style="fill: #4c72b0; fill-opacity: 0.75; stroke: #000000; stroke-width: 0.3; stroke-linejoin: miter"/>
   </g>
   <g id="patch_13">
    <path d="M 132.872727 352.44 
L 136.930909 352.44 
L 136.930909 346.645059 
L 132.872727 346.645059 
z
" clip-path="url(#p8b1fc77639)" style="fill: #4c72b0; fill-opacity: 0.75; stroke: #000000; stroke-width: 0.3; stroke-linejoin: miter"/>
   </g>
   <g id="patch_14">
    <path d="M 136.930909 352.44 
L 140.989091 352.44 
L 140.989091 348.195818 
L 136.930909 348.195818 
z
" clip-path="url(#p8b1fc77639)" style="fill: #4c72b0; fill-opacity: 0.75; stroke: #000000; stroke-width: 0.3; stroke-linejoin: miter"/>
   </g>
   <g id="patch_15">
    <path d="M 140.989091 352.44 
L 145.047273 352.44 
L 145.047273 349.338482 
L 140.989091 349.338482 
z
" clip-path="url(#p8b1fc77639)" style="fill: #4c72b0; fill-opacity: 0.75; stroke: #000000; stroke-width: 0.3; stroke-linejoin: miter"/>
   </g>
   <g id="patch_16">
    <path d="M 145.047273 352.44 
L 149.105455 352.44 
L 149.105455 350.23629 
L 145.047273 350.23629 
z
" clip-path="url(#p8b1fc77639)" style="fill: #4c72b0; fill-opacity: 0.75; stroke: #000000; stroke-width: 0.3; stroke-linejoin: miter"/>
   </g>
   <g id="patch_17">
    <path d="M 149.105455 352.44 
L 153.163636 352.44 
L 153.163636 350.317909 
L 149.105455 350.317909 
z
" clip-path="url(#p8b1fc77639)" style="fill: #4c72b0; fill-opacity: 0.75; stroke: #000000; stroke-width: 0.3; stroke-linejoin: miter"/>
   </g>
   <g id="patch_18">
    <path d="M 153.163636 352.44 
L 157.221818 352.44 
L 157.221818 350.644384 
L 153.163636 350.644384 
z
" clip-path="url(#p8b1fc77639)" style="fill: #4c72b0; fill-opacity: 0.75; stroke: #000000; stroke-width: 0.3; stroke-linejoin: miter"/>
   </g>
   <g id="patch_19">
    <path d="M 157.221818 352.44 
L 161.28 352.44 
L 161.28 351.297336 
L 157.221818 351.297336 
z
" clip-path="url(#p8b1fc77639)" style="fill: #4c72b0; fill-opacity: 0.75; stroke: #000000; stroke-width: 0.3; stroke-linejoin: miter"/>
   </g>
   <g id="patch_20">
    <path d="M 161.28 352.44 
L 165.338182 352.44 
L 165.338182 351.378954 
L 161.28 351.378954 
z
" clip-path="url(#p8b1fc77639)" style="fill: #4c72b0; fill-opacity: 0.75; stroke: #000000; stroke-width: 0.3; stroke-linejoin: miter"/>
   </g>
   <g id="patch_21">
    <path d="M 165.338182 352.44 
L 169.396364 352.44 
L 169.396364 351.70543 
L 165.338182 351.70543 
z
" clip-path="url(#p8b1fc77639)" style="fill: #4c72b0; fill-opacity: 0.75; stroke: #000000; stroke-width: 0.3; stroke-linejoin: miter"/>
   </g>
   <g id="patch_22">
    <path d="M 169.396364 352.44 
L 173.454545 352.44 
L 173.454545 351.215717 
L 169.396364 351.215717 
z
" clip-path="url(#p8b1fc77639)" style="fill: #4c72b0; fill-opacity: 0.75; stroke: #000000; stroke-width: 0.3; stroke-linejoin: miter"/>
   </g>
   <g id="patch_23">
    <path d="M 173.454545 352.44 
L 177.512727 352.44 
L 177.512727 351.950287 
L 173.454545 351.950287 
z
" clip-path="url(#p8b1fc77639)" style="fill: #4c72b0; fill-opacity: 0.75; stroke: #000000; stroke-width: 0.3; stroke-linejoin: miter"/>
   </g>
   <g id="patch_24">
    <path d="M 177.512727 352.44 
L 181.570909 352.44 
L 181.570909 351.950287 
L 177.512727 351.950287 
z
" clip-path="url(#p8b1fc77639)" style="fill: #4c72b0; fill-opacity: 0.75; stroke: #000000; stroke-width: 0.3; stroke-linejoin: miter"/>
   </g>
   <g id="patch_25">
    <path d="M 181.570909 352.44 
L 185.629091 352.44 
L 185.629091 352.113524 
L 181.570909 352.113524 
z
" clip-path="url(#p8b1fc77639)" style="fill: #4c72b0; fill-opacity: 0.75; stroke: #000000; stroke-width: 0.3; stroke-linejoin: miter"/>
   </g>
   <g id="patch_26">
    <path d="M 185.629091 352.44 
L 189.687273 352.44 
L 189.687273 351.950287 
L 185.629091 351.950287 
z
" clip-path="url(#p8b1fc77639)" style="fill: #4c72b0; fill-opacity: 0.75; stroke: #000000; stroke-width: 0.3; stroke-linejoin: miter"/>
   </g>
   <g id="patch_27">
    <path d="M 189.687273 352.44 
L 193.745455 352.44 
L 193.745455 352.276762 
L 189.687273 352.276762 
z
" clip-path="url(#p8b1fc77639)" style="fill: #4c72b0; fill-opacity: 0.75; stroke: #000000; stroke-width: 0.3; stroke-linejoin: miter"/>
   </g>
   <g id="patch_28">
    <path d="M 193.745455 352.44 
L 197.803636 352.44 
L 197.803636 352.113524 
L 193.745455 352.113524 
z
" clip-path="url(#p8b1fc77639)" style="fill: #4c72b0; fill-opacity: 0.75; stroke: #000000; stroke-width: 0.3; stroke-linejoin: miter"/>
   </g>
   <g id="patch_29">
    <path d="M 197.803636 352.44 
L 201.861818 352.44 
L 201.861818 352.195143 
L 197.803636 352.195143 
z
" clip-path="url(#p8b1fc77639)" style="fill: #4c72b0; fill-opacity: 0.75; stroke: #000000; stroke-width: 0.3; stroke-linejoin: miter"/>
   </g>
   <g id="patch_30">
    <path d="M 201.861818 352.44 
L 205.92 352.44 
L 205.92 352.113524 
L 201.861818 352.113524 
z
" clip-path="url(#p8b1fc77639)" style="fill: #4c72b0; fill-opacity: 0.75; stroke: #000000; stroke-width: 0.3; stroke-linejoin: miter"/>
   </g>
   <g id="patch_31">
    <path d="M 205.92 352.44 
L 209.978182 352.44 
L 209.978182 352.358381 
L 205.92 352.358381 
z
" clip-path="url(#p8b1fc77639)" style="fill: #4c72b0; fill-opacity: 0.75; stroke: #000000; stroke-width: 0.3; stroke-linejoin: miter"/>
   </g>
   <g id="patch_32">
    <path d="M 209.978182 352.44 
L 214.036364 352.44 
L 214.036364 352.44 
L 209.978182 352.44 
z
" clip-path="url(#p8b1fc77639)" style="fill: #4c72b0; fill-opacity: 0.75; stroke: #000000; stroke-width: 0.3; stroke-linejoin: miter"/>
   </g>
   <g id="patch_33">
    <path d="M 214.036364 352.44 
L 218.094545 352.44 
L 218.094545 352.276762 
L 214.036364 352.276762 
z
" clip-path="url(#p8b1fc77639)" style="fill: #4c72b0; fill-opacity: 0.75; stroke: #000000; stroke-width: 0.3; stroke-linejoin: miter"/>
   </g>
   <g id="patch_34">
    <path d="M 218.094545 352.44 
L 222.152727 352.44 
L 222.152727 352.44 
L 218.094545 352.44 
z
" clip-path="url(#p8b1fc77639)" style="fill: #4c72b0; fill-opacity: 0.75; stroke: #000000; stroke-width: 0.3; stroke-linejoin: miter"/>
   </g>
   <g id="patch_35">
    <path d="M 222.152727 352.44 
L 226.210909 352.44 
L 226.210909 352.358381 
L 222.152727 352.358381 
z
" clip-path="url(#p8b1fc77639)" style="fill: #4c72b0; fill-opacity: 0.75; stroke: #000000; stroke-width: 0.3; stroke-linejoin: miter"/>
   </g>
   <g id="patch_36">
    <path d="M 226.210909 352.44 
L 230.269091 352.44 
L 230.269091 352.358381 
L 226.210909 352.358381 
z
" clip-path="url(#p8b1fc77639)" style="fill: #4c72b0; fill-opacity: 0.75; stroke: #000000; stroke-width: 0.3; stroke-linejoin: miter"/>
   </g>
   <g id="patch_37">
    <path d="M 230.269091 352.44 
L 234.327273 352.44 
L 234.327273 352.44 
L 230.269091 352.44 
z
" clip-path="url(#p8b1fc77639)" style="fill: #4c72b0; fill-opacity: 0.75; stroke: #000000; stroke-width: 0.3; stroke-linejoin: miter"/>
   </g>
   <g id="patch_38">
    <path d="M 234.327273 352.44 
L 238.385455 352.44 
L 238.385455 352.44 
L 234.327273 352.44 
z
" clip-path="url(#p8b1fc77639)" style="fill: #4c72b0; fill-opacity: 0.75; stroke: #000000; stroke-width: 0.3; stroke-linejoin: miter"/>
   </g>
   <g id="patch_39">
    <path d="M 238.385455 352.44 
L 242.443636 352.44 
L 242.443636 352.44 
L 238.385455 352.44 
z
" clip-path="url(#p8b1fc77639)" style="fill: #4c72b0; fill-opacity: 0.75; stroke: #000000; stroke-width: 0.3; stroke-linejoin: miter"/>
   </g>
   <g id="patch_40">
    <path d="M 242.443636 352.44 
L 246.501818 352.44 
L 246.501818 352.358381 
L 242.443636 352.358381 
z
" clip-path="url(#p8b1fc77639)" style="fill: #4c72b0; fill-opacity: 0.75; stroke: #000000; stroke-width: 0.3; stroke-linejoin: miter"/>
   </g>
   <g id="patch_41">
    <path d="M 246.501818 352.44 
L 250.56 352.44 
L 250.56 352.44 
L 246.501818 352.44 
z
" clip-path="url(#p8b1fc77639)" style="fill: #4c72b0; fill-opacity: 0.75; stroke: #000000; stroke-width: 0.3; stroke-linejoin: miter"/>
   </g>
   <g id="patch_42">
    <path d="M 250.56 352.44 
L 254.618182 352.44 
L 254.618182 352.44 
L 250.56 352.44 
z
" clip-path="url(#p8b1fc77639)" style="fill: #4c72b0; fill-opacity: 0.75; stroke: #000000; stroke-width: 0.3; stroke-linejoin: miter"/>
   </g>
   <g id="patch_43">
    <path d="M 254.618182 352.44 
L 258.676364 352.44 
L 258.676364 352.44 
L 254.618182 352.44 
z
" clip-path="url(#p8b1fc77639)" style="fill: #4c72b0; fill-opacity: 0.75; stroke: #000000; stroke-width: 0.3; stroke-linejoin: miter"/>
   </g>
   <g id="patch_44">
    <path d="M 258.676364 352.44 
L 262.734545 352.44 
L 262.734545 352.358381 
L 258.676364 352.358381 
z
" clip-path="url(#p8b1fc77639)" style="fill: #4c72b0; fill-opacity: 0.75; stroke: #000000; stroke-width: 0.3; stroke-linejoin: miter"/>
   </g>
   <g id="patch_45">
    <path d="M 262.734545 352.44 
L 266.792727 352.44 
L 266.792727 352.44 
L 262.734545 352.44 
z
" clip-path="url(#p8b1fc77639)" style="fill: #4c72b0; fill-opacity: 0.75; stroke: #000000; stroke-width: 0.3; stroke-linejoin: miter"/>
   </g>
   <g id="patch_46">
    <path d="M 266.792727 352.44 
L 270.850909 352.44 
L 270.850909 352.358381 
L 266.792727 352.358381 
z
" clip-path="url(#p8b1fc77639)" style="fill: #4c72b0; fill-opacity: 0.75; stroke: #000000; stroke-width: 0.3; stroke-linejoin: miter"/>
   </g>
   <g id="patch_47">
    <path d="M 270.850909 352.44 
L 274.909091 352.44 
L 274.909091 352.44 
L 270.850909 352.44 
z
" clip-path="url(#p8b1fc77639)" style="fill: #4c72b0; fill-opacity: 0.75; stroke: #000000; stroke-width: 0.3; stroke-linejoin: miter"/>
   </g>
   <g id="patch_48">
    <path d="M 274.909091 352.44 
L 278.967273 352.44 
L 278.967273 352.44 
L 274.909091 352.44 
z
" clip-path="url(#p8b1fc77639)" style="fill: #4c72b0; fill-opacity: 0.75; stroke: #000000; stroke-width: 0.3; stroke-linejoin: miter"/>
   </g>
   <g id="patch_49">
    <path d="M 278.967273 352.44 
L 283.025455 352.44 
L 283.025455 352.44 
L 278.967273 352.44 
z
" clip-path="url(#p8b1fc77639)" style="fill: #4c72b0; fill-opacity: 0.75; stroke: #000000; stroke-width: 0.3; stroke-linejoin: miter"/>
   </g>
   <g id="patch_50">
    <path d="M 283.025455 352.44 
L 287.083636 352.44 
L 287.083636 352.44 
L 283.025455 352.44 
z
" clip-path="url(#p8b1fc77639)" style="fill: #4c72b0; fill-opacity: 0.75; stroke: #000000; stroke-width: 0.3; stroke-linejoin: miter"/>
   </g>
   <g id="patch_51">
    <path d="M 287.083636 352.44 
L 291.141818 352.44 
L 291.141818 352.44 
L 287.083636 352.44 
z
" clip-path="url(#p8b1fc77639)" style="fill: #4c72b0; fill-opacity: 0.75; stroke: #000000; stroke-width: 0.3; stroke-linejoin: miter"/>
   </g>
   <g id="patch_52">
    <path d="M 291.141818 352.44 
L 295.2 352.44 
L 295.2 352.358381 
L 291.141818 352.358381 
z
" clip-path="url(#p8b1fc77639)" style="fill: #4c72b0; fill-opacity: 0.75; stroke: #000000; stroke-width: 0.3; stroke-linejoin: miter"/>
   </g>
   <g id="patch_53">
    <path d="M 295.2 352.44 
L 299.258182 352.44 
L 299.258182 352.44 
L 295.2 352.44 
z
" clip-path="url(#p8b1fc77639)" style="fill: #4c72b0; fill-opacity: 0.75; stroke: #000000; stroke-width: 0.3; stroke-linejoin: miter"/>
   </g>
   <g id="patch_54">
    <path d="M 299.258182 352.44 
L 303.316364 352.44 
L 303.316364 352.44 
L 299.258182 352.44 
z
" clip-path="url(#p8b1fc77639)" style="fill: #4c72b0; fill-opacity: 0.75; stroke: #000000; stroke-width: 0.3; stroke-linejoin: miter"/>
   </g>
   <g id="patch_55">
    <path d="M 303.316364 352.44 
L 307.374545 352.44 
L 307.374545 352.44 
L 303.316364 352.44 
z
" clip-path="url(#p8b1fc77639)" style="fill: #4c72b0; fill-opacity: 0.75; stroke: #000000; stroke-width: 0.3; stroke-linejoin: miter"/>
   </g>
   <g id="patch_56">
    <path d="M 307.374545 352.44 
L 311.432727 352.44 
L 311.432727 352.44 
L 307.374545 352.44 
z
" clip-path="url(#p8b1fc77639)" style="fill: #4c72b0; fill-opacity: 0.75; stroke: #000000; stroke-width: 0.3; stroke-linejoin: miter"/>
   </g>
   <g id="patch_57">
    <path d="M 311.432727 352.44 
L 315.490909 352.44 
L 315.490909 352.44 
L 311.432727 352.44 
z
" clip-path="url(#p8b1fc77639)" style="fill: #4c72b0; fill-opacity: 0.75; stroke: #000000; stroke-width: 0.3; stroke-linejoin: miter"/>
   </g>
   <g id="patch_58">
    <path d="M 315.490909 352.44 
L 319.549091 352.44 
L 319.549091 352.44 
L 315.490909 352.44 
z
" clip-path="url(#p8b1fc77639)" style="fill: #4c72b0; fill-opacity: 0.75; stroke: #000000; stroke-width: 0.3; stroke-linejoin: miter"/>
   </g>
   <g id="patch_59">
    <path d="M 319.549091 352.44 
L 323.607273 352.44 
L 323.607273 352.44 
L 319.549091 352.44 
z
" clip-path="url(#p8b1fc77639)" style="fill: #4c72b0; fill-opacity: 0.75; stroke: #000000; stroke-width: 0.3; stroke-linejoin: miter"/>
   </g>
   <g id="patch_60">
    <path d="M 323.607273 352.44 
L 327.665455 352.44 
L 327.665455 352.44 
L 323.607273 352.44 
z
" clip-path="url(#p8b1fc77639)" style="fill: #4c72b0; fill-opacity: 0.75; stroke: #000000; stroke-width: 0.3; stroke-linejoin: miter"/>
   </g>
   <g id="patch_61">
    <path d="M 327.665455 352.44 
L 331.723636 352.44 
L 331.723636 352.44 
L 327.665455 352.44 
z
" clip-path="url(#p8b1fc77639)" style="fill: #4c72b0; fill-opacity: 0.75; stroke: #000000; stroke-width: 0.3; stroke-linejoin: miter"/>
   </g>
   <g id="patch_62">
    <path d="M 331.723636 352.44 
L 335.781818 352.44 
L 335.781818 352.44 
L 331.723636 352.44 
z
" clip-path="url(#p8b1fc77639)" style="fill: #4c72b0; fill-opacity: 0.75; stroke: #000000; stroke-width: 0.3; stroke-linejoin: miter"/>
   </g>
   <g id="patch_63">
    <path d="M 335.781818 352.44 
L 339.84 352.44 
L 339.84 352.44 
L 335.781818 352.44 
z
" clip-path="url(#p8b1fc77639)" style="fill: #4c72b0; fill-opacity: 0.75; stroke: #000000; stroke-width: 0.3; stroke-linejoin: miter"/>
   </g>
   <g id="patch_64">
    <path d="M 339.84 352.44 
L 343.898182 352.44 
L 343.898182 352.44 
L 339.84 352.44 
z
" clip-path="url(#p8b1fc77639)" style="fill: #4c72b0; fill-opacity: 0.75; stroke: #000000; stroke-width: 0.3; stroke-linejoin: miter"/>
   </g>
   <g id="patch_65">
    <path d="M 343.898182 352.44 
L 347.956364 352.44 
L 347.956364 352.44 
L 343.898182 352.44 
z
" clip-path="url(#p8b1fc77639)" style="fill: #4c72b0; fill-opacity: 0.75; stroke: #000000; stroke-width: 0.3; stroke-linejoin: miter"/>
   </g>
   <g id="patch_66">
    <path d="M 347.956364 352.44 
L 352.014545 352.44 
L 352.014545 352.44 
L 347.956364 352.44 
z
" clip-path="url(#p8b1fc77639)" style="fill: #4c72b0; fill-opacity: 0.75; stroke: #000000; stroke-width: 0.3; stroke-linejoin: miter"/>
   </g>
   <g id="patch_67">
    <path d="M 352.014545 352.44 
L 356.072727 352.44 
L 356.072727 352.44 
L 352.014545 352.44 
z
" clip-path="url(#p8b1fc77639)" style="fill: #4c72b0; fill-opacity: 0.75; stroke: #000000; stroke-width: 0.3; stroke-linejoin: miter"/>
   </g>
   <g id="patch_68">
    <path d="M 356.072727 352.44 
L 360.130909 352.44 
L 360.130909 352.44 
L 356.072727 352.44 
z
" clip-path="url(#p8b1fc77639)" style="fill: #4c72b0; fill-opacity: 0.75; stroke: #000000; stroke-width: 0.3; stroke-linejoin: miter"/>
   </g>
   <g id="patch_69">
    <path d="M 360.130909 352.44 
L 364.189091 352.44 
L 364.189091 352.44 
L 360.130909 352.44 
z
" clip-path="url(#p8b1fc77639)" style="fill: #4c72b0; fill-opacity: 0.75; stroke: #000000; stroke-width: 0.3; stroke-linejoin: miter"/>
   </g>
   <g id="patch_70">
    <path d="M 364.189091 352.44 
L 368.247273 352.44 
L 368.247273 352.44 
L 364.189091 352.44 
z
" clip-path="url(#p8b1fc77639)" style="fill: #4c72b0; fill-opacity: 0.75; stroke: #000000; stroke-width: 0.3; stroke-linejoin: miter"/>
   </g>
   <g id="patch_71">
    <path d="M 368.247273 352.44 
L 372.305455 352.44 
L 372.305455 352.44 
L 368.247273 352.44 
z
" clip-path="url(#p8b1fc77639)" style="fill: #4c72b0; fill-opacity: 0.75; stroke: #000000; stroke-width: 0.3; stroke-linejoin: miter"/>
   </g>
   <g id="patch_72">
    <path d="M 372.305455 352.44 
L 376.363636 352.44 
L 376.363636 352.44 
L 372.305455 352.44 
z
" clip-path="url(#p8b1fc77639)" style="fill: #4c72b0; fill-opacity: 0.75; stroke: #000000; stroke-width: 0.3; stroke-linejoin: miter"/>
   </g>
   <g id="patch_73">
    <path d="M 376.363636 352.44 
L 380.421818 352.44 
L 380.421818 352.44 
L 376.363636 352.44 
z
" clip-path="url(#p8b1fc77639)" style="fill: #4c72b0; fill-opacity: 0.75; stroke: #000000; stroke-width: 0.3; stroke-linejoin: miter"/>
   </g>
   <g id="patch_74">
    <path d="M 380.421818 352.44 
L 384.48 352.44 
L 384.48 352.44 
L 380.421818 352.44 
z
" clip-path="url(#p8b1fc77639)" style="fill: #4c72b0; fill-opacity: 0.75; stroke: #000000; stroke-width: 0.3; stroke-linejoin: miter"/>
   </g>
   <g id="patch_75">
    <path d="M 384.48 352.44 
L 388.538182 352.44 
L 388.538182 352.44 
L 384.48 352.44 
z
" clip-path="url(#p8b1fc77639)" style="fill: #4c72b0; fill-opacity: 0.75; stroke: #000000; stroke-width: 0.3; stroke-linejoin: miter"/>
   </g>
   <g id="patch_76">
    <path d="M 388.538182 352.44 
L 392.596364 352.44 
L 392.596364 352.44 
L 388.538182 352.44 
z
" clip-path="url(#p8b1fc77639)" style="fill: #4c72b0; fill-opacity: 0.75; stroke: #000000; stroke-width: 0.3; stroke-linejoin: miter"/>
   </g>
   <g id="patch_77">
    <path d="M 392.596364 352.44 
L 396.654545 352.44 
L 396.654545 352.44 
L 392.596364 352.44 
z
" clip-path="url(#p8b1fc77639)" style="fill: #4c72b0; fill-opacity: 0.75; stroke: #000000; stroke-width: 0.3; stroke-linejoin: miter"/>
   </g>
   <g id="patch_78">
    <path d="M 396.654545 352.44 
L 400.712727 352.44 
L 400.712727 352.44 
L 396.654545 352.44 
z
" clip-path="url(#p8b1fc77639)" style="fill: #4c72b0; fill-opacity: 0.75; stroke: #000000; stroke-width: 0.3; stroke-linejoin: miter"/>
   </g>
   <g id="patch_79">
    <path d="M 400.712727 352.44 
L 404.770909 352.44 
L 404.770909 352.44 
L 400.712727 352.44 
z
" clip-path="url(#p8b1fc77639)" style="fill: #4c72b0; fill-opacity: 0.75; stroke: #000000; stroke-width: 0.3; stroke-linejoin: miter"/>
   </g>
   <g id="patch_80">
    <path d="M 404.770909 352.44 
L 408.829091 352.44 
L 408.829091 352.44 
L 404.770909 352.44 
z
" clip-path="url(#p8b1fc77639)" style="fill: #4c72b0; fill-opacity: 0.75; stroke: #000000; stroke-width: 0.3; stroke-linejoin: miter"/>
   </g>
   <g id="patch_81">
    <path d="M 408.829091 352.44 
L 412.887273 352.44 
L 412.887273 352.44 
L 408.829091 352.44 
z
" clip-path="url(#p8b1fc77639)" style="fill: #4c72b0; fill-opacity: 0.75; stroke: #000000; stroke-width: 0.3; stroke-linejoin: miter"/>
   </g>
   <g id="patch_82">
    <path d="M 412.887273 352.44 
L 416.945455 352.44 
L 416.945455 352.44 
L 412.887273 352.44 
z
" clip-path="url(#p8b1fc77639)" style="fill: #4c72b0; fill-opacity: 0.75; stroke: #000000; stroke-width: 0.3; stroke-linejoin: miter"/>
   </g>
   <g id="patch_83">
    <path d="M 416.945455 352.44 
L 421.003636 352.44 
L 421.003636 352.44 
L 416.945455 352.44 
z
" clip-path="url(#p8b1fc77639)" style="fill: #4c72b0; fill-opacity: 0.75; stroke: #000000; stroke-width: 0.3; stroke-linejoin: miter"/>
   </g>
   <g id="patch_84">
    <path d="M 421.003636 352.44 
L 425.061818 352.44 
L 425.061818 352.44 
L 421.003636 352.44 
z
" clip-path="url(#p8b1fc77639)" style="fill: #4c72b0; fill-opacity: 0.75; stroke: #000000; stroke-width: 0.3; stroke-linejoin: miter"/>
   </g>
   <g id="patch_85">
    <path d="M 425.061818 352.44 
L 429.12 352.44 
L 429.12 352.44 
L 425.061818 352.44 
z
" clip-path="url(#p8b1fc77639)" style="fill: #4c72b0; fill-opacity: 0.75; stroke: #000000; stroke-width: 0.3; stroke-linejoin: miter"/>
   </g>
   <g id="patch_86">
    <path d="M 429.12 352.44 
L 433.178182 352.44 
L 433.178182 352.44 
L 429.12 352.44 
z
" clip-path="url(#p8b1fc77639)" style="fill: #4c72b0; fill-opacity: 0.75; stroke: #000000; stroke-width: 0.3; stroke-linejoin: miter"/>
   </g>
   <g id="patch_87">
    <path d="M 433.178182 352.44 
L 437.236364 352.44 
L 437.236364 352.44 
L 433.178182 352.44 
z
" clip-path="url(#p8b1fc77639)" style="fill: #4c72b0; fill-opacity: 0.75; stroke: #000000; stroke-width: 0.3; stroke-linejoin: miter"/>
   </g>
   <g id="patch_88">
    <path d="M 437.236364 352.44 
L 441.294545 352.44 
L 441.294545 352.44 
L 437.236364 352.44 
z
" clip-path="url(#p8b1fc77639)" style="fill: #4c72b0; fill-opacity: 0.75; stroke: #000000; stroke-width: 0.3; stroke-linejoin: miter"/>
   </g>
   <g id="patch_89">
    <path d="M 441.294545 352.44 
L 445.352727 352.44 
L 445.352727 352.44 
L 441.294545 352.44 
z
" clip-path="url(#p8b1fc77639)" style="fill: #4c72b0; fill-opacity: 0.75; stroke: #000000; stroke-width: 0.3; stroke-linejoin: miter"/>
   </g>
   <g id="patch_90">
    <path d="M 445.352727 352.44 
L 449.410909 352.44 
L 449.410909 352.44 
L 445.352727 352.44 
z
" clip-path="url(#p8b1fc77639)" style="fill: #4c72b0; fill-opacity: 0.75; stroke: #000000; stroke-width: 0.3; stroke-linejoin: miter"/>
   </g>
   <g id="patch_91">
    <path d="M 449.410909 352.44 
L 453.469091 352.44 
L 453.469091 352.44 
L 449.410909 352.44 
z
" clip-path="url(#p8b1fc77639)" style="fill: #4c72b0; fill-opacity: 0.75; stroke: #000000; stroke-width: 0.3; stroke-linejoin: miter"/>
   </g>
   <g id="patch_92">
    <path d="M 453.469091 352.44 
L 457.527273 352.44 
L 457.527273 352.44 
L 453.469091 352.44 
z
" clip-path="url(#p8b1fc77639)" style="fill: #4c72b0; fill-opacity: 0.75; stroke: #000000; stroke-width: 0.3; stroke-linejoin: miter"/>
   </g>
   <g id="patch_93">
    <path d="M 457.527273 352.44 
L 461.585455 352.44 
L 461.585455 352.44 
L 457.527273 352.44 
z
" clip-path="url(#p8b1fc77639)" style="fill: #4c72b0; fill-opacity: 0.75; stroke: #000000; stroke-width: 0.3; stroke-linejoin: miter"/>
   </g>
   <g id="patch_94">
    <path d="M 461.585455 352.44 
L 465.643636 352.44 
L 465.643636 352.44 
L 461.585455 352.44 
z
" clip-path="url(#p8b1fc77639)" style="fill: #4c72b0; fill-opacity: 0.75; stroke: #000000; stroke-width: 0.3; stroke-linejoin: miter"/>
   </g>
   <g id="patch_95">
    <path d="M 465.643636 352.44 
L 469.701818 352.44 
L 469.701818 352.44 
L 465.643636 352.44 
z
" clip-path="url(#p8b1fc77639)" style="fill: #4c72b0; fill-opacity: 0.75; stroke: #000000; stroke-width: 0.3; stroke-linejoin: miter"/>
   </g>
   <g id="patch_96">
    <path d="M 469.701818 352.44 
L 473.76 352.44 
L 473.76 352.44 
L 469.701818 352.44 
z
" clip-path="url(#p8b1fc77639)" style="fill: #4c72b0; fill-opacity: 0.75; stroke: #000000; stroke-width: 0.3; stroke-linejoin: miter"/>
   </g>
   <g id="patch_97">
    <path d="M 473.76 352.44 
L 477.818182 352.44 
L 477.818182 352.44 
L 473.76 352.44 
z
" clip-path="url(#p8b1fc77639)" style="fill: #4c72b0; fill-opacity: 0.75; stroke: #000000; stroke-width: 0.3; stroke-linejoin: miter"/>
   </g>
   <g id="patch_98">
    <path d="M 477.818182 352.44 
L 481.876364 352.44 
L 481.876364 352.44 
L 477.818182 352.44 
z
" clip-path="url(#p8b1fc77639)" style="fill: #4c72b0; fill-opacity: 0.75; stroke: #000000; stroke-width: 0.3; stroke-linejoin: miter"/>
   </g>
   <g id="patch_99">
    <path d="M 481.876364 352.44 
L 485.934545 352.44 
L 485.934545 352.44 
L 481.876364 352.44 
z
" clip-path="url(#p8b1fc77639)" style="fill: #4c72b0; fill-opacity: 0.75; stroke: #000000; stroke-width: 0.3; stroke-linejoin: miter"/>
   </g>
   <g id="patch_100">
    <path d="M 485.934545 352.44 
L 489.992727 352.44 
L 489.992727 352.44 
L 485.934545 352.44 
z
" clip-path="url(#p8b1fc77639)" style="fill: #4c72b0; fill-opacity: 0.75; stroke: #000000; stroke-width: 0.3; stroke-linejoin: miter"/>
   </g>
   <g id="patch_101">
    <path d="M 489.992727 352.44 
L 494.050909 352.44 
L 494.050909 352.44 
L 489.992727 352.44 
z
" clip-path="url(#p8b1fc77639)" style="fill: #4c72b0; fill-opacity: 0.75; stroke: #000000; stroke-width: 0.3; stroke-linejoin: miter"/>
   </g>
   <g id="patch_102">
    <path d="M 494.050909 352.44 
L 498.109091 352.44 
L 498.109091 352.358381 
L 494.050909 352.358381 
z
" clip-path="url(#p8b1fc77639)" style="fill: #4c72b0; fill-opacity: 0.75; stroke: #000000; stroke-width: 0.3; stroke-linejoin: miter"/>
   </g>
   <g id="line2d_29">
    <path d="M 99.684358 352.44 
L 99.684358 47.52 
" clip-path="url(#p8b1fc77639)" style="fill: none; stroke-dasharray: 7.4,3.2; stroke-dashoffset: 0; stroke: #ff0000; stroke-width: 2"/>
   </g>
   <g id="patch_103">
    <path d="M 72 352.44 
L 72 47.52 
" style="fill: none"/>
   </g>
   <g id="patch_104">
    <path d="M 518.4 352.44 
L 518.4 47.52 
" style="fill: none"/>
   </g>
   <g id="patch_105">
    <path d="M 72 352.44 
L 518.4 352.44 
" style="fill: none"/>
   </g>
   <g id="patch_106">
    <path d="M 72 47.52 
L 518.4 47.52 
" style="fill: none"/>
   </g>
   <g id="patch_107">
    <path d="M 113.061751 328.650285 
Q 106.373054 328.139072 99.684358 327.627858 
Q 104.106546 322.583629 108.528735 317.5394 
z
" style="stroke: #000000; stroke-width: 0.3; stroke-linecap: round"/>
   </g>
   <g id="text_17">
    <!-- Empirical summary statistic -->
    <g style="fill: #262626" transform="translate(106.49021 327.954334) scale(0.12 -0.12)">
     <defs>
      <path id="LiberationSans-Bold-45" d="M 428 0 
L 428 4403 
L 3891 4403 
L 3891 3691 
L 1350 3691 
L 1350 2584 
L 3700 2584 
L 3700 1872 
L 1350 1872 
L 1350 713 
L 4019 713 
L 4019 0 
L 428 0 
z
" transform="scale(0.015625)"/>
      <path id="LiberationSans-Bold-6d" d="M 2438 0 
L 2438 1897 
Q 2438 2788 1925 2788 
Q 1659 2788 1492 2516 
Q 1325 2244 1325 1813 
L 1325 0 
L 447 0 
L 447 2625 
Q 447 2897 439 3070 
Q 431 3244 422 3381 
L 1259 3381 
Q 1269 3322 1284 3064 
Q 1300 2806 1300 2709 
L 1313 2709 
Q 1475 3097 1717 3272 
Q 1959 3447 2297 3447 
Q 3072 3447 3238 2709 
L 3256 2709 
Q 3428 3103 3668 3275 
Q 3909 3447 4281 3447 
Q 4775 3447 5034 3111 
Q 5294 2775 5294 2147 
L 5294 0 
L 4422 0 
L 4422 1897 
Q 4422 2788 3909 2788 
Q 3653 2788 3489 2539 
Q 3325 2291 3309 1853 
L 3309 0 
L 2438 0 
z
" transform="scale(0.015625)"/>
      <path id="LiberationSans-Bold-70" d="M 3647 1706 
Q 3647 859 3308 398 
Q 2969 -63 2350 -63 
Q 1994 -63 1730 92 
Q 1466 247 1325 538 
L 1306 538 
Q 1325 444 1325 -31 
L 1325 -1328 
L 447 -1328 
L 447 2603 
Q 447 3081 422 3381 
L 1275 3381 
Q 1291 3325 1302 3159 
Q 1313 2994 1313 2831 
L 1325 2831 
Q 1622 3453 2406 3453 
Q 2997 3453 3322 2998 
Q 3647 2544 3647 1706 
z
M 2731 1706 
Q 2731 2844 2034 2844 
Q 1684 2844 1498 2537 
Q 1313 2231 1313 1681 
Q 1313 1134 1498 836 
Q 1684 538 2028 538 
Q 2731 538 2731 1706 
z
" transform="scale(0.015625)"/>
      <path id="LiberationSans-Bold-69" d="M 447 3991 
L 447 4638 
L 1325 4638 
L 1325 3991 
L 447 3991 
z
M 447 0 
L 447 3381 
L 1325 3381 
L 1325 0 
L 447 0 
z
" transform="scale(0.015625)"/>
      <path id="LiberationSans-Bold-72" d="M 447 0 
L 447 2588 
Q 447 2866 439 3052 
Q 431 3238 422 3381 
L 1259 3381 
Q 1269 3325 1284 3039 
Q 1300 2753 1300 2659 
L 1313 2659 
Q 1441 3016 1541 3161 
Q 1641 3306 1778 3376 
Q 1916 3447 2122 3447 
Q 2291 3447 2394 3400 
L 2394 2666 
Q 2181 2713 2019 2713 
Q 1691 2713 1508 2447 
Q 1325 2181 1325 1659 
L 1325 0 
L 447 0 
z
" transform="scale(0.015625)"/>
      <path id="LiberationSans-Bold-63" d="M 1856 -63 
Q 1088 -63 669 395 
Q 250 853 250 1672 
Q 250 2509 672 2976 
Q 1094 3444 1869 3444 
Q 2466 3444 2856 3144 
Q 3247 2844 3347 2316 
L 2463 2272 
Q 2425 2531 2275 2686 
Q 2125 2841 1850 2841 
Q 1172 2841 1172 1706 
Q 1172 538 1863 538 
Q 2113 538 2281 695 
Q 2450 853 2491 1166 
L 3372 1125 
Q 3325 778 3123 506 
Q 2922 234 2594 85 
Q 2266 -63 1856 -63 
z
" transform="scale(0.015625)"/>
      <path id="LiberationSans-Bold-61" d="M 1228 -63 
Q 738 -63 463 204 
Q 188 472 188 956 
Q 188 1481 530 1756 
Q 872 2031 1522 2038 
L 2250 2050 
L 2250 2222 
Q 2250 2553 2134 2714 
Q 2019 2875 1756 2875 
Q 1513 2875 1398 2764 
Q 1284 2653 1256 2397 
L 341 2441 
Q 425 2934 792 3189 
Q 1159 3444 1794 3444 
Q 2434 3444 2781 3128 
Q 3128 2813 3128 2231 
L 3128 1000 
Q 3128 716 3192 608 
Q 3256 500 3406 500 
Q 3506 500 3600 519 
L 3600 44 
Q 3522 25 3459 9 
Q 3397 -6 3334 -15 
Q 3272 -25 3201 -31 
Q 3131 -38 3038 -38 
Q 2706 -38 2548 125 
Q 2391 288 2359 603 
L 2341 603 
Q 1972 -63 1228 -63 
z
M 2250 1566 
L 1800 1559 
Q 1494 1547 1366 1492 
Q 1238 1438 1170 1325 
Q 1103 1213 1103 1025 
Q 1103 784 1214 667 
Q 1325 550 1509 550 
Q 1716 550 1886 662 
Q 2056 775 2153 973 
Q 2250 1172 2250 1394 
L 2250 1566 
z
" transform="scale(0.015625)"/>
      <path id="LiberationSans-Bold-6c" d="M 447 0 
L 447 4638 
L 1325 4638 
L 1325 0 
L 447 0 
z
" transform="scale(0.015625)"/>
      <path id="LiberationSans-Bold-20" transform="scale(0.015625)"/>
      <path id="LiberationSans-Bold-73" d="M 3297 988 
Q 3297 497 2895 217 
Q 2494 -63 1784 -63 
Q 1088 -63 717 157 
Q 347 378 225 844 
L 997 959 
Q 1063 719 1223 619 
Q 1384 519 1784 519 
Q 2153 519 2322 612 
Q 2491 706 2491 906 
Q 2491 1069 2355 1164 
Q 2219 1259 1894 1325 
Q 1150 1472 890 1598 
Q 631 1725 495 1926 
Q 359 2128 359 2422 
Q 359 2906 732 3176 
Q 1106 3447 1791 3447 
Q 2394 3447 2761 3212 
Q 3128 2978 3219 2534 
L 2441 2453 
Q 2403 2659 2256 2761 
Q 2109 2863 1791 2863 
Q 1478 2863 1322 2783 
Q 1166 2703 1166 2516 
Q 1166 2369 1286 2283 
Q 1406 2197 1691 2141 
Q 2088 2059 2395 1973 
Q 2703 1888 2889 1769 
Q 3075 1650 3186 1464 
Q 3297 1278 3297 988 
z
" transform="scale(0.015625)"/>
      <path id="LiberationSans-Bold-75" d="M 1275 3381 
L 1275 1484 
Q 1275 594 1875 594 
Q 2194 594 2389 867 
Q 2584 1141 2584 1569 
L 2584 3381 
L 3463 3381 
L 3463 756 
Q 3463 325 3488 0 
L 2650 0 
Q 2613 450 2613 672 
L 2597 672 
Q 2422 288 2151 112 
Q 1881 -63 1509 -63 
Q 972 -63 684 267 
Q 397 597 397 1234 
L 397 3381 
L 1275 3381 
z
" transform="scale(0.015625)"/>
      <path id="LiberationSans-Bold-79" d="M 884 -1328 
Q 569 -1328 331 -1288 
L 331 -663 
Q 497 -688 634 -688 
Q 822 -688 945 -628 
Q 1069 -569 1167 -431 
Q 1266 -294 1388 34 
L 50 3381 
L 978 3381 
L 1509 1797 
Q 1634 1456 1825 753 
L 1903 1050 
L 2106 1784 
L 2606 3381 
L 3525 3381 
L 2188 -178 
Q 1919 -828 1630 -1078 
Q 1341 -1328 884 -1328 
z
" transform="scale(0.015625)"/>
      <path id="LiberationSans-Bold-74" d="M 1313 -56 
Q 925 -56 715 155 
Q 506 366 506 794 
L 506 2788 
L 78 2788 
L 78 3381 
L 550 3381 
L 825 4175 
L 1375 4175 
L 1375 3381 
L 2016 3381 
L 2016 2788 
L 1375 2788 
L 1375 1031 
Q 1375 784 1469 667 
Q 1563 550 1759 550 
Q 1863 550 2053 594 
L 2053 50 
Q 1728 -56 1313 -56 
z
" transform="scale(0.015625)"/>
     </defs>
     <use xlink:href="#LiberationSans-Bold-45"/>
     <use xlink:href="#LiberationSans-Bold-6d" x="66.699219"/>
     <use xlink:href="#LiberationSans-Bold-70" x="155.615234"/>
     <use xlink:href="#LiberationSans-Bold-69" x="216.699219"/>
     <use xlink:href="#LiberationSans-Bold-72" x="244.482422"/>
     <use xlink:href="#LiberationSans-Bold-69" x="283.398438"/>
     <use xlink:href="#LiberationSans-Bold-63" x="311.181641"/>
     <use xlink:href="#LiberationSans-Bold-61" x="366.796875"/>
     <use xlink:href="#LiberationSans-Bold-6c" x="422.412109"/>
     <use xlink:href="#LiberationSans-Bold-20" x="450.195312"/>
     <use xlink:href="#LiberationSans-Bold-73" x="477.978516"/>
     <use xlink:href="#LiberationSans-Bold-75" x="533.59375"/>
     <use xlink:href="#LiberationSans-Bold-6d" x="594.677734"/>
     <use xlink:href="#LiberationSans-Bold-6d" x="683.59375"/>
     <use xlink:href="#LiberationSans-Bold-61" x="772.509766"/>
     <use xlink:href="#LiberationSans-Bold-72" x="828.125"/>
     <use xlink:href="#LiberationSans-Bold-79" x="867.041016"/>
     <use xlink:href="#LiberationSans-Bold-20" x="922.65625"/>
     <use xlink:href="#LiberationSans-Bold-73" x="950.439453"/>
     <use xlink:href="#LiberationSans-Bold-74" x="1006.054688"/>
     <use xlink:href="#LiberationSans-Bold-61" x="1039.355469"/>
     <use xlink:href="#LiberationSans-Bold-74" x="1094.970703"/>
     <use xlink:href="#LiberationSans-Bold-69" x="1128.271484"/>
     <use xlink:href="#LiberationSans-Bold-73" x="1156.054688"/>
     <use xlink:href="#LiberationSans-Bold-74" x="1211.669922"/>
     <use xlink:href="#LiberationSans-Bold-69" x="1244.970703"/>
     <use xlink:href="#LiberationSans-Bold-63" x="1272.753906"/>
    </g>
   </g>
  </g>
 </g>
 <defs>
  <clipPath id="p8b1fc77639">
   <rect x="72" y="47.52" width="446.4" height="304.92"/>
  </clipPath>
 </defs>
</svg>
