<?xml version="1.0" encoding="utf-8" standalone="no"?>
<!DOCTYPE svg PUBLIC "-//W3C//DTD SVG 1.1//EN"
  "http://www.w3.org/Graphics/SVG/1.1/DTD/svg11.dtd">
<svg xmlns:xlink="http://www.w3.org/1999/xlink" width="576pt" height="396pt" viewBox="0 0 576 396" xmlns="http://www.w3.org/2000/svg" version="1.1">
 <metadata>
  <rdf:RDF xmlns:dc="http://purl.org/dc/elements/1.1/" xmlns:cc="http://creativecommons.org/ns#" xmlns:rdf="http://www.w3.org/1999/02/22-rdf-syntax-ns#">
   <cc:Work>
    <dc:type rdf:resource="http://purl.org/dc/dcmitype/StillImage"/>
    <dc:date>2023-05-14T12:54:59.154987</dc:date>
    <dc:format>image/svg+xml</dc:format>
    <dc:creator>
     <cc:Agent>
      <dc:title>Matplotlib v3.6.0, https://matplotlib.org/</dc:title>
     </cc:Agent>
    </dc:creator>
   </cc:Work>
  </rdf:RDF>
 </metadata>
 <defs>
  <style type="text/css">*{stroke-linejoin: round; stroke-linecap: butt}</style>
 </defs>
 <g id="figure_1">
  <g id="patch_1">
   <path d="M 0 396 
L 576 396 
L 576 0 
L 0 0 
z
" style="fill: #ffffff"/>
  </g>
  <g id="axes_1">
   <g id="patch_2">
    <path d="M 72 352.44 
L 518.4 352.44 
L 518.4 47.52 
L 72 47.52 
z
" style="fill: #eaeaf2"/>
   </g>
   <g id="matplotlib.axis_1">
    <g id="xtick_1">
     <g id="line2d_1">
      <path d="M 146.565044 352.44 
L 146.565044 47.52 
" clip-path="url(#p61c1d49b1e)" style="fill: none; stroke: #ffffff; stroke-linecap: round"/>
     </g>
     <g id="line2d_2"/>
     <g id="text_1">
      <!-- 500 -->
      <g style="fill: #262626" transform="translate(137.021294 367.038437) scale(0.1 -0.1)">
       <defs>
        <path id="DejaVuSans-35" d="M 691 4666 
L 3169 4666 
L 3169 4134 
L 1269 4134 
L 1269 2991 
Q 1406 3038 1543 3061 
Q 1681 3084 1819 3084 
Q 2600 3084 3056 2656 
Q 3513 2228 3513 1497 
Q 3513 744 3044 326 
Q 2575 -91 1722 -91 
Q 1428 -91 1123 -41 
Q 819 9 494 109 
L 494 744 
Q 775 591 1075 516 
Q 1375 441 1709 441 
Q 2250 441 2565 725 
Q 2881 1009 2881 1497 
Q 2881 1984 2565 2268 
Q 2250 2553 1709 2553 
Q 1456 2553 1204 2497 
Q 953 2441 691 2322 
L 691 4666 
z
" transform="scale(0.015625)"/>
        <path id="DejaVuSans-30" d="M 2034 4250 
Q 1547 4250 1301 3770 
Q 1056 3291 1056 2328 
Q 1056 1369 1301 889 
Q 1547 409 2034 409 
Q 2525 409 2770 889 
Q 3016 1369 3016 2328 
Q 3016 3291 2770 3770 
Q 2525 4250 2034 4250 
z
M 2034 4750 
Q 2819 4750 3233 4129 
Q 3647 3509 3647 2328 
Q 3647 1150 3233 529 
Q 2819 -91 2034 -91 
Q 1250 -91 836 529 
Q 422 1150 422 2328 
Q 422 3509 836 4129 
Q 1250 4750 2034 4750 
z
" transform="scale(0.015625)"/>
       </defs>
       <use xlink:href="#DejaVuSans-35"/>
       <use xlink:href="#DejaVuSans-30" x="63.623047"/>
       <use xlink:href="#DejaVuSans-30" x="127.246094"/>
      </g>
     </g>
    </g>
    <g id="xtick_2">
     <g id="line2d_3">
      <path d="M 241.782825 352.44 
L 241.782825 47.52 
" clip-path="url(#p61c1d49b1e)" style="fill: none; stroke: #ffffff; stroke-linecap: round"/>
     </g>
     <g id="line2d_4"/>
     <g id="text_2">
      <!-- 1000 -->
      <g style="fill: #262626" transform="translate(229.057825 367.038437) scale(0.1 -0.1)">
       <defs>
        <path id="DejaVuSans-31" d="M 794 531 
L 1825 531 
L 1825 4091 
L 703 3866 
L 703 4441 
L 1819 4666 
L 2450 4666 
L 2450 531 
L 3481 531 
L 3481 0 
L 794 0 
L 794 531 
z
" transform="scale(0.015625)"/>
       </defs>
       <use xlink:href="#DejaVuSans-31"/>
       <use xlink:href="#DejaVuSans-30" x="63.623047"/>
       <use xlink:href="#DejaVuSans-30" x="127.246094"/>
       <use xlink:href="#DejaVuSans-30" x="190.869141"/>
      </g>
     </g>
    </g>
    <g id="xtick_3">
     <g id="line2d_5">
      <path d="M 337.000606 352.44 
L 337.000606 47.52 
" clip-path="url(#p61c1d49b1e)" style="fill: none; stroke: #ffffff; stroke-linecap: round"/>
     </g>
     <g id="line2d_6"/>
     <g id="text_3">
      <!-- 1500 -->
      <g style="fill: #262626" transform="translate(324.275606 367.038437) scale(0.1 -0.1)">
       <use xlink:href="#DejaVuSans-31"/>
       <use xlink:href="#DejaVuSans-35" x="63.623047"/>
       <use xlink:href="#DejaVuSans-30" x="127.246094"/>
       <use xlink:href="#DejaVuSans-30" x="190.869141"/>
      </g>
     </g>
    </g>
    <g id="xtick_4">
     <g id="line2d_7">
      <path d="M 432.218387 352.44 
L 432.218387 47.52 
" clip-path="url(#p61c1d49b1e)" style="fill: none; stroke: #ffffff; stroke-linecap: round"/>
     </g>
     <g id="line2d_8"/>
     <g id="text_4">
      <!-- 2000 -->
      <g style="fill: #262626" transform="translate(419.493387 367.038437) scale(0.1 -0.1)">
       <defs>
        <path id="DejaVuSans-32" d="M 1228 531 
L 3431 531 
L 3431 0 
L 469 0 
L 469 531 
Q 828 903 1448 1529 
Q 2069 2156 2228 2338 
Q 2531 2678 2651 2914 
Q 2772 3150 2772 3378 
Q 2772 3750 2511 3984 
Q 2250 4219 1831 4219 
Q 1534 4219 1204 4116 
Q 875 4013 500 3803 
L 500 4441 
Q 881 4594 1212 4672 
Q 1544 4750 1819 4750 
Q 2544 4750 2975 4387 
Q 3406 4025 3406 3419 
Q 3406 3131 3298 2873 
Q 3191 2616 2906 2266 
Q 2828 2175 2409 1742 
Q 1991 1309 1228 531 
z
" transform="scale(0.015625)"/>
       </defs>
       <use xlink:href="#DejaVuSans-32"/>
       <use xlink:href="#DejaVuSans-30" x="63.623047"/>
       <use xlink:href="#DejaVuSans-30" x="127.246094"/>
       <use xlink:href="#DejaVuSans-30" x="190.869141"/>
      </g>
     </g>
    </g>
    <g id="text_5">
     <!-- TOT num gaps -->
     <g style="fill: #262626" transform="translate(255.108437 381.476406) scale(0.11 -0.11)">
      <defs>
       <path id="DejaVuSans-54" d="M -19 4666 
L 3928 4666 
L 3928 4134 
L 2272 4134 
L 2272 0 
L 1638 0 
L 1638 4134 
L -19 4134 
L -19 4666 
z
" transform="scale(0.015625)"/>
       <path id="DejaVuSans-4f" d="M 2522 4238 
Q 1834 4238 1429 3725 
Q 1025 3213 1025 2328 
Q 1025 1447 1429 934 
Q 1834 422 2522 422 
Q 3209 422 3611 934 
Q 4013 1447 4013 2328 
Q 4013 3213 3611 3725 
Q 3209 4238 2522 4238 
z
M 2522 4750 
Q 3503 4750 4090 4092 
Q 4678 3434 4678 2328 
Q 4678 1225 4090 567 
Q 3503 -91 2522 -91 
Q 1538 -91 948 565 
Q 359 1222 359 2328 
Q 359 3434 948 4092 
Q 1538 4750 2522 4750 
z
" transform="scale(0.015625)"/>
       <path id="DejaVuSans-20" transform="scale(0.015625)"/>
       <path id="DejaVuSans-6e" d="M 3513 2113 
L 3513 0 
L 2938 0 
L 2938 2094 
Q 2938 2591 2744 2837 
Q 2550 3084 2163 3084 
Q 1697 3084 1428 2787 
Q 1159 2491 1159 1978 
L 1159 0 
L 581 0 
L 581 3500 
L 1159 3500 
L 1159 2956 
Q 1366 3272 1645 3428 
Q 1925 3584 2291 3584 
Q 2894 3584 3203 3211 
Q 3513 2838 3513 2113 
z
" transform="scale(0.015625)"/>
       <path id="DejaVuSans-75" d="M 544 1381 
L 544 3500 
L 1119 3500 
L 1119 1403 
Q 1119 906 1312 657 
Q 1506 409 1894 409 
Q 2359 409 2629 706 
Q 2900 1003 2900 1516 
L 2900 3500 
L 3475 3500 
L 3475 0 
L 2900 0 
L 2900 538 
Q 2691 219 2414 64 
Q 2138 -91 1772 -91 
Q 1169 -91 856 284 
Q 544 659 544 1381 
z
M 1991 3584 
L 1991 3584 
z
" transform="scale(0.015625)"/>
       <path id="DejaVuSans-6d" d="M 3328 2828 
Q 3544 3216 3844 3400 
Q 4144 3584 4550 3584 
Q 5097 3584 5394 3201 
Q 5691 2819 5691 2113 
L 5691 0 
L 5113 0 
L 5113 2094 
Q 5113 2597 4934 2840 
Q 4756 3084 4391 3084 
Q 3944 3084 3684 2787 
Q 3425 2491 3425 1978 
L 3425 0 
L 2847 0 
L 2847 2094 
Q 2847 2600 2669 2842 
Q 2491 3084 2119 3084 
Q 1678 3084 1418 2786 
Q 1159 2488 1159 1978 
L 1159 0 
L 581 0 
L 581 3500 
L 1159 3500 
L 1159 2956 
Q 1356 3278 1631 3431 
Q 1906 3584 2284 3584 
Q 2666 3584 2933 3390 
Q 3200 3197 3328 2828 
z
" transform="scale(0.015625)"/>
       <path id="DejaVuSans-67" d="M 2906 1791 
Q 2906 2416 2648 2759 
Q 2391 3103 1925 3103 
Q 1463 3103 1205 2759 
Q 947 2416 947 1791 
Q 947 1169 1205 825 
Q 1463 481 1925 481 
Q 2391 481 2648 825 
Q 2906 1169 2906 1791 
z
M 3481 434 
Q 3481 -459 3084 -895 
Q 2688 -1331 1869 -1331 
Q 1566 -1331 1297 -1286 
Q 1028 -1241 775 -1147 
L 775 -588 
Q 1028 -725 1275 -790 
Q 1522 -856 1778 -856 
Q 2344 -856 2625 -561 
Q 2906 -266 2906 331 
L 2906 616 
Q 2728 306 2450 153 
Q 2172 0 1784 0 
Q 1141 0 747 490 
Q 353 981 353 1791 
Q 353 2603 747 3093 
Q 1141 3584 1784 3584 
Q 2172 3584 2450 3431 
Q 2728 3278 2906 2969 
L 2906 3500 
L 3481 3500 
L 3481 434 
z
" transform="scale(0.015625)"/>
       <path id="DejaVuSans-61" d="M 2194 1759 
Q 1497 1759 1228 1600 
Q 959 1441 959 1056 
Q 959 750 1161 570 
Q 1363 391 1709 391 
Q 2188 391 2477 730 
Q 2766 1069 2766 1631 
L 2766 1759 
L 2194 1759 
z
M 3341 1997 
L 3341 0 
L 2766 0 
L 2766 531 
Q 2569 213 2275 61 
Q 1981 -91 1556 -91 
Q 1019 -91 701 211 
Q 384 513 384 1019 
Q 384 1609 779 1909 
Q 1175 2209 1959 2209 
L 2766 2209 
L 2766 2266 
Q 2766 2663 2505 2880 
Q 2244 3097 1772 3097 
Q 1472 3097 1187 3025 
Q 903 2953 641 2809 
L 641 3341 
Q 956 3463 1253 3523 
Q 1550 3584 1831 3584 
Q 2591 3584 2966 3190 
Q 3341 2797 3341 1997 
z
" transform="scale(0.015625)"/>
       <path id="DejaVuSans-70" d="M 1159 525 
L 1159 -1331 
L 581 -1331 
L 581 3500 
L 1159 3500 
L 1159 2969 
Q 1341 3281 1617 3432 
Q 1894 3584 2278 3584 
Q 2916 3584 3314 3078 
Q 3713 2572 3713 1747 
Q 3713 922 3314 415 
Q 2916 -91 2278 -91 
Q 1894 -91 1617 61 
Q 1341 213 1159 525 
z
M 3116 1747 
Q 3116 2381 2855 2742 
Q 2594 3103 2138 3103 
Q 1681 3103 1420 2742 
Q 1159 2381 1159 1747 
Q 1159 1113 1420 752 
Q 1681 391 2138 391 
Q 2594 391 2855 752 
Q 3116 1113 3116 1747 
z
" transform="scale(0.015625)"/>
       <path id="DejaVuSans-73" d="M 2834 3397 
L 2834 2853 
Q 2591 2978 2328 3040 
Q 2066 3103 1784 3103 
Q 1356 3103 1142 2972 
Q 928 2841 928 2578 
Q 928 2378 1081 2264 
Q 1234 2150 1697 2047 
L 1894 2003 
Q 2506 1872 2764 1633 
Q 3022 1394 3022 966 
Q 3022 478 2636 193 
Q 2250 -91 1575 -91 
Q 1294 -91 989 -36 
Q 684 19 347 128 
L 347 722 
Q 666 556 975 473 
Q 1284 391 1588 391 
Q 1994 391 2212 530 
Q 2431 669 2431 922 
Q 2431 1156 2273 1281 
Q 2116 1406 1581 1522 
L 1381 1569 
Q 847 1681 609 1914 
Q 372 2147 372 2553 
Q 372 3047 722 3315 
Q 1072 3584 1716 3584 
Q 2034 3584 2315 3537 
Q 2597 3491 2834 3397 
z
" transform="scale(0.015625)"/>
      </defs>
      <use xlink:href="#DejaVuSans-54"/>
      <use xlink:href="#DejaVuSans-4f" x="61.083984"/>
      <use xlink:href="#DejaVuSans-54" x="139.794922"/>
      <use xlink:href="#DejaVuSans-20" x="200.878906"/>
      <use xlink:href="#DejaVuSans-6e" x="232.666016"/>
      <use xlink:href="#DejaVuSans-75" x="296.044922"/>
      <use xlink:href="#DejaVuSans-6d" x="359.423828"/>
      <use xlink:href="#DejaVuSans-20" x="456.835938"/>
      <use xlink:href="#DejaVuSans-67" x="488.623047"/>
      <use xlink:href="#DejaVuSans-61" x="552.099609"/>
      <use xlink:href="#DejaVuSans-70" x="613.378906"/>
      <use xlink:href="#DejaVuSans-73" x="676.855469"/>
     </g>
    </g>
   </g>
   <g id="matplotlib.axis_2">
    <g id="ytick_1">
     <g id="line2d_9">
      <path d="M 72 352.44 
L 518.4 352.44 
" clip-path="url(#p61c1d49b1e)" style="fill: none; stroke: #ffffff; stroke-linecap: round"/>
     </g>
     <g id="line2d_10"/>
     <g id="text_6">
      <!-- 0 -->
      <g style="fill: #262626" transform="translate(58.6375 356.239219) scale(0.1 -0.1)">
       <use xlink:href="#DejaVuSans-30"/>
      </g>
     </g>
    </g>
    <g id="ytick_2">
     <g id="line2d_11">
      <path d="M 72 311.072479 
L 518.4 311.072479 
" clip-path="url(#p61c1d49b1e)" style="fill: none; stroke: #ffffff; stroke-linecap: round"/>
     </g>
     <g id="line2d_12"/>
     <g id="text_7">
      <!-- 50 -->
      <g style="fill: #262626" transform="translate(52.275 314.871697) scale(0.1 -0.1)">
       <use xlink:href="#DejaVuSans-35"/>
       <use xlink:href="#DejaVuSans-30" x="63.623047"/>
      </g>
     </g>
    </g>
    <g id="ytick_3">
     <g id="line2d_13">
      <path d="M 72 269.704957 
L 518.4 269.704957 
" clip-path="url(#p61c1d49b1e)" style="fill: none; stroke: #ffffff; stroke-linecap: round"/>
     </g>
     <g id="line2d_14"/>
     <g id="text_8">
      <!-- 100 -->
      <g style="fill: #262626" transform="translate(45.9125 273.504176) scale(0.1 -0.1)">
       <use xlink:href="#DejaVuSans-31"/>
       <use xlink:href="#DejaVuSans-30" x="63.623047"/>
       <use xlink:href="#DejaVuSans-30" x="127.246094"/>
      </g>
     </g>
    </g>
    <g id="ytick_4">
     <g id="line2d_15">
      <path d="M 72 228.337436 
L 518.4 228.337436 
" clip-path="url(#p61c1d49b1e)" style="fill: none; stroke: #ffffff; stroke-linecap: round"/>
     </g>
     <g id="line2d_16"/>
     <g id="text_9">
      <!-- 150 -->
      <g style="fill: #262626" transform="translate(45.9125 232.136655) scale(0.1 -0.1)">
       <use xlink:href="#DejaVuSans-31"/>
       <use xlink:href="#DejaVuSans-35" x="63.623047"/>
       <use xlink:href="#DejaVuSans-30" x="127.246094"/>
      </g>
     </g>
    </g>
    <g id="ytick_5">
     <g id="line2d_17">
      <path d="M 72 186.969915 
L 518.4 186.969915 
" clip-path="url(#p61c1d49b1e)" style="fill: none; stroke: #ffffff; stroke-linecap: round"/>
     </g>
     <g id="line2d_18"/>
     <g id="text_10">
      <!-- 200 -->
      <g style="fill: #262626" transform="translate(45.9125 190.769133) scale(0.1 -0.1)">
       <use xlink:href="#DejaVuSans-32"/>
       <use xlink:href="#DejaVuSans-30" x="63.623047"/>
       <use xlink:href="#DejaVuSans-30" x="127.246094"/>
      </g>
     </g>
    </g>
    <g id="ytick_6">
     <g id="line2d_19">
      <path d="M 72 145.602393 
L 518.4 145.602393 
" clip-path="url(#p61c1d49b1e)" style="fill: none; stroke: #ffffff; stroke-linecap: round"/>
     </g>
     <g id="line2d_20"/>
     <g id="text_11">
      <!-- 250 -->
      <g style="fill: #262626" transform="translate(45.9125 149.401612) scale(0.1 -0.1)">
       <use xlink:href="#DejaVuSans-32"/>
       <use xlink:href="#DejaVuSans-35" x="63.623047"/>
       <use xlink:href="#DejaVuSans-30" x="127.246094"/>
      </g>
     </g>
    </g>
    <g id="ytick_7">
     <g id="line2d_21">
      <path d="M 72 104.234872 
L 518.4 104.234872 
" clip-path="url(#p61c1d49b1e)" style="fill: none; stroke: #ffffff; stroke-linecap: round"/>
     </g>
     <g id="line2d_22"/>
     <g id="text_12">
      <!-- 300 -->
      <g style="fill: #262626" transform="translate(45.9125 108.034091) scale(0.1 -0.1)">
       <defs>
        <path id="DejaVuSans-33" d="M 2597 2516 
Q 3050 2419 3304 2112 
Q 3559 1806 3559 1356 
Q 3559 666 3084 287 
Q 2609 -91 1734 -91 
Q 1441 -91 1130 -33 
Q 819 25 488 141 
L 488 750 
Q 750 597 1062 519 
Q 1375 441 1716 441 
Q 2309 441 2620 675 
Q 2931 909 2931 1356 
Q 2931 1769 2642 2001 
Q 2353 2234 1838 2234 
L 1294 2234 
L 1294 2753 
L 1863 2753 
Q 2328 2753 2575 2939 
Q 2822 3125 2822 3475 
Q 2822 3834 2567 4026 
Q 2313 4219 1838 4219 
Q 1578 4219 1281 4162 
Q 984 4106 628 3988 
L 628 4550 
Q 988 4650 1302 4700 
Q 1616 4750 1894 4750 
Q 2613 4750 3031 4423 
Q 3450 4097 3450 3541 
Q 3450 3153 3228 2886 
Q 3006 2619 2597 2516 
z
" transform="scale(0.015625)"/>
       </defs>
       <use xlink:href="#DejaVuSans-33"/>
       <use xlink:href="#DejaVuSans-30" x="63.623047"/>
       <use xlink:href="#DejaVuSans-30" x="127.246094"/>
      </g>
     </g>
    </g>
    <g id="ytick_8">
     <g id="line2d_23">
      <path d="M 72 62.86735 
L 518.4 62.86735 
" clip-path="url(#p61c1d49b1e)" style="fill: none; stroke: #ffffff; stroke-linecap: round"/>
     </g>
     <g id="line2d_24"/>
     <g id="text_13">
      <!-- 350 -->
      <g style="fill: #262626" transform="translate(45.9125 66.666569) scale(0.1 -0.1)">
       <use xlink:href="#DejaVuSans-33"/>
       <use xlink:href="#DejaVuSans-35" x="63.623047"/>
       <use xlink:href="#DejaVuSans-30" x="127.246094"/>
      </g>
     </g>
    </g>
    <g id="text_14">
     <!-- Number of simulated MSAs -->
     <g style="fill: #262626" transform="translate(39.624844 274.754219) rotate(-90) scale(0.11 -0.11)">
      <defs>
       <path id="DejaVuSans-4e" d="M 628 4666 
L 1478 4666 
L 3547 763 
L 3547 4666 
L 4159 4666 
L 4159 0 
L 3309 0 
L 1241 3903 
L 1241 0 
L 628 0 
L 628 4666 
z
" transform="scale(0.015625)"/>
       <path id="DejaVuSans-62" d="M 3116 1747 
Q 3116 2381 2855 2742 
Q 2594 3103 2138 3103 
Q 1681 3103 1420 2742 
Q 1159 2381 1159 1747 
Q 1159 1113 1420 752 
Q 1681 391 2138 391 
Q 2594 391 2855 752 
Q 3116 1113 3116 1747 
z
M 1159 2969 
Q 1341 3281 1617 3432 
Q 1894 3584 2278 3584 
Q 2916 3584 3314 3078 
Q 3713 2572 3713 1747 
Q 3713 922 3314 415 
Q 2916 -91 2278 -91 
Q 1894 -91 1617 61 
Q 1341 213 1159 525 
L 1159 0 
L 581 0 
L 581 4863 
L 1159 4863 
L 1159 2969 
z
" transform="scale(0.015625)"/>
       <path id="DejaVuSans-65" d="M 3597 1894 
L 3597 1613 
L 953 1613 
Q 991 1019 1311 708 
Q 1631 397 2203 397 
Q 2534 397 2845 478 
Q 3156 559 3463 722 
L 3463 178 
Q 3153 47 2828 -22 
Q 2503 -91 2169 -91 
Q 1331 -91 842 396 
Q 353 884 353 1716 
Q 353 2575 817 3079 
Q 1281 3584 2069 3584 
Q 2775 3584 3186 3129 
Q 3597 2675 3597 1894 
z
M 3022 2063 
Q 3016 2534 2758 2815 
Q 2500 3097 2075 3097 
Q 1594 3097 1305 2825 
Q 1016 2553 972 2059 
L 3022 2063 
z
" transform="scale(0.015625)"/>
       <path id="DejaVuSans-72" d="M 2631 2963 
Q 2534 3019 2420 3045 
Q 2306 3072 2169 3072 
Q 1681 3072 1420 2755 
Q 1159 2438 1159 1844 
L 1159 0 
L 581 0 
L 581 3500 
L 1159 3500 
L 1159 2956 
Q 1341 3275 1631 3429 
Q 1922 3584 2338 3584 
Q 2397 3584 2469 3576 
Q 2541 3569 2628 3553 
L 2631 2963 
z
" transform="scale(0.015625)"/>
       <path id="DejaVuSans-6f" d="M 1959 3097 
Q 1497 3097 1228 2736 
Q 959 2375 959 1747 
Q 959 1119 1226 758 
Q 1494 397 1959 397 
Q 2419 397 2687 759 
Q 2956 1122 2956 1747 
Q 2956 2369 2687 2733 
Q 2419 3097 1959 3097 
z
M 1959 3584 
Q 2709 3584 3137 3096 
Q 3566 2609 3566 1747 
Q 3566 888 3137 398 
Q 2709 -91 1959 -91 
Q 1206 -91 779 398 
Q 353 888 353 1747 
Q 353 2609 779 3096 
Q 1206 3584 1959 3584 
z
" transform="scale(0.015625)"/>
       <path id="DejaVuSans-66" d="M 2375 4863 
L 2375 4384 
L 1825 4384 
Q 1516 4384 1395 4259 
Q 1275 4134 1275 3809 
L 1275 3500 
L 2222 3500 
L 2222 3053 
L 1275 3053 
L 1275 0 
L 697 0 
L 697 3053 
L 147 3053 
L 147 3500 
L 697 3500 
L 697 3744 
Q 697 4328 969 4595 
Q 1241 4863 1831 4863 
L 2375 4863 
z
" transform="scale(0.015625)"/>
       <path id="DejaVuSans-69" d="M 603 3500 
L 1178 3500 
L 1178 0 
L 603 0 
L 603 3500 
z
M 603 4863 
L 1178 4863 
L 1178 4134 
L 603 4134 
L 603 4863 
z
" transform="scale(0.015625)"/>
       <path id="DejaVuSans-6c" d="M 603 4863 
L 1178 4863 
L 1178 0 
L 603 0 
L 603 4863 
z
" transform="scale(0.015625)"/>
       <path id="DejaVuSans-74" d="M 1172 4494 
L 1172 3500 
L 2356 3500 
L 2356 3053 
L 1172 3053 
L 1172 1153 
Q 1172 725 1289 603 
Q 1406 481 1766 481 
L 2356 481 
L 2356 0 
L 1766 0 
Q 1100 0 847 248 
Q 594 497 594 1153 
L 594 3053 
L 172 3053 
L 172 3500 
L 594 3500 
L 594 4494 
L 1172 4494 
z
" transform="scale(0.015625)"/>
       <path id="DejaVuSans-64" d="M 2906 2969 
L 2906 4863 
L 3481 4863 
L 3481 0 
L 2906 0 
L 2906 525 
Q 2725 213 2448 61 
Q 2172 -91 1784 -91 
Q 1150 -91 751 415 
Q 353 922 353 1747 
Q 353 2572 751 3078 
Q 1150 3584 1784 3584 
Q 2172 3584 2448 3432 
Q 2725 3281 2906 2969 
z
M 947 1747 
Q 947 1113 1208 752 
Q 1469 391 1925 391 
Q 2381 391 2643 752 
Q 2906 1113 2906 1747 
Q 2906 2381 2643 2742 
Q 2381 3103 1925 3103 
Q 1469 3103 1208 2742 
Q 947 2381 947 1747 
z
" transform="scale(0.015625)"/>
       <path id="DejaVuSans-4d" d="M 628 4666 
L 1569 4666 
L 2759 1491 
L 3956 4666 
L 4897 4666 
L 4897 0 
L 4281 0 
L 4281 4097 
L 3078 897 
L 2444 897 
L 1241 4097 
L 1241 0 
L 628 0 
L 628 4666 
z
" transform="scale(0.015625)"/>
       <path id="DejaVuSans-53" d="M 3425 4513 
L 3425 3897 
Q 3066 4069 2747 4153 
Q 2428 4238 2131 4238 
Q 1616 4238 1336 4038 
Q 1056 3838 1056 3469 
Q 1056 3159 1242 3001 
Q 1428 2844 1947 2747 
L 2328 2669 
Q 3034 2534 3370 2195 
Q 3706 1856 3706 1288 
Q 3706 609 3251 259 
Q 2797 -91 1919 -91 
Q 1588 -91 1214 -16 
Q 841 59 441 206 
L 441 856 
Q 825 641 1194 531 
Q 1563 422 1919 422 
Q 2459 422 2753 634 
Q 3047 847 3047 1241 
Q 3047 1584 2836 1778 
Q 2625 1972 2144 2069 
L 1759 2144 
Q 1053 2284 737 2584 
Q 422 2884 422 3419 
Q 422 4038 858 4394 
Q 1294 4750 2059 4750 
Q 2388 4750 2728 4690 
Q 3069 4631 3425 4513 
z
" transform="scale(0.015625)"/>
       <path id="DejaVuSans-41" d="M 2188 4044 
L 1331 1722 
L 3047 1722 
L 2188 4044 
z
M 1831 4666 
L 2547 4666 
L 4325 0 
L 3669 0 
L 3244 1197 
L 1141 1197 
L 716 0 
L 50 0 
L 1831 4666 
z
" transform="scale(0.015625)"/>
      </defs>
      <use xlink:href="#DejaVuSans-4e"/>
      <use xlink:href="#DejaVuSans-75" x="74.804688"/>
      <use xlink:href="#DejaVuSans-6d" x="138.183594"/>
      <use xlink:href="#DejaVuSans-62" x="235.595703"/>
      <use xlink:href="#DejaVuSans-65" x="299.072266"/>
      <use xlink:href="#DejaVuSans-72" x="360.595703"/>
      <use xlink:href="#DejaVuSans-20" x="401.708984"/>
      <use xlink:href="#DejaVuSans-6f" x="433.496094"/>
      <use xlink:href="#DejaVuSans-66" x="494.677734"/>
      <use xlink:href="#DejaVuSans-20" x="529.882812"/>
      <use xlink:href="#DejaVuSans-73" x="561.669922"/>
      <use xlink:href="#DejaVuSans-69" x="613.769531"/>
      <use xlink:href="#DejaVuSans-6d" x="641.552734"/>
      <use xlink:href="#DejaVuSans-75" x="738.964844"/>
      <use xlink:href="#DejaVuSans-6c" x="802.34375"/>
      <use xlink:href="#DejaVuSans-61" x="830.126953"/>
      <use xlink:href="#DejaVuSans-74" x="891.40625"/>
      <use xlink:href="#DejaVuSans-65" x="930.615234"/>
      <use xlink:href="#DejaVuSans-64" x="992.138672"/>
      <use xlink:href="#DejaVuSans-20" x="1055.615234"/>
      <use xlink:href="#DejaVuSans-4d" x="1087.402344"/>
      <use xlink:href="#DejaVuSans-53" x="1173.681641"/>
      <use xlink:href="#DejaVuSans-41" x="1239.033203"/>
      <use xlink:href="#DejaVuSans-73" x="1307.441406"/>
     </g>
    </g>
   </g>
   <g id="patch_3">
    <path d="M 229.97582 352.44 
L 232.657153 352.44 
L 232.657153 351.61265 
L 229.97582 351.61265 
z
" clip-path="url(#p61c1d49b1e)" style="fill: #4c72b0; fill-opacity: 0.75; stroke: #000000; stroke-width: 0.3; stroke-linejoin: miter"/>
   </g>
   <g id="patch_4">
    <path d="M 232.657153 352.44 
L 235.338486 352.44 
L 235.338486 352.44 
L 232.657153 352.44 
z
" clip-path="url(#p61c1d49b1e)" style="fill: #4c72b0; fill-opacity: 0.75; stroke: #000000; stroke-width: 0.3; stroke-linejoin: miter"/>
   </g>
   <g id="patch_5">
    <path d="M 235.338486 352.44 
L 238.019818 352.44 
L 238.019818 352.44 
L 235.338486 352.44 
z
" clip-path="url(#p61c1d49b1e)" style="fill: #4c72b0; fill-opacity: 0.75; stroke: #000000; stroke-width: 0.3; stroke-linejoin: miter"/>
   </g>
   <g id="patch_6">
    <path d="M 238.019818 352.44 
L 240.701151 352.44 
L 240.701151 350.785299 
L 238.019818 350.785299 
z
" clip-path="url(#p61c1d49b1e)" style="fill: #4c72b0; fill-opacity: 0.75; stroke: #000000; stroke-width: 0.3; stroke-linejoin: miter"/>
   </g>
   <g id="patch_7">
    <path d="M 240.701151 352.44 
L 243.382484 352.44 
L 243.382484 352.44 
L 240.701151 352.44 
z
" clip-path="url(#p61c1d49b1e)" style="fill: #4c72b0; fill-opacity: 0.75; stroke: #000000; stroke-width: 0.3; stroke-linejoin: miter"/>
   </g>
   <g id="patch_8">
    <path d="M 243.382484 352.44 
L 246.063816 352.44 
L 246.063816 351.61265 
L 243.382484 351.61265 
z
" clip-path="url(#p61c1d49b1e)" style="fill: #4c72b0; fill-opacity: 0.75; stroke: #000000; stroke-width: 0.3; stroke-linejoin: miter"/>
   </g>
   <g id="patch_9">
    <path d="M 246.063816 352.44 
L 248.745149 352.44 
L 248.745149 351.61265 
L 246.063816 351.61265 
z
" clip-path="url(#p61c1d49b1e)" style="fill: #4c72b0; fill-opacity: 0.75; stroke: #000000; stroke-width: 0.3; stroke-linejoin: miter"/>
   </g>
   <g id="patch_10">
    <path d="M 248.745149 352.44 
L 251.426482 352.44 
L 251.426482 350.785299 
L 248.745149 350.785299 
z
" clip-path="url(#p61c1d49b1e)" style="fill: #4c72b0; fill-opacity: 0.75; stroke: #000000; stroke-width: 0.3; stroke-linejoin: miter"/>
   </g>
   <g id="patch_11">
    <path d="M 251.426482 352.44 
L 254.107815 352.44 
L 254.107815 352.44 
L 251.426482 352.44 
z
" clip-path="url(#p61c1d49b1e)" style="fill: #4c72b0; fill-opacity: 0.75; stroke: #000000; stroke-width: 0.3; stroke-linejoin: miter"/>
   </g>
   <g id="patch_12">
    <path d="M 254.107815 352.44 
L 256.789147 352.44 
L 256.789147 349.130598 
L 254.107815 349.130598 
z
" clip-path="url(#p61c1d49b1e)" style="fill: #4c72b0; fill-opacity: 0.75; stroke: #000000; stroke-width: 0.3; stroke-linejoin: miter"/>
   </g>
   <g id="patch_13">
    <path d="M 256.789147 352.44 
L 259.47048 352.44 
L 259.47048 344.993846 
L 256.789147 344.993846 
z
" clip-path="url(#p61c1d49b1e)" style="fill: #4c72b0; fill-opacity: 0.75; stroke: #000000; stroke-width: 0.3; stroke-linejoin: miter"/>
   </g>
   <g id="patch_14">
    <path d="M 259.47048 352.44 
L 262.151813 352.44 
L 262.151813 349.957949 
L 259.47048 349.957949 
z
" clip-path="url(#p61c1d49b1e)" style="fill: #4c72b0; fill-opacity: 0.75; stroke: #000000; stroke-width: 0.3; stroke-linejoin: miter"/>
   </g>
   <g id="patch_15">
    <path d="M 262.151813 352.44 
L 264.833145 352.44 
L 264.833145 342.511795 
L 262.151813 342.511795 
z
" clip-path="url(#p61c1d49b1e)" style="fill: #4c72b0; fill-opacity: 0.75; stroke: #000000; stroke-width: 0.3; stroke-linejoin: miter"/>
   </g>
   <g id="patch_16">
    <path d="M 264.833145 352.44 
L 267.514478 352.44 
L 267.514478 342.511795 
L 264.833145 342.511795 
z
" clip-path="url(#p61c1d49b1e)" style="fill: #4c72b0; fill-opacity: 0.75; stroke: #000000; stroke-width: 0.3; stroke-linejoin: miter"/>
   </g>
   <g id="patch_17">
    <path d="M 267.514478 352.44 
L 270.195811 352.44 
L 270.195811 336.720342 
L 267.514478 336.720342 
z
" clip-path="url(#p61c1d49b1e)" style="fill: #4c72b0; fill-opacity: 0.75; stroke: #000000; stroke-width: 0.3; stroke-linejoin: miter"/>
   </g>
   <g id="patch_18">
    <path d="M 270.195811 352.44 
L 272.877143 352.44 
L 272.877143 339.202393 
L 270.195811 339.202393 
z
" clip-path="url(#p61c1d49b1e)" style="fill: #4c72b0; fill-opacity: 0.75; stroke: #000000; stroke-width: 0.3; stroke-linejoin: miter"/>
   </g>
   <g id="patch_19">
    <path d="M 272.877143 352.44 
L 275.558476 352.44 
L 275.558476 336.720342 
L 272.877143 336.720342 
z
" clip-path="url(#p61c1d49b1e)" style="fill: #4c72b0; fill-opacity: 0.75; stroke: #000000; stroke-width: 0.3; stroke-linejoin: miter"/>
   </g>
   <g id="patch_20">
    <path d="M 275.558476 352.44 
L 278.239809 352.44 
L 278.239809 327.619487 
L 275.558476 327.619487 
z
" clip-path="url(#p61c1d49b1e)" style="fill: #4c72b0; fill-opacity: 0.75; stroke: #000000; stroke-width: 0.3; stroke-linejoin: miter"/>
   </g>
   <g id="patch_21">
    <path d="M 278.239809 352.44 
L 280.921142 352.44 
L 280.921142 327.619487 
L 278.239809 327.619487 
z
" clip-path="url(#p61c1d49b1e)" style="fill: #4c72b0; fill-opacity: 0.75; stroke: #000000; stroke-width: 0.3; stroke-linejoin: miter"/>
   </g>
   <g id="patch_22">
    <path d="M 280.921142 352.44 
L 283.602474 352.44 
L 283.602474 322.655385 
L 280.921142 322.655385 
z
" clip-path="url(#p61c1d49b1e)" style="fill: #4c72b0; fill-opacity: 0.75; stroke: #000000; stroke-width: 0.3; stroke-linejoin: miter"/>
   </g>
   <g id="patch_23">
    <path d="M 283.602474 352.44 
L 286.283807 352.44 
L 286.283807 307.763077 
L 283.602474 307.763077 
z
" clip-path="url(#p61c1d49b1e)" style="fill: #4c72b0; fill-opacity: 0.75; stroke: #000000; stroke-width: 0.3; stroke-linejoin: miter"/>
   </g>
   <g id="patch_24">
    <path d="M 286.283807 352.44 
L 288.96514 352.44 
L 288.96514 304.453675 
L 286.283807 304.453675 
z
" clip-path="url(#p61c1d49b1e)" style="fill: #4c72b0; fill-opacity: 0.75; stroke: #000000; stroke-width: 0.3; stroke-linejoin: miter"/>
   </g>
   <g id="patch_25">
    <path d="M 288.96514 352.44 
L 291.646472 352.44 
L 291.646472 303.626325 
L 288.96514 303.626325 
z
" clip-path="url(#p61c1d49b1e)" style="fill: #4c72b0; fill-opacity: 0.75; stroke: #000000; stroke-width: 0.3; stroke-linejoin: miter"/>
   </g>
   <g id="patch_26">
    <path d="M 291.646472 352.44 
L 294.327805 352.44 
L 294.327805 293.69812 
L 291.646472 293.69812 
z
" clip-path="url(#p61c1d49b1e)" style="fill: #4c72b0; fill-opacity: 0.75; stroke: #000000; stroke-width: 0.3; stroke-linejoin: miter"/>
   </g>
   <g id="patch_27">
    <path d="M 294.327805 352.44 
L 297.009138 352.44 
L 297.009138 287.906667 
L 294.327805 287.906667 
z
" clip-path="url(#p61c1d49b1e)" style="fill: #4c72b0; fill-opacity: 0.75; stroke: #000000; stroke-width: 0.3; stroke-linejoin: miter"/>
   </g>
   <g id="patch_28">
    <path d="M 297.009138 352.44 
L 299.690471 352.44 
L 299.690471 277.151111 
L 297.009138 277.151111 
z
" clip-path="url(#p61c1d49b1e)" style="fill: #4c72b0; fill-opacity: 0.75; stroke: #000000; stroke-width: 0.3; stroke-linejoin: miter"/>
   </g>
   <g id="patch_29">
    <path d="M 299.690471 352.44 
L 302.371803 352.44 
L 302.371803 288.734017 
L 299.690471 288.734017 
z
" clip-path="url(#p61c1d49b1e)" style="fill: #4c72b0; fill-opacity: 0.75; stroke: #000000; stroke-width: 0.3; stroke-linejoin: miter"/>
   </g>
   <g id="patch_30">
    <path d="M 302.371803 352.44 
L 305.053136 352.44 
L 305.053136 277.978462 
L 302.371803 277.978462 
z
" clip-path="url(#p61c1d49b1e)" style="fill: #4c72b0; fill-opacity: 0.75; stroke: #000000; stroke-width: 0.3; stroke-linejoin: miter"/>
   </g>
   <g id="patch_31">
    <path d="M 305.053136 352.44 
L 307.734469 352.44 
L 307.734469 267.222906 
L 305.053136 267.222906 
z
" clip-path="url(#p61c1d49b1e)" style="fill: #4c72b0; fill-opacity: 0.75; stroke: #000000; stroke-width: 0.3; stroke-linejoin: miter"/>
   </g>
   <g id="patch_32">
    <path d="M 307.734469 352.44 
L 310.415801 352.44 
L 310.415801 267.222906 
L 307.734469 267.222906 
z
" clip-path="url(#p61c1d49b1e)" style="fill: #4c72b0; fill-opacity: 0.75; stroke: #000000; stroke-width: 0.3; stroke-linejoin: miter"/>
   </g>
   <g id="patch_33">
    <path d="M 310.415801 352.44 
L 313.097134 352.44 
L 313.097134 258.122051 
L 310.415801 258.122051 
z
" clip-path="url(#p61c1d49b1e)" style="fill: #4c72b0; fill-opacity: 0.75; stroke: #000000; stroke-width: 0.3; stroke-linejoin: miter"/>
   </g>
   <g id="patch_34">
    <path d="M 313.097134 352.44 
L 315.778467 352.44 
L 315.778467 215.099829 
L 313.097134 215.099829 
z
" clip-path="url(#p61c1d49b1e)" style="fill: #4c72b0; fill-opacity: 0.75; stroke: #000000; stroke-width: 0.3; stroke-linejoin: miter"/>
   </g>
   <g id="patch_35">
    <path d="M 315.778467 352.44 
L 318.459799 352.44 
L 318.459799 236.61094 
L 315.778467 236.61094 
z
" clip-path="url(#p61c1d49b1e)" style="fill: #4c72b0; fill-opacity: 0.75; stroke: #000000; stroke-width: 0.3; stroke-linejoin: miter"/>
   </g>
   <g id="patch_36">
    <path d="M 318.459799 352.44 
L 321.141132 352.44 
L 321.141132 205.998974 
L 318.459799 205.998974 
z
" clip-path="url(#p61c1d49b1e)" style="fill: #4c72b0; fill-opacity: 0.75; stroke: #000000; stroke-width: 0.3; stroke-linejoin: miter"/>
   </g>
   <g id="patch_37">
    <path d="M 321.141132 352.44 
L 323.822465 352.44 
L 323.822465 183.660513 
L 321.141132 183.660513 
z
" clip-path="url(#p61c1d49b1e)" style="fill: #4c72b0; fill-opacity: 0.75; stroke: #000000; stroke-width: 0.3; stroke-linejoin: miter"/>
   </g>
   <g id="patch_38">
    <path d="M 323.822465 352.44 
L 326.503798 352.44 
L 326.503798 205.171624 
L 323.822465 205.171624 
z
" clip-path="url(#p61c1d49b1e)" style="fill: #4c72b0; fill-opacity: 0.75; stroke: #000000; stroke-width: 0.3; stroke-linejoin: miter"/>
   </g>
   <g id="patch_39">
    <path d="M 326.503798 352.44 
L 329.18513 352.44 
L 329.18513 199.380171 
L 326.503798 199.380171 
z
" clip-path="url(#p61c1d49b1e)" style="fill: #4c72b0; fill-opacity: 0.75; stroke: #000000; stroke-width: 0.3; stroke-linejoin: miter"/>
   </g>
   <g id="patch_40">
    <path d="M 329.18513 352.44 
L 331.866463 352.44 
L 331.866463 130.710085 
L 329.18513 130.710085 
z
" clip-path="url(#p61c1d49b1e)" style="fill: #4c72b0; fill-opacity: 0.75; stroke: #000000; stroke-width: 0.3; stroke-linejoin: miter"/>
   </g>
   <g id="patch_41">
    <path d="M 331.866463 352.44 
L 334.547796 352.44 
L 334.547796 154.703248 
L 331.866463 154.703248 
z
" clip-path="url(#p61c1d49b1e)" style="fill: #4c72b0; fill-opacity: 0.75; stroke: #000000; stroke-width: 0.3; stroke-linejoin: miter"/>
   </g>
   <g id="patch_42">
    <path d="M 334.547796 352.44 
L 337.229128 352.44 
L 337.229128 160.494701 
L 334.547796 160.494701 
z
" clip-path="url(#p61c1d49b1e)" style="fill: #4c72b0; fill-opacity: 0.75; stroke: #000000; stroke-width: 0.3; stroke-linejoin: miter"/>
   </g>
   <g id="patch_43">
    <path d="M 337.229128 352.44 
L 339.910461 352.44 
L 339.910461 129.882735 
L 337.229128 129.882735 
z
" clip-path="url(#p61c1d49b1e)" style="fill: #4c72b0; fill-opacity: 0.75; stroke: #000000; stroke-width: 0.3; stroke-linejoin: miter"/>
   </g>
   <g id="patch_44">
    <path d="M 339.910461 352.44 
L 342.591794 352.44 
L 342.591794 137.328889 
L 339.910461 137.328889 
z
" clip-path="url(#p61c1d49b1e)" style="fill: #4c72b0; fill-opacity: 0.75; stroke: #000000; stroke-width: 0.3; stroke-linejoin: miter"/>
   </g>
   <g id="patch_45">
    <path d="M 342.591794 352.44 
L 345.273127 352.44 
L 345.273127 126.573333 
L 342.591794 126.573333 
z
" clip-path="url(#p61c1d49b1e)" style="fill: #4c72b0; fill-opacity: 0.75; stroke: #000000; stroke-width: 0.3; stroke-linejoin: miter"/>
   </g>
   <g id="patch_46">
    <path d="M 345.273127 352.44 
L 347.954459 352.44 
L 347.954459 90.997265 
L 345.273127 90.997265 
z
" clip-path="url(#p61c1d49b1e)" style="fill: #4c72b0; fill-opacity: 0.75; stroke: #000000; stroke-width: 0.3; stroke-linejoin: miter"/>
   </g>
   <g id="patch_47">
    <path d="M 347.954459 352.44 
L 350.635792 352.44 
L 350.635792 102.580171 
L 347.954459 102.580171 
z
" clip-path="url(#p61c1d49b1e)" style="fill: #4c72b0; fill-opacity: 0.75; stroke: #000000; stroke-width: 0.3; stroke-linejoin: miter"/>
   </g>
   <g id="patch_48">
    <path d="M 350.635792 352.44 
L 353.317125 352.44 
L 353.317125 104.234872 
L 350.635792 104.234872 
z
" clip-path="url(#p61c1d49b1e)" style="fill: #4c72b0; fill-opacity: 0.75; stroke: #000000; stroke-width: 0.3; stroke-linejoin: miter"/>
   </g>
   <g id="patch_49">
    <path d="M 353.317125 352.44 
L 355.998457 352.44 
L 355.998457 115.817778 
L 353.317125 115.817778 
z
" clip-path="url(#p61c1d49b1e)" style="fill: #4c72b0; fill-opacity: 0.75; stroke: #000000; stroke-width: 0.3; stroke-linejoin: miter"/>
   </g>
   <g id="patch_50">
    <path d="M 355.998457 352.44 
L 358.67979 352.44 
L 358.67979 71.140855 
L 355.998457 71.140855 
z
" clip-path="url(#p61c1d49b1e)" style="fill: #4c72b0; fill-opacity: 0.75; stroke: #000000; stroke-width: 0.3; stroke-linejoin: miter"/>
   </g>
   <g id="patch_51">
    <path d="M 358.67979 352.44 
L 361.361123 352.44 
L 361.361123 105.889573 
L 358.67979 105.889573 
z
" clip-path="url(#p61c1d49b1e)" style="fill: #4c72b0; fill-opacity: 0.75; stroke: #000000; stroke-width: 0.3; stroke-linejoin: miter"/>
   </g>
   <g id="patch_52">
    <path d="M 361.361123 352.44 
L 364.042456 352.44 
L 364.042456 95.961368 
L 361.361123 95.961368 
z
" clip-path="url(#p61c1d49b1e)" style="fill: #4c72b0; fill-opacity: 0.75; stroke: #000000; stroke-width: 0.3; stroke-linejoin: miter"/>
   </g>
   <g id="patch_53">
    <path d="M 364.042456 352.44 
L 366.723788 352.44 
L 366.723788 62.04 
L 364.042456 62.04 
z
" clip-path="url(#p61c1d49b1e)" style="fill: #4c72b0; fill-opacity: 0.75; stroke: #000000; stroke-width: 0.3; stroke-linejoin: miter"/>
   </g>
   <g id="patch_54">
    <path d="M 366.723788 352.44 
L 369.405121 352.44 
L 369.405121 121.609231 
L 366.723788 121.609231 
z
" clip-path="url(#p61c1d49b1e)" style="fill: #4c72b0; fill-opacity: 0.75; stroke: #000000; stroke-width: 0.3; stroke-linejoin: miter"/>
   </g>
   <g id="patch_55">
    <path d="M 369.405121 352.44 
L 372.086454 352.44 
L 372.086454 81.06906 
L 369.405121 81.06906 
z
" clip-path="url(#p61c1d49b1e)" style="fill: #4c72b0; fill-opacity: 0.75; stroke: #000000; stroke-width: 0.3; stroke-linejoin: miter"/>
   </g>
   <g id="patch_56">
    <path d="M 372.086454 352.44 
L 374.767786 352.44 
L 374.767786 132.364786 
L 372.086454 132.364786 
z
" clip-path="url(#p61c1d49b1e)" style="fill: #4c72b0; fill-opacity: 0.75; stroke: #000000; stroke-width: 0.3; stroke-linejoin: miter"/>
   </g>
   <g id="patch_57">
    <path d="M 374.767786 352.44 
L 377.449119 352.44 
L 377.449119 122.436581 
L 374.767786 122.436581 
z
" clip-path="url(#p61c1d49b1e)" style="fill: #4c72b0; fill-opacity: 0.75; stroke: #000000; stroke-width: 0.3; stroke-linejoin: miter"/>
   </g>
   <g id="patch_58">
    <path d="M 377.449119 352.44 
L 380.130452 352.44 
L 380.130452 148.911795 
L 377.449119 148.911795 
z
" clip-path="url(#p61c1d49b1e)" style="fill: #4c72b0; fill-opacity: 0.75; stroke: #000000; stroke-width: 0.3; stroke-linejoin: miter"/>
   </g>
   <g id="patch_59">
    <path d="M 380.130452 352.44 
L 382.811784 352.44 
L 382.811784 163.804103 
L 380.130452 163.804103 
z
" clip-path="url(#p61c1d49b1e)" style="fill: #4c72b0; fill-opacity: 0.75; stroke: #000000; stroke-width: 0.3; stroke-linejoin: miter"/>
   </g>
   <g id="patch_60">
    <path d="M 382.811784 352.44 
L 385.493117 352.44 
L 385.493117 177.041709 
L 382.811784 177.041709 
z
" clip-path="url(#p61c1d49b1e)" style="fill: #4c72b0; fill-opacity: 0.75; stroke: #000000; stroke-width: 0.3; stroke-linejoin: miter"/>
   </g>
   <g id="patch_61">
    <path d="M 385.493117 352.44 
L 388.17445 352.44 
L 388.17445 171.250256 
L 385.493117 171.250256 
z
" clip-path="url(#p61c1d49b1e)" style="fill: #4c72b0; fill-opacity: 0.75; stroke: #000000; stroke-width: 0.3; stroke-linejoin: miter"/>
   </g>
   <g id="patch_62">
    <path d="M 388.17445 352.44 
L 390.855783 352.44 
L 390.855783 194.416068 
L 388.17445 194.416068 
z
" clip-path="url(#p61c1d49b1e)" style="fill: #4c72b0; fill-opacity: 0.75; stroke: #000000; stroke-width: 0.3; stroke-linejoin: miter"/>
   </g>
   <g id="patch_63">
    <path d="M 390.855783 352.44 
L 393.537115 352.44 
L 393.537115 182.005812 
L 390.855783 182.005812 
z
" clip-path="url(#p61c1d49b1e)" style="fill: #4c72b0; fill-opacity: 0.75; stroke: #000000; stroke-width: 0.3; stroke-linejoin: miter"/>
   </g>
   <g id="patch_64">
    <path d="M 393.537115 352.44 
L 396.218448 352.44 
L 396.218448 207.653675 
L 393.537115 207.653675 
z
" clip-path="url(#p61c1d49b1e)" style="fill: #4c72b0; fill-opacity: 0.75; stroke: #000000; stroke-width: 0.3; stroke-linejoin: miter"/>
   </g>
   <g id="patch_65">
    <path d="M 396.218448 352.44 
L 398.899781 352.44 
L 398.899781 235.78359 
L 396.218448 235.78359 
z
" clip-path="url(#p61c1d49b1e)" style="fill: #4c72b0; fill-opacity: 0.75; stroke: #000000; stroke-width: 0.3; stroke-linejoin: miter"/>
   </g>
   <g id="patch_66">
    <path d="M 398.899781 352.44 
L 401.581113 352.44 
L 401.581113 245.711795 
L 398.899781 245.711795 
z
" clip-path="url(#p61c1d49b1e)" style="fill: #4c72b0; fill-opacity: 0.75; stroke: #000000; stroke-width: 0.3; stroke-linejoin: miter"/>
   </g>
   <g id="patch_67">
    <path d="M 401.581113 352.44 
L 404.262446 352.44 
L 404.262446 273.014359 
L 401.581113 273.014359 
z
" clip-path="url(#p61c1d49b1e)" style="fill: #4c72b0; fill-opacity: 0.75; stroke: #000000; stroke-width: 0.3; stroke-linejoin: miter"/>
   </g>
   <g id="patch_68">
    <path d="M 404.262446 352.44 
L 406.943779 352.44 
L 406.943779 263.913504 
L 404.262446 263.913504 
z
" clip-path="url(#p61c1d49b1e)" style="fill: #4c72b0; fill-opacity: 0.75; stroke: #000000; stroke-width: 0.3; stroke-linejoin: miter"/>
   </g>
   <g id="patch_69">
    <path d="M 406.943779 352.44 
L 409.625112 352.44 
L 409.625112 258.949402 
L 406.943779 258.949402 
z
" clip-path="url(#p61c1d49b1e)" style="fill: #4c72b0; fill-opacity: 0.75; stroke: #000000; stroke-width: 0.3; stroke-linejoin: miter"/>
   </g>
   <g id="patch_70">
    <path d="M 409.625112 352.44 
L 412.306444 352.44 
L 412.306444 288.734017 
L 409.625112 288.734017 
z
" clip-path="url(#p61c1d49b1e)" style="fill: #4c72b0; fill-opacity: 0.75; stroke: #000000; stroke-width: 0.3; stroke-linejoin: miter"/>
   </g>
   <g id="patch_71">
    <path d="M 412.306444 352.44 
L 414.987777 352.44 
L 414.987777 283.769915 
L 412.306444 283.769915 
z
" clip-path="url(#p61c1d49b1e)" style="fill: #4c72b0; fill-opacity: 0.75; stroke: #000000; stroke-width: 0.3; stroke-linejoin: miter"/>
   </g>
   <g id="patch_72">
    <path d="M 414.987777 352.44 
L 417.66911 352.44 
L 417.66911 291.216068 
L 414.987777 291.216068 
z
" clip-path="url(#p61c1d49b1e)" style="fill: #4c72b0; fill-opacity: 0.75; stroke: #000000; stroke-width: 0.3; stroke-linejoin: miter"/>
   </g>
   <g id="patch_73">
    <path d="M 417.66911 352.44 
L 420.350442 352.44 
L 420.350442 320.173333 
L 417.66911 320.173333 
z
" clip-path="url(#p61c1d49b1e)" style="fill: #4c72b0; fill-opacity: 0.75; stroke: #000000; stroke-width: 0.3; stroke-linejoin: miter"/>
   </g>
   <g id="patch_74">
    <path d="M 420.350442 352.44 
L 423.031775 352.44 
L 423.031775 307.763077 
L 420.350442 307.763077 
z
" clip-path="url(#p61c1d49b1e)" style="fill: #4c72b0; fill-opacity: 0.75; stroke: #000000; stroke-width: 0.3; stroke-linejoin: miter"/>
   </g>
   <g id="patch_75">
    <path d="M 423.031775 352.44 
L 425.713108 352.44 
L 425.713108 321.000684 
L 423.031775 321.000684 
z
" clip-path="url(#p61c1d49b1e)" style="fill: #4c72b0; fill-opacity: 0.75; stroke: #000000; stroke-width: 0.3; stroke-linejoin: miter"/>
   </g>
   <g id="patch_76">
    <path d="M 425.713108 352.44 
L 428.394441 352.44 
L 428.394441 327.619487 
L 425.713108 327.619487 
z
" clip-path="url(#p61c1d49b1e)" style="fill: #4c72b0; fill-opacity: 0.75; stroke: #000000; stroke-width: 0.3; stroke-linejoin: miter"/>
   </g>
   <g id="patch_77">
    <path d="M 428.394441 352.44 
L 431.075773 352.44 
L 431.075773 324.310085 
L 428.394441 324.310085 
z
" clip-path="url(#p61c1d49b1e)" style="fill: #4c72b0; fill-opacity: 0.75; stroke: #000000; stroke-width: 0.3; stroke-linejoin: miter"/>
   </g>
   <g id="patch_78">
    <path d="M 431.075773 352.44 
L 433.757106 352.44 
L 433.757106 330.101538 
L 431.075773 330.101538 
z
" clip-path="url(#p61c1d49b1e)" style="fill: #4c72b0; fill-opacity: 0.75; stroke: #000000; stroke-width: 0.3; stroke-linejoin: miter"/>
   </g>
   <g id="patch_79">
    <path d="M 433.757106 352.44 
L 436.438439 352.44 
L 436.438439 331.756239 
L 433.757106 331.756239 
z
" clip-path="url(#p61c1d49b1e)" style="fill: #4c72b0; fill-opacity: 0.75; stroke: #000000; stroke-width: 0.3; stroke-linejoin: miter"/>
   </g>
   <g id="patch_80">
    <path d="M 436.438439 352.44 
L 439.119771 352.44 
L 439.119771 338.375043 
L 436.438439 338.375043 
z
" clip-path="url(#p61c1d49b1e)" style="fill: #4c72b0; fill-opacity: 0.75; stroke: #000000; stroke-width: 0.3; stroke-linejoin: miter"/>
   </g>
   <g id="patch_81">
    <path d="M 439.119771 352.44 
L 441.801104 352.44 
L 441.801104 334.238291 
L 439.119771 334.238291 
z
" clip-path="url(#p61c1d49b1e)" style="fill: #4c72b0; fill-opacity: 0.75; stroke: #000000; stroke-width: 0.3; stroke-linejoin: miter"/>
   </g>
   <g id="patch_82">
    <path d="M 441.801104 352.44 
L 444.482437 352.44 
L 444.482437 342.511795 
L 441.801104 342.511795 
z
" clip-path="url(#p61c1d49b1e)" style="fill: #4c72b0; fill-opacity: 0.75; stroke: #000000; stroke-width: 0.3; stroke-linejoin: miter"/>
   </g>
   <g id="patch_83">
    <path d="M 444.482437 352.44 
L 447.163769 352.44 
L 447.163769 338.375043 
L 444.482437 338.375043 
z
" clip-path="url(#p61c1d49b1e)" style="fill: #4c72b0; fill-opacity: 0.75; stroke: #000000; stroke-width: 0.3; stroke-linejoin: miter"/>
   </g>
   <g id="patch_84">
    <path d="M 447.163769 352.44 
L 449.845102 352.44 
L 449.845102 344.993846 
L 447.163769 344.993846 
z
" clip-path="url(#p61c1d49b1e)" style="fill: #4c72b0; fill-opacity: 0.75; stroke: #000000; stroke-width: 0.3; stroke-linejoin: miter"/>
   </g>
   <g id="patch_85">
    <path d="M 449.845102 352.44 
L 452.526435 352.44 
L 452.526435 344.166496 
L 449.845102 344.166496 
z
" clip-path="url(#p61c1d49b1e)" style="fill: #4c72b0; fill-opacity: 0.75; stroke: #000000; stroke-width: 0.3; stroke-linejoin: miter"/>
   </g>
   <g id="patch_86">
    <path d="M 452.526435 352.44 
L 455.207768 352.44 
L 455.207768 344.166496 
L 452.526435 344.166496 
z
" clip-path="url(#p61c1d49b1e)" style="fill: #4c72b0; fill-opacity: 0.75; stroke: #000000; stroke-width: 0.3; stroke-linejoin: miter"/>
   </g>
   <g id="patch_87">
    <path d="M 455.207768 352.44 
L 457.8891 352.44 
L 457.8891 349.130598 
L 455.207768 349.130598 
z
" clip-path="url(#p61c1d49b1e)" style="fill: #4c72b0; fill-opacity: 0.75; stroke: #000000; stroke-width: 0.3; stroke-linejoin: miter"/>
   </g>
   <g id="patch_88">
    <path d="M 457.8891 352.44 
L 460.570433 352.44 
L 460.570433 349.130598 
L 457.8891 349.130598 
z
" clip-path="url(#p61c1d49b1e)" style="fill: #4c72b0; fill-opacity: 0.75; stroke: #000000; stroke-width: 0.3; stroke-linejoin: miter"/>
   </g>
   <g id="patch_89">
    <path d="M 460.570433 352.44 
L 463.251766 352.44 
L 463.251766 352.44 
L 460.570433 352.44 
z
" clip-path="url(#p61c1d49b1e)" style="fill: #4c72b0; fill-opacity: 0.75; stroke: #000000; stroke-width: 0.3; stroke-linejoin: miter"/>
   </g>
   <g id="patch_90">
    <path d="M 463.251766 352.44 
L 465.933098 352.44 
L 465.933098 350.785299 
L 463.251766 350.785299 
z
" clip-path="url(#p61c1d49b1e)" style="fill: #4c72b0; fill-opacity: 0.75; stroke: #000000; stroke-width: 0.3; stroke-linejoin: miter"/>
   </g>
   <g id="patch_91">
    <path d="M 465.933098 352.44 
L 468.614431 352.44 
L 468.614431 351.61265 
L 465.933098 351.61265 
z
" clip-path="url(#p61c1d49b1e)" style="fill: #4c72b0; fill-opacity: 0.75; stroke: #000000; stroke-width: 0.3; stroke-linejoin: miter"/>
   </g>
   <g id="patch_92">
    <path d="M 468.614431 352.44 
L 471.295764 352.44 
L 471.295764 350.785299 
L 468.614431 350.785299 
z
" clip-path="url(#p61c1d49b1e)" style="fill: #4c72b0; fill-opacity: 0.75; stroke: #000000; stroke-width: 0.3; stroke-linejoin: miter"/>
   </g>
   <g id="patch_93">
    <path d="M 471.295764 352.44 
L 473.977097 352.44 
L 473.977097 350.785299 
L 471.295764 350.785299 
z
" clip-path="url(#p61c1d49b1e)" style="fill: #4c72b0; fill-opacity: 0.75; stroke: #000000; stroke-width: 0.3; stroke-linejoin: miter"/>
   </g>
   <g id="patch_94">
    <path d="M 473.977097 352.44 
L 476.658429 352.44 
L 476.658429 350.785299 
L 473.977097 350.785299 
z
" clip-path="url(#p61c1d49b1e)" style="fill: #4c72b0; fill-opacity: 0.75; stroke: #000000; stroke-width: 0.3; stroke-linejoin: miter"/>
   </g>
   <g id="patch_95">
    <path d="M 476.658429 352.44 
L 479.339762 352.44 
L 479.339762 352.44 
L 476.658429 352.44 
z
" clip-path="url(#p61c1d49b1e)" style="fill: #4c72b0; fill-opacity: 0.75; stroke: #000000; stroke-width: 0.3; stroke-linejoin: miter"/>
   </g>
   <g id="patch_96">
    <path d="M 479.339762 352.44 
L 482.021095 352.44 
L 482.021095 352.44 
L 479.339762 352.44 
z
" clip-path="url(#p61c1d49b1e)" style="fill: #4c72b0; fill-opacity: 0.75; stroke: #000000; stroke-width: 0.3; stroke-linejoin: miter"/>
   </g>
   <g id="patch_97">
    <path d="M 482.021095 352.44 
L 484.702427 352.44 
L 484.702427 352.44 
L 482.021095 352.44 
z
" clip-path="url(#p61c1d49b1e)" style="fill: #4c72b0; fill-opacity: 0.75; stroke: #000000; stroke-width: 0.3; stroke-linejoin: miter"/>
   </g>
   <g id="patch_98">
    <path d="M 484.702427 352.44 
L 487.38376 352.44 
L 487.38376 351.61265 
L 484.702427 351.61265 
z
" clip-path="url(#p61c1d49b1e)" style="fill: #4c72b0; fill-opacity: 0.75; stroke: #000000; stroke-width: 0.3; stroke-linejoin: miter"/>
   </g>
   <g id="patch_99">
    <path d="M 487.38376 352.44 
L 490.065093 352.44 
L 490.065093 352.44 
L 487.38376 352.44 
z
" clip-path="url(#p61c1d49b1e)" style="fill: #4c72b0; fill-opacity: 0.75; stroke: #000000; stroke-width: 0.3; stroke-linejoin: miter"/>
   </g>
   <g id="patch_100">
    <path d="M 490.065093 352.44 
L 492.746425 352.44 
L 492.746425 352.44 
L 490.065093 352.44 
z
" clip-path="url(#p61c1d49b1e)" style="fill: #4c72b0; fill-opacity: 0.75; stroke: #000000; stroke-width: 0.3; stroke-linejoin: miter"/>
   </g>
   <g id="patch_101">
    <path d="M 492.746425 352.44 
L 495.427758 352.44 
L 495.427758 352.44 
L 492.746425 352.44 
z
" clip-path="url(#p61c1d49b1e)" style="fill: #4c72b0; fill-opacity: 0.75; stroke: #000000; stroke-width: 0.3; stroke-linejoin: miter"/>
   </g>
   <g id="patch_102">
    <path d="M 495.427758 352.44 
L 498.109091 352.44 
L 498.109091 351.61265 
L 495.427758 351.61265 
z
" clip-path="url(#p61c1d49b1e)" style="fill: #4c72b0; fill-opacity: 0.75; stroke: #000000; stroke-width: 0.3; stroke-linejoin: miter"/>
   </g>
   <g id="line2d_25">
    <path d="M 92.290909 352.44 
L 92.290909 47.52 
" clip-path="url(#p61c1d49b1e)" style="fill: none; stroke-dasharray: 7.4,3.2; stroke-dashoffset: 0; stroke: #ff0000; stroke-width: 2"/>
   </g>
   <g id="patch_103">
    <path d="M 72 352.44 
L 72 47.52 
" style="fill: none"/>
   </g>
   <g id="patch_104">
    <path d="M 518.4 352.44 
L 518.4 47.52 
" style="fill: none"/>
   </g>
   <g id="patch_105">
    <path d="M 72 352.44 
L 518.4 352.44 
" style="fill: none"/>
   </g>
   <g id="patch_106">
    <path d="M 72 47.52 
L 518.4 47.52 
" style="fill: none"/>
   </g>
   <g id="patch_107">
    <path d="M 51.539918 98.970498 
Q 65.912916 98.954616 80.285915 98.938734 
L 80.281495 94.938737 
Q 86.286202 97.932103 92.290909 100.92547 
Q 86.292832 103.9321 80.294755 106.938729 
L 80.290335 102.938732 
Q 65.917336 102.954614 51.544338 102.970496 
L 51.539918 98.970498 
z
" style="stroke: #000000; stroke-width: 0.3; stroke-linecap: round"/>
   </g>
   <g id="text_15">
    <!-- Empirical summary statistic -->
    <g style="fill: #262626" transform="translate(51.542128 104.234872) scale(0.12 -0.12)">
     <defs>
      <path id="DejaVuSans-Bold-45" d="M 588 4666 
L 3834 4666 
L 3834 3756 
L 1791 3756 
L 1791 2888 
L 3713 2888 
L 3713 1978 
L 1791 1978 
L 1791 909 
L 3903 909 
L 3903 0 
L 588 0 
L 588 4666 
z
" transform="scale(0.015625)"/>
      <path id="DejaVuSans-Bold-6d" d="M 3781 2919 
Q 3994 3244 4286 3414 
Q 4578 3584 4928 3584 
Q 5531 3584 5847 3212 
Q 6163 2841 6163 2131 
L 6163 0 
L 5038 0 
L 5038 1825 
Q 5041 1866 5042 1909 
Q 5044 1953 5044 2034 
Q 5044 2406 4934 2573 
Q 4825 2741 4581 2741 
Q 4263 2741 4089 2478 
Q 3916 2216 3909 1719 
L 3909 0 
L 2784 0 
L 2784 1825 
Q 2784 2406 2684 2573 
Q 2584 2741 2328 2741 
Q 2006 2741 1831 2477 
Q 1656 2213 1656 1722 
L 1656 0 
L 531 0 
L 531 3500 
L 1656 3500 
L 1656 2988 
Q 1863 3284 2130 3434 
Q 2397 3584 2719 3584 
Q 3081 3584 3359 3409 
Q 3638 3234 3781 2919 
z
" transform="scale(0.015625)"/>
      <path id="DejaVuSans-Bold-70" d="M 1656 506 
L 1656 -1331 
L 538 -1331 
L 538 3500 
L 1656 3500 
L 1656 2988 
Q 1888 3294 2169 3439 
Q 2450 3584 2816 3584 
Q 3463 3584 3878 3070 
Q 4294 2556 4294 1747 
Q 4294 938 3878 423 
Q 3463 -91 2816 -91 
Q 2450 -91 2169 54 
Q 1888 200 1656 506 
z
M 2400 2772 
Q 2041 2772 1848 2508 
Q 1656 2244 1656 1747 
Q 1656 1250 1848 986 
Q 2041 722 2400 722 
Q 2759 722 2948 984 
Q 3138 1247 3138 1747 
Q 3138 2247 2948 2509 
Q 2759 2772 2400 2772 
z
" transform="scale(0.015625)"/>
      <path id="DejaVuSans-Bold-69" d="M 538 3500 
L 1656 3500 
L 1656 0 
L 538 0 
L 538 3500 
z
M 538 4863 
L 1656 4863 
L 1656 3950 
L 538 3950 
L 538 4863 
z
" transform="scale(0.015625)"/>
      <path id="DejaVuSans-Bold-72" d="M 3138 2547 
Q 2991 2616 2845 2648 
Q 2700 2681 2553 2681 
Q 2122 2681 1889 2404 
Q 1656 2128 1656 1613 
L 1656 0 
L 538 0 
L 538 3500 
L 1656 3500 
L 1656 2925 
Q 1872 3269 2151 3426 
Q 2431 3584 2822 3584 
Q 2878 3584 2943 3579 
Q 3009 3575 3134 3559 
L 3138 2547 
z
" transform="scale(0.015625)"/>
      <path id="DejaVuSans-Bold-63" d="M 3366 3391 
L 3366 2478 
Q 3138 2634 2908 2709 
Q 2678 2784 2431 2784 
Q 1963 2784 1702 2511 
Q 1441 2238 1441 1747 
Q 1441 1256 1702 982 
Q 1963 709 2431 709 
Q 2694 709 2930 787 
Q 3166 866 3366 1019 
L 3366 103 
Q 3103 6 2833 -42 
Q 2563 -91 2291 -91 
Q 1344 -91 809 395 
Q 275 881 275 1747 
Q 275 2613 809 3098 
Q 1344 3584 2291 3584 
Q 2566 3584 2833 3536 
Q 3100 3488 3366 3391 
z
" transform="scale(0.015625)"/>
      <path id="DejaVuSans-Bold-61" d="M 2106 1575 
Q 1756 1575 1579 1456 
Q 1403 1338 1403 1106 
Q 1403 894 1545 773 
Q 1688 653 1941 653 
Q 2256 653 2472 879 
Q 2688 1106 2688 1447 
L 2688 1575 
L 2106 1575 
z
M 3816 1997 
L 3816 0 
L 2688 0 
L 2688 519 
Q 2463 200 2181 54 
Q 1900 -91 1497 -91 
Q 953 -91 614 226 
Q 275 544 275 1050 
Q 275 1666 698 1953 
Q 1122 2241 2028 2241 
L 2688 2241 
L 2688 2328 
Q 2688 2594 2478 2717 
Q 2269 2841 1825 2841 
Q 1466 2841 1156 2769 
Q 847 2697 581 2553 
L 581 3406 
Q 941 3494 1303 3539 
Q 1666 3584 2028 3584 
Q 2975 3584 3395 3211 
Q 3816 2838 3816 1997 
z
" transform="scale(0.015625)"/>
      <path id="DejaVuSans-Bold-6c" d="M 538 4863 
L 1656 4863 
L 1656 0 
L 538 0 
L 538 4863 
z
" transform="scale(0.015625)"/>
      <path id="DejaVuSans-Bold-20" transform="scale(0.015625)"/>
      <path id="DejaVuSans-Bold-73" d="M 3272 3391 
L 3272 2541 
Q 2913 2691 2578 2766 
Q 2244 2841 1947 2841 
Q 1628 2841 1473 2761 
Q 1319 2681 1319 2516 
Q 1319 2381 1436 2309 
Q 1553 2238 1856 2203 
L 2053 2175 
Q 2913 2066 3209 1816 
Q 3506 1566 3506 1031 
Q 3506 472 3093 190 
Q 2681 -91 1863 -91 
Q 1516 -91 1145 -36 
Q 775 19 384 128 
L 384 978 
Q 719 816 1070 734 
Q 1422 653 1784 653 
Q 2113 653 2278 743 
Q 2444 834 2444 1013 
Q 2444 1163 2330 1236 
Q 2216 1309 1875 1350 
L 1678 1375 
Q 931 1469 631 1722 
Q 331 1975 331 2491 
Q 331 3047 712 3315 
Q 1094 3584 1881 3584 
Q 2191 3584 2531 3537 
Q 2872 3491 3272 3391 
z
" transform="scale(0.015625)"/>
      <path id="DejaVuSans-Bold-75" d="M 500 1363 
L 500 3500 
L 1625 3500 
L 1625 3150 
Q 1625 2866 1622 2436 
Q 1619 2006 1619 1863 
Q 1619 1441 1641 1255 
Q 1663 1069 1716 984 
Q 1784 875 1895 815 
Q 2006 756 2150 756 
Q 2500 756 2700 1025 
Q 2900 1294 2900 1772 
L 2900 3500 
L 4019 3500 
L 4019 0 
L 2900 0 
L 2900 506 
Q 2647 200 2364 54 
Q 2081 -91 1741 -91 
Q 1134 -91 817 281 
Q 500 653 500 1363 
z
" transform="scale(0.015625)"/>
      <path id="DejaVuSans-Bold-79" d="M 78 3500 
L 1197 3500 
L 2138 1125 
L 2938 3500 
L 4056 3500 
L 2584 -331 
Q 2363 -916 2067 -1148 
Q 1772 -1381 1288 -1381 
L 641 -1381 
L 641 -647 
L 991 -647 
Q 1275 -647 1404 -556 
Q 1534 -466 1606 -231 
L 1638 -134 
L 78 3500 
z
" transform="scale(0.015625)"/>
      <path id="DejaVuSans-Bold-74" d="M 1759 4494 
L 1759 3500 
L 2913 3500 
L 2913 2700 
L 1759 2700 
L 1759 1216 
Q 1759 972 1856 886 
Q 1953 800 2241 800 
L 2816 800 
L 2816 0 
L 1856 0 
Q 1194 0 917 276 
Q 641 553 641 1216 
L 641 2700 
L 84 2700 
L 84 3500 
L 641 3500 
L 641 4494 
L 1759 4494 
z
" transform="scale(0.015625)"/>
     </defs>
     <use xlink:href="#DejaVuSans-Bold-45"/>
     <use xlink:href="#DejaVuSans-Bold-6d" x="68.310547"/>
     <use xlink:href="#DejaVuSans-Bold-70" x="172.509766"/>
     <use xlink:href="#DejaVuSans-Bold-69" x="244.091797"/>
     <use xlink:href="#DejaVuSans-Bold-72" x="278.369141"/>
     <use xlink:href="#DejaVuSans-Bold-69" x="327.685547"/>
     <use xlink:href="#DejaVuSans-Bold-63" x="361.962891"/>
     <use xlink:href="#DejaVuSans-Bold-61" x="421.240234"/>
     <use xlink:href="#DejaVuSans-Bold-6c" x="488.720703"/>
     <use xlink:href="#DejaVuSans-Bold-20" x="522.998047"/>
     <use xlink:href="#DejaVuSans-Bold-73" x="557.8125"/>
     <use xlink:href="#DejaVuSans-Bold-75" x="617.333984"/>
     <use xlink:href="#DejaVuSans-Bold-6d" x="688.525391"/>
     <use xlink:href="#DejaVuSans-Bold-6d" x="792.724609"/>
     <use xlink:href="#DejaVuSans-Bold-61" x="896.923828"/>
     <use xlink:href="#DejaVuSans-Bold-72" x="964.404297"/>
     <use xlink:href="#DejaVuSans-Bold-79" x="1013.720703"/>
     <use xlink:href="#DejaVuSans-Bold-20" x="1078.90625"/>
     <use xlink:href="#DejaVuSans-Bold-73" x="1113.720703"/>
     <use xlink:href="#DejaVuSans-Bold-74" x="1173.242188"/>
     <use xlink:href="#DejaVuSans-Bold-61" x="1221.044922"/>
     <use xlink:href="#DejaVuSans-Bold-74" x="1288.525391"/>
     <use xlink:href="#DejaVuSans-Bold-69" x="1336.328125"/>
     <use xlink:href="#DejaVuSans-Bold-73" x="1370.605469"/>
     <use xlink:href="#DejaVuSans-Bold-74" x="1430.126953"/>
     <use xlink:href="#DejaVuSans-Bold-69" x="1477.929688"/>
     <use xlink:href="#DejaVuSans-Bold-63" x="1512.207031"/>
    </g>
   </g>
  </g>
 </g>
 <defs>
  <clipPath id="p61c1d49b1e">
   <rect x="72" y="47.52" width="446.4" height="304.92"/>
  </clipPath>
 </defs>
</svg>
