<?xml version="1.0" encoding="utf-8" standalone="no"?>
<!DOCTYPE svg PUBLIC "-//W3C//DTD SVG 1.1//EN"
  "http://www.w3.org/Graphics/SVG/1.1/DTD/svg11.dtd">
<svg xmlns:xlink="http://www.w3.org/1999/xlink" width="576pt" height="396pt" viewBox="0 0 576 396" xmlns="http://www.w3.org/2000/svg" version="1.1">
 <metadata>
  <rdf:RDF xmlns:dc="http://purl.org/dc/elements/1.1/" xmlns:cc="http://creativecommons.org/ns#" xmlns:rdf="http://www.w3.org/1999/02/22-rdf-syntax-ns#">
   <cc:Work>
    <dc:type rdf:resource="http://purl.org/dc/dcmitype/StillImage"/>
    <dc:date>2023-05-14T11:56:27.976363</dc:date>
    <dc:format>image/svg+xml</dc:format>
    <dc:creator>
     <cc:Agent>
      <dc:title>Matplotlib v3.6.0, https://matplotlib.org/</dc:title>
     </cc:Agent>
    </dc:creator>
   </cc:Work>
  </rdf:RDF>
 </metadata>
 <defs>
  <style type="text/css">*{stroke-linejoin: round; stroke-linecap: butt}</style>
 </defs>
 <g id="figure_1">
  <g id="patch_1">
   <path d="M 0 396 
L 576 396 
L 576 0 
L 0 0 
z
" style="fill: #ffffff"/>
  </g>
  <g id="axes_1">
   <g id="patch_2">
    <path d="M 72 352.44 
L 518.4 352.44 
L 518.4 47.52 
L 72 47.52 
z
" style="fill: #eaeaf2"/>
   </g>
   <g id="matplotlib.axis_1">
    <g id="xtick_1">
     <g id="line2d_1">
      <path d="M 144.609697 352.44 
L 144.609697 47.52 
" clip-path="url(#p4879a0ed2b)" style="fill: none; stroke: #ffffff; stroke-linecap: round"/>
     </g>
     <g id="line2d_2"/>
     <g id="text_1">
      <!-- 5 -->
      <g style="fill: #262626" transform="translate(141.428447 367.038437) scale(0.1 -0.1)">
       <defs>
        <path id="DejaVuSans-35" d="M 691 4666 
L 3169 4666 
L 3169 4134 
L 1269 4134 
L 1269 2991 
Q 1406 3038 1543 3061 
Q 1681 3084 1819 3084 
Q 2600 3084 3056 2656 
Q 3513 2228 3513 1497 
Q 3513 744 3044 326 
Q 2575 -91 1722 -91 
Q 1428 -91 1123 -41 
Q 819 9 494 109 
L 494 744 
Q 775 591 1075 516 
Q 1375 441 1709 441 
Q 2250 441 2565 725 
Q 2881 1009 2881 1497 
Q 2881 1984 2565 2268 
Q 2250 2553 1709 2553 
Q 1456 2553 1204 2497 
Q 953 2441 691 2322 
L 691 4666 
z
" transform="scale(0.015625)"/>
       </defs>
       <use xlink:href="#DejaVuSans-35"/>
      </g>
     </g>
    </g>
    <g id="xtick_2">
     <g id="line2d_3">
      <path d="M 222.69744 352.44 
L 222.69744 47.52 
" clip-path="url(#p4879a0ed2b)" style="fill: none; stroke: #ffffff; stroke-linecap: round"/>
     </g>
     <g id="line2d_4"/>
     <g id="text_2">
      <!-- 10 -->
      <g style="fill: #262626" transform="translate(216.33494 367.038437) scale(0.1 -0.1)">
       <defs>
        <path id="DejaVuSans-31" d="M 794 531 
L 1825 531 
L 1825 4091 
L 703 3866 
L 703 4441 
L 1819 4666 
L 2450 4666 
L 2450 531 
L 3481 531 
L 3481 0 
L 794 0 
L 794 531 
z
" transform="scale(0.015625)"/>
        <path id="DejaVuSans-30" d="M 2034 4250 
Q 1547 4250 1301 3770 
Q 1056 3291 1056 2328 
Q 1056 1369 1301 889 
Q 1547 409 2034 409 
Q 2525 409 2770 889 
Q 3016 1369 3016 2328 
Q 3016 3291 2770 3770 
Q 2525 4250 2034 4250 
z
M 2034 4750 
Q 2819 4750 3233 4129 
Q 3647 3509 3647 2328 
Q 3647 1150 3233 529 
Q 2819 -91 2034 -91 
Q 1250 -91 836 529 
Q 422 1150 422 2328 
Q 422 3509 836 4129 
Q 1250 4750 2034 4750 
z
" transform="scale(0.015625)"/>
       </defs>
       <use xlink:href="#DejaVuSans-31"/>
       <use xlink:href="#DejaVuSans-30" x="63.623047"/>
      </g>
     </g>
    </g>
    <g id="xtick_3">
     <g id="line2d_5">
      <path d="M 300.785183 352.44 
L 300.785183 47.52 
" clip-path="url(#p4879a0ed2b)" style="fill: none; stroke: #ffffff; stroke-linecap: round"/>
     </g>
     <g id="line2d_6"/>
     <g id="text_3">
      <!-- 15 -->
      <g style="fill: #262626" transform="translate(294.422683 367.038437) scale(0.1 -0.1)">
       <use xlink:href="#DejaVuSans-31"/>
       <use xlink:href="#DejaVuSans-35" x="63.623047"/>
      </g>
     </g>
    </g>
    <g id="xtick_4">
     <g id="line2d_7">
      <path d="M 378.872926 352.44 
L 378.872926 47.52 
" clip-path="url(#p4879a0ed2b)" style="fill: none; stroke: #ffffff; stroke-linecap: round"/>
     </g>
     <g id="line2d_8"/>
     <g id="text_4">
      <!-- 20 -->
      <g style="fill: #262626" transform="translate(372.510426 367.038437) scale(0.1 -0.1)">
       <defs>
        <path id="DejaVuSans-32" d="M 1228 531 
L 3431 531 
L 3431 0 
L 469 0 
L 469 531 
Q 828 903 1448 1529 
Q 2069 2156 2228 2338 
Q 2531 2678 2651 2914 
Q 2772 3150 2772 3378 
Q 2772 3750 2511 3984 
Q 2250 4219 1831 4219 
Q 1534 4219 1204 4116 
Q 875 4013 500 3803 
L 500 4441 
Q 881 4594 1212 4672 
Q 1544 4750 1819 4750 
Q 2544 4750 2975 4387 
Q 3406 4025 3406 3419 
Q 3406 3131 3298 2873 
Q 3191 2616 2906 2266 
Q 2828 2175 2409 1742 
Q 1991 1309 1228 531 
z
" transform="scale(0.015625)"/>
       </defs>
       <use xlink:href="#DejaVuSans-32"/>
       <use xlink:href="#DejaVuSans-30" x="63.623047"/>
      </g>
     </g>
    </g>
    <g id="xtick_5">
     <g id="line2d_9">
      <path d="M 456.960669 352.44 
L 456.960669 47.52 
" clip-path="url(#p4879a0ed2b)" style="fill: none; stroke: #ffffff; stroke-linecap: round"/>
     </g>
     <g id="line2d_10"/>
     <g id="text_5">
      <!-- 25 -->
      <g style="fill: #262626" transform="translate(450.598169 367.038437) scale(0.1 -0.1)">
       <use xlink:href="#DejaVuSans-32"/>
       <use xlink:href="#DejaVuSans-35" x="63.623047"/>
      </g>
     </g>
    </g>
    <g id="text_6">
     <!-- AVG gap size -->
     <g style="fill: #262626" transform="translate(259.250625 381.476406) scale(0.11 -0.11)">
      <defs>
       <path id="DejaVuSans-41" d="M 2188 4044 
L 1331 1722 
L 3047 1722 
L 2188 4044 
z
M 1831 4666 
L 2547 4666 
L 4325 0 
L 3669 0 
L 3244 1197 
L 1141 1197 
L 716 0 
L 50 0 
L 1831 4666 
z
" transform="scale(0.015625)"/>
       <path id="DejaVuSans-56" d="M 1831 0 
L 50 4666 
L 709 4666 
L 2188 738 
L 3669 4666 
L 4325 4666 
L 2547 0 
L 1831 0 
z
" transform="scale(0.015625)"/>
       <path id="DejaVuSans-47" d="M 3809 666 
L 3809 1919 
L 2778 1919 
L 2778 2438 
L 4434 2438 
L 4434 434 
Q 4069 175 3628 42 
Q 3188 -91 2688 -91 
Q 1594 -91 976 548 
Q 359 1188 359 2328 
Q 359 3472 976 4111 
Q 1594 4750 2688 4750 
Q 3144 4750 3555 4637 
Q 3966 4525 4313 4306 
L 4313 3634 
Q 3963 3931 3569 4081 
Q 3175 4231 2741 4231 
Q 1884 4231 1454 3753 
Q 1025 3275 1025 2328 
Q 1025 1384 1454 906 
Q 1884 428 2741 428 
Q 3075 428 3337 486 
Q 3600 544 3809 666 
z
" transform="scale(0.015625)"/>
       <path id="DejaVuSans-20" transform="scale(0.015625)"/>
       <path id="DejaVuSans-67" d="M 2906 1791 
Q 2906 2416 2648 2759 
Q 2391 3103 1925 3103 
Q 1463 3103 1205 2759 
Q 947 2416 947 1791 
Q 947 1169 1205 825 
Q 1463 481 1925 481 
Q 2391 481 2648 825 
Q 2906 1169 2906 1791 
z
M 3481 434 
Q 3481 -459 3084 -895 
Q 2688 -1331 1869 -1331 
Q 1566 -1331 1297 -1286 
Q 1028 -1241 775 -1147 
L 775 -588 
Q 1028 -725 1275 -790 
Q 1522 -856 1778 -856 
Q 2344 -856 2625 -561 
Q 2906 -266 2906 331 
L 2906 616 
Q 2728 306 2450 153 
Q 2172 0 1784 0 
Q 1141 0 747 490 
Q 353 981 353 1791 
Q 353 2603 747 3093 
Q 1141 3584 1784 3584 
Q 2172 3584 2450 3431 
Q 2728 3278 2906 2969 
L 2906 3500 
L 3481 3500 
L 3481 434 
z
" transform="scale(0.015625)"/>
       <path id="DejaVuSans-61" d="M 2194 1759 
Q 1497 1759 1228 1600 
Q 959 1441 959 1056 
Q 959 750 1161 570 
Q 1363 391 1709 391 
Q 2188 391 2477 730 
Q 2766 1069 2766 1631 
L 2766 1759 
L 2194 1759 
z
M 3341 1997 
L 3341 0 
L 2766 0 
L 2766 531 
Q 2569 213 2275 61 
Q 1981 -91 1556 -91 
Q 1019 -91 701 211 
Q 384 513 384 1019 
Q 384 1609 779 1909 
Q 1175 2209 1959 2209 
L 2766 2209 
L 2766 2266 
Q 2766 2663 2505 2880 
Q 2244 3097 1772 3097 
Q 1472 3097 1187 3025 
Q 903 2953 641 2809 
L 641 3341 
Q 956 3463 1253 3523 
Q 1550 3584 1831 3584 
Q 2591 3584 2966 3190 
Q 3341 2797 3341 1997 
z
" transform="scale(0.015625)"/>
       <path id="DejaVuSans-70" d="M 1159 525 
L 1159 -1331 
L 581 -1331 
L 581 3500 
L 1159 3500 
L 1159 2969 
Q 1341 3281 1617 3432 
Q 1894 3584 2278 3584 
Q 2916 3584 3314 3078 
Q 3713 2572 3713 1747 
Q 3713 922 3314 415 
Q 2916 -91 2278 -91 
Q 1894 -91 1617 61 
Q 1341 213 1159 525 
z
M 3116 1747 
Q 3116 2381 2855 2742 
Q 2594 3103 2138 3103 
Q 1681 3103 1420 2742 
Q 1159 2381 1159 1747 
Q 1159 1113 1420 752 
Q 1681 391 2138 391 
Q 2594 391 2855 752 
Q 3116 1113 3116 1747 
z
" transform="scale(0.015625)"/>
       <path id="DejaVuSans-73" d="M 2834 3397 
L 2834 2853 
Q 2591 2978 2328 3040 
Q 2066 3103 1784 3103 
Q 1356 3103 1142 2972 
Q 928 2841 928 2578 
Q 928 2378 1081 2264 
Q 1234 2150 1697 2047 
L 1894 2003 
Q 2506 1872 2764 1633 
Q 3022 1394 3022 966 
Q 3022 478 2636 193 
Q 2250 -91 1575 -91 
Q 1294 -91 989 -36 
Q 684 19 347 128 
L 347 722 
Q 666 556 975 473 
Q 1284 391 1588 391 
Q 1994 391 2212 530 
Q 2431 669 2431 922 
Q 2431 1156 2273 1281 
Q 2116 1406 1581 1522 
L 1381 1569 
Q 847 1681 609 1914 
Q 372 2147 372 2553 
Q 372 3047 722 3315 
Q 1072 3584 1716 3584 
Q 2034 3584 2315 3537 
Q 2597 3491 2834 3397 
z
" transform="scale(0.015625)"/>
       <path id="DejaVuSans-69" d="M 603 3500 
L 1178 3500 
L 1178 0 
L 603 0 
L 603 3500 
z
M 603 4863 
L 1178 4863 
L 1178 4134 
L 603 4134 
L 603 4863 
z
" transform="scale(0.015625)"/>
       <path id="DejaVuSans-7a" d="M 353 3500 
L 3084 3500 
L 3084 2975 
L 922 459 
L 3084 459 
L 3084 0 
L 275 0 
L 275 525 
L 2438 3041 
L 353 3041 
L 353 3500 
z
" transform="scale(0.015625)"/>
       <path id="DejaVuSans-65" d="M 3597 1894 
L 3597 1613 
L 953 1613 
Q 991 1019 1311 708 
Q 1631 397 2203 397 
Q 2534 397 2845 478 
Q 3156 559 3463 722 
L 3463 178 
Q 3153 47 2828 -22 
Q 2503 -91 2169 -91 
Q 1331 -91 842 396 
Q 353 884 353 1716 
Q 353 2575 817 3079 
Q 1281 3584 2069 3584 
Q 2775 3584 3186 3129 
Q 3597 2675 3597 1894 
z
M 3022 2063 
Q 3016 2534 2758 2815 
Q 2500 3097 2075 3097 
Q 1594 3097 1305 2825 
Q 1016 2553 972 2059 
L 3022 2063 
z
" transform="scale(0.015625)"/>
      </defs>
      <use xlink:href="#DejaVuSans-41"/>
      <use xlink:href="#DejaVuSans-56" x="62.033203"/>
      <use xlink:href="#DejaVuSans-47" x="130.441406"/>
      <use xlink:href="#DejaVuSans-20" x="207.931641"/>
      <use xlink:href="#DejaVuSans-67" x="239.71875"/>
      <use xlink:href="#DejaVuSans-61" x="303.195312"/>
      <use xlink:href="#DejaVuSans-70" x="364.474609"/>
      <use xlink:href="#DejaVuSans-20" x="427.951172"/>
      <use xlink:href="#DejaVuSans-73" x="459.738281"/>
      <use xlink:href="#DejaVuSans-69" x="511.837891"/>
      <use xlink:href="#DejaVuSans-7a" x="539.621094"/>
      <use xlink:href="#DejaVuSans-65" x="592.111328"/>
     </g>
    </g>
   </g>
   <g id="matplotlib.axis_2">
    <g id="ytick_1">
     <g id="line2d_11">
      <path d="M 72 352.44 
L 518.4 352.44 
" clip-path="url(#p4879a0ed2b)" style="fill: none; stroke: #ffffff; stroke-linecap: round"/>
     </g>
     <g id="line2d_12"/>
     <g id="text_7">
      <!-- 0 -->
      <g style="fill: #262626" transform="translate(58.6375 356.239219) scale(0.1 -0.1)">
       <use xlink:href="#DejaVuSans-30"/>
      </g>
     </g>
    </g>
    <g id="ytick_2">
     <g id="line2d_13">
      <path d="M 72 300.950638 
L 518.4 300.950638 
" clip-path="url(#p4879a0ed2b)" style="fill: none; stroke: #ffffff; stroke-linecap: round"/>
     </g>
     <g id="line2d_14"/>
     <g id="text_8">
      <!-- 50 -->
      <g style="fill: #262626" transform="translate(52.275 304.749857) scale(0.1 -0.1)">
       <use xlink:href="#DejaVuSans-35"/>
       <use xlink:href="#DejaVuSans-30" x="63.623047"/>
      </g>
     </g>
    </g>
    <g id="ytick_3">
     <g id="line2d_15">
      <path d="M 72 249.461277 
L 518.4 249.461277 
" clip-path="url(#p4879a0ed2b)" style="fill: none; stroke: #ffffff; stroke-linecap: round"/>
     </g>
     <g id="line2d_16"/>
     <g id="text_9">
      <!-- 100 -->
      <g style="fill: #262626" transform="translate(45.9125 253.260495) scale(0.1 -0.1)">
       <use xlink:href="#DejaVuSans-31"/>
       <use xlink:href="#DejaVuSans-30" x="63.623047"/>
       <use xlink:href="#DejaVuSans-30" x="127.246094"/>
      </g>
     </g>
    </g>
    <g id="ytick_4">
     <g id="line2d_17">
      <path d="M 72 197.971915 
L 518.4 197.971915 
" clip-path="url(#p4879a0ed2b)" style="fill: none; stroke: #ffffff; stroke-linecap: round"/>
     </g>
     <g id="line2d_18"/>
     <g id="text_10">
      <!-- 150 -->
      <g style="fill: #262626" transform="translate(45.9125 201.771134) scale(0.1 -0.1)">
       <use xlink:href="#DejaVuSans-31"/>
       <use xlink:href="#DejaVuSans-35" x="63.623047"/>
       <use xlink:href="#DejaVuSans-30" x="127.246094"/>
      </g>
     </g>
    </g>
    <g id="ytick_5">
     <g id="line2d_19">
      <path d="M 72 146.482553 
L 518.4 146.482553 
" clip-path="url(#p4879a0ed2b)" style="fill: none; stroke: #ffffff; stroke-linecap: round"/>
     </g>
     <g id="line2d_20"/>
     <g id="text_11">
      <!-- 200 -->
      <g style="fill: #262626" transform="translate(45.9125 150.281772) scale(0.1 -0.1)">
       <use xlink:href="#DejaVuSans-32"/>
       <use xlink:href="#DejaVuSans-30" x="63.623047"/>
       <use xlink:href="#DejaVuSans-30" x="127.246094"/>
      </g>
     </g>
    </g>
    <g id="ytick_6">
     <g id="line2d_21">
      <path d="M 72 94.993191 
L 518.4 94.993191 
" clip-path="url(#p4879a0ed2b)" style="fill: none; stroke: #ffffff; stroke-linecap: round"/>
     </g>
     <g id="line2d_22"/>
     <g id="text_12">
      <!-- 250 -->
      <g style="fill: #262626" transform="translate(45.9125 98.79241) scale(0.1 -0.1)">
       <use xlink:href="#DejaVuSans-32"/>
       <use xlink:href="#DejaVuSans-35" x="63.623047"/>
       <use xlink:href="#DejaVuSans-30" x="127.246094"/>
      </g>
     </g>
    </g>
    <g id="text_13">
     <!-- Number of simulated MSAs -->
     <g style="fill: #262626" transform="translate(39.624844 274.754219) rotate(-90) scale(0.11 -0.11)">
      <defs>
       <path id="DejaVuSans-4e" d="M 628 4666 
L 1478 4666 
L 3547 763 
L 3547 4666 
L 4159 4666 
L 4159 0 
L 3309 0 
L 1241 3903 
L 1241 0 
L 628 0 
L 628 4666 
z
" transform="scale(0.015625)"/>
       <path id="DejaVuSans-75" d="M 544 1381 
L 544 3500 
L 1119 3500 
L 1119 1403 
Q 1119 906 1312 657 
Q 1506 409 1894 409 
Q 2359 409 2629 706 
Q 2900 1003 2900 1516 
L 2900 3500 
L 3475 3500 
L 3475 0 
L 2900 0 
L 2900 538 
Q 2691 219 2414 64 
Q 2138 -91 1772 -91 
Q 1169 -91 856 284 
Q 544 659 544 1381 
z
M 1991 3584 
L 1991 3584 
z
" transform="scale(0.015625)"/>
       <path id="DejaVuSans-6d" d="M 3328 2828 
Q 3544 3216 3844 3400 
Q 4144 3584 4550 3584 
Q 5097 3584 5394 3201 
Q 5691 2819 5691 2113 
L 5691 0 
L 5113 0 
L 5113 2094 
Q 5113 2597 4934 2840 
Q 4756 3084 4391 3084 
Q 3944 3084 3684 2787 
Q 3425 2491 3425 1978 
L 3425 0 
L 2847 0 
L 2847 2094 
Q 2847 2600 2669 2842 
Q 2491 3084 2119 3084 
Q 1678 3084 1418 2786 
Q 1159 2488 1159 1978 
L 1159 0 
L 581 0 
L 581 3500 
L 1159 3500 
L 1159 2956 
Q 1356 3278 1631 3431 
Q 1906 3584 2284 3584 
Q 2666 3584 2933 3390 
Q 3200 3197 3328 2828 
z
" transform="scale(0.015625)"/>
       <path id="DejaVuSans-62" d="M 3116 1747 
Q 3116 2381 2855 2742 
Q 2594 3103 2138 3103 
Q 1681 3103 1420 2742 
Q 1159 2381 1159 1747 
Q 1159 1113 1420 752 
Q 1681 391 2138 391 
Q 2594 391 2855 752 
Q 3116 1113 3116 1747 
z
M 1159 2969 
Q 1341 3281 1617 3432 
Q 1894 3584 2278 3584 
Q 2916 3584 3314 3078 
Q 3713 2572 3713 1747 
Q 3713 922 3314 415 
Q 2916 -91 2278 -91 
Q 1894 -91 1617 61 
Q 1341 213 1159 525 
L 1159 0 
L 581 0 
L 581 4863 
L 1159 4863 
L 1159 2969 
z
" transform="scale(0.015625)"/>
       <path id="DejaVuSans-72" d="M 2631 2963 
Q 2534 3019 2420 3045 
Q 2306 3072 2169 3072 
Q 1681 3072 1420 2755 
Q 1159 2438 1159 1844 
L 1159 0 
L 581 0 
L 581 3500 
L 1159 3500 
L 1159 2956 
Q 1341 3275 1631 3429 
Q 1922 3584 2338 3584 
Q 2397 3584 2469 3576 
Q 2541 3569 2628 3553 
L 2631 2963 
z
" transform="scale(0.015625)"/>
       <path id="DejaVuSans-6f" d="M 1959 3097 
Q 1497 3097 1228 2736 
Q 959 2375 959 1747 
Q 959 1119 1226 758 
Q 1494 397 1959 397 
Q 2419 397 2687 759 
Q 2956 1122 2956 1747 
Q 2956 2369 2687 2733 
Q 2419 3097 1959 3097 
z
M 1959 3584 
Q 2709 3584 3137 3096 
Q 3566 2609 3566 1747 
Q 3566 888 3137 398 
Q 2709 -91 1959 -91 
Q 1206 -91 779 398 
Q 353 888 353 1747 
Q 353 2609 779 3096 
Q 1206 3584 1959 3584 
z
" transform="scale(0.015625)"/>
       <path id="DejaVuSans-66" d="M 2375 4863 
L 2375 4384 
L 1825 4384 
Q 1516 4384 1395 4259 
Q 1275 4134 1275 3809 
L 1275 3500 
L 2222 3500 
L 2222 3053 
L 1275 3053 
L 1275 0 
L 697 0 
L 697 3053 
L 147 3053 
L 147 3500 
L 697 3500 
L 697 3744 
Q 697 4328 969 4595 
Q 1241 4863 1831 4863 
L 2375 4863 
z
" transform="scale(0.015625)"/>
       <path id="DejaVuSans-6c" d="M 603 4863 
L 1178 4863 
L 1178 0 
L 603 0 
L 603 4863 
z
" transform="scale(0.015625)"/>
       <path id="DejaVuSans-74" d="M 1172 4494 
L 1172 3500 
L 2356 3500 
L 2356 3053 
L 1172 3053 
L 1172 1153 
Q 1172 725 1289 603 
Q 1406 481 1766 481 
L 2356 481 
L 2356 0 
L 1766 0 
Q 1100 0 847 248 
Q 594 497 594 1153 
L 594 3053 
L 172 3053 
L 172 3500 
L 594 3500 
L 594 4494 
L 1172 4494 
z
" transform="scale(0.015625)"/>
       <path id="DejaVuSans-64" d="M 2906 2969 
L 2906 4863 
L 3481 4863 
L 3481 0 
L 2906 0 
L 2906 525 
Q 2725 213 2448 61 
Q 2172 -91 1784 -91 
Q 1150 -91 751 415 
Q 353 922 353 1747 
Q 353 2572 751 3078 
Q 1150 3584 1784 3584 
Q 2172 3584 2448 3432 
Q 2725 3281 2906 2969 
z
M 947 1747 
Q 947 1113 1208 752 
Q 1469 391 1925 391 
Q 2381 391 2643 752 
Q 2906 1113 2906 1747 
Q 2906 2381 2643 2742 
Q 2381 3103 1925 3103 
Q 1469 3103 1208 2742 
Q 947 2381 947 1747 
z
" transform="scale(0.015625)"/>
       <path id="DejaVuSans-4d" d="M 628 4666 
L 1569 4666 
L 2759 1491 
L 3956 4666 
L 4897 4666 
L 4897 0 
L 4281 0 
L 4281 4097 
L 3078 897 
L 2444 897 
L 1241 4097 
L 1241 0 
L 628 0 
L 628 4666 
z
" transform="scale(0.015625)"/>
       <path id="DejaVuSans-53" d="M 3425 4513 
L 3425 3897 
Q 3066 4069 2747 4153 
Q 2428 4238 2131 4238 
Q 1616 4238 1336 4038 
Q 1056 3838 1056 3469 
Q 1056 3159 1242 3001 
Q 1428 2844 1947 2747 
L 2328 2669 
Q 3034 2534 3370 2195 
Q 3706 1856 3706 1288 
Q 3706 609 3251 259 
Q 2797 -91 1919 -91 
Q 1588 -91 1214 -16 
Q 841 59 441 206 
L 441 856 
Q 825 641 1194 531 
Q 1563 422 1919 422 
Q 2459 422 2753 634 
Q 3047 847 3047 1241 
Q 3047 1584 2836 1778 
Q 2625 1972 2144 2069 
L 1759 2144 
Q 1053 2284 737 2584 
Q 422 2884 422 3419 
Q 422 4038 858 4394 
Q 1294 4750 2059 4750 
Q 2388 4750 2728 4690 
Q 3069 4631 3425 4513 
z
" transform="scale(0.015625)"/>
      </defs>
      <use xlink:href="#DejaVuSans-4e"/>
      <use xlink:href="#DejaVuSans-75" x="74.804688"/>
      <use xlink:href="#DejaVuSans-6d" x="138.183594"/>
      <use xlink:href="#DejaVuSans-62" x="235.595703"/>
      <use xlink:href="#DejaVuSans-65" x="299.072266"/>
      <use xlink:href="#DejaVuSans-72" x="360.595703"/>
      <use xlink:href="#DejaVuSans-20" x="401.708984"/>
      <use xlink:href="#DejaVuSans-6f" x="433.496094"/>
      <use xlink:href="#DejaVuSans-66" x="494.677734"/>
      <use xlink:href="#DejaVuSans-20" x="529.882812"/>
      <use xlink:href="#DejaVuSans-73" x="561.669922"/>
      <use xlink:href="#DejaVuSans-69" x="613.769531"/>
      <use xlink:href="#DejaVuSans-6d" x="641.552734"/>
      <use xlink:href="#DejaVuSans-75" x="738.964844"/>
      <use xlink:href="#DejaVuSans-6c" x="802.34375"/>
      <use xlink:href="#DejaVuSans-61" x="830.126953"/>
      <use xlink:href="#DejaVuSans-74" x="891.40625"/>
      <use xlink:href="#DejaVuSans-65" x="930.615234"/>
      <use xlink:href="#DejaVuSans-64" x="992.138672"/>
      <use xlink:href="#DejaVuSans-20" x="1055.615234"/>
      <use xlink:href="#DejaVuSans-4d" x="1087.402344"/>
      <use xlink:href="#DejaVuSans-53" x="1173.681641"/>
      <use xlink:href="#DejaVuSans-41" x="1239.033203"/>
      <use xlink:href="#DejaVuSans-73" x="1307.441406"/>
     </g>
    </g>
   </g>
   <g id="patch_3">
    <path d="M 203.568084 352.44 
L 206.513494 352.44 
L 206.513494 347.291064 
L 203.568084 347.291064 
z
" clip-path="url(#p4879a0ed2b)" style="fill: #4c72b0; fill-opacity: 0.75; stroke: #000000; stroke-width: 0.3; stroke-linejoin: miter"/>
   </g>
   <g id="patch_4">
    <path d="M 206.513494 352.44 
L 209.458904 352.44 
L 209.458904 348.320851 
L 206.513494 348.320851 
z
" clip-path="url(#p4879a0ed2b)" style="fill: #4c72b0; fill-opacity: 0.75; stroke: #000000; stroke-width: 0.3; stroke-linejoin: miter"/>
   </g>
   <g id="patch_5">
    <path d="M 209.458904 352.44 
L 212.404315 352.44 
L 212.404315 348.320851 
L 209.458904 348.320851 
z
" clip-path="url(#p4879a0ed2b)" style="fill: #4c72b0; fill-opacity: 0.75; stroke: #000000; stroke-width: 0.3; stroke-linejoin: miter"/>
   </g>
   <g id="patch_6">
    <path d="M 212.404315 352.44 
L 215.349725 352.44 
L 215.349725 333.90383 
L 212.404315 333.90383 
z
" clip-path="url(#p4879a0ed2b)" style="fill: #4c72b0; fill-opacity: 0.75; stroke: #000000; stroke-width: 0.3; stroke-linejoin: miter"/>
   </g>
   <g id="patch_7">
    <path d="M 215.349725 352.44 
L 218.295135 352.44 
L 218.295135 334.933617 
L 215.349725 334.933617 
z
" clip-path="url(#p4879a0ed2b)" style="fill: #4c72b0; fill-opacity: 0.75; stroke: #000000; stroke-width: 0.3; stroke-linejoin: miter"/>
   </g>
   <g id="patch_8">
    <path d="M 218.295135 352.44 
L 221.240545 352.44 
L 221.240545 321.546383 
L 218.295135 321.546383 
z
" clip-path="url(#p4879a0ed2b)" style="fill: #4c72b0; fill-opacity: 0.75; stroke: #000000; stroke-width: 0.3; stroke-linejoin: miter"/>
   </g>
   <g id="patch_9">
    <path d="M 221.240545 352.44 
L 224.185955 352.44 
L 224.185955 327.725106 
L 221.240545 327.725106 
z
" clip-path="url(#p4879a0ed2b)" style="fill: #4c72b0; fill-opacity: 0.75; stroke: #000000; stroke-width: 0.3; stroke-linejoin: miter"/>
   </g>
   <g id="patch_10">
    <path d="M 224.185955 352.44 
L 227.131365 352.44 
L 227.131365 321.546383 
L 224.185955 321.546383 
z
" clip-path="url(#p4879a0ed2b)" style="fill: #4c72b0; fill-opacity: 0.75; stroke: #000000; stroke-width: 0.3; stroke-linejoin: miter"/>
   </g>
   <g id="patch_11">
    <path d="M 227.131365 352.44 
L 230.076775 352.44 
L 230.076775 328.754894 
L 227.131365 328.754894 
z
" clip-path="url(#p4879a0ed2b)" style="fill: #4c72b0; fill-opacity: 0.75; stroke: #000000; stroke-width: 0.3; stroke-linejoin: miter"/>
   </g>
   <g id="patch_12">
    <path d="M 230.076775 352.44 
L 233.022185 352.44 
L 233.022185 328.754894 
L 230.076775 328.754894 
z
" clip-path="url(#p4879a0ed2b)" style="fill: #4c72b0; fill-opacity: 0.75; stroke: #000000; stroke-width: 0.3; stroke-linejoin: miter"/>
   </g>
   <g id="patch_13">
    <path d="M 233.022185 352.44 
L 235.967595 352.44 
L 235.967595 321.546383 
L 233.022185 321.546383 
z
" clip-path="url(#p4879a0ed2b)" style="fill: #4c72b0; fill-opacity: 0.75; stroke: #000000; stroke-width: 0.3; stroke-linejoin: miter"/>
   </g>
   <g id="patch_14">
    <path d="M 235.967595 352.44 
L 238.913005 352.44 
L 238.913005 319.486809 
L 235.967595 319.486809 
z
" clip-path="url(#p4879a0ed2b)" style="fill: #4c72b0; fill-opacity: 0.75; stroke: #000000; stroke-width: 0.3; stroke-linejoin: miter"/>
   </g>
   <g id="patch_15">
    <path d="M 238.913005 352.44 
L 241.858415 352.44 
L 241.858415 310.218723 
L 238.913005 310.218723 
z
" clip-path="url(#p4879a0ed2b)" style="fill: #4c72b0; fill-opacity: 0.75; stroke: #000000; stroke-width: 0.3; stroke-linejoin: miter"/>
   </g>
   <g id="patch_16">
    <path d="M 241.858415 352.44 
L 244.803825 352.44 
L 244.803825 306.099574 
L 241.858415 306.099574 
z
" clip-path="url(#p4879a0ed2b)" style="fill: #4c72b0; fill-opacity: 0.75; stroke: #000000; stroke-width: 0.3; stroke-linejoin: miter"/>
   </g>
   <g id="patch_17">
    <path d="M 244.803825 352.44 
L 247.749235 352.44 
L 247.749235 295.801702 
L 244.803825 295.801702 
z
" clip-path="url(#p4879a0ed2b)" style="fill: #4c72b0; fill-opacity: 0.75; stroke: #000000; stroke-width: 0.3; stroke-linejoin: miter"/>
   </g>
   <g id="patch_18">
    <path d="M 247.749235 352.44 
L 250.694645 352.44 
L 250.694645 273.146383 
L 247.749235 273.146383 
z
" clip-path="url(#p4879a0ed2b)" style="fill: #4c72b0; fill-opacity: 0.75; stroke: #000000; stroke-width: 0.3; stroke-linejoin: miter"/>
   </g>
   <g id="patch_19">
    <path d="M 250.694645 352.44 
L 253.640055 352.44 
L 253.640055 271.086809 
L 250.694645 271.086809 
z
" clip-path="url(#p4879a0ed2b)" style="fill: #4c72b0; fill-opacity: 0.75; stroke: #000000; stroke-width: 0.3; stroke-linejoin: miter"/>
   </g>
   <g id="patch_20">
    <path d="M 253.640055 352.44 
L 256.585466 352.44 
L 256.585466 253.580426 
L 253.640055 253.580426 
z
" clip-path="url(#p4879a0ed2b)" style="fill: #4c72b0; fill-opacity: 0.75; stroke: #000000; stroke-width: 0.3; stroke-linejoin: miter"/>
   </g>
   <g id="patch_21">
    <path d="M 256.585466 352.44 
L 259.530876 352.44 
L 259.530876 240.193191 
L 256.585466 240.193191 
z
" clip-path="url(#p4879a0ed2b)" style="fill: #4c72b0; fill-opacity: 0.75; stroke: #000000; stroke-width: 0.3; stroke-linejoin: miter"/>
   </g>
   <g id="patch_22">
    <path d="M 259.530876 352.44 
L 262.476286 352.44 
L 262.476286 245.342128 
L 259.530876 245.342128 
z
" clip-path="url(#p4879a0ed2b)" style="fill: #4c72b0; fill-opacity: 0.75; stroke: #000000; stroke-width: 0.3; stroke-linejoin: miter"/>
   </g>
   <g id="patch_23">
    <path d="M 262.476286 352.44 
L 265.421696 352.44 
L 265.421696 214.448511 
L 262.476286 214.448511 
z
" clip-path="url(#p4879a0ed2b)" style="fill: #4c72b0; fill-opacity: 0.75; stroke: #000000; stroke-width: 0.3; stroke-linejoin: miter"/>
   </g>
   <g id="patch_24">
    <path d="M 265.421696 352.44 
L 268.367106 352.44 
L 268.367106 222.686809 
L 265.421696 222.686809 
z
" clip-path="url(#p4879a0ed2b)" style="fill: #4c72b0; fill-opacity: 0.75; stroke: #000000; stroke-width: 0.3; stroke-linejoin: miter"/>
   </g>
   <g id="patch_25">
    <path d="M 268.367106 352.44 
L 271.312516 352.44 
L 271.312516 230.925106 
L 268.367106 230.925106 
z
" clip-path="url(#p4879a0ed2b)" style="fill: #4c72b0; fill-opacity: 0.75; stroke: #000000; stroke-width: 0.3; stroke-linejoin: miter"/>
   </g>
   <g id="patch_26">
    <path d="M 271.312516 352.44 
L 274.257926 352.44 
L 274.257926 245.342128 
L 271.312516 245.342128 
z
" clip-path="url(#p4879a0ed2b)" style="fill: #4c72b0; fill-opacity: 0.75; stroke: #000000; stroke-width: 0.3; stroke-linejoin: miter"/>
   </g>
   <g id="patch_27">
    <path d="M 274.257926 352.44 
L 277.203336 352.44 
L 277.203336 240.193191 
L 274.257926 240.193191 
z
" clip-path="url(#p4879a0ed2b)" style="fill: #4c72b0; fill-opacity: 0.75; stroke: #000000; stroke-width: 0.3; stroke-linejoin: miter"/>
   </g>
   <g id="patch_28">
    <path d="M 277.203336 352.44 
L 280.148746 352.44 
L 280.148746 265.937872 
L 277.203336 265.937872 
z
" clip-path="url(#p4879a0ed2b)" style="fill: #4c72b0; fill-opacity: 0.75; stroke: #000000; stroke-width: 0.3; stroke-linejoin: miter"/>
   </g>
   <g id="patch_29">
    <path d="M 280.148746 352.44 
L 283.094156 352.44 
L 283.094156 241.222979 
L 280.148746 241.222979 
z
" clip-path="url(#p4879a0ed2b)" style="fill: #4c72b0; fill-opacity: 0.75; stroke: #000000; stroke-width: 0.3; stroke-linejoin: miter"/>
   </g>
   <g id="patch_30">
    <path d="M 283.094156 352.44 
L 286.039566 352.44 
L 286.039566 289.622979 
L 283.094156 289.622979 
z
" clip-path="url(#p4879a0ed2b)" style="fill: #4c72b0; fill-opacity: 0.75; stroke: #000000; stroke-width: 0.3; stroke-linejoin: miter"/>
   </g>
   <g id="patch_31">
    <path d="M 286.039566 352.44 
L 288.984976 352.44 
L 288.984976 281.384681 
L 286.039566 281.384681 
z
" clip-path="url(#p4879a0ed2b)" style="fill: #4c72b0; fill-opacity: 0.75; stroke: #000000; stroke-width: 0.3; stroke-linejoin: miter"/>
   </g>
   <g id="patch_32">
    <path d="M 288.984976 352.44 
L 291.930386 352.44 
L 291.930386 278.295319 
L 288.984976 278.295319 
z
" clip-path="url(#p4879a0ed2b)" style="fill: #4c72b0; fill-opacity: 0.75; stroke: #000000; stroke-width: 0.3; stroke-linejoin: miter"/>
   </g>
   <g id="patch_33">
    <path d="M 291.930386 352.44 
L 294.875796 352.44 
L 294.875796 289.622979 
L 291.930386 289.622979 
z
" clip-path="url(#p4879a0ed2b)" style="fill: #4c72b0; fill-opacity: 0.75; stroke: #000000; stroke-width: 0.3; stroke-linejoin: miter"/>
   </g>
   <g id="patch_34">
    <path d="M 294.875796 352.44 
L 297.821206 352.44 
L 297.821206 272.116596 
L 294.875796 272.116596 
z
" clip-path="url(#p4879a0ed2b)" style="fill: #4c72b0; fill-opacity: 0.75; stroke: #000000; stroke-width: 0.3; stroke-linejoin: miter"/>
   </g>
   <g id="patch_35">
    <path d="M 297.821206 352.44 
L 300.766617 352.44 
L 300.766617 266.96766 
L 297.821206 266.96766 
z
" clip-path="url(#p4879a0ed2b)" style="fill: #4c72b0; fill-opacity: 0.75; stroke: #000000; stroke-width: 0.3; stroke-linejoin: miter"/>
   </g>
   <g id="patch_36">
    <path d="M 300.766617 352.44 
L 303.712027 352.44 
L 303.712027 264.908085 
L 300.766617 264.908085 
z
" clip-path="url(#p4879a0ed2b)" style="fill: #4c72b0; fill-opacity: 0.75; stroke: #000000; stroke-width: 0.3; stroke-linejoin: miter"/>
   </g>
   <g id="patch_37">
    <path d="M 303.712027 352.44 
L 306.657437 352.44 
L 306.657437 260.788936 
L 303.712027 260.788936 
z
" clip-path="url(#p4879a0ed2b)" style="fill: #4c72b0; fill-opacity: 0.75; stroke: #000000; stroke-width: 0.3; stroke-linejoin: miter"/>
   </g>
   <g id="patch_38">
    <path d="M 306.657437 352.44 
L 309.602847 352.44 
L 309.602847 247.401702 
L 306.657437 247.401702 
z
" clip-path="url(#p4879a0ed2b)" style="fill: #4c72b0; fill-opacity: 0.75; stroke: #000000; stroke-width: 0.3; stroke-linejoin: miter"/>
   </g>
   <g id="patch_39">
    <path d="M 309.602847 352.44 
L 312.548257 352.44 
L 312.548257 251.520851 
L 309.602847 251.520851 
z
" clip-path="url(#p4879a0ed2b)" style="fill: #4c72b0; fill-opacity: 0.75; stroke: #000000; stroke-width: 0.3; stroke-linejoin: miter"/>
   </g>
   <g id="patch_40">
    <path d="M 312.548257 352.44 
L 315.493667 352.44 
L 315.493667 250.491064 
L 312.548257 250.491064 
z
" clip-path="url(#p4879a0ed2b)" style="fill: #4c72b0; fill-opacity: 0.75; stroke: #000000; stroke-width: 0.3; stroke-linejoin: miter"/>
   </g>
   <g id="patch_41">
    <path d="M 315.493667 352.44 
L 318.439077 352.44 
L 318.439077 223.716596 
L 315.493667 223.716596 
z
" clip-path="url(#p4879a0ed2b)" style="fill: #4c72b0; fill-opacity: 0.75; stroke: #000000; stroke-width: 0.3; stroke-linejoin: miter"/>
   </g>
   <g id="patch_42">
    <path d="M 318.439077 352.44 
L 321.384487 352.44 
L 321.384487 237.10383 
L 318.439077 237.10383 
z
" clip-path="url(#p4879a0ed2b)" style="fill: #4c72b0; fill-opacity: 0.75; stroke: #000000; stroke-width: 0.3; stroke-linejoin: miter"/>
   </g>
   <g id="patch_43">
    <path d="M 321.384487 352.44 
L 324.329897 352.44 
L 324.329897 205.180426 
L 321.384487 205.180426 
z
" clip-path="url(#p4879a0ed2b)" style="fill: #4c72b0; fill-opacity: 0.75; stroke: #000000; stroke-width: 0.3; stroke-linejoin: miter"/>
   </g>
   <g id="patch_44">
    <path d="M 324.329897 352.44 
L 327.275307 352.44 
L 327.275307 215.478298 
L 324.329897 215.478298 
z
" clip-path="url(#p4879a0ed2b)" style="fill: #4c72b0; fill-opacity: 0.75; stroke: #000000; stroke-width: 0.3; stroke-linejoin: miter"/>
   </g>
   <g id="patch_45">
    <path d="M 327.275307 352.44 
L 330.220717 352.44 
L 330.220717 196.942128 
L 327.275307 196.942128 
z
" clip-path="url(#p4879a0ed2b)" style="fill: #4c72b0; fill-opacity: 0.75; stroke: #000000; stroke-width: 0.3; stroke-linejoin: miter"/>
   </g>
   <g id="patch_46">
    <path d="M 330.220717 352.44 
L 333.166127 352.44 
L 333.166127 202.091064 
L 330.220717 202.091064 
z
" clip-path="url(#p4879a0ed2b)" style="fill: #4c72b0; fill-opacity: 0.75; stroke: #000000; stroke-width: 0.3; stroke-linejoin: miter"/>
   </g>
   <g id="patch_47">
    <path d="M 333.166127 352.44 
L 336.111537 352.44 
L 336.111537 177.37617 
L 333.166127 177.37617 
z
" clip-path="url(#p4879a0ed2b)" style="fill: #4c72b0; fill-opacity: 0.75; stroke: #000000; stroke-width: 0.3; stroke-linejoin: miter"/>
   </g>
   <g id="patch_48">
    <path d="M 336.111537 352.44 
L 339.056947 352.44 
L 339.056947 180.465532 
L 336.111537 180.465532 
z
" clip-path="url(#p4879a0ed2b)" style="fill: #4c72b0; fill-opacity: 0.75; stroke: #000000; stroke-width: 0.3; stroke-linejoin: miter"/>
   </g>
   <g id="patch_49">
    <path d="M 339.056947 352.44 
L 342.002357 352.44 
L 342.002357 150.601702 
L 339.056947 150.601702 
z
" clip-path="url(#p4879a0ed2b)" style="fill: #4c72b0; fill-opacity: 0.75; stroke: #000000; stroke-width: 0.3; stroke-linejoin: miter"/>
   </g>
   <g id="patch_50">
    <path d="M 342.002357 352.44 
L 344.947767 352.44 
L 344.947767 135.154894 
L 342.002357 135.154894 
z
" clip-path="url(#p4879a0ed2b)" style="fill: #4c72b0; fill-opacity: 0.75; stroke: #000000; stroke-width: 0.3; stroke-linejoin: miter"/>
   </g>
   <g id="patch_51">
    <path d="M 344.947767 352.44 
L 347.893178 352.44 
L 347.893178 90.874043 
L 344.947767 90.874043 
z
" clip-path="url(#p4879a0ed2b)" style="fill: #4c72b0; fill-opacity: 0.75; stroke: #000000; stroke-width: 0.3; stroke-linejoin: miter"/>
   </g>
   <g id="patch_52">
    <path d="M 347.893178 352.44 
L 350.838588 352.44 
L 350.838588 111.469787 
L 347.893178 111.469787 
z
" clip-path="url(#p4879a0ed2b)" style="fill: #4c72b0; fill-opacity: 0.75; stroke: #000000; stroke-width: 0.3; stroke-linejoin: miter"/>
   </g>
   <g id="patch_53">
    <path d="M 350.838588 352.44 
L 353.783998 352.44 
L 353.783998 108.380426 
L 350.838588 108.380426 
z
" clip-path="url(#p4879a0ed2b)" style="fill: #4c72b0; fill-opacity: 0.75; stroke: #000000; stroke-width: 0.3; stroke-linejoin: miter"/>
   </g>
   <g id="patch_54">
    <path d="M 353.783998 352.44 
L 356.729408 352.44 
L 356.729408 75.427234 
L 353.783998 75.427234 
z
" clip-path="url(#p4879a0ed2b)" style="fill: #4c72b0; fill-opacity: 0.75; stroke: #000000; stroke-width: 0.3; stroke-linejoin: miter"/>
   </g>
   <g id="patch_55">
    <path d="M 356.729408 352.44 
L 359.674818 352.44 
L 359.674818 104.261277 
L 356.729408 104.261277 
z
" clip-path="url(#p4879a0ed2b)" style="fill: #4c72b0; fill-opacity: 0.75; stroke: #000000; stroke-width: 0.3; stroke-linejoin: miter"/>
   </g>
   <g id="patch_56">
    <path d="M 359.674818 352.44 
L 362.620228 352.44 
L 362.620228 64.099574 
L 359.674818 64.099574 
z
" clip-path="url(#p4879a0ed2b)" style="fill: #4c72b0; fill-opacity: 0.75; stroke: #000000; stroke-width: 0.3; stroke-linejoin: miter"/>
   </g>
   <g id="patch_57">
    <path d="M 362.620228 352.44 
L 365.565638 352.44 
L 365.565638 62.04 
L 362.620228 62.04 
z
" clip-path="url(#p4879a0ed2b)" style="fill: #4c72b0; fill-opacity: 0.75; stroke: #000000; stroke-width: 0.3; stroke-linejoin: miter"/>
   </g>
   <g id="patch_58">
    <path d="M 365.565638 352.44 
L 368.511048 352.44 
L 368.511048 73.36766 
L 365.565638 73.36766 
z
" clip-path="url(#p4879a0ed2b)" style="fill: #4c72b0; fill-opacity: 0.75; stroke: #000000; stroke-width: 0.3; stroke-linejoin: miter"/>
   </g>
   <g id="patch_59">
    <path d="M 368.511048 352.44 
L 371.456458 352.44 
L 371.456458 69.248511 
L 368.511048 69.248511 
z
" clip-path="url(#p4879a0ed2b)" style="fill: #4c72b0; fill-opacity: 0.75; stroke: #000000; stroke-width: 0.3; stroke-linejoin: miter"/>
   </g>
   <g id="patch_60">
    <path d="M 371.456458 352.44 
L 374.401868 352.44 
L 374.401868 74.397447 
L 371.456458 74.397447 
z
" clip-path="url(#p4879a0ed2b)" style="fill: #4c72b0; fill-opacity: 0.75; stroke: #000000; stroke-width: 0.3; stroke-linejoin: miter"/>
   </g>
   <g id="patch_61">
    <path d="M 374.401868 352.44 
L 377.347278 352.44 
L 377.347278 76.457021 
L 374.401868 76.457021 
z
" clip-path="url(#p4879a0ed2b)" style="fill: #4c72b0; fill-opacity: 0.75; stroke: #000000; stroke-width: 0.3; stroke-linejoin: miter"/>
   </g>
   <g id="patch_62">
    <path d="M 377.347278 352.44 
L 380.292688 352.44 
L 380.292688 79.546383 
L 377.347278 79.546383 
z
" clip-path="url(#p4879a0ed2b)" style="fill: #4c72b0; fill-opacity: 0.75; stroke: #000000; stroke-width: 0.3; stroke-linejoin: miter"/>
   </g>
   <g id="patch_63">
    <path d="M 380.292688 352.44 
L 383.238098 352.44 
L 383.238098 106.320851 
L 380.292688 106.320851 
z
" clip-path="url(#p4879a0ed2b)" style="fill: #4c72b0; fill-opacity: 0.75; stroke: #000000; stroke-width: 0.3; stroke-linejoin: miter"/>
   </g>
   <g id="patch_64">
    <path d="M 383.238098 352.44 
L 386.183508 352.44 
L 386.183508 116.618723 
L 383.238098 116.618723 
z
" clip-path="url(#p4879a0ed2b)" style="fill: #4c72b0; fill-opacity: 0.75; stroke: #000000; stroke-width: 0.3; stroke-linejoin: miter"/>
   </g>
   <g id="patch_65">
    <path d="M 386.183508 352.44 
L 389.128918 352.44 
L 389.128918 102.201702 
L 386.183508 102.201702 
z
" clip-path="url(#p4879a0ed2b)" style="fill: #4c72b0; fill-opacity: 0.75; stroke: #000000; stroke-width: 0.3; stroke-linejoin: miter"/>
   </g>
   <g id="patch_66">
    <path d="M 389.128918 352.44 
L 392.074329 352.44 
L 392.074329 134.125106 
L 389.128918 134.125106 
z
" clip-path="url(#p4879a0ed2b)" style="fill: #4c72b0; fill-opacity: 0.75; stroke: #000000; stroke-width: 0.3; stroke-linejoin: miter"/>
   </g>
   <g id="patch_67">
    <path d="M 392.074329 352.44 
L 395.019739 352.44 
L 395.019739 111.469787 
L 392.074329 111.469787 
z
" clip-path="url(#p4879a0ed2b)" style="fill: #4c72b0; fill-opacity: 0.75; stroke: #000000; stroke-width: 0.3; stroke-linejoin: miter"/>
   </g>
   <g id="patch_68">
    <path d="M 395.019739 352.44 
L 397.965149 352.44 
L 397.965149 161.929362 
L 395.019739 161.929362 
z
" clip-path="url(#p4879a0ed2b)" style="fill: #4c72b0; fill-opacity: 0.75; stroke: #000000; stroke-width: 0.3; stroke-linejoin: miter"/>
   </g>
   <g id="patch_69">
    <path d="M 397.965149 352.44 
L 400.910559 352.44 
L 400.910559 158.84 
L 397.965149 158.84 
z
" clip-path="url(#p4879a0ed2b)" style="fill: #4c72b0; fill-opacity: 0.75; stroke: #000000; stroke-width: 0.3; stroke-linejoin: miter"/>
   </g>
   <g id="patch_70">
    <path d="M 400.910559 352.44 
L 403.855969 352.44 
L 403.855969 176.346383 
L 400.910559 176.346383 
z
" clip-path="url(#p4879a0ed2b)" style="fill: #4c72b0; fill-opacity: 0.75; stroke: #000000; stroke-width: 0.3; stroke-linejoin: miter"/>
   </g>
   <g id="patch_71">
    <path d="M 403.855969 352.44 
L 406.801379 352.44 
L 406.801379 190.763404 
L 403.855969 190.763404 
z
" clip-path="url(#p4879a0ed2b)" style="fill: #4c72b0; fill-opacity: 0.75; stroke: #000000; stroke-width: 0.3; stroke-linejoin: miter"/>
   </g>
   <g id="patch_72">
    <path d="M 406.801379 352.44 
L 409.746789 352.44 
L 409.746789 211.359149 
L 406.801379 211.359149 
z
" clip-path="url(#p4879a0ed2b)" style="fill: #4c72b0; fill-opacity: 0.75; stroke: #000000; stroke-width: 0.3; stroke-linejoin: miter"/>
   </g>
   <g id="patch_73">
    <path d="M 409.746789 352.44 
L 412.692199 352.44 
L 412.692199 225.77617 
L 409.746789 225.77617 
z
" clip-path="url(#p4879a0ed2b)" style="fill: #4c72b0; fill-opacity: 0.75; stroke: #000000; stroke-width: 0.3; stroke-linejoin: miter"/>
   </g>
   <g id="patch_74">
    <path d="M 412.692199 352.44 
L 415.637609 352.44 
L 415.637609 260.788936 
L 412.692199 260.788936 
z
" clip-path="url(#p4879a0ed2b)" style="fill: #4c72b0; fill-opacity: 0.75; stroke: #000000; stroke-width: 0.3; stroke-linejoin: miter"/>
   </g>
   <g id="patch_75">
    <path d="M 415.637609 352.44 
L 418.583019 352.44 
L 418.583019 252.550638 
L 415.637609 252.550638 
z
" clip-path="url(#p4879a0ed2b)" style="fill: #4c72b0; fill-opacity: 0.75; stroke: #000000; stroke-width: 0.3; stroke-linejoin: miter"/>
   </g>
   <g id="patch_76">
    <path d="M 418.583019 352.44 
L 421.528429 352.44 
L 421.528429 272.116596 
L 418.583019 272.116596 
z
" clip-path="url(#p4879a0ed2b)" style="fill: #4c72b0; fill-opacity: 0.75; stroke: #000000; stroke-width: 0.3; stroke-linejoin: miter"/>
   </g>
   <g id="patch_77">
    <path d="M 421.528429 352.44 
L 424.473839 352.44 
L 424.473839 285.50383 
L 421.528429 285.50383 
z
" clip-path="url(#p4879a0ed2b)" style="fill: #4c72b0; fill-opacity: 0.75; stroke: #000000; stroke-width: 0.3; stroke-linejoin: miter"/>
   </g>
   <g id="patch_78">
    <path d="M 424.473839 352.44 
L 427.419249 352.44 
L 427.419249 287.563404 
L 424.473839 287.563404 
z
" clip-path="url(#p4879a0ed2b)" style="fill: #4c72b0; fill-opacity: 0.75; stroke: #000000; stroke-width: 0.3; stroke-linejoin: miter"/>
   </g>
   <g id="patch_79">
    <path d="M 427.419249 352.44 
L 430.364659 352.44 
L 430.364659 301.980426 
L 427.419249 301.980426 
z
" clip-path="url(#p4879a0ed2b)" style="fill: #4c72b0; fill-opacity: 0.75; stroke: #000000; stroke-width: 0.3; stroke-linejoin: miter"/>
   </g>
   <g id="patch_80">
    <path d="M 430.364659 352.44 
L 433.310069 352.44 
L 433.310069 314.337872 
L 430.364659 314.337872 
z
" clip-path="url(#p4879a0ed2b)" style="fill: #4c72b0; fill-opacity: 0.75; stroke: #000000; stroke-width: 0.3; stroke-linejoin: miter"/>
   </g>
   <g id="patch_81">
    <path d="M 433.310069 352.44 
L 436.25548 352.44 
L 436.25548 317.427234 
L 433.310069 317.427234 
z
" clip-path="url(#p4879a0ed2b)" style="fill: #4c72b0; fill-opacity: 0.75; stroke: #000000; stroke-width: 0.3; stroke-linejoin: miter"/>
   </g>
   <g id="patch_82">
    <path d="M 436.25548 352.44 
L 439.20089 352.44 
L 439.20089 326.695319 
L 436.25548 326.695319 
z
" clip-path="url(#p4879a0ed2b)" style="fill: #4c72b0; fill-opacity: 0.75; stroke: #000000; stroke-width: 0.3; stroke-linejoin: miter"/>
   </g>
   <g id="patch_83">
    <path d="M 439.20089 352.44 
L 442.1463 352.44 
L 442.1463 326.695319 
L 439.20089 326.695319 
z
" clip-path="url(#p4879a0ed2b)" style="fill: #4c72b0; fill-opacity: 0.75; stroke: #000000; stroke-width: 0.3; stroke-linejoin: miter"/>
   </g>
   <g id="patch_84">
    <path d="M 442.1463 352.44 
L 445.09171 352.44 
L 445.09171 329.784681 
L 442.1463 329.784681 
z
" clip-path="url(#p4879a0ed2b)" style="fill: #4c72b0; fill-opacity: 0.75; stroke: #000000; stroke-width: 0.3; stroke-linejoin: miter"/>
   </g>
   <g id="patch_85">
    <path d="M 445.09171 352.44 
L 448.03712 352.44 
L 448.03712 335.963404 
L 445.09171 335.963404 
z
" clip-path="url(#p4879a0ed2b)" style="fill: #4c72b0; fill-opacity: 0.75; stroke: #000000; stroke-width: 0.3; stroke-linejoin: miter"/>
   </g>
   <g id="patch_86">
    <path d="M 448.03712 352.44 
L 450.98253 352.44 
L 450.98253 341.11234 
L 448.03712 341.11234 
z
" clip-path="url(#p4879a0ed2b)" style="fill: #4c72b0; fill-opacity: 0.75; stroke: #000000; stroke-width: 0.3; stroke-linejoin: miter"/>
   </g>
   <g id="patch_87">
    <path d="M 450.98253 352.44 
L 453.92794 352.44 
L 453.92794 340.082553 
L 450.98253 340.082553 
z
" clip-path="url(#p4879a0ed2b)" style="fill: #4c72b0; fill-opacity: 0.75; stroke: #000000; stroke-width: 0.3; stroke-linejoin: miter"/>
   </g>
   <g id="patch_88">
    <path d="M 453.92794 352.44 
L 456.87335 352.44 
L 456.87335 345.231489 
L 453.92794 345.231489 
z
" clip-path="url(#p4879a0ed2b)" style="fill: #4c72b0; fill-opacity: 0.75; stroke: #000000; stroke-width: 0.3; stroke-linejoin: miter"/>
   </g>
   <g id="patch_89">
    <path d="M 456.87335 352.44 
L 459.81876 352.44 
L 459.81876 347.291064 
L 456.87335 347.291064 
z
" clip-path="url(#p4879a0ed2b)" style="fill: #4c72b0; fill-opacity: 0.75; stroke: #000000; stroke-width: 0.3; stroke-linejoin: miter"/>
   </g>
   <g id="patch_90">
    <path d="M 459.81876 352.44 
L 462.76417 352.44 
L 462.76417 348.320851 
L 459.81876 348.320851 
z
" clip-path="url(#p4879a0ed2b)" style="fill: #4c72b0; fill-opacity: 0.75; stroke: #000000; stroke-width: 0.3; stroke-linejoin: miter"/>
   </g>
   <g id="patch_91">
    <path d="M 462.76417 352.44 
L 465.70958 352.44 
L 465.70958 345.231489 
L 462.76417 345.231489 
z
" clip-path="url(#p4879a0ed2b)" style="fill: #4c72b0; fill-opacity: 0.75; stroke: #000000; stroke-width: 0.3; stroke-linejoin: miter"/>
   </g>
   <g id="patch_92">
    <path d="M 465.70958 352.44 
L 468.65499 352.44 
L 468.65499 350.380426 
L 465.70958 350.380426 
z
" clip-path="url(#p4879a0ed2b)" style="fill: #4c72b0; fill-opacity: 0.75; stroke: #000000; stroke-width: 0.3; stroke-linejoin: miter"/>
   </g>
   <g id="patch_93">
    <path d="M 468.65499 352.44 
L 471.6004 352.44 
L 471.6004 351.410213 
L 468.65499 351.410213 
z
" clip-path="url(#p4879a0ed2b)" style="fill: #4c72b0; fill-opacity: 0.75; stroke: #000000; stroke-width: 0.3; stroke-linejoin: miter"/>
   </g>
   <g id="patch_94">
    <path d="M 471.6004 352.44 
L 474.54581 352.44 
L 474.54581 350.380426 
L 471.6004 350.380426 
z
" clip-path="url(#p4879a0ed2b)" style="fill: #4c72b0; fill-opacity: 0.75; stroke: #000000; stroke-width: 0.3; stroke-linejoin: miter"/>
   </g>
   <g id="patch_95">
    <path d="M 474.54581 352.44 
L 477.49122 352.44 
L 477.49122 351.410213 
L 474.54581 351.410213 
z
" clip-path="url(#p4879a0ed2b)" style="fill: #4c72b0; fill-opacity: 0.75; stroke: #000000; stroke-width: 0.3; stroke-linejoin: miter"/>
   </g>
   <g id="patch_96">
    <path d="M 477.49122 352.44 
L 480.436631 352.44 
L 480.436631 351.410213 
L 477.49122 351.410213 
z
" clip-path="url(#p4879a0ed2b)" style="fill: #4c72b0; fill-opacity: 0.75; stroke: #000000; stroke-width: 0.3; stroke-linejoin: miter"/>
   </g>
   <g id="patch_97">
    <path d="M 480.436631 352.44 
L 483.382041 352.44 
L 483.382041 350.380426 
L 480.436631 350.380426 
z
" clip-path="url(#p4879a0ed2b)" style="fill: #4c72b0; fill-opacity: 0.75; stroke: #000000; stroke-width: 0.3; stroke-linejoin: miter"/>
   </g>
   <g id="patch_98">
    <path d="M 483.382041 352.44 
L 486.327451 352.44 
L 486.327451 352.44 
L 483.382041 352.44 
z
" clip-path="url(#p4879a0ed2b)" style="fill: #4c72b0; fill-opacity: 0.75; stroke: #000000; stroke-width: 0.3; stroke-linejoin: miter"/>
   </g>
   <g id="patch_99">
    <path d="M 486.327451 352.44 
L 489.272861 352.44 
L 489.272861 352.44 
L 486.327451 352.44 
z
" clip-path="url(#p4879a0ed2b)" style="fill: #4c72b0; fill-opacity: 0.75; stroke: #000000; stroke-width: 0.3; stroke-linejoin: miter"/>
   </g>
   <g id="patch_100">
    <path d="M 489.272861 352.44 
L 492.218271 352.44 
L 492.218271 352.44 
L 489.272861 352.44 
z
" clip-path="url(#p4879a0ed2b)" style="fill: #4c72b0; fill-opacity: 0.75; stroke: #000000; stroke-width: 0.3; stroke-linejoin: miter"/>
   </g>
   <g id="patch_101">
    <path d="M 492.218271 352.44 
L 495.163681 352.44 
L 495.163681 352.44 
L 492.218271 352.44 
z
" clip-path="url(#p4879a0ed2b)" style="fill: #4c72b0; fill-opacity: 0.75; stroke: #000000; stroke-width: 0.3; stroke-linejoin: miter"/>
   </g>
   <g id="patch_102">
    <path d="M 495.163681 352.44 
L 498.109091 352.44 
L 498.109091 351.410213 
L 495.163681 351.410213 
z
" clip-path="url(#p4879a0ed2b)" style="fill: #4c72b0; fill-opacity: 0.75; stroke: #000000; stroke-width: 0.3; stroke-linejoin: miter"/>
   </g>
   <g id="line2d_23">
    <path d="M 92.290909 352.44 
L 92.290909 47.52 
" clip-path="url(#p4879a0ed2b)" style="fill: none; stroke-dasharray: 7.4,3.2; stroke-dashoffset: 0; stroke: #ff0000; stroke-width: 2"/>
   </g>
   <g id="patch_103">
    <path d="M 72 352.44 
L 72 47.52 
" style="fill: none"/>
   </g>
   <g id="patch_104">
    <path d="M 518.4 352.44 
L 518.4 47.52 
" style="fill: none"/>
   </g>
   <g id="patch_105">
    <path d="M 72 352.44 
L 518.4 352.44 
" style="fill: none"/>
   </g>
   <g id="patch_106">
    <path d="M 72 47.52 
L 518.4 47.52 
" style="fill: none"/>
   </g>
  </g>
 </g>
 <defs>
  <clipPath id="p4879a0ed2b">
   <rect x="72" y="47.52" width="446.4" height="304.92"/>
  </clipPath>
 </defs>
</svg>
