<?xml version="1.0" encoding="utf-8" standalone="no"?>
<!DOCTYPE svg PUBLIC "-//W3C//DTD SVG 1.1//EN"
  "http://www.w3.org/Graphics/SVG/1.1/DTD/svg11.dtd">
<svg xmlns:xlink="http://www.w3.org/1999/xlink" width="963.718321pt" height="578.896115pt" viewBox="0 0 963.718321 578.896115" xmlns="http://www.w3.org/2000/svg" version="1.1">
 <metadata>
  <rdf:RDF xmlns:dc="http://purl.org/dc/elements/1.1/" xmlns:cc="http://creativecommons.org/ns#" xmlns:rdf="http://www.w3.org/1999/02/22-rdf-syntax-ns#">
   <cc:Work>
    <dc:type rdf:resource="http://purl.org/dc/dcmitype/StillImage"/>
    <dc:date>2022-12-25T12:06:04.851893</dc:date>
    <dc:format>image/svg+xml</dc:format>
    <dc:creator>
     <cc:Agent>
      <dc:title>Matplotlib v3.6.0, https://matplotlib.org/</dc:title>
     </cc:Agent>
    </dc:creator>
   </cc:Work>
  </rdf:RDF>
 </metadata>
 <defs>
  <style type="text/css">*{stroke-linejoin: round; stroke-linecap: butt}</style>
 </defs>
 <g id="figure_1">
  <g id="patch_1">
   <path d="M 0 578.896115 
L 963.718321 578.896115 
L 963.718321 0 
L 0 0 
z
" style="fill: #ffffff"/>
  </g>
  <g id="axes_1">
   <g id="patch_2">
    <path d="M 54.053321 284.4 
L 891.053321 284.4 
L 891.053321 7.2 
L 54.053321 7.2 
z
" style="fill: #eaeaf2"/>
   </g>
   <g id="matplotlib.axis_1">
    <g id="xtick_1">
     <g id="line2d_1">
      <path d="M 92.098776 284.4 
L 92.098776 7.2 
" clip-path="url(#pe2a538c0af)" style="fill: none; stroke: #ffffff; stroke-linecap: round"/>
     </g>
     <g id="line2d_2">
      <defs>
       <path id="m1e44352cd9" d="M 0 0 
L 0 5 
" style="stroke: #262626"/>
      </defs>
      <g>
       <use xlink:href="#m1e44352cd9" x="92.098776" y="284.4" style="fill: #262626; stroke: #262626"/>
      </g>
     </g>
     <g id="text_1">
      <!-- AVG gap size -->
      <g style="fill: #262626" transform="translate(15.796651 378.945878) rotate(-45) scale(0.16 -0.16)">
       <defs>
        <path id="DejaVuSans-41" d="M 2188 4044 
L 1331 1722 
L 3047 1722 
L 2188 4044 
z
M 1831 4666 
L 2547 4666 
L 4325 0 
L 3669 0 
L 3244 1197 
L 1141 1197 
L 716 0 
L 50 0 
L 1831 4666 
z
" transform="scale(0.015625)"/>
        <path id="DejaVuSans-56" d="M 1831 0 
L 50 4666 
L 709 4666 
L 2188 738 
L 3669 4666 
L 4325 4666 
L 2547 0 
L 1831 0 
z
" transform="scale(0.015625)"/>
        <path id="DejaVuSans-47" d="M 3809 666 
L 3809 1919 
L 2778 1919 
L 2778 2438 
L 4434 2438 
L 4434 434 
Q 4069 175 3628 42 
Q 3188 -91 2688 -91 
Q 1594 -91 976 548 
Q 359 1188 359 2328 
Q 359 3472 976 4111 
Q 1594 4750 2688 4750 
Q 3144 4750 3555 4637 
Q 3966 4525 4313 4306 
L 4313 3634 
Q 3963 3931 3569 4081 
Q 3175 4231 2741 4231 
Q 1884 4231 1454 3753 
Q 1025 3275 1025 2328 
Q 1025 1384 1454 906 
Q 1884 428 2741 428 
Q 3075 428 3337 486 
Q 3600 544 3809 666 
z
" transform="scale(0.015625)"/>
        <path id="DejaVuSans-20" transform="scale(0.015625)"/>
        <path id="DejaVuSans-67" d="M 2906 1791 
Q 2906 2416 2648 2759 
Q 2391 3103 1925 3103 
Q 1463 3103 1205 2759 
Q 947 2416 947 1791 
Q 947 1169 1205 825 
Q 1463 481 1925 481 
Q 2391 481 2648 825 
Q 2906 1169 2906 1791 
z
M 3481 434 
Q 3481 -459 3084 -895 
Q 2688 -1331 1869 -1331 
Q 1566 -1331 1297 -1286 
Q 1028 -1241 775 -1147 
L 775 -588 
Q 1028 -725 1275 -790 
Q 1522 -856 1778 -856 
Q 2344 -856 2625 -561 
Q 2906 -266 2906 331 
L 2906 616 
Q 2728 306 2450 153 
Q 2172 0 1784 0 
Q 1141 0 747 490 
Q 353 981 353 1791 
Q 353 2603 747 3093 
Q 1141 3584 1784 3584 
Q 2172 3584 2450 3431 
Q 2728 3278 2906 2969 
L 2906 3500 
L 3481 3500 
L 3481 434 
z
" transform="scale(0.015625)"/>
        <path id="DejaVuSans-61" d="M 2194 1759 
Q 1497 1759 1228 1600 
Q 959 1441 959 1056 
Q 959 750 1161 570 
Q 1363 391 1709 391 
Q 2188 391 2477 730 
Q 2766 1069 2766 1631 
L 2766 1759 
L 2194 1759 
z
M 3341 1997 
L 3341 0 
L 2766 0 
L 2766 531 
Q 2569 213 2275 61 
Q 1981 -91 1556 -91 
Q 1019 -91 701 211 
Q 384 513 384 1019 
Q 384 1609 779 1909 
Q 1175 2209 1959 2209 
L 2766 2209 
L 2766 2266 
Q 2766 2663 2505 2880 
Q 2244 3097 1772 3097 
Q 1472 3097 1187 3025 
Q 903 2953 641 2809 
L 641 3341 
Q 956 3463 1253 3523 
Q 1550 3584 1831 3584 
Q 2591 3584 2966 3190 
Q 3341 2797 3341 1997 
z
" transform="scale(0.015625)"/>
        <path id="DejaVuSans-70" d="M 1159 525 
L 1159 -1331 
L 581 -1331 
L 581 3500 
L 1159 3500 
L 1159 2969 
Q 1341 3281 1617 3432 
Q 1894 3584 2278 3584 
Q 2916 3584 3314 3078 
Q 3713 2572 3713 1747 
Q 3713 922 3314 415 
Q 2916 -91 2278 -91 
Q 1894 -91 1617 61 
Q 1341 213 1159 525 
z
M 3116 1747 
Q 3116 2381 2855 2742 
Q 2594 3103 2138 3103 
Q 1681 3103 1420 2742 
Q 1159 2381 1159 1747 
Q 1159 1113 1420 752 
Q 1681 391 2138 391 
Q 2594 391 2855 752 
Q 3116 1113 3116 1747 
z
" transform="scale(0.015625)"/>
        <path id="DejaVuSans-73" d="M 2834 3397 
L 2834 2853 
Q 2591 2978 2328 3040 
Q 2066 3103 1784 3103 
Q 1356 3103 1142 2972 
Q 928 2841 928 2578 
Q 928 2378 1081 2264 
Q 1234 2150 1697 2047 
L 1894 2003 
Q 2506 1872 2764 1633 
Q 3022 1394 3022 966 
Q 3022 478 2636 193 
Q 2250 -91 1575 -91 
Q 1294 -91 989 -36 
Q 684 19 347 128 
L 347 722 
Q 666 556 975 473 
Q 1284 391 1588 391 
Q 1994 391 2212 530 
Q 2431 669 2431 922 
Q 2431 1156 2273 1281 
Q 2116 1406 1581 1522 
L 1381 1569 
Q 847 1681 609 1914 
Q 372 2147 372 2553 
Q 372 3047 722 3315 
Q 1072 3584 1716 3584 
Q 2034 3584 2315 3537 
Q 2597 3491 2834 3397 
z
" transform="scale(0.015625)"/>
        <path id="DejaVuSans-69" d="M 603 3500 
L 1178 3500 
L 1178 0 
L 603 0 
L 603 3500 
z
M 603 4863 
L 1178 4863 
L 1178 4134 
L 603 4134 
L 603 4863 
z
" transform="scale(0.015625)"/>
        <path id="DejaVuSans-7a" d="M 353 3500 
L 3084 3500 
L 3084 2975 
L 922 459 
L 3084 459 
L 3084 0 
L 275 0 
L 275 525 
L 2438 3041 
L 353 3041 
L 353 3500 
z
" transform="scale(0.015625)"/>
        <path id="DejaVuSans-65" d="M 3597 1894 
L 3597 1613 
L 953 1613 
Q 991 1019 1311 708 
Q 1631 397 2203 397 
Q 2534 397 2845 478 
Q 3156 559 3463 722 
L 3463 178 
Q 3153 47 2828 -22 
Q 2503 -91 2169 -91 
Q 1331 -91 842 396 
Q 353 884 353 1716 
Q 353 2575 817 3079 
Q 1281 3584 2069 3584 
Q 2775 3584 3186 3129 
Q 3597 2675 3597 1894 
z
M 3022 2063 
Q 3016 2534 2758 2815 
Q 2500 3097 2075 3097 
Q 1594 3097 1305 2825 
Q 1016 2553 972 2059 
L 3022 2063 
z
" transform="scale(0.015625)"/>
       </defs>
       <use xlink:href="#DejaVuSans-41"/>
       <use xlink:href="#DejaVuSans-56" x="62.033203"/>
       <use xlink:href="#DejaVuSans-47" x="130.441406"/>
       <use xlink:href="#DejaVuSans-20" x="207.931641"/>
       <use xlink:href="#DejaVuSans-67" x="239.71875"/>
       <use xlink:href="#DejaVuSans-61" x="303.195312"/>
       <use xlink:href="#DejaVuSans-70" x="364.474609"/>
       <use xlink:href="#DejaVuSans-20" x="427.951172"/>
       <use xlink:href="#DejaVuSans-73" x="459.738281"/>
       <use xlink:href="#DejaVuSans-69" x="511.837891"/>
       <use xlink:href="#DejaVuSans-7a" x="539.621094"/>
       <use xlink:href="#DejaVuSans-65" x="592.111328"/>
      </g>
     </g>
    </g>
    <g id="xtick_2">
     <g id="line2d_3">
      <path d="M 136.858134 284.4 
L 136.858134 7.2 
" clip-path="url(#pe2a538c0af)" style="fill: none; stroke: #ffffff; stroke-linecap: round"/>
     </g>
     <g id="line2d_4">
      <g>
       <use xlink:href="#m1e44352cd9" x="136.858134" y="284.4" style="fill: #262626; stroke: #262626"/>
      </g>
     </g>
     <g id="text_2">
      <!-- MSA len -->
      <g style="fill: #262626" transform="translate(88.739518 350.762369) rotate(-45) scale(0.16 -0.16)">
       <defs>
        <path id="DejaVuSans-4d" d="M 628 4666 
L 1569 4666 
L 2759 1491 
L 3956 4666 
L 4897 4666 
L 4897 0 
L 4281 0 
L 4281 4097 
L 3078 897 
L 2444 897 
L 1241 4097 
L 1241 0 
L 628 0 
L 628 4666 
z
" transform="scale(0.015625)"/>
        <path id="DejaVuSans-53" d="M 3425 4513 
L 3425 3897 
Q 3066 4069 2747 4153 
Q 2428 4238 2131 4238 
Q 1616 4238 1336 4038 
Q 1056 3838 1056 3469 
Q 1056 3159 1242 3001 
Q 1428 2844 1947 2747 
L 2328 2669 
Q 3034 2534 3370 2195 
Q 3706 1856 3706 1288 
Q 3706 609 3251 259 
Q 2797 -91 1919 -91 
Q 1588 -91 1214 -16 
Q 841 59 441 206 
L 441 856 
Q 825 641 1194 531 
Q 1563 422 1919 422 
Q 2459 422 2753 634 
Q 3047 847 3047 1241 
Q 3047 1584 2836 1778 
Q 2625 1972 2144 2069 
L 1759 2144 
Q 1053 2284 737 2584 
Q 422 2884 422 3419 
Q 422 4038 858 4394 
Q 1294 4750 2059 4750 
Q 2388 4750 2728 4690 
Q 3069 4631 3425 4513 
z
" transform="scale(0.015625)"/>
        <path id="DejaVuSans-6c" d="M 603 4863 
L 1178 4863 
L 1178 0 
L 603 0 
L 603 4863 
z
" transform="scale(0.015625)"/>
        <path id="DejaVuSans-6e" d="M 3513 2113 
L 3513 0 
L 2938 0 
L 2938 2094 
Q 2938 2591 2744 2837 
Q 2550 3084 2163 3084 
Q 1697 3084 1428 2787 
Q 1159 2491 1159 1978 
L 1159 0 
L 581 0 
L 581 3500 
L 1159 3500 
L 1159 2956 
Q 1366 3272 1645 3428 
Q 1925 3584 2291 3584 
Q 2894 3584 3203 3211 
Q 3513 2838 3513 2113 
z
" transform="scale(0.015625)"/>
       </defs>
       <use xlink:href="#DejaVuSans-4d"/>
       <use xlink:href="#DejaVuSans-53" x="86.279297"/>
       <use xlink:href="#DejaVuSans-41" x="151.630859"/>
       <use xlink:href="#DejaVuSans-20" x="220.039062"/>
       <use xlink:href="#DejaVuSans-6c" x="251.826172"/>
       <use xlink:href="#DejaVuSans-65" x="279.609375"/>
       <use xlink:href="#DejaVuSans-6e" x="341.132812"/>
      </g>
     </g>
    </g>
    <g id="xtick_3">
     <g id="line2d_5">
      <path d="M 181.617492 284.4 
L 181.617492 7.2 
" clip-path="url(#pe2a538c0af)" style="fill: none; stroke: #ffffff; stroke-linecap: round"/>
     </g>
     <g id="line2d_6">
      <g>
       <use xlink:href="#m1e44352cd9" x="181.617492" y="284.4" style="fill: #262626; stroke: #262626"/>
      </g>
     </g>
     <g id="text_3">
      <!-- MSA max len -->
      <g style="fill: #262626" transform="translate(105.253495 379.00775) rotate(-45) scale(0.16 -0.16)">
       <defs>
        <path id="DejaVuSans-6d" d="M 3328 2828 
Q 3544 3216 3844 3400 
Q 4144 3584 4550 3584 
Q 5097 3584 5394 3201 
Q 5691 2819 5691 2113 
L 5691 0 
L 5113 0 
L 5113 2094 
Q 5113 2597 4934 2840 
Q 4756 3084 4391 3084 
Q 3944 3084 3684 2787 
Q 3425 2491 3425 1978 
L 3425 0 
L 2847 0 
L 2847 2094 
Q 2847 2600 2669 2842 
Q 2491 3084 2119 3084 
Q 1678 3084 1418 2786 
Q 1159 2488 1159 1978 
L 1159 0 
L 581 0 
L 581 3500 
L 1159 3500 
L 1159 2956 
Q 1356 3278 1631 3431 
Q 1906 3584 2284 3584 
Q 2666 3584 2933 3390 
Q 3200 3197 3328 2828 
z
" transform="scale(0.015625)"/>
        <path id="DejaVuSans-78" d="M 3513 3500 
L 2247 1797 
L 3578 0 
L 2900 0 
L 1881 1375 
L 863 0 
L 184 0 
L 1544 1831 
L 300 3500 
L 978 3500 
L 1906 2253 
L 2834 3500 
L 3513 3500 
z
" transform="scale(0.015625)"/>
       </defs>
       <use xlink:href="#DejaVuSans-4d"/>
       <use xlink:href="#DejaVuSans-53" x="86.279297"/>
       <use xlink:href="#DejaVuSans-41" x="151.630859"/>
       <use xlink:href="#DejaVuSans-20" x="220.039062"/>
       <use xlink:href="#DejaVuSans-6d" x="251.826172"/>
       <use xlink:href="#DejaVuSans-61" x="349.238281"/>
       <use xlink:href="#DejaVuSans-78" x="410.517578"/>
       <use xlink:href="#DejaVuSans-20" x="469.697266"/>
       <use xlink:href="#DejaVuSans-6c" x="501.484375"/>
       <use xlink:href="#DejaVuSans-65" x="529.267578"/>
       <use xlink:href="#DejaVuSans-6e" x="590.791016"/>
      </g>
     </g>
    </g>
    <g id="xtick_4">
     <g id="line2d_7">
      <path d="M 226.376851 284.4 
L 226.376851 7.2 
" clip-path="url(#pe2a538c0af)" style="fill: none; stroke: #ffffff; stroke-linecap: round"/>
     </g>
     <g id="line2d_8">
      <g>
       <use xlink:href="#m1e44352cd9" x="226.376851" y="284.4" style="fill: #262626; stroke: #262626"/>
      </g>
     </g>
     <g id="text_4">
      <!-- MSA min len -->
      <g style="fill: #262626" transform="translate(153.329185 375.691419) rotate(-45) scale(0.16 -0.16)">
       <use xlink:href="#DejaVuSans-4d"/>
       <use xlink:href="#DejaVuSans-53" x="86.279297"/>
       <use xlink:href="#DejaVuSans-41" x="151.630859"/>
       <use xlink:href="#DejaVuSans-20" x="220.039062"/>
       <use xlink:href="#DejaVuSans-6d" x="251.826172"/>
       <use xlink:href="#DejaVuSans-69" x="349.238281"/>
       <use xlink:href="#DejaVuSans-6e" x="377.021484"/>
       <use xlink:href="#DejaVuSans-20" x="440.400391"/>
       <use xlink:href="#DejaVuSans-6c" x="472.1875"/>
       <use xlink:href="#DejaVuSans-65" x="499.970703"/>
       <use xlink:href="#DejaVuSans-6e" x="561.494141"/>
      </g>
     </g>
    </g>
    <g id="xtick_5">
     <g id="line2d_9">
      <path d="M 271.136209 284.4 
L 271.136209 7.2 
" clip-path="url(#pe2a538c0af)" style="fill: none; stroke: #ffffff; stroke-linecap: round"/>
     </g>
     <g id="line2d_10">
      <g>
       <use xlink:href="#m1e44352cd9" x="271.136209" y="284.4" style="fill: #262626; stroke: #262626"/>
      </g>
     </g>
     <g id="text_5">
      <!-- TOT num gaps -->
      <g style="fill: #262626" transform="translate(186.313447 387.466515) rotate(-45) scale(0.16 -0.16)">
       <defs>
        <path id="DejaVuSans-54" d="M -19 4666 
L 3928 4666 
L 3928 4134 
L 2272 4134 
L 2272 0 
L 1638 0 
L 1638 4134 
L -19 4134 
L -19 4666 
z
" transform="scale(0.015625)"/>
        <path id="DejaVuSans-4f" d="M 2522 4238 
Q 1834 4238 1429 3725 
Q 1025 3213 1025 2328 
Q 1025 1447 1429 934 
Q 1834 422 2522 422 
Q 3209 422 3611 934 
Q 4013 1447 4013 2328 
Q 4013 3213 3611 3725 
Q 3209 4238 2522 4238 
z
M 2522 4750 
Q 3503 4750 4090 4092 
Q 4678 3434 4678 2328 
Q 4678 1225 4090 567 
Q 3503 -91 2522 -91 
Q 1538 -91 948 565 
Q 359 1222 359 2328 
Q 359 3434 948 4092 
Q 1538 4750 2522 4750 
z
" transform="scale(0.015625)"/>
        <path id="DejaVuSans-75" d="M 544 1381 
L 544 3500 
L 1119 3500 
L 1119 1403 
Q 1119 906 1312 657 
Q 1506 409 1894 409 
Q 2359 409 2629 706 
Q 2900 1003 2900 1516 
L 2900 3500 
L 3475 3500 
L 3475 0 
L 2900 0 
L 2900 538 
Q 2691 219 2414 64 
Q 2138 -91 1772 -91 
Q 1169 -91 856 284 
Q 544 659 544 1381 
z
M 1991 3584 
L 1991 3584 
z
" transform="scale(0.015625)"/>
       </defs>
       <use xlink:href="#DejaVuSans-54"/>
       <use xlink:href="#DejaVuSans-4f" x="61.083984"/>
       <use xlink:href="#DejaVuSans-54" x="139.794922"/>
       <use xlink:href="#DejaVuSans-20" x="200.878906"/>
       <use xlink:href="#DejaVuSans-6e" x="232.666016"/>
       <use xlink:href="#DejaVuSans-75" x="296.044922"/>
       <use xlink:href="#DejaVuSans-6d" x="359.423828"/>
       <use xlink:href="#DejaVuSans-20" x="456.835938"/>
       <use xlink:href="#DejaVuSans-67" x="488.623047"/>
       <use xlink:href="#DejaVuSans-61" x="552.099609"/>
       <use xlink:href="#DejaVuSans-70" x="613.378906"/>
       <use xlink:href="#DejaVuSans-73" x="676.855469"/>
      </g>
     </g>
    </g>
    <g id="xtick_6">
     <g id="line2d_11">
      <path d="M 315.895567 284.4 
L 315.895567 7.2 
" clip-path="url(#pe2a538c0af)" style="fill: none; stroke: #ffffff; stroke-linecap: round"/>
     </g>
     <g id="line2d_12">
      <g>
       <use xlink:href="#m1e44352cd9" x="315.895567" y="284.4" style="fill: #262626; stroke: #262626"/>
      </g>
     </g>
     <g id="text_6">
      <!-- NUM gaps len three -->
      <g style="fill: #262626" transform="translate(201.858689 416.680631) rotate(-45) scale(0.16 -0.16)">
       <defs>
        <path id="DejaVuSans-4e" d="M 628 4666 
L 1478 4666 
L 3547 763 
L 3547 4666 
L 4159 4666 
L 4159 0 
L 3309 0 
L 1241 3903 
L 1241 0 
L 628 0 
L 628 4666 
z
" transform="scale(0.015625)"/>
        <path id="DejaVuSans-55" d="M 556 4666 
L 1191 4666 
L 1191 1831 
Q 1191 1081 1462 751 
Q 1734 422 2344 422 
Q 2950 422 3222 751 
Q 3494 1081 3494 1831 
L 3494 4666 
L 4128 4666 
L 4128 1753 
Q 4128 841 3676 375 
Q 3225 -91 2344 -91 
Q 1459 -91 1007 375 
Q 556 841 556 1753 
L 556 4666 
z
" transform="scale(0.015625)"/>
        <path id="DejaVuSans-74" d="M 1172 4494 
L 1172 3500 
L 2356 3500 
L 2356 3053 
L 1172 3053 
L 1172 1153 
Q 1172 725 1289 603 
Q 1406 481 1766 481 
L 2356 481 
L 2356 0 
L 1766 0 
Q 1100 0 847 248 
Q 594 497 594 1153 
L 594 3053 
L 172 3053 
L 172 3500 
L 594 3500 
L 594 4494 
L 1172 4494 
z
" transform="scale(0.015625)"/>
        <path id="DejaVuSans-68" d="M 3513 2113 
L 3513 0 
L 2938 0 
L 2938 2094 
Q 2938 2591 2744 2837 
Q 2550 3084 2163 3084 
Q 1697 3084 1428 2787 
Q 1159 2491 1159 1978 
L 1159 0 
L 581 0 
L 581 4863 
L 1159 4863 
L 1159 2956 
Q 1366 3272 1645 3428 
Q 1925 3584 2291 3584 
Q 2894 3584 3203 3211 
Q 3513 2838 3513 2113 
z
" transform="scale(0.015625)"/>
        <path id="DejaVuSans-72" d="M 2631 2963 
Q 2534 3019 2420 3045 
Q 2306 3072 2169 3072 
Q 1681 3072 1420 2755 
Q 1159 2438 1159 1844 
L 1159 0 
L 581 0 
L 581 3500 
L 1159 3500 
L 1159 2956 
Q 1341 3275 1631 3429 
Q 1922 3584 2338 3584 
Q 2397 3584 2469 3576 
Q 2541 3569 2628 3553 
L 2631 2963 
z
" transform="scale(0.015625)"/>
       </defs>
       <use xlink:href="#DejaVuSans-4e"/>
       <use xlink:href="#DejaVuSans-55" x="74.804688"/>
       <use xlink:href="#DejaVuSans-4d" x="147.998047"/>
       <use xlink:href="#DejaVuSans-20" x="234.277344"/>
       <use xlink:href="#DejaVuSans-67" x="266.064453"/>
       <use xlink:href="#DejaVuSans-61" x="329.541016"/>
       <use xlink:href="#DejaVuSans-70" x="390.820312"/>
       <use xlink:href="#DejaVuSans-73" x="454.296875"/>
       <use xlink:href="#DejaVuSans-20" x="506.396484"/>
       <use xlink:href="#DejaVuSans-6c" x="538.183594"/>
       <use xlink:href="#DejaVuSans-65" x="565.966797"/>
       <use xlink:href="#DejaVuSans-6e" x="627.490234"/>
       <use xlink:href="#DejaVuSans-20" x="690.869141"/>
       <use xlink:href="#DejaVuSans-74" x="722.65625"/>
       <use xlink:href="#DejaVuSans-68" x="761.865234"/>
       <use xlink:href="#DejaVuSans-72" x="825.244141"/>
       <use xlink:href="#DejaVuSans-65" x="864.107422"/>
       <use xlink:href="#DejaVuSans-65" x="925.630859"/>
      </g>
     </g>
    </g>
    <g id="xtick_7">
     <g id="line2d_13">
      <path d="M 360.654925 284.4 
L 360.654925 7.2 
" clip-path="url(#pe2a538c0af)" style="fill: none; stroke: #ffffff; stroke-linecap: round"/>
     </g>
     <g id="line2d_14">
      <g>
       <use xlink:href="#m1e44352cd9" x="360.654925" y="284.4" style="fill: #262626; stroke: #262626"/>
      </g>
     </g>
     <g id="text_7">
      <!-- NUM gaps len at least four -->
      <g style="fill: #262626" transform="translate(207.889809 455.40887) rotate(-45) scale(0.16 -0.16)">
       <defs>
        <path id="DejaVuSans-66" d="M 2375 4863 
L 2375 4384 
L 1825 4384 
Q 1516 4384 1395 4259 
Q 1275 4134 1275 3809 
L 1275 3500 
L 2222 3500 
L 2222 3053 
L 1275 3053 
L 1275 0 
L 697 0 
L 697 3053 
L 147 3053 
L 147 3500 
L 697 3500 
L 697 3744 
Q 697 4328 969 4595 
Q 1241 4863 1831 4863 
L 2375 4863 
z
" transform="scale(0.015625)"/>
        <path id="DejaVuSans-6f" d="M 1959 3097 
Q 1497 3097 1228 2736 
Q 959 2375 959 1747 
Q 959 1119 1226 758 
Q 1494 397 1959 397 
Q 2419 397 2687 759 
Q 2956 1122 2956 1747 
Q 2956 2369 2687 2733 
Q 2419 3097 1959 3097 
z
M 1959 3584 
Q 2709 3584 3137 3096 
Q 3566 2609 3566 1747 
Q 3566 888 3137 398 
Q 2709 -91 1959 -91 
Q 1206 -91 779 398 
Q 353 888 353 1747 
Q 353 2609 779 3096 
Q 1206 3584 1959 3584 
z
" transform="scale(0.015625)"/>
       </defs>
       <use xlink:href="#DejaVuSans-4e"/>
       <use xlink:href="#DejaVuSans-55" x="74.804688"/>
       <use xlink:href="#DejaVuSans-4d" x="147.998047"/>
       <use xlink:href="#DejaVuSans-20" x="234.277344"/>
       <use xlink:href="#DejaVuSans-67" x="266.064453"/>
       <use xlink:href="#DejaVuSans-61" x="329.541016"/>
       <use xlink:href="#DejaVuSans-70" x="390.820312"/>
       <use xlink:href="#DejaVuSans-73" x="454.296875"/>
       <use xlink:href="#DejaVuSans-20" x="506.396484"/>
       <use xlink:href="#DejaVuSans-6c" x="538.183594"/>
       <use xlink:href="#DejaVuSans-65" x="565.966797"/>
       <use xlink:href="#DejaVuSans-6e" x="627.490234"/>
       <use xlink:href="#DejaVuSans-20" x="690.869141"/>
       <use xlink:href="#DejaVuSans-61" x="722.65625"/>
       <use xlink:href="#DejaVuSans-74" x="783.935547"/>
       <use xlink:href="#DejaVuSans-20" x="823.144531"/>
       <use xlink:href="#DejaVuSans-6c" x="854.931641"/>
       <use xlink:href="#DejaVuSans-65" x="882.714844"/>
       <use xlink:href="#DejaVuSans-61" x="944.238281"/>
       <use xlink:href="#DejaVuSans-73" x="1005.517578"/>
       <use xlink:href="#DejaVuSans-74" x="1057.617188"/>
       <use xlink:href="#DejaVuSans-20" x="1096.826172"/>
       <use xlink:href="#DejaVuSans-66" x="1128.613281"/>
       <use xlink:href="#DejaVuSans-6f" x="1163.818359"/>
       <use xlink:href="#DejaVuSans-75" x="1225"/>
       <use xlink:href="#DejaVuSans-72" x="1288.378906"/>
      </g>
     </g>
    </g>
    <g id="xtick_8">
     <g id="line2d_15">
      <path d="M 405.414284 284.4 
L 405.414284 7.2 
" clip-path="url(#pe2a538c0af)" style="fill: none; stroke: #ffffff; stroke-linecap: round"/>
     </g>
     <g id="line2d_16">
      <g>
       <use xlink:href="#m1e44352cd9" x="405.414284" y="284.4" style="fill: #262626; stroke: #262626"/>
      </g>
     </g>
     <g id="text_8">
      <!-- AVG unique gap size -->
      <g style="fill: #262626" transform="translate(286.719339 421.338697) rotate(-45) scale(0.16 -0.16)">
       <defs>
        <path id="DejaVuSans-71" d="M 947 1747 
Q 947 1113 1208 752 
Q 1469 391 1925 391 
Q 2381 391 2643 752 
Q 2906 1113 2906 1747 
Q 2906 2381 2643 2742 
Q 2381 3103 1925 3103 
Q 1469 3103 1208 2742 
Q 947 2381 947 1747 
z
M 2906 525 
Q 2725 213 2448 61 
Q 2172 -91 1784 -91 
Q 1150 -91 751 415 
Q 353 922 353 1747 
Q 353 2572 751 3078 
Q 1150 3584 1784 3584 
Q 2172 3584 2448 3432 
Q 2725 3281 2906 2969 
L 2906 3500 
L 3481 3500 
L 3481 -1331 
L 2906 -1331 
L 2906 525 
z
" transform="scale(0.015625)"/>
       </defs>
       <use xlink:href="#DejaVuSans-41"/>
       <use xlink:href="#DejaVuSans-56" x="62.033203"/>
       <use xlink:href="#DejaVuSans-47" x="130.441406"/>
       <use xlink:href="#DejaVuSans-20" x="207.931641"/>
       <use xlink:href="#DejaVuSans-75" x="239.71875"/>
       <use xlink:href="#DejaVuSans-6e" x="303.097656"/>
       <use xlink:href="#DejaVuSans-69" x="366.476562"/>
       <use xlink:href="#DejaVuSans-71" x="394.259766"/>
       <use xlink:href="#DejaVuSans-75" x="457.736328"/>
       <use xlink:href="#DejaVuSans-65" x="521.115234"/>
       <use xlink:href="#DejaVuSans-20" x="582.638672"/>
       <use xlink:href="#DejaVuSans-67" x="614.425781"/>
       <use xlink:href="#DejaVuSans-61" x="677.902344"/>
       <use xlink:href="#DejaVuSans-70" x="739.181641"/>
       <use xlink:href="#DejaVuSans-20" x="802.658203"/>
       <use xlink:href="#DejaVuSans-73" x="834.445312"/>
       <use xlink:href="#DejaVuSans-69" x="886.544922"/>
       <use xlink:href="#DejaVuSans-7a" x="914.328125"/>
       <use xlink:href="#DejaVuSans-65" x="966.818359"/>
      </g>
     </g>
    </g>
    <g id="xtick_9">
     <g id="line2d_17">
      <path d="M 450.173642 284.4 
L 450.173642 7.2 
" clip-path="url(#pe2a538c0af)" style="fill: none; stroke: #ffffff; stroke-linecap: round"/>
     </g>
     <g id="line2d_18">
      <g>
       <use xlink:href="#m1e44352cd9" x="450.173642" y="284.4" style="fill: #262626; stroke: #262626"/>
      </g>
     </g>
     <g id="text_9">
      <!-- TOT num unique gaps -->
      <g style="fill: #262626" transform="translate(322.958061 429.859334) rotate(-45) scale(0.16 -0.16)">
       <use xlink:href="#DejaVuSans-54"/>
       <use xlink:href="#DejaVuSans-4f" x="61.083984"/>
       <use xlink:href="#DejaVuSans-54" x="139.794922"/>
       <use xlink:href="#DejaVuSans-20" x="200.878906"/>
       <use xlink:href="#DejaVuSans-6e" x="232.666016"/>
       <use xlink:href="#DejaVuSans-75" x="296.044922"/>
       <use xlink:href="#DejaVuSans-6d" x="359.423828"/>
       <use xlink:href="#DejaVuSans-20" x="456.835938"/>
       <use xlink:href="#DejaVuSans-75" x="488.623047"/>
       <use xlink:href="#DejaVuSans-6e" x="552.001953"/>
       <use xlink:href="#DejaVuSans-69" x="615.380859"/>
       <use xlink:href="#DejaVuSans-71" x="643.164062"/>
       <use xlink:href="#DejaVuSans-75" x="706.640625"/>
       <use xlink:href="#DejaVuSans-65" x="770.019531"/>
       <use xlink:href="#DejaVuSans-20" x="831.542969"/>
       <use xlink:href="#DejaVuSans-67" x="863.330078"/>
       <use xlink:href="#DejaVuSans-61" x="926.806641"/>
       <use xlink:href="#DejaVuSans-70" x="988.085938"/>
       <use xlink:href="#DejaVuSans-73" x="1051.5625"/>
      </g>
     </g>
    </g>
    <g id="xtick_10">
     <g id="line2d_19">
      <path d="M 494.933 284.4 
L 494.933 7.2 
" clip-path="url(#pe2a538c0af)" style="fill: none; stroke: #ffffff; stroke-linecap: round"/>
     </g>
     <g id="line2d_20">
      <g>
       <use xlink:href="#m1e44352cd9" x="494.933" y="284.4" style="fill: #262626; stroke: #262626"/>
      </g>
     </g>
     <g id="text_10">
      <!-- NUM gaps len one pos 1 gaps -->
      <g style="fill: #262626" transform="translate(324.590977 472.985776) rotate(-45) scale(0.16 -0.16)">
       <defs>
        <path id="DejaVuSans-31" d="M 794 531 
L 1825 531 
L 1825 4091 
L 703 3866 
L 703 4441 
L 1819 4666 
L 2450 4666 
L 2450 531 
L 3481 531 
L 3481 0 
L 794 0 
L 794 531 
z
" transform="scale(0.015625)"/>
       </defs>
       <use xlink:href="#DejaVuSans-4e"/>
       <use xlink:href="#DejaVuSans-55" x="74.804688"/>
       <use xlink:href="#DejaVuSans-4d" x="147.998047"/>
       <use xlink:href="#DejaVuSans-20" x="234.277344"/>
       <use xlink:href="#DejaVuSans-67" x="266.064453"/>
       <use xlink:href="#DejaVuSans-61" x="329.541016"/>
       <use xlink:href="#DejaVuSans-70" x="390.820312"/>
       <use xlink:href="#DejaVuSans-73" x="454.296875"/>
       <use xlink:href="#DejaVuSans-20" x="506.396484"/>
       <use xlink:href="#DejaVuSans-6c" x="538.183594"/>
       <use xlink:href="#DejaVuSans-65" x="565.966797"/>
       <use xlink:href="#DejaVuSans-6e" x="627.490234"/>
       <use xlink:href="#DejaVuSans-20" x="690.869141"/>
       <use xlink:href="#DejaVuSans-6f" x="722.65625"/>
       <use xlink:href="#DejaVuSans-6e" x="783.837891"/>
       <use xlink:href="#DejaVuSans-65" x="847.216797"/>
       <use xlink:href="#DejaVuSans-20" x="908.740234"/>
       <use xlink:href="#DejaVuSans-70" x="940.527344"/>
       <use xlink:href="#DejaVuSans-6f" x="1004.003906"/>
       <use xlink:href="#DejaVuSans-73" x="1065.185547"/>
       <use xlink:href="#DejaVuSans-20" x="1117.285156"/>
       <use xlink:href="#DejaVuSans-31" x="1149.072266"/>
       <use xlink:href="#DejaVuSans-20" x="1212.695312"/>
       <use xlink:href="#DejaVuSans-67" x="1244.482422"/>
       <use xlink:href="#DejaVuSans-61" x="1307.958984"/>
       <use xlink:href="#DejaVuSans-70" x="1369.238281"/>
       <use xlink:href="#DejaVuSans-73" x="1432.714844"/>
      </g>
     </g>
    </g>
    <g id="xtick_11">
     <g id="line2d_21">
      <path d="M 539.692359 284.4 
L 539.692359 7.2 
" clip-path="url(#pe2a538c0af)" style="fill: none; stroke: #ffffff; stroke-linecap: round"/>
     </g>
     <g id="line2d_22">
      <g>
       <use xlink:href="#m1e44352cd9" x="539.692359" y="284.4" style="fill: #262626; stroke: #262626"/>
      </g>
     </g>
     <g id="text_11">
      <!-- NUM gaps len three pos 1 gaps -->
      <g style="fill: #262626" transform="translate(360.47968 481.856431) rotate(-45) scale(0.16 -0.16)">
       <use xlink:href="#DejaVuSans-4e"/>
       <use xlink:href="#DejaVuSans-55" x="74.804688"/>
       <use xlink:href="#DejaVuSans-4d" x="147.998047"/>
       <use xlink:href="#DejaVuSans-20" x="234.277344"/>
       <use xlink:href="#DejaVuSans-67" x="266.064453"/>
       <use xlink:href="#DejaVuSans-61" x="329.541016"/>
       <use xlink:href="#DejaVuSans-70" x="390.820312"/>
       <use xlink:href="#DejaVuSans-73" x="454.296875"/>
       <use xlink:href="#DejaVuSans-20" x="506.396484"/>
       <use xlink:href="#DejaVuSans-6c" x="538.183594"/>
       <use xlink:href="#DejaVuSans-65" x="565.966797"/>
       <use xlink:href="#DejaVuSans-6e" x="627.490234"/>
       <use xlink:href="#DejaVuSans-20" x="690.869141"/>
       <use xlink:href="#DejaVuSans-74" x="722.65625"/>
       <use xlink:href="#DejaVuSans-68" x="761.865234"/>
       <use xlink:href="#DejaVuSans-72" x="825.244141"/>
       <use xlink:href="#DejaVuSans-65" x="864.107422"/>
       <use xlink:href="#DejaVuSans-65" x="925.630859"/>
       <use xlink:href="#DejaVuSans-20" x="987.154297"/>
       <use xlink:href="#DejaVuSans-70" x="1018.941406"/>
       <use xlink:href="#DejaVuSans-6f" x="1082.417969"/>
       <use xlink:href="#DejaVuSans-73" x="1143.599609"/>
       <use xlink:href="#DejaVuSans-20" x="1195.699219"/>
       <use xlink:href="#DejaVuSans-31" x="1227.486328"/>
       <use xlink:href="#DejaVuSans-20" x="1291.109375"/>
       <use xlink:href="#DejaVuSans-67" x="1322.896484"/>
       <use xlink:href="#DejaVuSans-61" x="1386.373047"/>
       <use xlink:href="#DejaVuSans-70" x="1447.652344"/>
       <use xlink:href="#DejaVuSans-73" x="1511.128906"/>
      </g>
     </g>
    </g>
    <g id="xtick_12">
     <g id="line2d_23">
      <path d="M 584.451717 284.4 
L 584.451717 7.2 
" clip-path="url(#pe2a538c0af)" style="fill: none; stroke: #ffffff; stroke-linecap: round"/>
     </g>
     <g id="line2d_24">
      <g>
       <use xlink:href="#m1e44352cd9" x="584.451717" y="284.4" style="fill: #262626; stroke: #262626"/>
      </g>
     </g>
     <g id="text_12">
      <!-- NUM gaps len at least four pos 1 gaps -->
      <g style="fill: #262626" transform="translate(366.5108 520.584669) rotate(-45) scale(0.16 -0.16)">
       <use xlink:href="#DejaVuSans-4e"/>
       <use xlink:href="#DejaVuSans-55" x="74.804688"/>
       <use xlink:href="#DejaVuSans-4d" x="147.998047"/>
       <use xlink:href="#DejaVuSans-20" x="234.277344"/>
       <use xlink:href="#DejaVuSans-67" x="266.064453"/>
       <use xlink:href="#DejaVuSans-61" x="329.541016"/>
       <use xlink:href="#DejaVuSans-70" x="390.820312"/>
       <use xlink:href="#DejaVuSans-73" x="454.296875"/>
       <use xlink:href="#DejaVuSans-20" x="506.396484"/>
       <use xlink:href="#DejaVuSans-6c" x="538.183594"/>
       <use xlink:href="#DejaVuSans-65" x="565.966797"/>
       <use xlink:href="#DejaVuSans-6e" x="627.490234"/>
       <use xlink:href="#DejaVuSans-20" x="690.869141"/>
       <use xlink:href="#DejaVuSans-61" x="722.65625"/>
       <use xlink:href="#DejaVuSans-74" x="783.935547"/>
       <use xlink:href="#DejaVuSans-20" x="823.144531"/>
       <use xlink:href="#DejaVuSans-6c" x="854.931641"/>
       <use xlink:href="#DejaVuSans-65" x="882.714844"/>
       <use xlink:href="#DejaVuSans-61" x="944.238281"/>
       <use xlink:href="#DejaVuSans-73" x="1005.517578"/>
       <use xlink:href="#DejaVuSans-74" x="1057.617188"/>
       <use xlink:href="#DejaVuSans-20" x="1096.826172"/>
       <use xlink:href="#DejaVuSans-66" x="1128.613281"/>
       <use xlink:href="#DejaVuSans-6f" x="1163.818359"/>
       <use xlink:href="#DejaVuSans-75" x="1225"/>
       <use xlink:href="#DejaVuSans-72" x="1288.378906"/>
       <use xlink:href="#DejaVuSans-20" x="1329.492188"/>
       <use xlink:href="#DejaVuSans-70" x="1361.279297"/>
       <use xlink:href="#DejaVuSans-6f" x="1424.755859"/>
       <use xlink:href="#DejaVuSans-73" x="1485.9375"/>
       <use xlink:href="#DejaVuSans-20" x="1538.037109"/>
       <use xlink:href="#DejaVuSans-31" x="1569.824219"/>
       <use xlink:href="#DejaVuSans-20" x="1633.447266"/>
       <use xlink:href="#DejaVuSans-67" x="1665.234375"/>
       <use xlink:href="#DejaVuSans-61" x="1728.710938"/>
       <use xlink:href="#DejaVuSans-70" x="1789.990234"/>
       <use xlink:href="#DejaVuSans-73" x="1853.466797"/>
      </g>
     </g>
    </g>
    <g id="xtick_13">
     <g id="line2d_25">
      <path d="M 629.211075 284.4 
L 629.211075 7.2 
" clip-path="url(#pe2a538c0af)" style="fill: none; stroke: #ffffff; stroke-linecap: round"/>
     </g>
     <g id="line2d_26">
      <g>
       <use xlink:href="#m1e44352cd9" x="629.211075" y="284.4" style="fill: #262626; stroke: #262626"/>
      </g>
     </g>
     <g id="text_13">
      <!-- NUM gaps len at least four pos 2 gaps -->
      <g style="fill: #262626" transform="translate(411.270159 520.584669) rotate(-45) scale(0.16 -0.16)">
       <defs>
        <path id="DejaVuSans-32" d="M 1228 531 
L 3431 531 
L 3431 0 
L 469 0 
L 469 531 
Q 828 903 1448 1529 
Q 2069 2156 2228 2338 
Q 2531 2678 2651 2914 
Q 2772 3150 2772 3378 
Q 2772 3750 2511 3984 
Q 2250 4219 1831 4219 
Q 1534 4219 1204 4116 
Q 875 4013 500 3803 
L 500 4441 
Q 881 4594 1212 4672 
Q 1544 4750 1819 4750 
Q 2544 4750 2975 4387 
Q 3406 4025 3406 3419 
Q 3406 3131 3298 2873 
Q 3191 2616 2906 2266 
Q 2828 2175 2409 1742 
Q 1991 1309 1228 531 
z
" transform="scale(0.015625)"/>
       </defs>
       <use xlink:href="#DejaVuSans-4e"/>
       <use xlink:href="#DejaVuSans-55" x="74.804688"/>
       <use xlink:href="#DejaVuSans-4d" x="147.998047"/>
       <use xlink:href="#DejaVuSans-20" x="234.277344"/>
       <use xlink:href="#DejaVuSans-67" x="266.064453"/>
       <use xlink:href="#DejaVuSans-61" x="329.541016"/>
       <use xlink:href="#DejaVuSans-70" x="390.820312"/>
       <use xlink:href="#DejaVuSans-73" x="454.296875"/>
       <use xlink:href="#DejaVuSans-20" x="506.396484"/>
       <use xlink:href="#DejaVuSans-6c" x="538.183594"/>
       <use xlink:href="#DejaVuSans-65" x="565.966797"/>
       <use xlink:href="#DejaVuSans-6e" x="627.490234"/>
       <use xlink:href="#DejaVuSans-20" x="690.869141"/>
       <use xlink:href="#DejaVuSans-61" x="722.65625"/>
       <use xlink:href="#DejaVuSans-74" x="783.935547"/>
       <use xlink:href="#DejaVuSans-20" x="823.144531"/>
       <use xlink:href="#DejaVuSans-6c" x="854.931641"/>
       <use xlink:href="#DejaVuSans-65" x="882.714844"/>
       <use xlink:href="#DejaVuSans-61" x="944.238281"/>
       <use xlink:href="#DejaVuSans-73" x="1005.517578"/>
       <use xlink:href="#DejaVuSans-74" x="1057.617188"/>
       <use xlink:href="#DejaVuSans-20" x="1096.826172"/>
       <use xlink:href="#DejaVuSans-66" x="1128.613281"/>
       <use xlink:href="#DejaVuSans-6f" x="1163.818359"/>
       <use xlink:href="#DejaVuSans-75" x="1225"/>
       <use xlink:href="#DejaVuSans-72" x="1288.378906"/>
       <use xlink:href="#DejaVuSans-20" x="1329.492188"/>
       <use xlink:href="#DejaVuSans-70" x="1361.279297"/>
       <use xlink:href="#DejaVuSans-6f" x="1424.755859"/>
       <use xlink:href="#DejaVuSans-73" x="1485.9375"/>
       <use xlink:href="#DejaVuSans-20" x="1538.037109"/>
       <use xlink:href="#DejaVuSans-32" x="1569.824219"/>
       <use xlink:href="#DejaVuSans-20" x="1633.447266"/>
       <use xlink:href="#DejaVuSans-67" x="1665.234375"/>
       <use xlink:href="#DejaVuSans-61" x="1728.710938"/>
       <use xlink:href="#DejaVuSans-70" x="1789.990234"/>
       <use xlink:href="#DejaVuSans-73" x="1853.466797"/>
      </g>
     </g>
    </g>
    <g id="xtick_14">
     <g id="line2d_27">
      <path d="M 673.970433 284.4 
L 673.970433 7.2 
" clip-path="url(#pe2a538c0af)" style="fill: none; stroke: #ffffff; stroke-linecap: round"/>
     </g>
     <g id="line2d_28">
      <g>
       <use xlink:href="#m1e44352cd9" x="673.970433" y="284.4" style="fill: #262626; stroke: #262626"/>
      </g>
     </g>
     <g id="text_14">
      <!-- NUM gaps len at least four pos n minus 1 gaps -->
      <g style="fill: #262626" transform="translate(407.270969 569.343218) rotate(-45) scale(0.16 -0.16)">
       <use xlink:href="#DejaVuSans-4e"/>
       <use xlink:href="#DejaVuSans-55" x="74.804688"/>
       <use xlink:href="#DejaVuSans-4d" x="147.998047"/>
       <use xlink:href="#DejaVuSans-20" x="234.277344"/>
       <use xlink:href="#DejaVuSans-67" x="266.064453"/>
       <use xlink:href="#DejaVuSans-61" x="329.541016"/>
       <use xlink:href="#DejaVuSans-70" x="390.820312"/>
       <use xlink:href="#DejaVuSans-73" x="454.296875"/>
       <use xlink:href="#DejaVuSans-20" x="506.396484"/>
       <use xlink:href="#DejaVuSans-6c" x="538.183594"/>
       <use xlink:href="#DejaVuSans-65" x="565.966797"/>
       <use xlink:href="#DejaVuSans-6e" x="627.490234"/>
       <use xlink:href="#DejaVuSans-20" x="690.869141"/>
       <use xlink:href="#DejaVuSans-61" x="722.65625"/>
       <use xlink:href="#DejaVuSans-74" x="783.935547"/>
       <use xlink:href="#DejaVuSans-20" x="823.144531"/>
       <use xlink:href="#DejaVuSans-6c" x="854.931641"/>
       <use xlink:href="#DejaVuSans-65" x="882.714844"/>
       <use xlink:href="#DejaVuSans-61" x="944.238281"/>
       <use xlink:href="#DejaVuSans-73" x="1005.517578"/>
       <use xlink:href="#DejaVuSans-74" x="1057.617188"/>
       <use xlink:href="#DejaVuSans-20" x="1096.826172"/>
       <use xlink:href="#DejaVuSans-66" x="1128.613281"/>
       <use xlink:href="#DejaVuSans-6f" x="1163.818359"/>
       <use xlink:href="#DejaVuSans-75" x="1225"/>
       <use xlink:href="#DejaVuSans-72" x="1288.378906"/>
       <use xlink:href="#DejaVuSans-20" x="1329.492188"/>
       <use xlink:href="#DejaVuSans-70" x="1361.279297"/>
       <use xlink:href="#DejaVuSans-6f" x="1424.755859"/>
       <use xlink:href="#DejaVuSans-73" x="1485.9375"/>
       <use xlink:href="#DejaVuSans-20" x="1538.037109"/>
       <use xlink:href="#DejaVuSans-6e" x="1569.824219"/>
       <use xlink:href="#DejaVuSans-20" x="1633.203125"/>
       <use xlink:href="#DejaVuSans-6d" x="1664.990234"/>
       <use xlink:href="#DejaVuSans-69" x="1762.402344"/>
       <use xlink:href="#DejaVuSans-6e" x="1790.185547"/>
       <use xlink:href="#DejaVuSans-75" x="1853.564453"/>
       <use xlink:href="#DejaVuSans-73" x="1916.943359"/>
       <use xlink:href="#DejaVuSans-20" x="1969.042969"/>
       <use xlink:href="#DejaVuSans-31" x="2000.830078"/>
       <use xlink:href="#DejaVuSans-20" x="2064.453125"/>
       <use xlink:href="#DejaVuSans-67" x="2096.240234"/>
       <use xlink:href="#DejaVuSans-61" x="2159.716797"/>
       <use xlink:href="#DejaVuSans-70" x="2220.996094"/>
       <use xlink:href="#DejaVuSans-73" x="2284.472656"/>
      </g>
     </g>
    </g>
    <g id="xtick_15">
     <g id="line2d_29">
      <path d="M 718.729792 284.4 
L 718.729792 7.2 
" clip-path="url(#pe2a538c0af)" style="fill: none; stroke: #ffffff; stroke-linecap: round"/>
     </g>
     <g id="line2d_30">
      <g>
       <use xlink:href="#m1e44352cd9" x="718.729792" y="284.4" style="fill: #262626; stroke: #262626"/>
      </g>
     </g>
     <g id="text_15">
      <!-- MSA position with 0 gaps -->
      <g style="fill: #262626" transform="translate(573.894878 447.478667) rotate(-45) scale(0.16 -0.16)">
       <defs>
        <path id="DejaVuSans-77" d="M 269 3500 
L 844 3500 
L 1563 769 
L 2278 3500 
L 2956 3500 
L 3675 769 
L 4391 3500 
L 4966 3500 
L 4050 0 
L 3372 0 
L 2619 2869 
L 1863 0 
L 1184 0 
L 269 3500 
z
" transform="scale(0.015625)"/>
        <path id="DejaVuSans-30" d="M 2034 4250 
Q 1547 4250 1301 3770 
Q 1056 3291 1056 2328 
Q 1056 1369 1301 889 
Q 1547 409 2034 409 
Q 2525 409 2770 889 
Q 3016 1369 3016 2328 
Q 3016 3291 2770 3770 
Q 2525 4250 2034 4250 
z
M 2034 4750 
Q 2819 4750 3233 4129 
Q 3647 3509 3647 2328 
Q 3647 1150 3233 529 
Q 2819 -91 2034 -91 
Q 1250 -91 836 529 
Q 422 1150 422 2328 
Q 422 3509 836 4129 
Q 1250 4750 2034 4750 
z
" transform="scale(0.015625)"/>
       </defs>
       <use xlink:href="#DejaVuSans-4d"/>
       <use xlink:href="#DejaVuSans-53" x="86.279297"/>
       <use xlink:href="#DejaVuSans-41" x="151.630859"/>
       <use xlink:href="#DejaVuSans-20" x="220.039062"/>
       <use xlink:href="#DejaVuSans-70" x="251.826172"/>
       <use xlink:href="#DejaVuSans-6f" x="315.302734"/>
       <use xlink:href="#DejaVuSans-73" x="376.484375"/>
       <use xlink:href="#DejaVuSans-69" x="428.583984"/>
       <use xlink:href="#DejaVuSans-74" x="456.367188"/>
       <use xlink:href="#DejaVuSans-69" x="495.576172"/>
       <use xlink:href="#DejaVuSans-6f" x="523.359375"/>
       <use xlink:href="#DejaVuSans-6e" x="584.541016"/>
       <use xlink:href="#DejaVuSans-20" x="647.919922"/>
       <use xlink:href="#DejaVuSans-77" x="679.707031"/>
       <use xlink:href="#DejaVuSans-69" x="761.494141"/>
       <use xlink:href="#DejaVuSans-74" x="789.277344"/>
       <use xlink:href="#DejaVuSans-68" x="828.486328"/>
       <use xlink:href="#DejaVuSans-20" x="891.865234"/>
       <use xlink:href="#DejaVuSans-30" x="923.652344"/>
       <use xlink:href="#DejaVuSans-20" x="987.275391"/>
       <use xlink:href="#DejaVuSans-67" x="1019.0625"/>
       <use xlink:href="#DejaVuSans-61" x="1082.539062"/>
       <use xlink:href="#DejaVuSans-70" x="1143.818359"/>
       <use xlink:href="#DejaVuSans-73" x="1207.294922"/>
      </g>
     </g>
    </g>
    <g id="xtick_16">
     <g id="line2d_31">
      <path d="M 763.48915 284.4 
L 763.48915 7.2 
" clip-path="url(#pe2a538c0af)" style="fill: none; stroke: #ffffff; stroke-linecap: round"/>
     </g>
     <g id="line2d_32">
      <g>
       <use xlink:href="#m1e44352cd9" x="763.48915" y="284.4" style="fill: #262626; stroke: #262626"/>
      </g>
     </g>
     <g id="text_16">
      <!-- MSA position with 1 gaps -->
      <g style="fill: #262626" transform="translate(618.654236 447.478667) rotate(-45) scale(0.16 -0.16)">
       <use xlink:href="#DejaVuSans-4d"/>
       <use xlink:href="#DejaVuSans-53" x="86.279297"/>
       <use xlink:href="#DejaVuSans-41" x="151.630859"/>
       <use xlink:href="#DejaVuSans-20" x="220.039062"/>
       <use xlink:href="#DejaVuSans-70" x="251.826172"/>
       <use xlink:href="#DejaVuSans-6f" x="315.302734"/>
       <use xlink:href="#DejaVuSans-73" x="376.484375"/>
       <use xlink:href="#DejaVuSans-69" x="428.583984"/>
       <use xlink:href="#DejaVuSans-74" x="456.367188"/>
       <use xlink:href="#DejaVuSans-69" x="495.576172"/>
       <use xlink:href="#DejaVuSans-6f" x="523.359375"/>
       <use xlink:href="#DejaVuSans-6e" x="584.541016"/>
       <use xlink:href="#DejaVuSans-20" x="647.919922"/>
       <use xlink:href="#DejaVuSans-77" x="679.707031"/>
       <use xlink:href="#DejaVuSans-69" x="761.494141"/>
       <use xlink:href="#DejaVuSans-74" x="789.277344"/>
       <use xlink:href="#DejaVuSans-68" x="828.486328"/>
       <use xlink:href="#DejaVuSans-20" x="891.865234"/>
       <use xlink:href="#DejaVuSans-31" x="923.652344"/>
       <use xlink:href="#DejaVuSans-20" x="987.275391"/>
       <use xlink:href="#DejaVuSans-67" x="1019.0625"/>
       <use xlink:href="#DejaVuSans-61" x="1082.539062"/>
       <use xlink:href="#DejaVuSans-70" x="1143.818359"/>
       <use xlink:href="#DejaVuSans-73" x="1207.294922"/>
      </g>
     </g>
    </g>
    <g id="xtick_17">
     <g id="line2d_33">
      <path d="M 808.248508 284.4 
L 808.248508 7.2 
" clip-path="url(#pe2a538c0af)" style="fill: none; stroke: #ffffff; stroke-linecap: round"/>
     </g>
     <g id="line2d_34">
      <g>
       <use xlink:href="#m1e44352cd9" x="808.248508" y="284.4" style="fill: #262626; stroke: #262626"/>
      </g>
     </g>
     <g id="text_17">
      <!-- MSA position with 2 gaps -->
      <g style="fill: #262626" transform="translate(663.413594 447.478667) rotate(-45) scale(0.16 -0.16)">
       <use xlink:href="#DejaVuSans-4d"/>
       <use xlink:href="#DejaVuSans-53" x="86.279297"/>
       <use xlink:href="#DejaVuSans-41" x="151.630859"/>
       <use xlink:href="#DejaVuSans-20" x="220.039062"/>
       <use xlink:href="#DejaVuSans-70" x="251.826172"/>
       <use xlink:href="#DejaVuSans-6f" x="315.302734"/>
       <use xlink:href="#DejaVuSans-73" x="376.484375"/>
       <use xlink:href="#DejaVuSans-69" x="428.583984"/>
       <use xlink:href="#DejaVuSans-74" x="456.367188"/>
       <use xlink:href="#DejaVuSans-69" x="495.576172"/>
       <use xlink:href="#DejaVuSans-6f" x="523.359375"/>
       <use xlink:href="#DejaVuSans-6e" x="584.541016"/>
       <use xlink:href="#DejaVuSans-20" x="647.919922"/>
       <use xlink:href="#DejaVuSans-77" x="679.707031"/>
       <use xlink:href="#DejaVuSans-69" x="761.494141"/>
       <use xlink:href="#DejaVuSans-74" x="789.277344"/>
       <use xlink:href="#DejaVuSans-68" x="828.486328"/>
       <use xlink:href="#DejaVuSans-20" x="891.865234"/>
       <use xlink:href="#DejaVuSans-32" x="923.652344"/>
       <use xlink:href="#DejaVuSans-20" x="987.275391"/>
       <use xlink:href="#DejaVuSans-67" x="1019.0625"/>
       <use xlink:href="#DejaVuSans-61" x="1082.539062"/>
       <use xlink:href="#DejaVuSans-70" x="1143.818359"/>
       <use xlink:href="#DejaVuSans-73" x="1207.294922"/>
      </g>
     </g>
    </g>
    <g id="xtick_18">
     <g id="line2d_35">
      <path d="M 853.007867 284.4 
L 853.007867 7.2 
" clip-path="url(#pe2a538c0af)" style="fill: none; stroke: #ffffff; stroke-linecap: round"/>
     </g>
     <g id="line2d_36">
      <g>
       <use xlink:href="#m1e44352cd9" x="853.007867" y="284.4" style="fill: #262626; stroke: #262626"/>
      </g>
     </g>
     <g id="text_18">
      <!-- MSA position with n minus 1 gaps -->
      <g style="fill: #262626" transform="translate(659.414404 496.237215) rotate(-45) scale(0.16 -0.16)">
       <use xlink:href="#DejaVuSans-4d"/>
       <use xlink:href="#DejaVuSans-53" x="86.279297"/>
       <use xlink:href="#DejaVuSans-41" x="151.630859"/>
       <use xlink:href="#DejaVuSans-20" x="220.039062"/>
       <use xlink:href="#DejaVuSans-70" x="251.826172"/>
       <use xlink:href="#DejaVuSans-6f" x="315.302734"/>
       <use xlink:href="#DejaVuSans-73" x="376.484375"/>
       <use xlink:href="#DejaVuSans-69" x="428.583984"/>
       <use xlink:href="#DejaVuSans-74" x="456.367188"/>
       <use xlink:href="#DejaVuSans-69" x="495.576172"/>
       <use xlink:href="#DejaVuSans-6f" x="523.359375"/>
       <use xlink:href="#DejaVuSans-6e" x="584.541016"/>
       <use xlink:href="#DejaVuSans-20" x="647.919922"/>
       <use xlink:href="#DejaVuSans-77" x="679.707031"/>
       <use xlink:href="#DejaVuSans-69" x="761.494141"/>
       <use xlink:href="#DejaVuSans-74" x="789.277344"/>
       <use xlink:href="#DejaVuSans-68" x="828.486328"/>
       <use xlink:href="#DejaVuSans-20" x="891.865234"/>
       <use xlink:href="#DejaVuSans-6e" x="923.652344"/>
       <use xlink:href="#DejaVuSans-20" x="987.03125"/>
       <use xlink:href="#DejaVuSans-6d" x="1018.818359"/>
       <use xlink:href="#DejaVuSans-69" x="1116.230469"/>
       <use xlink:href="#DejaVuSans-6e" x="1144.013672"/>
       <use xlink:href="#DejaVuSans-75" x="1207.392578"/>
       <use xlink:href="#DejaVuSans-73" x="1270.771484"/>
       <use xlink:href="#DejaVuSans-20" x="1322.871094"/>
       <use xlink:href="#DejaVuSans-31" x="1354.658203"/>
       <use xlink:href="#DejaVuSans-20" x="1418.28125"/>
       <use xlink:href="#DejaVuSans-67" x="1450.068359"/>
       <use xlink:href="#DejaVuSans-61" x="1513.544922"/>
       <use xlink:href="#DejaVuSans-70" x="1574.824219"/>
       <use xlink:href="#DejaVuSans-73" x="1638.300781"/>
      </g>
     </g>
    </g>
   </g>
   <g id="matplotlib.axis_2">
    <g id="ytick_1">
     <g id="line2d_37">
      <path d="M 54.053321 271.8 
L 891.053321 271.8 
" clip-path="url(#pe2a538c0af)" style="fill: none; stroke: #ffffff; stroke-linecap: round"/>
     </g>
     <g id="line2d_38"/>
     <g id="text_19">
      <!-- 0% -->
      <g style="fill: #262626" transform="translate(31.189259 275.599219) scale(0.1 -0.1)">
       <defs>
        <path id="DejaVuSans-25" d="M 4653 2053 
Q 4381 2053 4226 1822 
Q 4072 1591 4072 1178 
Q 4072 772 4226 539 
Q 4381 306 4653 306 
Q 4919 306 5073 539 
Q 5228 772 5228 1178 
Q 5228 1588 5073 1820 
Q 4919 2053 4653 2053 
z
M 4653 2450 
Q 5147 2450 5437 2106 
Q 5728 1763 5728 1178 
Q 5728 594 5436 251 
Q 5144 -91 4653 -91 
Q 4153 -91 3862 251 
Q 3572 594 3572 1178 
Q 3572 1766 3864 2108 
Q 4156 2450 4653 2450 
z
M 1428 4353 
Q 1159 4353 1004 4120 
Q 850 3888 850 3481 
Q 850 3069 1003 2837 
Q 1156 2606 1428 2606 
Q 1700 2606 1854 2837 
Q 2009 3069 2009 3481 
Q 2009 3884 1853 4118 
Q 1697 4353 1428 4353 
z
M 4250 4750 
L 4750 4750 
L 1831 -91 
L 1331 -91 
L 4250 4750 
z
M 1428 4750 
Q 1922 4750 2215 4408 
Q 2509 4066 2509 3481 
Q 2509 2891 2217 2550 
Q 1925 2209 1428 2209 
Q 931 2209 642 2551 
Q 353 2894 353 3481 
Q 353 4063 643 4406 
Q 934 4750 1428 4750 
z
" transform="scale(0.015625)"/>
       </defs>
       <use xlink:href="#DejaVuSans-30"/>
       <use xlink:href="#DejaVuSans-25" x="63.623047"/>
      </g>
     </g>
    </g>
    <g id="ytick_2">
     <g id="line2d_39">
      <path d="M 54.053321 221.4 
L 891.053321 221.4 
" clip-path="url(#pe2a538c0af)" style="fill: none; stroke: #ffffff; stroke-linecap: round"/>
     </g>
     <g id="line2d_40"/>
     <g id="text_20">
      <!-- 20% -->
      <g style="fill: #262626" transform="translate(24.826759 225.199219) scale(0.1 -0.1)">
       <use xlink:href="#DejaVuSans-32"/>
       <use xlink:href="#DejaVuSans-30" x="63.623047"/>
       <use xlink:href="#DejaVuSans-25" x="127.246094"/>
      </g>
     </g>
    </g>
    <g id="ytick_3">
     <g id="line2d_41">
      <path d="M 54.053321 171 
L 891.053321 171 
" clip-path="url(#pe2a538c0af)" style="fill: none; stroke: #ffffff; stroke-linecap: round"/>
     </g>
     <g id="line2d_42"/>
     <g id="text_21">
      <!-- 40% -->
      <g style="fill: #262626" transform="translate(24.826759 174.799219) scale(0.1 -0.1)">
       <defs>
        <path id="DejaVuSans-34" d="M 2419 4116 
L 825 1625 
L 2419 1625 
L 2419 4116 
z
M 2253 4666 
L 3047 4666 
L 3047 1625 
L 3713 1625 
L 3713 1100 
L 3047 1100 
L 3047 0 
L 2419 0 
L 2419 1100 
L 313 1100 
L 313 1709 
L 2253 4666 
z
" transform="scale(0.015625)"/>
       </defs>
       <use xlink:href="#DejaVuSans-34"/>
       <use xlink:href="#DejaVuSans-30" x="63.623047"/>
       <use xlink:href="#DejaVuSans-25" x="127.246094"/>
      </g>
     </g>
    </g>
    <g id="ytick_4">
     <g id="line2d_43">
      <path d="M 54.053321 120.6 
L 891.053321 120.6 
" clip-path="url(#pe2a538c0af)" style="fill: none; stroke: #ffffff; stroke-linecap: round"/>
     </g>
     <g id="line2d_44"/>
     <g id="text_22">
      <!-- 60% -->
      <g style="fill: #262626" transform="translate(24.826759 124.399219) scale(0.1 -0.1)">
       <defs>
        <path id="DejaVuSans-36" d="M 2113 2584 
Q 1688 2584 1439 2293 
Q 1191 2003 1191 1497 
Q 1191 994 1439 701 
Q 1688 409 2113 409 
Q 2538 409 2786 701 
Q 3034 994 3034 1497 
Q 3034 2003 2786 2293 
Q 2538 2584 2113 2584 
z
M 3366 4563 
L 3366 3988 
Q 3128 4100 2886 4159 
Q 2644 4219 2406 4219 
Q 1781 4219 1451 3797 
Q 1122 3375 1075 2522 
Q 1259 2794 1537 2939 
Q 1816 3084 2150 3084 
Q 2853 3084 3261 2657 
Q 3669 2231 3669 1497 
Q 3669 778 3244 343 
Q 2819 -91 2113 -91 
Q 1303 -91 875 529 
Q 447 1150 447 2328 
Q 447 3434 972 4092 
Q 1497 4750 2381 4750 
Q 2619 4750 2861 4703 
Q 3103 4656 3366 4563 
z
" transform="scale(0.015625)"/>
       </defs>
       <use xlink:href="#DejaVuSans-36"/>
       <use xlink:href="#DejaVuSans-30" x="63.623047"/>
       <use xlink:href="#DejaVuSans-25" x="127.246094"/>
      </g>
     </g>
    </g>
    <g id="ytick_5">
     <g id="line2d_45">
      <path d="M 54.053321 70.2 
L 891.053321 70.2 
" clip-path="url(#pe2a538c0af)" style="fill: none; stroke: #ffffff; stroke-linecap: round"/>
     </g>
     <g id="line2d_46"/>
     <g id="text_23">
      <!-- 80% -->
      <g style="fill: #262626" transform="translate(24.826759 73.999219) scale(0.1 -0.1)">
       <defs>
        <path id="DejaVuSans-38" d="M 2034 2216 
Q 1584 2216 1326 1975 
Q 1069 1734 1069 1313 
Q 1069 891 1326 650 
Q 1584 409 2034 409 
Q 2484 409 2743 651 
Q 3003 894 3003 1313 
Q 3003 1734 2745 1975 
Q 2488 2216 2034 2216 
z
M 1403 2484 
Q 997 2584 770 2862 
Q 544 3141 544 3541 
Q 544 4100 942 4425 
Q 1341 4750 2034 4750 
Q 2731 4750 3128 4425 
Q 3525 4100 3525 3541 
Q 3525 3141 3298 2862 
Q 3072 2584 2669 2484 
Q 3125 2378 3379 2068 
Q 3634 1759 3634 1313 
Q 3634 634 3220 271 
Q 2806 -91 2034 -91 
Q 1263 -91 848 271 
Q 434 634 434 1313 
Q 434 1759 690 2068 
Q 947 2378 1403 2484 
z
M 1172 3481 
Q 1172 3119 1398 2916 
Q 1625 2713 2034 2713 
Q 2441 2713 2670 2916 
Q 2900 3119 2900 3481 
Q 2900 3844 2670 4047 
Q 2441 4250 2034 4250 
Q 1625 4250 1398 4047 
Q 1172 3844 1172 3481 
z
" transform="scale(0.015625)"/>
       </defs>
       <use xlink:href="#DejaVuSans-38"/>
       <use xlink:href="#DejaVuSans-30" x="63.623047"/>
       <use xlink:href="#DejaVuSans-25" x="127.246094"/>
      </g>
     </g>
    </g>
    <g id="ytick_6">
     <g id="line2d_47">
      <path d="M 54.053321 19.8 
L 891.053321 19.8 
" clip-path="url(#pe2a538c0af)" style="fill: none; stroke: #ffffff; stroke-linecap: round"/>
     </g>
     <g id="line2d_48"/>
     <g id="text_24">
      <!-- 100% -->
      <g style="fill: #262626" transform="translate(18.464259 23.599219) scale(0.1 -0.1)">
       <use xlink:href="#DejaVuSans-31"/>
       <use xlink:href="#DejaVuSans-30" x="63.623047"/>
       <use xlink:href="#DejaVuSans-30" x="127.246094"/>
       <use xlink:href="#DejaVuSans-25" x="190.869141"/>
      </g>
     </g>
    </g>
   </g>
   <g id="PathCollection_1">
    <path d="M 92.098776 47.150581 
C 92.669117 47.150581 93.216174 46.923983 93.619466 46.520691 
C 94.022758 46.117399 94.249357 45.570341 94.249357 45 
C 94.249357 44.429659 94.022758 43.882601 93.619466 43.479309 
C 93.216174 43.076017 92.669117 42.849419 92.098776 42.849419 
C 91.528435 42.849419 90.981377 43.076017 90.578085 43.479309 
C 90.174793 43.882601 89.948194 44.429659 89.948194 45 
C 89.948194 45.570341 90.174793 46.117399 90.578085 46.520691 
C 90.981377 46.923983 91.528435 47.150581 92.098776 47.150581 
z
" clip-path="url(#pe2a538c0af)" style="fill: #4c72b0; stroke: #ffffff; stroke-width: 0.224143"/>
    <path d="M 136.858134 172.658312 
C 137.297924 172.658312 137.71976 172.483582 138.030738 172.172604 
C 138.341716 171.861626 138.516446 171.43979 138.516446 171 
C 138.516446 170.56021 138.341716 170.138374 138.030738 169.827396 
C 137.71976 169.516418 137.297924 169.341688 136.858134 169.341688 
C 136.418344 169.341688 135.996508 169.516418 135.68553 169.827396 
C 135.374552 170.138374 135.199822 170.56021 135.199822 171 
C 135.199822 171.43979 135.374552 171.861626 135.68553 172.172604 
C 135.996508 172.483582 136.418344 172.658312 136.858134 172.658312 
z
" clip-path="url(#pe2a538c0af)" style="fill: #4c72b0; stroke: #ffffff; stroke-width: 0.224143"/>
    <path d="M 181.617492 47.150581 
C 182.187833 47.150581 182.734891 46.923983 183.138183 46.520691 
C 183.541475 46.117399 183.768074 45.570341 183.768074 45 
C 183.768074 44.429659 183.541475 43.882601 183.138183 43.479309 
C 182.734891 43.076017 182.187833 42.849419 181.617492 42.849419 
C 181.047151 42.849419 180.500093 43.076017 180.096802 43.479309 
C 179.69351 43.882601 179.466911 44.429659 179.466911 45 
C 179.466911 45.570341 179.69351 46.117399 180.096802 46.520691 
C 180.500093 46.923983 181.047151 47.150581 181.617492 47.150581 
z
" clip-path="url(#pe2a538c0af)" style="fill: #4c72b0; stroke: #ffffff; stroke-width: 0.224143"/>
    <path d="M 226.376851 97.368502 
C 226.898903 97.368502 227.399645 97.161088 227.768792 96.791941 
C 228.137939 96.422794 228.345353 95.922053 228.345353 95.4 
C 228.345353 94.877947 228.137939 94.377206 227.768792 94.008059 
C 227.399645 93.638912 226.898903 93.431498 226.376851 93.431498 
C 225.854798 93.431498 225.354057 93.638912 224.984909 94.008059 
C 224.615762 94.377206 224.408349 94.877947 224.408349 95.4 
C 224.408349 95.922053 224.615762 96.422794 224.984909 96.791941 
C 225.354057 97.161088 225.854798 97.368502 226.376851 97.368502 
z
" clip-path="url(#pe2a538c0af)" style="fill: #4c72b0; stroke: #ffffff; stroke-width: 0.224143"/>
    <path d="M 271.136209 84.815564 
C 271.670743 84.815564 272.183456 84.603192 272.561428 84.225219 
C 272.939401 83.847247 273.151773 83.334534 273.151773 82.8 
C 273.151773 82.265466 272.939401 81.752753 272.561428 81.374781 
C 272.183456 80.996808 271.670743 80.784436 271.136209 80.784436 
C 270.601675 80.784436 270.088962 80.996808 269.71099 81.374781 
C 269.333017 81.752753 269.120644 82.265466 269.120644 82.8 
C 269.120644 83.334534 269.333017 83.847247 269.71099 84.225219 
C 270.088962 84.603192 270.601675 84.815564 271.136209 84.815564 
z
" clip-path="url(#pe2a538c0af)" style="fill: #4c72b0; stroke: #ffffff; stroke-width: 0.224143"/>
    <path d="M 360.654925 260.398958 
C 360.972893 260.398958 361.27788 260.272628 361.502717 260.047791 
C 361.727554 259.822954 361.853883 259.517967 361.853883 259.2 
C 361.853883 258.882033 361.727554 258.577046 361.502717 258.352209 
C 361.27788 258.127372 360.972893 258.001042 360.654925 258.001042 
C 360.336958 258.001042 360.031971 258.127372 359.807134 258.352209 
C 359.582297 258.577046 359.455968 258.882033 359.455968 259.2 
C 359.455968 259.517967 359.582297 259.822954 359.807134 260.047791 
C 360.031971 260.272628 360.336958 260.398958 360.654925 260.398958 
z
" clip-path="url(#pe2a538c0af)" style="fill: #4c72b0; stroke: #ffffff; stroke-width: 0.224143"/>
    <path d="M 405.414284 22.036068 
C 406.007296 22.036068 406.5761 21.800462 406.995423 21.381139 
C 407.414745 20.961816 407.650352 20.393012 407.650352 19.8 
C 407.650352 19.206988 407.414745 18.638184 406.995423 18.218861 
C 406.5761 17.799538 406.007296 17.563932 405.414284 17.563932 
C 404.821272 17.563932 404.252468 17.799538 403.833145 18.218861 
C 403.413822 18.638184 403.178216 19.206988 403.178216 19.8 
C 403.178216 20.393012 403.413822 20.961816 403.833145 21.381139 
C 404.252468 21.800462 404.821272 22.036068 405.414284 22.036068 
z
" clip-path="url(#pe2a538c0af)" style="fill: #4c72b0; stroke: #ffffff; stroke-width: 0.224143"/>
    <path d="M 450.173642 59.706537 
C 450.732302 59.706537 451.268156 59.484579 451.663189 59.089547 
C 452.058221 58.694514 452.280179 58.15866 452.280179 57.6 
C 452.280179 57.04134 452.058221 56.505486 451.663189 56.110453 
C 451.268156 55.715421 450.732302 55.493463 450.173642 55.493463 
C 449.614982 55.493463 449.079128 55.715421 448.684095 56.110453 
C 448.289063 56.505486 448.067105 57.04134 448.067105 57.6 
C 448.067105 58.15866 448.289063 58.694514 448.684095 59.089547 
C 449.079128 59.484579 449.614982 59.706537 450.173642 59.706537 
z
" clip-path="url(#pe2a538c0af)" style="fill: #4c72b0; stroke: #ffffff; stroke-width: 0.224143"/>
    <path d="M 584.451717 122.470829 
C 584.947866 122.470829 585.423762 122.273706 585.774593 121.922876 
C 586.125423 121.572045 586.322546 121.09615 586.322546 120.6 
C 586.322546 120.10385 586.125423 119.627955 585.774593 119.277124 
C 585.423762 118.926294 584.947866 118.729171 584.451717 118.729171 
C 583.955567 118.729171 583.479672 118.926294 583.128841 119.277124 
C 582.77801 119.627955 582.580888 120.10385 582.580888 120.6 
C 582.580888 121.09615 582.77801 121.572045 583.128841 121.922876 
C 583.479672 122.273706 583.955567 122.470829 584.451717 122.470829 
z
" clip-path="url(#pe2a538c0af)" style="fill: #4c72b0; stroke: #ffffff; stroke-width: 0.224143"/>
    <path d="M 629.211075 122.470829 
C 629.707225 122.470829 630.18312 122.273706 630.533951 121.922876 
C 630.884782 121.572045 631.081904 121.09615 631.081904 120.6 
C 631.081904 120.10385 630.884782 119.627955 630.533951 119.277124 
C 630.18312 118.926294 629.707225 118.729171 629.211075 118.729171 
C 628.714926 118.729171 628.23903 118.926294 627.888199 119.277124 
C 627.537369 119.627955 627.340246 120.10385 627.340246 120.6 
C 627.340246 121.09615 627.537369 121.572045 627.888199 121.922876 
C 628.23903 122.273706 628.714926 122.470829 629.211075 122.470829 
z
" clip-path="url(#pe2a538c0af)" style="fill: #4c72b0; stroke: #ffffff; stroke-width: 0.224143"/>
    <path d="M 673.970433 109.920286 
C 674.479699 109.920286 674.968176 109.717953 675.328281 109.357848 
C 675.688386 108.997742 675.89072 108.509266 675.89072 108 
C 675.89072 107.490734 675.688386 107.002258 675.328281 106.642152 
C 674.968176 106.282047 674.479699 106.079714 673.970433 106.079714 
C 673.461168 106.079714 672.972691 106.282047 672.612586 106.642152 
C 672.25248 107.002258 672.050147 107.490734 672.050147 108 
C 672.050147 108.509266 672.25248 108.997742 672.612586 109.357848 
C 672.972691 109.717953 673.461168 109.920286 673.970433 109.920286 
z
" clip-path="url(#pe2a538c0af)" style="fill: #4c72b0; stroke: #ffffff; stroke-width: 0.224143"/>
    <path d="M 718.729792 34.593741 
C 719.311579 34.593741 719.869615 34.362595 720.281001 33.951209 
C 720.692386 33.539824 720.923533 32.981787 720.923533 32.4 
C 720.923533 31.818213 720.692386 31.260176 720.281001 30.848791 
C 719.869615 30.437405 719.311579 30.206259 718.729792 30.206259 
C 718.148005 30.206259 717.589968 30.437405 717.178583 30.848791 
C 716.767197 31.260176 716.536051 31.818213 716.536051 32.4 
C 716.536051 32.981787 716.767197 33.539824 717.178583 33.951209 
C 717.589968 34.362595 718.148005 34.593741 718.729792 34.593741 
z
" clip-path="url(#pe2a538c0af)" style="fill: #4c72b0; stroke: #ffffff; stroke-width: 0.224143"/>
    <path d="M 763.48915 47.150581 
C 764.059491 47.150581 764.606549 46.923983 765.009841 46.520691 
C 765.413133 46.117399 765.639731 45.570341 765.639731 45 
C 765.639731 44.429659 765.413133 43.882601 765.009841 43.479309 
C 764.606549 43.076017 764.059491 42.849419 763.48915 42.849419 
C 762.918809 42.849419 762.371751 43.076017 761.968459 43.479309 
C 761.565168 43.882601 761.338569 44.429659 761.338569 45 
C 761.338569 45.570341 761.565168 46.117399 761.968459 46.520691 
C 762.371751 46.923983 762.918809 47.150581 763.48915 47.150581 
z
" clip-path="url(#pe2a538c0af)" style="fill: #4c72b0; stroke: #ffffff; stroke-width: 0.224143"/>
    <path d="M 808.248508 147.567767 
C 808.717326 147.567767 809.167004 147.381504 809.498508 147.05 
C 809.830012 146.718496 810.016275 146.268817 810.016275 145.8 
C 810.016275 145.331183 809.830012 144.881504 809.498508 144.55 
C 809.167004 144.218496 808.717326 144.032233 808.248508 144.032233 
C 807.779691 144.032233 807.330012 144.218496 806.998508 144.55 
C 806.667004 144.881504 806.480741 145.331183 806.480741 145.8 
C 806.480741 146.268817 806.667004 146.718496 806.998508 147.05 
C 807.330012 147.381504 807.779691 147.567767 808.248508 147.567767 
z
" clip-path="url(#pe2a538c0af)" style="fill: #4c72b0; stroke: #ffffff; stroke-width: 0.224143"/>
    <path d="M 853.007867 272.918034 
C 853.304373 272.918034 853.588775 272.800231 853.798436 272.590569 
C 854.008097 272.380908 854.125901 272.096506 854.125901 271.8 
C 854.125901 271.503494 854.008097 271.219092 853.798436 271.009431 
C 853.588775 270.799769 853.304373 270.681966 853.007867 270.681966 
C 852.711361 270.681966 852.426959 270.799769 852.217297 271.009431 
C 852.007636 271.219092 851.889833 271.503494 851.889833 271.8 
C 851.889833 272.096506 852.007636 272.380908 852.217297 272.590569 
C 852.426959 272.800231 852.711361 272.918034 853.007867 272.918034 
z
" clip-path="url(#pe2a538c0af)" style="fill: #4c72b0; stroke: #ffffff; stroke-width: 0.224143"/>
   </g>
   <g id="PathCollection_2">
    <path d="M 92.098776 23.154102 
C 92.988294 23.154102 93.8415 22.800693 94.470484 22.171708 
C 95.099468 21.542724 95.452878 20.689518 95.452878 19.8 
C 95.452878 18.910482 95.099468 18.057276 94.470484 17.428292 
C 93.8415 16.799307 92.988294 16.445898 92.098776 16.445898 
C 91.209257 16.445898 90.356052 16.799307 89.727067 17.428292 
C 89.098083 18.057276 88.744674 18.910482 88.744674 19.8 
C 88.744674 20.689518 89.098083 21.542724 89.727067 22.171708 
C 90.356052 22.800693 91.209257 23.154102 92.098776 23.154102 
z
" clip-path="url(#pe2a538c0af)" style="fill: #55a868; stroke: #ffffff; stroke-width: 0.204673"/>
    <path d="M 136.858134 62.107908 
C 137.682361 62.107908 138.47294 61.780439 139.055757 61.197623 
C 139.638573 60.614806 139.966042 59.824227 139.966042 59 
C 139.966042 58.175773 139.638573 57.385194 139.055757 56.802377 
C 138.47294 56.219561 137.682361 55.892092 136.858134 55.892092 
C 136.033907 55.892092 135.243328 56.219561 134.660511 56.802377 
C 134.077695 57.385194 133.750226 58.175773 133.750226 59 
C 133.750226 59.824227 134.077695 60.614806 134.660511 61.197623 
C 135.243328 61.780439 136.033907 62.107908 136.858134 62.107908 
z
" clip-path="url(#pe2a538c0af)" style="fill: #55a868; stroke: #ffffff; stroke-width: 0.204673"/>
    <path d="M 181.617492 34.285644 
C 182.488855 34.285644 183.324647 33.939448 183.940793 33.323301 
C 184.55694 32.707154 184.903136 31.871363 184.903136 31 
C 184.903136 30.128637 184.55694 29.292846 183.940793 28.676699 
C 183.324647 28.060552 182.488855 27.714356 181.617492 27.714356 
C 180.746129 27.714356 179.910338 28.060552 179.294191 28.676699 
C 178.678045 29.292846 178.331849 30.128637 178.331849 31 
C 178.331849 31.871363 178.678045 32.707154 179.294191 33.323301 
C 179.910338 33.939448 180.746129 34.285644 181.617492 34.285644 
z
" clip-path="url(#pe2a538c0af)" style="fill: #55a868; stroke: #ffffff; stroke-width: 0.204673"/>
    <path d="M 226.376851 73.233899 
C 227.18145 73.233899 227.953204 72.914229 228.522141 72.345291 
C 229.091079 71.776353 229.41075 71.0046 229.41075 70.2 
C 229.41075 69.3954 229.091079 68.623647 228.522141 68.054709 
C 227.953204 67.485771 227.18145 67.166101 226.376851 67.166101 
C 225.572251 67.166101 224.800498 67.485771 224.23156 68.054709 
C 223.662622 68.623647 223.342951 69.3954 223.342951 70.2 
C 223.342951 71.0046 223.662622 71.776353 224.23156 72.345291 
C 224.800498 72.914229 225.572251 73.233899 226.376851 73.233899 
z
" clip-path="url(#pe2a538c0af)" style="fill: #55a868; stroke: #ffffff; stroke-width: 0.204673"/>
    <path d="M 271.136209 39.850874 
C 271.998351 39.850874 272.825298 39.508341 273.434924 38.898715 
C 274.04455 38.289089 274.387083 37.462142 274.387083 36.6 
C 274.387083 35.737858 274.04455 34.910911 273.434924 34.301285 
C 272.825298 33.691659 271.998351 33.349126 271.136209 33.349126 
C 270.274067 33.349126 269.44712 33.691659 268.837494 34.301285 
C 268.227867 34.910911 267.885335 35.737858 267.885335 36.6 
C 267.885335 37.462142 268.227867 38.289089 268.837494 38.898715 
C 269.44712 39.508341 270.274067 39.850874 271.136209 39.850874 
z
" clip-path="url(#pe2a538c0af)" style="fill: #55a868; stroke: #ffffff; stroke-width: 0.204673"/>
    <path d="M 315.895567 105.015431 
C 316.217903 105.015431 316.527081 104.887366 316.755007 104.65944 
C 316.982933 104.431514 317.110998 104.122336 317.110998 103.8 
C 317.110998 103.477664 316.982933 103.168486 316.755007 102.94056 
C 316.527081 102.712634 316.217903 102.584569 315.895567 102.584569 
C 315.573231 102.584569 315.264054 102.712634 315.036128 102.94056 
C 314.808202 103.168486 314.680136 103.477664 314.680136 103.8 
C 314.680136 104.122336 314.808202 104.431514 315.036128 104.65944 
C 315.264054 104.887366 315.573231 105.015431 315.895567 105.015431 
z
" clip-path="url(#pe2a538c0af)" style="fill: #55a868; stroke: #ffffff; stroke-width: 0.204673"/>
    <path d="M 360.654925 84.35804 
C 361.439407 84.35804 362.191863 84.046362 362.746575 83.49165 
C 363.301288 82.936938 363.612965 82.184481 363.612965 81.4 
C 363.612965 80.615519 363.301288 79.863062 362.746575 79.30835 
C 362.191863 78.753638 361.439407 78.44196 360.654925 78.44196 
C 359.870444 78.44196 359.117987 78.753638 358.563275 79.30835 
C 358.008563 79.863062 357.696886 80.615519 357.696886 81.4 
C 357.696886 82.184481 358.008563 82.936938 358.563275 83.49165 
C 359.117987 84.046362 359.870444 84.35804 360.654925 84.35804 
z
" clip-path="url(#pe2a538c0af)" style="fill: #55a868; stroke: #ffffff; stroke-width: 0.204673"/>
    <path d="M 405.414284 23.154102 
C 406.303802 23.154102 407.157008 22.800693 407.785992 22.171708 
C 408.414976 21.542724 408.768386 20.689518 408.768386 19.8 
C 408.768386 18.910482 408.414976 18.057276 407.785992 17.428292 
C 407.157008 16.799307 406.303802 16.445898 405.414284 16.445898 
C 404.524765 16.445898 403.67156 16.799307 403.042575 17.428292 
C 402.413591 18.057276 402.060182 18.910482 402.060182 19.8 
C 402.060182 20.689518 402.413591 21.542724 403.042575 22.171708 
C 403.67156 22.800693 404.524765 23.154102 405.414284 23.154102 
z
" clip-path="url(#pe2a538c0af)" style="fill: #55a868; stroke: #ffffff; stroke-width: 0.204673"/>
    <path d="M 450.173642 23.154102 
C 451.06316 23.154102 451.916366 22.800693 452.54535 22.171708 
C 453.174335 21.542724 453.527744 20.689518 453.527744 19.8 
C 453.527744 18.910482 453.174335 18.057276 452.54535 17.428292 
C 451.916366 16.799307 451.06316 16.445898 450.173642 16.445898 
C 449.284124 16.445898 448.430918 16.799307 447.801934 17.428292 
C 447.172949 18.057276 446.81954 18.910482 446.81954 19.8 
C 446.81954 20.689518 447.172949 21.542724 447.801934 22.171708 
C 448.430918 22.800693 449.284124 23.154102 450.173642 23.154102 
z
" clip-path="url(#pe2a538c0af)" style="fill: #55a868; stroke: #ffffff; stroke-width: 0.204673"/>
    <path d="M 494.933 20.918034 
C 495.229506 20.918034 495.513908 20.800231 495.72357 20.590569 
C 495.933231 20.380908 496.051034 20.096506 496.051034 19.8 
C 496.051034 19.503494 495.933231 19.219092 495.72357 19.009431 
C 495.513908 18.799769 495.229506 18.681966 494.933 18.681966 
C 494.636494 18.681966 494.352092 18.799769 494.142431 19.009431 
C 493.932769 19.219092 493.814966 19.503494 493.814966 19.8 
C 493.814966 20.096506 493.932769 20.380908 494.142431 20.590569 
C 494.352092 20.800231 494.636494 20.918034 494.933 20.918034 
z
" clip-path="url(#pe2a538c0af)" style="fill: #55a868; stroke: #ffffff; stroke-width: 0.204673"/>
    <path d="M 539.692359 84.105582 
C 540.038603 84.105582 540.370713 83.968018 540.615545 83.723186 
C 540.860377 83.478354 540.997941 83.146245 540.997941 82.8 
C 540.997941 82.453755 540.860377 82.121646 540.615545 81.876814 
C 540.370713 81.631982 540.038603 81.494418 539.692359 81.494418 
C 539.346114 81.494418 539.014004 81.631982 538.769172 81.876814 
C 538.524341 82.121646 538.386776 82.453755 538.386776 82.8 
C 538.386776 83.146245 538.524341 83.478354 538.769172 83.723186 
C 539.014004 83.968018 539.346114 84.105582 539.692359 84.105582 
z
" clip-path="url(#pe2a538c0af)" style="fill: #55a868; stroke: #ffffff; stroke-width: 0.204673"/>
    <path d="M 584.451717 34.285644 
C 585.32308 34.285644 586.158871 33.939448 586.775018 33.323301 
C 587.391164 32.707154 587.737361 31.871363 587.737361 31 
C 587.737361 30.128637 587.391164 29.292846 586.775018 28.676699 
C 586.158871 28.060552 585.32308 27.714356 584.451717 27.714356 
C 583.580354 27.714356 582.744563 28.060552 582.128416 28.676699 
C 581.512269 29.292846 581.166073 30.128637 581.166073 31 
C 581.166073 31.871363 581.512269 32.707154 582.128416 33.323301 
C 582.744563 33.939448 583.580354 34.285644 584.451717 34.285644 
z
" clip-path="url(#pe2a538c0af)" style="fill: #55a868; stroke: #ffffff; stroke-width: 0.204673"/>
    <path d="M 629.211075 81.324022 
C 629.985301 81.324022 630.727922 81.016419 631.275382 80.468958 
C 631.822843 79.921498 632.130446 79.178877 632.130446 78.404651 
C 632.130446 77.630425 631.822843 76.887805 631.275382 76.340344 
C 630.727922 75.792883 629.985301 75.48528 629.211075 75.48528 
C 628.436849 75.48528 627.694229 75.792883 627.146768 76.340344 
C 626.599307 76.887805 626.291704 77.630425 626.291704 78.404651 
C 626.291704 79.178877 626.599307 79.921498 627.146768 80.468958 
C 627.694229 81.016419 628.436849 81.324022 629.211075 81.324022 
z
" clip-path="url(#pe2a538c0af)" style="fill: #55a868; stroke: #ffffff; stroke-width: 0.204673"/>
    <path d="M 673.970433 48.642364 
C 674.765038 48.642364 675.527204 48.326664 676.089074 47.764794 
C 676.650944 47.202924 676.966643 46.440758 676.966643 45.646154 
C 676.966643 44.85155 676.650944 44.089384 676.089074 43.527514 
C 675.527204 42.965644 674.765038 42.649944 673.970433 42.649944 
C 673.175829 42.649944 672.413663 42.965644 671.851793 43.527514 
C 671.289923 44.089384 670.974224 44.85155 670.974224 45.646154 
C 670.974224 46.440758 671.289923 47.202924 671.851793 47.764794 
C 672.413663 48.326664 673.175829 48.642364 673.970433 48.642364 
z
" clip-path="url(#pe2a538c0af)" style="fill: #55a868; stroke: #ffffff; stroke-width: 0.204673"/>
    <path d="M 718.729792 62.107908 
C 719.554019 62.107908 720.344598 61.780439 720.927414 61.197623 
C 721.510231 60.614806 721.8377 59.824227 721.8377 59 
C 721.8377 58.175773 721.510231 57.385194 720.927414 56.802377 
C 720.344598 56.219561 719.554019 55.892092 718.729792 55.892092 
C 717.905565 55.892092 717.114985 56.219561 716.532169 56.802377 
C 715.949353 57.385194 715.621884 58.175773 715.621884 59 
C 715.621884 59.824227 715.949353 60.614806 716.532169 61.197623 
C 717.114985 61.780439 717.905565 62.107908 718.729792 62.107908 
z
" clip-path="url(#pe2a538c0af)" style="fill: #55a868; stroke: #ffffff; stroke-width: 0.204673"/>
    <path d="M 763.48915 84.35804 
C 764.273631 84.35804 765.026088 84.046362 765.5808 83.49165 
C 766.135512 82.936938 766.44719 82.184481 766.44719 81.4 
C 766.44719 80.615519 766.135512 79.863062 765.5808 79.30835 
C 765.026088 78.753638 764.273631 78.44196 763.48915 78.44196 
C 762.704669 78.44196 761.952212 78.753638 761.3975 79.30835 
C 760.842788 79.863062 760.53111 80.615519 760.53111 81.4 
C 760.53111 82.184481 760.842788 82.936938 761.3975 83.49165 
C 761.952212 84.046362 762.704669 84.35804 763.48915 84.35804 
z
" clip-path="url(#pe2a538c0af)" style="fill: #55a868; stroke: #ffffff; stroke-width: 0.204673"/>
    <path d="M 808.248508 56.544259 
C 809.082375 56.544259 809.882202 56.21296 810.471835 55.623327 
C 811.061468 55.033694 811.392767 54.233867 811.392767 53.4 
C 811.392767 52.566133 811.061468 51.766306 810.471835 51.176673 
C 809.882202 50.58704 809.082375 50.255741 808.248508 50.255741 
C 807.414641 50.255741 806.614815 50.58704 806.025182 51.176673 
C 805.435548 51.766306 805.104249 52.566133 805.104249 53.4 
C 805.104249 54.233867 805.435548 55.033694 806.025182 55.623327 
C 806.614815 56.21296 807.414641 56.544259 808.248508 56.544259 
z
" clip-path="url(#pe2a538c0af)" style="fill: #55a868; stroke: #ffffff; stroke-width: 0.204673"/>
    <path d="M 853.007867 228.6855 
C 853.454866 228.6855 853.883618 228.507905 854.199695 228.191828 
C 854.515771 227.875752 854.693366 227.447 854.693366 227 
C 854.693366 226.553 854.515771 226.124248 854.199695 225.808172 
C 853.883618 225.492095 853.454866 225.3145 853.007867 225.3145 
C 852.560867 225.3145 852.132115 225.492095 851.816038 225.808172 
C 851.499962 226.124248 851.322367 226.553 851.322367 227 
C 851.322367 227.447 851.499962 227.875752 851.816038 228.191828 
C 852.132115 228.507905 852.560867 228.6855 853.007867 228.6855 
z
" clip-path="url(#pe2a538c0af)" style="fill: #55a868; stroke: #ffffff; stroke-width: 0.204673"/>
   </g>
   <g id="PathCollection_3"/>
   <g id="PathCollection_4"/>
   <g id="PathCollection_5"/>
   <g id="PathCollection_6"/>
   <g id="PathCollection_7"/>
   <g id="patch_3">
    <path d="M 54.053321 284.4 
L 54.053321 7.2 
" style="fill: none"/>
   </g>
   <g id="patch_4">
    <path d="M 891.053321 284.4 
L 891.053321 7.2 
" style="fill: none"/>
   </g>
   <g id="patch_5">
    <path d="M 54.053321 284.4 
L 891.053321 284.4 
" style="fill: none"/>
   </g>
   <g id="patch_6">
    <path d="M 54.053321 7.2 
L 891.053321 7.2 
" style="fill: none"/>
   </g>
   <g id="legend_1">
    <g id="PathCollection_8">
     <defs>
      <path id="m0d095a3108" d="M 0 1.6855 
C 0.447 1.6855 0.875752 1.507905 1.191828 1.191828 
C 1.507905 0.875752 1.6855 0.447 1.6855 0 
C 1.6855 -0.447 1.507905 -0.875752 1.191828 -1.191828 
C 0.875752 -1.507905 0.447 -1.6855 0 -1.6855 
C -0.447 -1.6855 -0.875752 -1.507905 -1.191828 -1.191828 
C -1.507905 -0.875752 -1.6855 -0.447 -1.6855 0 
C -1.6855 0.447 -1.507905 0.875752 -1.191828 1.191828 
C -0.875752 1.507905 -0.447 1.6855 0 1.6855 
z
" style="stroke: #333333; stroke-width: 0.3"/>
     </defs>
     <g>
      <use xlink:href="#m0d095a3108" x="921.793321" y="140.913437" style="fill: #333333; stroke: #333333; stroke-width: 0.3"/>
     </g>
    </g>
    <g id="text_25">
     <!-- 8 -->
     <g style="fill: #262626" transform="translate(939.793321 143.538437) scale(0.1 -0.1)">
      <use xlink:href="#DejaVuSans-38"/>
     </g>
    </g>
    <g id="PathCollection_9">
     <defs>
      <path id="m36bffcf7ee" d="M 0 2.158493 
C 0.572439 2.158493 1.121509 1.93106 1.526285 1.526285 
C 1.93106 1.121509 2.158493 0.572439 2.158493 0 
C 2.158493 -0.572439 1.93106 -1.121509 1.526285 -1.526285 
C 1.121509 -1.93106 0.572439 -2.158493 0 -2.158493 
C -0.572439 -2.158493 -1.121509 -1.93106 -1.526285 -1.526285 
C -1.93106 -1.121509 -2.158493 -0.572439 -2.158493 0 
C -2.158493 0.572439 -1.93106 1.121509 -1.526285 1.526285 
C -1.121509 1.93106 -0.572439 2.158493 0 2.158493 
z
" style="stroke: #333333; stroke-width: 0.3"/>
     </defs>
     <g>
      <use xlink:href="#m36bffcf7ee" x="921.793321" y="155.591562" style="fill: #333333; stroke: #333333; stroke-width: 0.3"/>
     </g>
    </g>
    <g id="text_26">
     <!-- 16 -->
     <g style="fill: #262626" transform="translate(939.793321 158.216562) scale(0.1 -0.1)">
      <use xlink:href="#DejaVuSans-31"/>
      <use xlink:href="#DejaVuSans-36" x="63.623047"/>
     </g>
    </g>
    <g id="PathCollection_10">
     <defs>
      <path id="m36dc103133" d="M 0 2.545049 
C 0.674955 2.545049 1.322356 2.276886 1.799621 1.799621 
C 2.276886 1.322356 2.545049 0.674955 2.545049 0 
C 2.545049 -0.674955 2.276886 -1.322356 1.799621 -1.799621 
C 1.322356 -2.276886 0.674955 -2.545049 0 -2.545049 
C -0.674955 -2.545049 -1.322356 -2.276886 -1.799621 -1.799621 
C -2.276886 -1.322356 -2.545049 -0.674955 -2.545049 0 
C -2.545049 0.674955 -2.276886 1.322356 -1.799621 1.799621 
C -1.322356 2.276886 -0.674955 2.545049 0 2.545049 
z
" style="stroke: #333333; stroke-width: 0.3"/>
     </defs>
     <g>
      <use xlink:href="#m36dc103133" x="921.793321" y="170.269687" style="fill: #333333; stroke: #333333; stroke-width: 0.3"/>
     </g>
    </g>
    <g id="text_27">
     <!-- 24 -->
     <g style="fill: #262626" transform="translate(939.793321 172.894687) scale(0.1 -0.1)">
      <use xlink:href="#DejaVuSans-32"/>
      <use xlink:href="#DejaVuSans-34" x="63.623047"/>
     </g>
    </g>
    <g id="PathCollection_11">
     <defs>
      <path id="m954183a546" d="M 0 2.880183 
C 0.763833 2.880183 1.496485 2.576709 2.036597 2.036597 
C 2.576709 1.496485 2.880183 0.763833 2.880183 0 
C 2.880183 -0.763833 2.576709 -1.496485 2.036597 -2.036597 
C 1.496485 -2.576709 0.763833 -2.880183 0 -2.880183 
C -0.763833 -2.880183 -1.496485 -2.576709 -2.036597 -2.036597 
C -2.576709 -1.496485 -2.880183 -0.763833 -2.880183 0 
C -2.880183 0.763833 -2.576709 1.496485 -2.036597 2.036597 
C -1.496485 2.576709 -0.763833 2.880183 0 2.880183 
z
" style="stroke: #333333; stroke-width: 0.3"/>
     </defs>
     <g>
      <use xlink:href="#m954183a546" x="921.793321" y="184.947812" style="fill: #333333; stroke: #333333; stroke-width: 0.3"/>
     </g>
    </g>
    <g id="text_28">
     <!-- 32 -->
     <g style="fill: #262626" transform="translate(939.793321 187.572812) scale(0.1 -0.1)">
      <defs>
       <path id="DejaVuSans-33" d="M 2597 2516 
Q 3050 2419 3304 2112 
Q 3559 1806 3559 1356 
Q 3559 666 3084 287 
Q 2609 -91 1734 -91 
Q 1441 -91 1130 -33 
Q 819 25 488 141 
L 488 750 
Q 750 597 1062 519 
Q 1375 441 1716 441 
Q 2309 441 2620 675 
Q 2931 909 2931 1356 
Q 2931 1769 2642 2001 
Q 2353 2234 1838 2234 
L 1294 2234 
L 1294 2753 
L 1863 2753 
Q 2328 2753 2575 2939 
Q 2822 3125 2822 3475 
Q 2822 3834 2567 4026 
Q 2313 4219 1838 4219 
Q 1578 4219 1281 4162 
Q 984 4106 628 3988 
L 628 4550 
Q 988 4650 1302 4700 
Q 1616 4750 1894 4750 
Q 2613 4750 3031 4423 
Q 3450 4097 3450 3541 
Q 3450 3153 3228 2886 
Q 3006 2619 2597 2516 
z
" transform="scale(0.015625)"/>
      </defs>
      <use xlink:href="#DejaVuSans-33"/>
      <use xlink:href="#DejaVuSans-32" x="63.623047"/>
     </g>
    </g>
    <g id="PathCollection_12">
     <defs>
      <path id="md0b01d9b4f" d="M 0 3.180194 
C 0.843397 3.180194 1.652365 2.845109 2.248737 2.248737 
C 2.845109 1.652365 3.180194 0.843397 3.180194 0 
C 3.180194 -0.843397 2.845109 -1.652365 2.248737 -2.248737 
C 1.652365 -2.845109 0.843397 -3.180194 0 -3.180194 
C -0.843397 -3.180194 -1.652365 -2.845109 -2.248737 -2.248737 
C -2.845109 -1.652365 -3.180194 -0.843397 -3.180194 0 
C -3.180194 0.843397 -2.845109 1.652365 -2.248737 2.248737 
C -1.652365 2.845109 -0.843397 3.180194 0 3.180194 
z
" style="stroke: #333333; stroke-width: 0.3"/>
     </defs>
     <g>
      <use xlink:href="#md0b01d9b4f" x="921.793321" y="199.625937" style="fill: #333333; stroke: #333333; stroke-width: 0.3"/>
     </g>
    </g>
    <g id="text_29">
     <!-- 40 -->
     <g style="fill: #262626" transform="translate(939.793321 202.250937) scale(0.1 -0.1)">
      <use xlink:href="#DejaVuSans-34"/>
      <use xlink:href="#DejaVuSans-30" x="63.623047"/>
     </g>
    </g>
   </g>
  </g>
 </g>
 <defs>
  <clipPath id="pe2a538c0af">
   <rect x="54.053321" y="7.2" width="837" height="277.2"/>
  </clipPath>
 </defs>
</svg>
